<svg width="684" height="429" viewBox="0 0 684 429" fill="none" xmlns="http://www.w3.org/2000/svg">
<g clip-path="url(#clip0)">
<path d="M683.4 0H0V428.2H683.4V0Z" fill="#151B3F"/>
<path fill-rule="evenodd" clip-rule="evenodd" d="M592.8 94.7C596.9 96.8 600.6 99.5 603.9 102.5L615.8 98.3L627 116L618.1 125C619.5 129.3 620.3 133.8 620.4 138.4L631.8 143.8L627.2 164.2H614.6C612.5 168.3 609.8 172 606.7 175.3L610.9 187.2L593.2 198.4L584.2 189.5C579.9 190.9 575.4 191.7 570.8 191.8L565.4 203.2L545 198.6V186C540.9 183.9 537.2 181.2 533.9 178.1L522 182.3L510.8 164.6L519.7 155.6C518.3 151.3 517.5 146.8 517.4 142.2L506 137L510.6 116.6H523.2C525.3 112.5 528 108.8 531.1 105.5L526.9 93.6L544.6 82.4L553.6 91.3C557.9 89.9 562.4 89.1 567 89L572.4 77.6L592.8 82.2V94.7ZM574.8 118.7C562.7 116 550.7 123.6 548 135.7C545.3 147.8 552.9 159.8 565 162.5C577.1 165.2 589.1 157.6 591.8 145.5C594.5 133.4 586.9 121.4 574.8 118.7Z" fill="white"/>
<path d="M480.5 55.6C480.5 55.6 482 55.7 484.4 56.8C486.8 57.9 490.1 60.3 492.2 64.7C493.2 66.9 493.9 69.5 493.8 72.3C493.7 75.1 492.9 78.2 491.2 80.9C490.4 82.3 489.3 83.5 488 84.6C486.7 85.7 485.3 86.6 483.7 87.3C480.5 88.7 476.8 89.1 473.2 88.3C469.6 87.5 466.4 85.5 464.1 82.9C462.9 81.6 462 80.1 461.4 78.6C460.7 77.1 460.3 75.5 460.1 73.9C459.7 70.7 460.3 67.6 461.4 65C462.5 62.4 464.3 60.3 466.1 58.8C469.8 55.7 473.9 55 476.5 55C479.1 55.1 480.5 55.6 480.5 55.6C480.5 55.7 479.1 55.3 476.4 55.4C473.8 55.5 469.9 56.3 466.4 59.4C464.7 60.9 463 62.9 462 65.4C461 67.9 460.4 70.8 460.9 73.8C461.1 75.3 461.5 76.8 462.2 78.3C462.8 79.8 463.7 81.1 464.8 82.4C466.9 84.9 470 86.7 473.4 87.5C476.8 88.2 480.4 87.9 483.4 86.5C484.9 85.9 486.3 85 487.5 83.9C488.7 82.9 489.7 81.7 490.5 80.4C492.2 77.9 492.9 75 493.1 72.3C493.2 69.6 492.6 67.1 491.7 65C489.8 60.8 486.6 58.3 484.3 57.2C482 56 480.5 55.7 480.5 55.6Z" fill="white"/>
<path d="M493.8 37.9C493.8 37.9 493.8 37.7 493.8 37.3C493.8 36.9 493.8 36.3 493.8 35.5C493.8 33.9 493.7 31.5 493.7 28.5L493.8 28.6C489.9 27.8 484.9 26.6 478.7 25.3L479 25.2C477.8 27.8 476.5 30.6 475 33.6L474.9 33.8H474.7C471.6 33.9 468.2 34.5 464.9 35.5L464.7 35.6L464.6 35.5C462.5 33.5 460.3 31.2 458 28.9H458.4C454.3 31.5 449.9 34.3 445.4 37.2L445.6 36.8C446.6 39.5 447.6 42.5 448.7 45.6L448.8 45.8L448.6 46C446.5 48.3 444.5 51.1 442.9 54.2L442.8 54.4H442.6C439.7 54.4 436.5 54.4 433.3 54.4L433.7 54.1C432.6 58.8 431.5 63.9 430.3 69.2L430.1 68.7C432.7 69.9 435.6 71.3 438.5 72.7L438.7 72.8V73.1C438.8 76.2 439.4 79.6 440.4 82.9L440.5 83.2L440.3 83.4C438.2 85.5 436 87.7 433.7 90L433.8 89.4C436.4 93.5 439.2 98 442.1 102.4L441.5 102.2C444.3 101.2 447.3 100.1 450.3 99.1L450.6 99L450.8 99.2C453.1 101.3 455.9 103.3 458.9 104.9C459 105.1 458.6 104.5 459.2 105.3V105.4V105.5V105.8V106.4V107.6V109.9C459.2 111.5 459.2 113 459.2 114.6L458.8 114.1C463.9 115.2 468.9 116.4 473.9 117.5L473.4 117.8C474.7 115 476.1 112.2 477.4 109.4L477.5 109.1H477.8C481.2 109 484.5 108.4 487.6 107.4L487.9 107.3L488.1 107.5C490.3 109.7 492.5 111.9 494.7 114.1L494.1 114C498.6 111.2 502.9 108.4 507.1 105.8L506.9 106.3C505.8 103.3 504.8 100.4 503.8 97.5L503.7 97.3L503.9 97.1C506.2 94.6 508.1 91.9 509.6 89L509.7 88.8H509.9C513.1 88.8 516.2 88.8 519.2 88.8L518.8 89.1C520 83.8 521.1 78.8 522.2 74L522.4 74.4C519.4 73 516.7 71.7 514 70.4L513.8 70.3V70.1C513.7 66.5 513 63.3 512.1 60.3L512 60.1L512.1 60C514.5 57.6 516.7 55.4 518.7 53.4V53.7C515.5 48.6 512.8 44.3 510.5 40.6L510.8 40.7C507.3 41.9 504.4 42.9 502 43.8H501.9L501.8 43.7C499.3 41.4 497.2 40 495.8 39.1C495.1 38.7 494.6 38.4 494.2 38.1C494 38 493.8 37.9 493.8 37.9C493.8 37.9 494 38 494.4 38.2C494.8 38.4 495.3 38.7 496 39.1C497.4 40 499.6 41.3 502.1 43.6H501.9C504.3 42.7 507.2 41.7 510.7 40.4L510.9 40.3L511 40.4C513.4 44.1 516.1 48.4 519.3 53.4L519.4 53.6L519.2 53.8C517.2 55.9 515 58 512.6 60.4L512.7 60.1C513.7 63.1 514.3 66.5 514.5 70.1L514.3 69.8C517 71.1 519.8 72.4 522.7 73.8L523 73.9L522.9 74.2C521.8 79 520.7 84 519.6 89.3L519.5 89.6H519.2C516.2 89.6 513.1 89.6 509.9 89.6L510.3 89.4C508.8 92.4 506.8 95.2 504.5 97.7L504.6 97.3C505.6 100.2 506.7 103.1 507.7 106.1L507.8 106.4L507.5 106.6C503.3 109.3 498.9 112 494.5 114.9L494.2 115.1L493.9 114.8C491.7 112.6 489.5 110.4 487.3 108.2L487.8 108.3C484.6 109.3 481.2 109.9 477.8 110.1L478.2 109.8C476.9 112.6 475.5 115.4 474.2 118.2L474 118.5L473.6 118.4C468.6 117.3 463.6 116.2 458.5 115L458.1 114.9V114.5C458.1 113 458.1 111.4 458.1 109.8V107.5V106.3V105.7V105.4V105.3V105.2C458.6 106 458.2 105.4 458.4 105.6C455.3 104 452.5 101.9 450.1 99.7L450.6 99.8C447.6 100.9 444.6 101.9 441.8 102.9L441.4 103L441.2 102.7C438.4 98.2 435.6 93.8 432.9 89.7L432.7 89.4L433 89.1C435.3 86.8 437.5 84.6 439.6 82.5L439.5 83C438.4 79.6 437.9 76.2 437.8 73L438.1 73.4C435.2 72 432.3 70.6 429.7 69.4L429.4 69.2L429.5 68.9C430.7 63.7 431.8 58.6 432.9 53.8L433 53.5H433.3C436.5 53.5 439.7 53.5 442.6 53.5L442.2 53.7C443.8 50.5 445.9 47.7 448.1 45.4L448 45.8C446.9 42.7 445.9 39.7 444.9 37L444.8 36.7L445.1 36.5C449.7 33.6 454 30.9 458.2 28.3L458.4 28.2L458.6 28.4C460.9 30.7 463.1 32.9 465.2 35L464.9 34.9C468.3 33.8 471.7 33.3 474.9 33.2L474.7 33.4C476.2 30.4 477.5 27.5 478.7 25L478.8 24.8H479C485.1 26.2 490.2 27.4 494 28.3H494.1V28.4C494.1 31.4 494.1 33.7 494 35.3C494 36.1 494 36.7 494 37.1C493.8 37.7 493.8 37.9 493.8 37.9Z" fill="white"/>
<path d="M77.4003 268.6C77.4003 268.6 78.4003 268.8 79.9003 269.9C81.4003 270.9 83.4003 272.9 84.3003 276.1C84.7003 277.7 84.9003 279.5 84.5003 281.4C84.1003 283.3 83.3003 285.3 81.8003 286.9C81.1003 287.7 80.2003 288.5 79.2003 289.1C78.2003 289.7 77.1003 290.2 76.0003 290.5C73.7003 291.1 71.1003 291 68.7003 290C66.4003 289 64.4003 287.4 63.1003 285.3C62.5003 284.3 62.0003 283.2 61.7003 282.1C61.4003 281 61.3003 279.9 61.3003 278.8C61.4003 276.6 62.1003 274.6 63.1003 272.9C64.1003 271.3 65.6003 270 67.0003 269.2C69.9003 267.5 72.7003 267.5 74.5003 267.8C76.5003 268.1 77.4003 268.6 77.4003 268.6C77.4003 268.7 76.5003 268.2 74.7003 268C73.0003 267.8 70.2003 267.9 67.5003 269.6C66.2003 270.4 64.8003 271.6 63.9003 273.2C62.9003 274.8 62.2003 276.7 62.2003 278.8C62.2003 279.8 62.3003 280.9 62.6003 282C62.9003 283.1 63.3003 284.1 63.9003 285C65.1003 286.9 66.9003 288.5 69.2003 289.4C71.4003 290.3 73.9003 290.4 76.1003 289.8C77.2003 289.5 78.2003 289.1 79.2003 288.5C80.1003 287.9 81.0003 287.3 81.6003 286.5C83.0003 285 83.8003 283.1 84.2003 281.3C84.6003 279.5 84.4003 277.7 84.0003 276.2C83.2003 273.1 81.3003 271.1 79.9003 270.1C78.3003 269 77.3003 268.7 77.4003 268.6Z" fill="#FFFCFC"/>
<path d="M88.3002 258C88.3002 258 88.3002 257.9 88.3002 257.6C88.3002 257.3 88.4002 256.9 88.5002 256.4C88.7002 255.3 88.9002 253.7 89.2002 251.7L89.3002 251.8C86.8002 250.8 83.5002 249.5 79.4002 247.9L79.6002 247.8C78.5002 249.4 77.3002 251.2 76.0002 253.1L75.9002 253.2H75.8002C73.7002 252.9 71.3002 252.9 68.9002 253.3H68.8002L68.7002 253.2C67.5002 251.6 66.3002 249.8 64.9002 248L65.2002 248.1C62.1002 249.4 58.9002 250.8 55.5002 252.3L55.7002 252C56.1002 254 56.5002 256.1 56.9002 258.3V258.5L56.8002 258.6C55.1002 259.9 53.5002 261.6 52.0002 263.5L51.9002 263.6H51.7002C49.7002 263.3 47.6002 262.9 45.4002 262.6L45.7002 262.4C44.5002 265.5 43.1002 268.8 41.8002 272.2L41.7002 271.8C43.3002 272.9 45.1002 274.2 47.0002 275.4L47.2002 275.5V275.7C46.9002 277.8 46.9002 280.2 47.3002 282.5V282.7L47.1002 282.8C45.5002 284 43.7002 285.3 41.9002 286.6L42.0002 286.2C43.3002 289.3 44.7002 292.6 46.2002 295.9L45.8002 295.7C47.8002 295.3 49.9002 294.9 52.1002 294.5H52.3002L52.4002 294.7C53.7002 296.4 55.4002 298.1 57.3002 299.5C57.4002 299.6 57.2002 299.2 57.4002 299.8V299.9V300.1L57.3002 300.5L57.2002 301.3L56.9002 302.9C56.7002 304 56.6002 305 56.4002 306.1L56.2002 305.7C59.5002 307 62.8002 308.4 66.0002 309.7L65.6002 309.8C66.8002 308 68.0002 306.3 69.2002 304.5L69.3002 304.3H69.5002C71.8002 304.6 74.1002 304.6 76.3002 304.2H76.5002L76.6002 304.4C77.9002 306.2 79.1002 307.9 80.4002 309.6L80.0002 309.5C83.3002 308.1 86.6002 306.7 89.8002 305.4L89.6002 305.7C89.2002 303.6 88.8002 301.5 88.5002 299.4V299.2L88.6002 299.1C90.4002 297.7 92.0002 296 93.4002 294.2L93.5002 294.1H93.7002C95.9002 294.5 98.0002 294.8 100 295.1L99.7002 295.3C101.1 291.8 102.4 288.6 103.7 285.5L103.8 285.8C102 284.5 100.2 283.3 98.5002 282.1L98.4002 282V281.9C98.7002 279.5 98.6002 277.2 98.3002 275V274.9L98.4002 274.8C100.3 273.4 102 272.2 103.6 271.1L103.5 271.3C101.9 267.5 100.5 264.3 99.4002 261.5L99.6002 261.6C97.1002 262 95.0002 262.4 93.3002 262.7H93.2002C91.8002 260.9 90.5002 259.7 89.6002 258.9C89.2002 258.5 88.9002 258.3 88.6002 258.1C88.4002 258.1 88.3002 258 88.3002 258C88.3002 258 88.4002 258.1 88.7002 258.2C88.9002 258.4 89.3002 258.6 89.7002 259C90.6002 259.7 91.9002 260.9 93.3002 262.7H93.2002C94.9002 262.4 97.0002 262 99.5002 261.5H99.6002V261.6C100.8 264.3 102.2 267.6 103.8 271.3L103.9 271.4L103.8 271.5C102.2 272.7 100.5 273.9 98.6002 275.3L98.7002 275.1C99.0002 277.3 99.1002 279.6 98.8002 282.1L98.7002 281.9C100.4 283.1 102.1 284.3 104 285.5L104.2 285.6L104.1 285.8C102.9 288.9 101.6 292.2 100.2 295.6L100.1 295.8H99.9002C97.8002 295.5 95.7002 295.1 93.6002 294.8L93.9002 294.7C92.5002 296.5 90.9002 298.2 89.0002 299.7L89.1002 299.4C89.5002 301.5 89.9002 303.6 90.3002 305.7V305.9L90.1002 306C86.9002 307.4 83.7002 308.7 80.4002 310.2L80.2002 310.3L80.1002 310.1C78.9002 308.4 77.6002 306.7 76.3002 304.9L76.6002 305C74.3002 305.3 72.0002 305.4 69.6002 305.1L69.9002 305C68.7002 306.7 67.5002 308.5 66.3002 310.3L66.2002 310.5L66.0002 310.4C62.8002 309.1 59.5002 307.8 56.2002 306.5L56.0002 306.4V306.1C56.2002 305.1 56.3002 304 56.5002 302.9L56.8002 301.3L56.9002 300.5L57.0002 300.1V299.9V299.8C57.3002 300.4 57.1002 300 57.1002 300.1C55.2002 298.7 53.5002 297 52.1002 295.2L52.4002 295.3C50.2002 295.7 48.1002 296.1 46.1002 296.4H45.8002L45.7002 296.2C44.3002 292.8 42.9002 289.5 41.5002 286.5L41.4002 286.3L41.6002 286.2C43.4002 284.9 45.2002 283.6 46.8002 282.4L46.7002 282.7C46.4002 280.3 46.4002 277.9 46.6002 275.7L46.7002 276C44.9002 274.7 43.1002 273.5 41.4002 272.4L41.2002 272.3L41.3002 272.1C42.7002 268.7 44.0002 265.4 45.3002 262.3L45.4002 262.1H45.6002C47.8002 262.5 50.0002 262.8 51.9002 263.1L51.6002 263.2C53.1002 261.2 54.8002 259.5 56.5002 258.2L56.4002 258.5C56.0002 256.3 55.6002 254.1 55.3002 252.2V252L55.5002 251.9C58.9002 250.4 62.2002 249.1 65.3002 247.8L65.5002 247.7L65.6002 247.9C66.9002 249.7 68.2002 251.5 69.3002 253.1L69.1002 253C71.5002 252.7 73.9002 252.7 76.1002 252.9L75.9002 253C77.2002 251.1 78.5002 249.3 79.6002 247.7L79.7002 247.6H79.8002C83.8002 249.2 87.1002 250.6 89.6002 251.6H89.7002V251.7C89.4002 253.7 89.1002 255.3 88.9002 256.4C88.8002 256.9 88.7002 257.3 88.7002 257.6C88.4002 257.9 88.3002 258 88.3002 258Z" fill="white"/>
<path fill-rule="evenodd" clip-rule="evenodd" d="M171.9 311.2C175.2 313.7 178.1 316.5 180.5 319.7L191.5 317.7L198.8 334.8L189.7 341.4C190.3 345.4 190.3 349.4 189.8 353.5L199 359.9L192.1 377.1L181 375.3C178.5 378.6 175.7 381.5 172.5 383.9L174.5 394.9L157.4 402.2L150.8 393.1C146.8 393.7 142.8 393.7 138.7 393.2L132.3 402.4L115.1 395.5L116.9 384.4C113.6 381.9 110.7 379.1 108.3 375.9L97.3004 377.9L90.1004 361L99.2004 354.4C98.6004 350.4 98.6004 346.4 99.1004 342.3L89.9004 335.9L96.8004 318.7L107.9 320.5C110.4 317.2 113.2 314.3 116.4 311.8L114.4 300.8L131.5 293.5L138.1 302.6C142.1 302 146.1 302 150.2 302.5L156.6 293.3L173.8 300.2L171.9 311.2ZM152.7 329.7C142.5 325.6 130.9 330.5 126.8 340.8C122.7 351 127.7 362.6 137.9 366.7C148.1 370.8 159.7 365.9 163.8 355.6C167.9 345.4 162.9 333.8 152.7 329.7Z" fill="white"/>
<path d="M171.2 201.2H50.6001V51.3L142.8 51.6L171.2 82.3V201.2Z" fill="#EBEBEB"/>
<path d="M86.7 136.8C86.5 136.9 84.5 135.1 81.4 132.1C78.3 129.1 74.1 124.8 69.5 120L69 119.5L69.5 119V118.9C74.1 114.1 78.3 109.7 81.4 106.7C84.5 103.6 86.5 101.8 86.7 102C86.9 102.1 85.1 104.2 82.2 107.5C79.3 110.8 75.2 115.2 70.6 120V120.1V119C75.2 123.8 79.3 128.2 82.2 131.4C85.1 134.6 86.9 136.7 86.7 136.8Z" fill="#263238"/>
<path d="M135.1 101.9C135.3 101.8 137.3 103.6 140.4 106.6C143.5 109.6 147.7 113.9 152.3 118.7L152.8 119.2L152.3 119.7V119.8C147.7 124.6 143.5 129 140.4 132C137.3 135.1 135.3 136.9 135.1 136.7C134.9 136.6 136.7 134.5 139.6 131.2C142.5 127.9 146.6 123.5 151.2 118.7V118.6V119.7C146.6 114.9 142.5 110.5 139.6 107.3C136.6 104.1 134.9 102 135.1 101.9Z" fill="#263238"/>
<path d="M111.574 118.785C119.673 105.547 125.934 94.6289 125.557 94.3984C125.18 94.1678 118.308 104.712 110.209 117.95C102.109 131.188 95.849 142.106 96.2259 142.337C96.6027 142.568 103.474 132.023 111.574 118.785Z" fill="#263238"/>
<path d="M142.8 51.6L142.7 76.7C142.7 80.4 145.7 83.3 149.3 83.2L171.1 82.4L142.8 51.6Z" fill="white"/>
<path d="M90.1001 152.8H36.6001V185.3H90.1001V152.8Z" fill="#E8505B"/>
<path d="M51.8003 175.7L53.2003 174.1C54.1003 175.4 55.3003 176.1 56.7003 176.1C58.6003 176.1 59.6003 174.9 59.6003 172.7V163.3H53.5003V161.2H61.9003V172.6C61.9003 176.3 60.1003 178.2 56.6003 178.2C54.7003 178.1 52.8003 177.3 51.8003 175.7Z" fill="white"/>
<path d="M65.3003 176L66.2003 174.1C67.4003 175.2 69.6003 176 71.7003 176C74.6003 176 75.8003 174.9 75.8003 173.4C75.8003 169.3 65.6003 171.9 65.6003 165.7C65.6003 163.1 67.6003 160.9 72.0003 160.9C74.0003 160.9 76.0003 161.4 77.4003 162.4L76.6003 164.3C75.1003 163.4 73.5003 162.9 72.0003 162.9C69.1003 162.9 67.9003 164.1 67.9003 165.6C67.9003 169.7 78.1003 167.1 78.1003 173.3C78.1003 175.9 76.0003 178.1 71.6003 178.1C69.1003 178.1 66.6003 177.3 65.3003 176Z" fill="white"/>
<path d="M273.9 60.2C271.2 61.5 269.5 64.3 269.5 67.4L269.9 126.9C269.9 129.7 271.4 132.3 273.7 133.7L323.1 163.1L370.4 132.5C372.7 131 374 128.5 374 125.8L373.6 63.7C373.6 60.5 371.7 57.7 368.9 56.5L322.3 36.4L273.9 60.2Z" fill="#E8505B"/>
<g opacity="0.2">
<g opacity="0.2">
<path opacity="0.2" d="M322.3 36.2L323.1 163L370.3 132.4C372.6 130.9 374 128.4 374 125.7L373.6 63.4C373.6 60.3 371.7 57.5 368.9 56.3L322.3 36.2Z" fill="black"/>
</g>
</g>
<path d="M336.2 107.4L307.4 107.6L301.5 121.5L293.5 121.6L317.7 65.9H325.4L350.4 121.3L342.3 121.4L336.2 107.4ZM333.4 101.1L321.5 74L310 101.2L333.4 101.1Z" fill="white"/>
<path d="M571.7 133.4H299.9V291.8H571.7V133.4Z" fill="#263238"/>
<path d="M321.1 283.8C321 283.8 320.8 251.4 320.8 211.5C320.8 171.5 320.9 139.2 321.1 139.2C321.2 139.2 321.4 171.6 321.4 211.5C321.4 251.4 321.3 283.8 321.1 283.8Z" fill="#E0E0E0"/>
<path d="M311 145.5C313.485 145.5 315.5 145.366 315.5 145.2C315.5 145.034 313.485 144.9 311 144.9C308.515 144.9 306.5 145.034 306.5 145.2C306.5 145.366 308.515 145.5 311 145.5Z" fill="#E0E0E0"/>
<path d="M311 155.1C313.485 155.1 315.5 154.966 315.5 154.8C315.5 154.634 313.485 154.5 311 154.5C308.515 154.5 306.5 154.634 306.5 154.8C306.5 154.966 308.515 155.1 311 155.1Z" fill="#E0E0E0"/>
<path d="M311 164.6C313.485 164.6 315.5 164.466 315.5 164.3C315.5 164.134 313.485 164 311 164C308.515 164 306.5 164.134 306.5 164.3C306.5 164.466 308.515 164.6 311 164.6Z" fill="#E0E0E0"/>
<path d="M311 174.1C313.485 174.1 315.5 173.966 315.5 173.8C315.5 173.634 313.485 173.5 311 173.5C308.515 173.5 306.5 173.634 306.5 173.8C306.5 173.966 308.515 174.1 311 174.1Z" fill="#E0E0E0"/>
<path d="M311 183.7C313.485 183.7 315.5 183.566 315.5 183.4C315.5 183.234 313.485 183.1 311 183.1C308.515 183.1 306.5 183.234 306.5 183.4C306.5 183.566 308.515 183.7 311 183.7Z" fill="#E0E0E0"/>
<path d="M311 193.2C313.485 193.2 315.5 193.066 315.5 192.9C315.5 192.734 313.485 192.6 311 192.6C308.515 192.6 306.5 192.734 306.5 192.9C306.5 193.066 308.515 193.2 311 193.2Z" fill="#E0E0E0"/>
<path d="M311 202.7C313.485 202.7 315.5 202.566 315.5 202.4C315.5 202.234 313.485 202.1 311 202.1C308.515 202.1 306.5 202.234 306.5 202.4C306.5 202.566 308.515 202.7 311 202.7Z" fill="#E0E0E0"/>
<path d="M311 212.3C313.485 212.3 315.5 212.166 315.5 212C315.5 211.834 313.485 211.7 311 211.7C308.515 211.7 306.5 211.834 306.5 212C306.5 212.166 308.515 212.3 311 212.3Z" fill="#E0E0E0"/>
<path d="M311 221.8C313.485 221.8 315.5 221.666 315.5 221.5C315.5 221.334 313.485 221.2 311 221.2C308.515 221.2 306.5 221.334 306.5 221.5C306.5 221.666 308.515 221.8 311 221.8Z" fill="#E0E0E0"/>
<path d="M311 231.3C313.485 231.3 315.5 231.166 315.5 231C315.5 230.834 313.485 230.7 311 230.7C308.515 230.7 306.5 230.834 306.5 231C306.5 231.166 308.515 231.3 311 231.3Z" fill="#E0E0E0"/>
<path d="M311 240.9C313.485 240.9 315.5 240.766 315.5 240.6C315.5 240.434 313.485 240.3 311 240.3C308.515 240.3 306.5 240.434 306.5 240.6C306.5 240.766 308.515 240.9 311 240.9Z" fill="#E0E0E0"/>
<path d="M311 250.4C313.485 250.4 315.5 250.266 315.5 250.1C315.5 249.934 313.485 249.8 311 249.8C308.515 249.8 306.5 249.934 306.5 250.1C306.5 250.266 308.515 250.4 311 250.4Z" fill="#E0E0E0"/>
<path d="M311 259.9C313.485 259.9 315.5 259.766 315.5 259.6C315.5 259.434 313.485 259.3 311 259.3C308.515 259.3 306.5 259.434 306.5 259.6C306.5 259.766 308.515 259.9 311 259.9Z" fill="#E0E0E0"/>
<path d="M311 269.5C313.485 269.5 315.5 269.366 315.5 269.2C315.5 269.034 313.485 268.9 311 268.9C308.515 268.9 306.5 269.034 306.5 269.2C306.5 269.366 308.515 269.5 311 269.5Z" fill="#E0E0E0"/>
<path d="M311 279C313.485 279 315.5 278.866 315.5 278.7C315.5 278.534 313.485 278.4 311 278.4C308.515 278.4 306.5 278.534 306.5 278.7C306.5 278.866 308.515 279 311 279Z" fill="#E0E0E0"/>
<path d="M339.9 145C346.361 145 351.6 144.866 351.6 144.7C351.6 144.534 346.361 144.4 339.9 144.4C333.438 144.4 328.2 144.534 328.2 144.7C328.2 144.866 333.438 145 339.9 145Z" fill="#E8505B"/>
<path d="M339.9 279C346.361 279 351.6 278.866 351.6 278.7C351.6 278.534 346.361 278.4 339.9 278.4C333.438 278.4 328.2 278.534 328.2 278.7C328.2 278.866 333.438 279 339.9 279Z" fill="#E8505B"/>
<path d="M362.3 164.6C374.395 164.6 384.2 164.466 384.2 164.3C384.2 164.134 374.395 164 362.3 164C350.205 164 340.4 164.134 340.4 164.3C340.4 164.466 350.205 164.6 362.3 164.6Z" fill="#E8505B"/>
<path d="M412.8 164.6C424.895 164.6 434.7 164.466 434.7 164.3C434.7 164.134 424.895 164 412.8 164C400.705 164 390.9 164.134 390.9 164.3C390.9 164.466 400.705 164.6 412.8 164.6Z" fill="#E0E0E0"/>
<path d="M383.2 174.1C400.984 174.1 415.4 173.966 415.4 173.8C415.4 173.634 400.984 173.5 383.2 173.5C365.416 173.5 351 173.634 351 173.8C351 173.966 365.416 174.1 383.2 174.1Z" fill="#E0E0E0"/>
<path d="M383.2 183.7C400.984 183.7 415.4 183.566 415.4 183.4C415.4 183.234 400.984 183.1 383.2 183.1C365.416 183.1 351 183.234 351 183.4C351 183.566 365.416 183.7 383.2 183.7Z" fill="#E0E0E0"/>
<path d="M427.5 212.3C445.283 212.3 459.7 212.166 459.7 212C459.7 211.834 445.283 211.7 427.5 211.7C409.716 211.7 395.3 211.834 395.3 212C395.3 212.166 409.716 212.3 427.5 212.3Z" fill="#E0E0E0"/>
<path d="M408.4 193.2C426.183 193.2 440.6 193.066 440.6 192.9C440.6 192.734 426.183 192.6 408.4 192.6C390.616 192.6 376.2 192.734 376.2 192.9C376.2 193.066 390.616 193.2 408.4 193.2Z" fill="#E0E0E0"/>
<path d="M487.1 193.2C504.883 193.2 519.3 193.066 519.3 192.9C519.3 192.734 504.883 192.6 487.1 192.6C469.316 192.6 454.9 192.734 454.9 192.9C454.9 193.066 469.316 193.2 487.1 193.2Z" fill="#E0E0E0"/>
<path d="M459.7 174.1C477.484 174.1 491.9 173.966 491.9 173.8C491.9 173.634 477.484 173.5 459.7 173.5C441.916 173.5 427.5 173.634 427.5 173.8C427.5 173.966 441.916 174.1 459.7 174.1Z" fill="#FAFAFA"/>
<path d="M504.2 212.3C521.984 212.3 536.4 212.166 536.4 212C536.4 211.834 521.984 211.7 504.2 211.7C486.416 211.7 472 211.834 472 212C472 212.166 486.416 212.3 504.2 212.3Z" fill="#FAFAFA"/>
<path d="M527.6 183.4C527.6 183.5 505.2 183.7 477.6 183.7C450 183.7 427.6 183.6 427.6 183.4C427.6 183.3 450 183.1 477.6 183.1C505.2 183.1 527.6 183.2 527.6 183.4Z" fill="#455A64"/>
<path d="M339.9 155.1C346.361 155.1 351.6 154.966 351.6 154.8C351.6 154.634 346.361 154.5 339.9 154.5C333.438 154.5 328.2 154.634 328.2 154.8C328.2 154.966 333.438 155.1 339.9 155.1Z" fill="#FAFAFA"/>
<path d="M339.9 269.5C346.361 269.5 351.6 269.366 351.6 269.2C351.6 269.034 346.361 268.9 339.9 268.9C333.438 268.9 328.2 269.034 328.2 269.2C328.2 269.366 333.438 269.5 339.9 269.5Z" fill="#FAFAFA"/>
<path d="M351.5 193.2C357.962 193.2 363.2 193.066 363.2 192.9C363.2 192.734 357.962 192.6 351.5 192.6C345.038 192.6 339.8 192.734 339.8 192.9C339.8 193.066 345.038 193.2 351.5 193.2Z" fill="#FAFAFA"/>
<path d="M538.8 193.2C545.262 193.2 550.5 193.066 550.5 192.9C550.5 192.734 545.262 192.6 538.8 192.6C532.338 192.6 527.1 192.734 527.1 192.9C527.1 193.066 532.338 193.2 538.8 193.2Z" fill="#E8505B"/>
<path d="M362.3 231.3C374.395 231.3 384.2 231.166 384.2 231C384.2 230.834 374.395 230.7 362.3 230.7C350.205 230.7 340.4 230.834 340.4 231C340.4 231.166 350.205 231.3 362.3 231.3Z" fill="#E8505B"/>
<path d="M412.8 231.3C424.895 231.3 434.7 231.166 434.7 231C434.7 230.834 424.895 230.7 412.8 230.7C400.705 230.7 390.9 230.834 390.9 231C390.9 231.166 400.705 231.3 412.8 231.3Z" fill="#E0E0E0"/>
<path d="M383.2 240.8C400.984 240.8 415.4 240.666 415.4 240.5C415.4 240.334 400.984 240.2 383.2 240.2C365.416 240.2 351 240.334 351 240.5C351 240.666 365.416 240.8 383.2 240.8Z" fill="#E0E0E0"/>
<path d="M383.2 250.3C400.984 250.3 415.4 250.166 415.4 250C415.4 249.834 400.984 249.7 383.2 249.7C365.416 249.7 351 249.834 351 250C351 250.166 365.416 250.3 383.2 250.3Z" fill="#E0E0E0"/>
<path d="M408.4 259.9C426.183 259.9 440.6 259.766 440.6 259.6C440.6 259.434 426.183 259.3 408.4 259.3C390.616 259.3 376.2 259.434 376.2 259.6C376.2 259.766 390.616 259.9 408.4 259.9Z" fill="#E0E0E0"/>
<path d="M487.1 259.9C504.883 259.9 519.3 259.766 519.3 259.6C519.3 259.434 504.883 259.3 487.1 259.3C469.316 259.3 454.9 259.434 454.9 259.6C454.9 259.766 469.316 259.9 487.1 259.9Z" fill="#E0E0E0"/>
<path d="M459.7 240.8C477.484 240.8 491.9 240.666 491.9 240.5C491.9 240.334 477.484 240.2 459.7 240.2C441.916 240.2 427.5 240.334 427.5 240.5C427.5 240.666 441.916 240.8 459.7 240.8Z" fill="#FAFAFA"/>
<path d="M527.6 250C527.6 250.1 505.2 250.3 477.6 250.3C450 250.3 427.6 250.2 427.6 250C427.6 249.9 450 249.7 477.6 249.7C505.2 249.8 527.6 249.9 527.6 250Z" fill="#455A64"/>
<path d="M351.5 259.9C357.962 259.9 363.2 259.766 363.2 259.6C363.2 259.434 357.962 259.3 351.5 259.3C345.038 259.3 339.8 259.434 339.8 259.6C339.8 259.766 345.038 259.9 351.5 259.9Z" fill="#FAFAFA"/>
<path d="M538.8 259.9C545.262 259.9 550.5 259.766 550.5 259.6C550.5 259.434 545.262 259.3 538.8 259.3C532.338 259.3 527.1 259.434 527.1 259.6C527.1 259.766 532.338 259.9 538.8 259.9Z" fill="#E8505B"/>
<path d="M607.6 289.6C607.4 289.7 605.7 286.9 602.3 282.1C600.6 279.7 598.4 276.8 595.8 273.6C593.1 270.4 589.9 266.9 586 263.4C584 261.7 581.9 260 579.5 258.4C577.1 256.9 574.5 255.5 571.7 254.9C570.3 254.6 568.8 254.5 567.5 254.8C566.1 255.1 565 255.9 564.1 257C563.2 258.1 562.6 259.6 562.2 261.1C561.8 262.6 561.6 264.3 561.6 266C561.6 269.4 562 272.9 562.7 276.4C563.4 279.9 564.5 283.5 565.7 287C568.2 294.1 571.6 301.2 575.5 308.1C579.5 315 584 321.5 588.9 327.2C591.3 330.1 593.9 332.7 596.6 335.1C599.3 337.5 602.1 339.6 605 341.3C606.5 342.1 608 342.8 609.5 343.2C611 343.6 612.6 343.8 614 343.6C615.4 343.4 616.7 342.7 617.6 341.7C618.6 340.7 619.2 339.4 619.7 338C620.6 335.2 620.7 332.3 620.6 329.5C620.5 326.7 620 324 619.5 321.4C618.5 316.3 617 311.7 615.6 307.8C614.1 303.9 612.7 300.6 611.5 297.9C609 292.6 607.5 289.7 607.6 289.6C607.7 289.6 608.2 290.2 609 291.5C609.8 292.8 611 294.8 612.4 297.4C613.8 300 615.4 303.3 617 307.2C618.6 311.1 620.2 315.7 621.4 320.9C622 323.5 622.5 326.3 622.7 329.3C622.9 332.2 622.9 335.4 621.9 338.6C621.4 340.2 620.6 341.8 619.4 343.2C618.2 344.6 616.4 345.5 614.5 345.8C612.6 346.1 610.8 345.9 609 345.4C607.2 344.9 605.6 344.2 604 343.3C600.8 341.6 597.9 339.3 595.1 336.9C592.3 334.4 589.7 331.7 587.1 328.8C582 323 577.5 316.4 573.4 309.3C569.3 302.2 565.9 295 563.4 287.7C562.1 284.1 561.1 280.4 560.3 276.7C559.6 273 559.1 269.4 559.2 265.7C559.3 263.9 559.5 262.1 559.9 260.3C560.4 258.5 561.1 256.8 562.3 255.3C563.5 253.9 565.2 252.8 567 252.4C568.8 252 570.6 252.1 572.2 252.5C575.5 253.3 578.2 254.8 580.7 256.4C583.2 258.1 585.3 259.9 587.3 261.7C591.2 265.3 594.4 269 597 272.4C599.6 275.7 601.6 278.8 603.2 281.3C604.8 283.8 605.9 285.8 606.7 287.2C607.4 288.8 607.7 289.5 607.6 289.6Z" fill="#E8505B"/>
<path d="M576.8 289.5C577 289.6 575.4 292.3 572.8 297.5C571.5 300.1 570.1 303.2 568.6 307C567.1 310.8 565.6 315.1 564.5 320.1C564 322.6 563.5 325.2 563.4 327.9C563.3 330.6 563.3 333.5 564.2 336.1C564.6 337.4 565.3 338.7 566.2 339.7C567.1 340.7 568.3 341.4 569.7 341.6C571.1 341.9 572.6 341.8 574.1 341.5C575.6 341.2 577.1 340.6 578.6 339.9C581.5 338.5 584.3 336.5 587 334.4C589.7 332.2 592.3 329.7 594.7 327.1C599.7 321.8 604.2 315.7 608.3 309.1C612.4 302.5 615.8 295.7 618.3 288.9C619.6 285.5 620.6 282.1 621.4 278.7C622.2 275.3 622.6 271.9 622.6 268.7C622.6 267.1 622.4 265.5 622 264C621.6 262.5 621 261.1 620.2 260.1C619.3 259 618.2 258.2 616.9 257.9C615.6 257.5 614.2 257.5 612.8 257.7C610 258.1 607.4 259.3 605.1 260.7C602.7 262 600.6 263.6 598.6 265.2C594.7 268.4 591.4 271.7 588.7 274.7C586 277.7 583.8 280.4 582.1 282.7C578.7 287 576.9 289.6 576.8 289.5C576.7 289.5 577.1 288.7 577.8 287.4C578.6 286.1 579.7 284.2 581.3 281.8C582.9 279.4 585 276.6 587.6 273.4C590.2 270.3 593.4 266.8 597.4 263.5C599.4 261.8 601.6 260.2 604 258.7C606.5 257.3 609.2 255.9 612.4 255.3C614 255 615.7 255 617.4 255.5C619.1 256 620.7 257 621.9 258.4C623.1 259.8 623.8 261.5 624.2 263.2C624.6 264.9 624.8 266.7 624.9 268.4C625 271.9 624.5 275.5 623.7 279C622.9 282.5 621.9 286.1 620.5 289.6C617.9 296.6 614.4 303.5 610.3 310.3C606.1 317 601.5 323.2 596.4 328.7C593.9 331.4 591.2 334 588.4 336.2C585.6 338.5 582.6 340.5 579.4 342C577.8 342.8 576.1 343.4 574.4 343.7C572.7 344.1 570.8 344.2 569.1 343.8C567.3 343.4 565.6 342.5 564.5 341.1C563.3 339.8 562.6 338.2 562.1 336.7C561.2 333.6 561.2 330.5 561.3 327.7C561.5 324.8 562 322.1 562.6 319.6C563.8 314.5 565.5 310.2 567.1 306.4C568.7 302.6 570.4 299.5 571.8 297C573.2 294.5 574.4 292.6 575.2 291.3C576.2 290.1 576.7 289.5 576.8 289.5Z" fill="#E8505B"/>
<path d="M590.2 278C590.2 278.2 587 278.3 581.3 278.8C578.5 279.1 575 279.5 571 280.2C567 280.9 562.5 281.9 557.8 283.6C555.4 284.4 553 285.4 550.6 286.7C548.2 288 545.8 289.6 544 291.7C543.1 292.8 542.4 294 542 295.3C541.6 296.6 541.7 298 542.2 299.3C542.7 300.6 543.5 301.8 544.6 302.9C545.7 304 546.9 305 548.3 305.8C551 307.5 554.2 308.9 557.5 310.1C560.8 311.2 564.3 312.1 567.8 312.8C574.9 314.2 582.5 314.9 590.2 314.9C597.9 314.9 605.5 314.2 612.7 312.8C616.3 312.1 619.7 311.2 623 310.1C626.3 309 629.4 307.6 632.2 305.8C633.6 304.9 634.8 304 635.9 302.9C637 301.8 637.8 300.6 638.3 299.3C638.8 298 638.8 296.6 638.5 295.3C638.1 294 637.4 292.8 636.5 291.7C634.7 289.6 632.3 288 629.9 286.7C627.5 285.4 625.1 284.4 622.7 283.6C617.9 281.9 613.4 280.9 609.5 280.2C605.5 279.5 602 279.1 599.2 278.8C593.4 278.3 590.2 278.2 590.2 278C590.2 277.9 591 277.8 592.5 277.8C594 277.7 596.2 277.7 599.1 277.8C602 277.9 605.5 278.2 609.6 278.8C613.7 279.4 618.3 280.3 623.2 281.9C625.7 282.7 628.2 283.7 630.8 285C633.3 286.3 635.9 288 638.1 290.4C639.2 291.6 640.1 293.1 640.6 294.8C641.1 296.5 641 298.4 640.4 300.1C639.8 301.8 638.8 303.3 637.5 304.6C636.3 305.9 634.9 307 633.4 307.9C630.4 309.8 627.2 311.3 623.8 312.5C620.4 313.7 616.8 314.6 613.2 315.4C605.9 316.9 598.1 317.6 590.3 317.6C582.4 317.6 574.7 316.9 567.4 315.4C563.7 314.7 560.2 313.7 556.8 312.5C553.4 311.3 550.1 309.8 547.2 307.9C545.7 306.9 544.3 305.8 543.1 304.6C541.9 303.3 540.8 301.8 540.2 300.1C539.6 298.4 539.5 296.5 540 294.8C540.5 293.1 541.4 291.6 542.5 290.4C544.7 288 547.3 286.3 549.8 285C552.3 283.7 554.9 282.7 557.4 281.9C562.3 280.3 567 279.4 571 278.8C575.1 278.2 578.6 277.9 581.5 277.8C584.4 277.7 586.6 277.7 588.1 277.8C589.4 277.9 590.2 277.9 590.2 278Z" fill="#E8505B"/>
<path d="M592.7 307.8C597.339 307.8 601.1 304.039 601.1 299.4C601.1 294.761 597.339 291 592.7 291C588.061 291 584.3 294.761 584.3 299.4C584.3 304.039 588.061 307.8 592.7 307.8Z" fill="#E8505B"/>
<path d="M446.7 418.9H163.9C155.9 418.9 149.3 412.4 149.3 404.3V220.3C149.3 216 152.8 212.5 157.1 212.5H454.5C458.2 212.5 461.2 215.5 461.2 219.2V404.2C461.3 412.3 454.8 418.9 446.7 418.9Z" fill="#455A64"/>
<path d="M460.6 421.7H150.1C142.5 421.7 136.4 415.6 136.4 408V403.7H474.4V408C474.3 415.5 468.1 421.7 460.6 421.7Z" fill="#455A64"/>
<path d="M452 220.8H157.7V395H452V220.8Z" fill="#E0E0E0"/>
<path d="M274.6 403.6L278.8 410.3H337.8L341.7 403.6H274.6Z" fill="#263238"/>
<path d="M461.3 403.5H149.4V404.5H461.3V403.5Z" fill="#263238"/>
<path d="M444.1 230.9H166.5V395H444.1V230.9Z" fill="#263238"/>
<path d="M187.8 390.2C187.7 390.2 187.5 355.2 187.5 312.1C187.5 269 187.6 234 187.8 234C187.9 234 188.1 268.9 188.1 312.1C188 355.2 187.9 390.2 187.8 390.2Z" fill="#E0E0E0"/>
<path d="M177.7 248.5C180.185 248.5 182.2 248.366 182.2 248.2C182.2 248.034 180.185 247.9 177.7 247.9C175.215 247.9 173.2 248.034 173.2 248.2C173.2 248.366 175.215 248.5 177.7 248.5Z" fill="#E0E0E0"/>
<path d="M178 239.6C180.485 239.6 182.5 239.466 182.5 239.3C182.5 239.134 180.485 239 178 239C175.515 239 173.5 239.134 173.5 239.3C173.5 239.466 175.515 239.6 178 239.6Z" fill="#E0E0E0"/>
<path d="M177.7 258C180.185 258 182.2 257.866 182.2 257.7C182.2 257.534 180.185 257.4 177.7 257.4C175.215 257.4 173.2 257.534 173.2 257.7C173.2 257.866 175.215 258 177.7 258Z" fill="#E0E0E0"/>
<path d="M177.7 267.6C180.185 267.6 182.2 267.466 182.2 267.3C182.2 267.134 180.185 267 177.7 267C175.215 267 173.2 267.134 173.2 267.3C173.2 267.466 175.215 267.6 177.7 267.6Z" fill="#E0E0E0"/>
<path d="M177.7 277.1C180.185 277.1 182.2 276.966 182.2 276.8C182.2 276.634 180.185 276.5 177.7 276.5C175.215 276.5 173.2 276.634 173.2 276.8C173.2 276.966 175.215 277.1 177.7 277.1Z" fill="#E0E0E0"/>
<path d="M177.7 286.7C180.185 286.7 182.2 286.566 182.2 286.4C182.2 286.234 180.185 286.1 177.7 286.1C175.215 286.1 173.2 286.234 173.2 286.4C173.2 286.566 175.215 286.7 177.7 286.7Z" fill="#E0E0E0"/>
<path d="M177.7 296.2C180.185 296.2 182.2 296.066 182.2 295.9C182.2 295.734 180.185 295.6 177.7 295.6C175.215 295.6 173.2 295.734 173.2 295.9C173.2 296.066 175.215 296.2 177.7 296.2Z" fill="#E0E0E0"/>
<path d="M177.7 305.8C180.185 305.8 182.2 305.666 182.2 305.5C182.2 305.334 180.185 305.2 177.7 305.2C175.215 305.2 173.2 305.334 173.2 305.5C173.2 305.666 175.215 305.8 177.7 305.8Z" fill="#E0E0E0"/>
<path d="M177.7 315.3C180.185 315.3 182.2 315.166 182.2 315C182.2 314.834 180.185 314.7 177.7 314.7C175.215 314.7 173.2 314.834 173.2 315C173.2 315.166 175.215 315.3 177.7 315.3Z" fill="#E0E0E0"/>
<path d="M177.7 324.9C180.185 324.9 182.2 324.766 182.2 324.6C182.2 324.434 180.185 324.3 177.7 324.3C175.215 324.3 173.2 324.434 173.2 324.6C173.2 324.766 175.215 324.9 177.7 324.9Z" fill="#E0E0E0"/>
<path d="M177.7 334.4C180.185 334.4 182.2 334.266 182.2 334.1C182.2 333.934 180.185 333.8 177.7 333.8C175.215 333.8 173.2 333.934 173.2 334.1C173.2 334.266 175.215 334.4 177.7 334.4Z" fill="#E0E0E0"/>
<path d="M177.7 344C180.185 344 182.2 343.866 182.2 343.7C182.2 343.534 180.185 343.4 177.7 343.4C175.215 343.4 173.2 343.534 173.2 343.7C173.2 343.866 175.215 344 177.7 344Z" fill="#E0E0E0"/>
<path d="M177.7 353.5C180.185 353.5 182.2 353.366 182.2 353.2C182.2 353.034 180.185 352.9 177.7 352.9C175.215 352.9 173.2 353.034 173.2 353.2C173.2 353.366 175.215 353.5 177.7 353.5Z" fill="#E0E0E0"/>
<path d="M177.7 363.1C180.185 363.1 182.2 362.966 182.2 362.8C182.2 362.634 180.185 362.5 177.7 362.5C175.215 362.5 173.2 362.634 173.2 362.8C173.2 362.966 175.215 363.1 177.7 363.1Z" fill="#E0E0E0"/>
<path d="M177.7 372.6C180.185 372.6 182.2 372.466 182.2 372.3C182.2 372.134 180.185 372 177.7 372C175.215 372 173.2 372.134 173.2 372.3C173.2 372.466 175.215 372.6 177.7 372.6Z" fill="#E0E0E0"/>
<path d="M177.7 382.2C180.185 382.2 182.2 382.066 182.2 381.9C182.2 381.734 180.185 381.6 177.7 381.6C175.215 381.6 173.2 381.734 173.2 381.9C173.2 382.066 175.215 382.2 177.7 382.2Z" fill="#E0E0E0"/>
<path d="M206.6 247.9C213.062 247.9 218.3 247.766 218.3 247.6C218.3 247.434 213.062 247.3 206.6 247.3C200.138 247.3 194.9 247.434 194.9 247.6C194.9 247.766 200.138 247.9 206.6 247.9Z" fill="#E8505B"/>
<path d="M206.6 382.2C213.062 382.2 218.3 382.066 218.3 381.9C218.3 381.734 213.062 381.6 206.6 381.6C200.138 381.6 194.9 381.734 194.9 381.9C194.9 382.066 200.138 382.2 206.6 382.2Z" fill="#E8505B"/>
<path d="M229 267.6C241.095 267.6 250.9 267.466 250.9 267.3C250.9 267.134 241.095 267 229 267C216.905 267 207.1 267.134 207.1 267.3C207.1 267.466 216.905 267.6 229 267.6Z" fill="#E8505B"/>
<path d="M279.6 267.6C291.695 267.6 301.5 267.466 301.5 267.3C301.5 267.134 291.695 267 279.6 267C267.505 267 257.7 267.134 257.7 267.3C257.7 267.466 267.505 267.6 279.6 267.6Z" fill="#E0E0E0"/>
<path d="M249.9 277.1C267.739 277.1 282.2 276.966 282.2 276.8C282.2 276.634 267.739 276.5 249.9 276.5C232.061 276.5 217.6 276.634 217.6 276.8C217.6 276.966 232.061 277.1 249.9 277.1Z" fill="#E0E0E0"/>
<path d="M249.9 286.7C267.739 286.7 282.2 286.566 282.2 286.4C282.2 286.234 267.739 286.1 249.9 286.1C232.061 286.1 217.6 286.234 217.6 286.4C217.6 286.566 232.061 286.7 249.9 286.7Z" fill="#E0E0E0"/>
<path d="M294.3 315.3C312.139 315.3 326.6 315.166 326.6 315C326.6 314.834 312.139 314.7 294.3 314.7C276.461 314.7 262 314.834 262 315C262 315.166 276.461 315.3 294.3 315.3Z" fill="#E0E0E0"/>
<path d="M275.2 296.2C293.039 296.2 307.5 296.066 307.5 295.9C307.5 295.734 293.039 295.6 275.2 295.6C257.361 295.6 242.9 295.734 242.9 295.9C242.9 296.066 257.361 296.2 275.2 296.2Z" fill="#E0E0E0"/>
<path d="M354 296.2C371.839 296.2 386.3 296.066 386.3 295.9C386.3 295.734 371.839 295.6 354 295.6C336.161 295.6 321.7 295.734 321.7 295.9C321.7 296.066 336.161 296.2 354 296.2Z" fill="#E0E0E0"/>
<path d="M326.6 277.1C344.439 277.1 358.9 276.966 358.9 276.8C358.9 276.634 344.439 276.5 326.6 276.5C308.761 276.5 294.3 276.634 294.3 276.8C294.3 276.966 308.761 277.1 326.6 277.1Z" fill="#FAFAFA"/>
<path d="M371.2 315.3C389.039 315.3 403.5 315.166 403.5 315C403.5 314.834 389.039 314.7 371.2 314.7C353.361 314.7 338.9 314.834 338.9 315C338.9 315.166 353.361 315.3 371.2 315.3Z" fill="#FAFAFA"/>
<path d="M394.5 286.4C394.5 286.5 372.1 286.7 344.4 286.7C316.7 286.7 294.3 286.6 294.3 286.4C294.3 286.2 316.7 286.1 344.4 286.1C372.1 286.1 394.5 286.2 394.5 286.4Z" fill="#455A64"/>
<path d="M206.6 258C213.062 258 218.3 257.866 218.3 257.7C218.3 257.534 213.062 257.4 206.6 257.4C200.138 257.4 194.9 257.534 194.9 257.7C194.9 257.866 200.138 258 206.6 258Z" fill="#FAFAFA"/>
<path d="M206.6 372.6C213.062 372.6 218.3 372.466 218.3 372.3C218.3 372.134 213.062 372 206.6 372C200.138 372 194.9 372.134 194.9 372.3C194.9 372.466 200.138 372.6 206.6 372.6Z" fill="#FAFAFA"/>
<path d="M218.2 296.2C224.662 296.2 229.9 296.066 229.9 295.9C229.9 295.734 224.662 295.6 218.2 295.6C211.738 295.6 206.5 295.734 206.5 295.9C206.5 296.066 211.738 296.2 218.2 296.2Z" fill="#FAFAFA"/>
<path d="M405.8 296.2C412.262 296.2 417.5 296.066 417.5 295.9C417.5 295.734 412.262 295.6 405.8 295.6C399.338 295.6 394.1 295.734 394.1 295.9C394.1 296.066 399.338 296.2 405.8 296.2Z" fill="#E8505B"/>
<path d="M229 334.4C241.095 334.4 250.9 334.266 250.9 334.1C250.9 333.934 241.095 333.8 229 333.8C216.905 333.8 207.1 333.934 207.1 334.1C207.1 334.266 216.905 334.4 229 334.4Z" fill="#E8505B"/>
<path d="M279.6 334.4C291.695 334.4 301.5 334.266 301.5 334.1C301.5 333.934 291.695 333.8 279.6 333.8C267.505 333.8 257.7 333.934 257.7 334.1C257.7 334.266 267.505 334.4 279.6 334.4Z" fill="#E0E0E0"/>
<path d="M249.9 343.9C267.739 343.9 282.2 343.766 282.2 343.6C282.2 343.434 267.739 343.3 249.9 343.3C232.061 343.3 217.6 343.434 217.6 343.6C217.6 343.766 232.061 343.9 249.9 343.9Z" fill="#E0E0E0"/>
<path d="M249.9 353.5C267.739 353.5 282.2 353.366 282.2 353.2C282.2 353.034 267.739 352.9 249.9 352.9C232.061 352.9 217.6 353.034 217.6 353.2C217.6 353.366 232.061 353.5 249.9 353.5Z" fill="#E0E0E0"/>
<path d="M275.2 363C293.039 363 307.5 362.866 307.5 362.7C307.5 362.534 293.039 362.4 275.2 362.4C257.361 362.4 242.9 362.534 242.9 362.7C242.9 362.866 257.361 363 275.2 363Z" fill="#E0E0E0"/>
<path d="M354 363C371.839 363 386.3 362.866 386.3 362.7C386.3 362.534 371.839 362.4 354 362.4C336.161 362.4 321.7 362.534 321.7 362.7C321.7 362.866 336.161 363 354 363Z" fill="#E0E0E0"/>
<path d="M326.6 343.9C344.439 343.9 358.9 343.766 358.9 343.6C358.9 343.434 344.439 343.3 326.6 343.3C308.761 343.3 294.3 343.434 294.3 343.6C294.3 343.766 308.761 343.9 326.6 343.9Z" fill="#FAFAFA"/>
<path d="M394.5 353.2C394.5 353.3 372.1 353.5 344.4 353.5C316.7 353.5 294.3 353.4 294.3 353.2C294.3 353 316.7 352.9 344.4 352.9C372.1 352.9 394.5 353 394.5 353.2Z" fill="#455A64"/>
<path d="M218.2 363C224.662 363 229.9 362.866 229.9 362.7C229.9 362.534 224.662 362.4 218.2 362.4C211.738 362.4 206.5 362.534 206.5 362.7C206.5 362.866 211.738 363 218.2 363Z" fill="#FAFAFA"/>
<path d="M405.8 363C412.262 363 417.5 362.866 417.5 362.7C417.5 362.534 412.262 362.4 405.8 362.4C399.338 362.4 394.1 362.534 394.1 362.7C394.1 362.866 399.338 363 405.8 363Z" fill="#E8505B"/>
<path d="M655.4 421.7C655.4 421.8 509.7 422 330 422C150.2 422 4.6001 421.9 4.6001 421.7C4.6001 421.6 150.3 421.4 330 421.4C509.7 421.4 655.4 421.5 655.4 421.7Z" fill="white"/>
<path d="M523.7 365.2L527.7 377.7C529.2 382.9 533.6 386.7 538.9 387.7L565.6 392.7L572.9 392.5L565.6 383.5L545.6 376.7C543.6 376.3 542.1 374.8 541.6 372.9L533.6 355.5L523.5 361.7L523.7 365.2Z" fill="#FFBE9D"/>
<path d="M504.6 281.3C504.8 279.4 504.1 277.4 503.1 275.8C502.1 274.2 500.6 272.7 498.7 272.4C496.6 272.1 494.4 273.5 493.5 275.5C492.7 277.5 493.1 279.9 494.3 281.7C494.9 282.6 495.8 283.4 496.7 284C493.9 285.8 491.7 288.5 490.7 291.6C490.3 292.7 490.1 293.8 489.6 294.8C489.1 295.8 488.4 296.8 487.4 297.2C486.6 297.5 485.8 297.6 485 297.9C483.7 298.4 482.7 299.6 482.4 300.9C482.1 302.3 482.4 303.7 483.1 304.9C483.5 305.5 484 306.1 484 306.8C484 307.3 483.8 307.7 483.7 308.2C483.3 309.8 484.1 311.5 485.5 312.4C486.9 313.2 488.8 313 490 312C490.5 313.2 491.2 314.3 492.3 314.9C493.4 315.4 495.1 315 495.3 313.7C495.9 314.9 497.3 315.6 498.6 315.4C499.9 315.2 500.9 314 501 312.7L522.5 289.2C519.3 280.4 506.7 281.1 504.6 281.3Z" fill="#E8505B"/>
<path d="M500.9 289.5C499.5 289.6 498.5 290.8 498.5 292.2L500 328.4C500.1 332.7 507.8 337.7 512.4 337.6C517 337.5 515.7 332.6 515.7 328.5C515.8 321.7 515.8 319.2 515.8 319.2C515.8 319.2 521.6 318.2 522.9 310.6C523.5 306.8 523.3 300.6 523 295.5C522.7 290.9 519.7 285.3 515.1 285.8L500.9 289.5Z" fill="#FFBE9D"/>
<path d="M521.1 300.5C521.1 301 520.7 301.5 520.2 301.5C519.7 301.5 519.2 301.1 519.2 300.6C519.2 300.1 519.6 299.6 520.1 299.6C520.6 299.6 521 300 521.1 300.5Z" fill="#263238"/>
<path d="M521.7 298.8C521.6 298.9 520.8 298.4 519.8 298.4C518.7 298.4 518 298.9 517.9 298.8C517.8 298.7 518 298.5 518.3 298.3C518.6 298.1 519.2 297.8 519.9 297.8C520.6 297.8 521.1 298 521.4 298.3C521.6 298.6 521.7 298.8 521.7 298.8Z" fill="#263238"/>
<path d="M510.8 300.5C510.8 301 510.4 301.5 509.9 301.5C509.4 301.5 508.9 301.1 508.9 300.6C508.9 300.1 509.3 299.6 509.8 299.6C510.3 299.6 510.8 300 510.8 300.5Z" fill="#263238"/>
<path d="M511.3 299C511.2 299.1 510.4 298.6 509.4 298.6C508.3 298.6 507.6 299.1 507.5 299C507.4 298.9 507.6 298.7 507.9 298.5C508.2 298.3 508.8 298 509.4 298C510.1 298 510.6 298.2 510.9 298.5C511.3 298.8 511.4 299 511.3 299Z" fill="#263238"/>
<path d="M515.2 306.8C515.2 306.7 515.8 306.6 516.9 306.5C517.2 306.5 517.4 306.4 517.5 306.2C517.6 306 517.5 305.7 517.3 305.4C517 304.8 516.8 304.1 516.5 303.4C515.4 300.5 514.6 298.1 514.7 298.1C514.8 298.1 515.8 300.4 516.9 303.3C517.2 304 517.4 304.7 517.7 305.4C517.8 305.7 518 306.1 517.8 306.5C517.7 306.7 517.5 306.8 517.4 306.9C517.2 307 517.1 307 516.9 307C515.8 306.9 515.2 306.9 515.2 306.8Z" fill="#263238"/>
<path d="M515.9 319.3C515.9 319.3 510.8 319.6 505.7 316.6C505.7 316.6 508.2 321.8 515.8 321.1L515.9 319.3Z" fill="#EB996E"/>
<path d="M514.7 309.4C514.3 308.9 513.7 308.6 513 308.7C512.5 308.7 512.1 309 511.8 309.3C511.5 309.7 511.5 310.2 511.7 310.6C512 311 512.6 311.1 513.1 310.9C513.6 310.8 514 310.4 514.4 310.1C514.5 310 514.6 309.9 514.7 309.8C514.8 309.7 514.9 309.5 514.7 309.4Z" fill="#EB996E"/>
<path d="M512.1 307.6C512.3 307.6 512.3 308.7 513.3 309.5C514.3 310.3 515.5 310.2 515.5 310.3C515.5 310.4 515.2 310.5 514.7 310.5C514.2 310.5 513.5 310.4 512.9 309.9C512.3 309.4 512 308.7 512 308.3C511.9 307.8 512 307.6 512.1 307.6Z" fill="#263238"/>
<path d="M511.8 297.2C511.7 297.5 510.6 297.4 509.4 297.5C508.2 297.6 507.2 298 507 297.7C506.9 297.6 507.1 297.3 507.5 297C507.9 296.7 508.5 296.5 509.3 296.4C510 296.3 510.7 296.4 511.2 296.6C511.6 296.8 511.9 297.1 511.8 297.2Z" fill="#E8505B"/>
<path d="M521.3 295.8C521.1 296 520.4 295.8 519.5 295.8C518.6 295.8 517.9 296 517.7 295.7C517.6 295.6 517.7 295.3 518.1 295.1C518.4 294.9 518.9 294.7 519.5 294.7C520.1 294.7 520.6 294.9 520.9 295.2C521.3 295.4 521.4 295.7 521.3 295.8Z" fill="#E8505B"/>
<path d="M499.4 301.7C498.8 301.3 498 301.4 497.4 301.8C496 302.6 495.3 304.5 495.8 306C496.3 307.5 498 308.6 499.6 308.4" fill="#FFBE9D"/>
<path d="M511.4 283.4C514.2 283.5 516.3 284.3 518.7 285.7C521.1 287 523.2 289.2 523.9 291.9C524.1 292.5 524.1 293.1 523.8 293.6C523.4 294.3 522.4 294.4 521.7 294.1C521 293.8 520.5 293.1 520 292.5C519.6 293.9 518.3 295 516.8 294.9C515.4 294.9 514 293.8 513.7 292.4C513.7 293.9 512.2 295.1 510.8 295C509.3 294.9 508 293.8 507.6 292.4C507.3 293.7 507 295 506.3 296.1C505.5 297.2 504.1 297.9 502.8 297.5C503 298.6 503.2 299.8 502.8 300.9C502.4 302 501.2 302.8 500.1 302.5C499 302.1 498.6 300.9 498.4 299.8C497.9 297.7 497.5 295.6 497.6 293.4C497.7 291.2 498.2 289.1 499.6 287.4C501 285.6 503 284.5 505.2 284C507.4 283.4 509.6 283.4 511.8 283.4" fill="#E8505B"/>
<path d="M498.9 306.1C498.9 306 498.6 306.2 498.2 306C497.8 305.9 497.5 305.3 497.5 304.7C497.5 304.1 497.9 303.6 498.3 303.5C498.7 303.3 499 303.4 499 303.4C499 303.4 498.7 303.2 498.2 303.3C498 303.4 497.7 303.5 497.5 303.8C497.3 304.1 497.1 304.4 497.1 304.8C497 305.6 497.5 306.3 498.1 306.4C498.6 306.4 498.9 306.1 498.9 306.1Z" fill="#EB996E"/>
<path d="M496 306.5C496 306.5 495.9 306.5 495.7 306.6C495.5 306.7 495.2 306.8 494.9 307C494.2 307.4 493.2 308.1 492.4 309.3C492 309.9 491.7 310.7 491.7 311.6C491.7 312.5 491.9 313.4 492.3 314.3C492.8 315.2 493.4 316 494.3 316.6C495.2 317.2 496.3 317.6 497.4 317.6C499.7 317.6 501.7 316.1 502.5 314.4C503 313.5 503.1 312.6 503 311.7C502.9 310.8 502.6 310.1 502.3 309.4C501.6 308.1 500.5 307.4 499.8 307.1C499.4 306.9 499.1 306.9 498.9 306.8C498.7 306.8 498.6 306.8 498.6 306.8C498.6 306.8 499 306.9 499.8 307.2C500.5 307.5 501.5 308.3 502.1 309.5C502.4 310.1 502.7 310.9 502.8 311.7C502.8 312.5 502.7 313.4 502.3 314.2C501.5 315.8 499.6 317.2 497.5 317.2C495.4 317.2 493.5 315.8 492.7 314.2C491.8 312.6 492 310.7 492.7 309.5C493.4 308.3 494.4 307.6 495 307.2C495.5 306.7 496 306.5 496 306.5Z" fill="#263238"/>
<path d="M502.2 282.9C502.1 282.9 502 282.2 501.5 281.2C501 280.2 500.2 278.9 498.9 277.9C497.6 276.9 496.1 276.3 495.1 276.1C494 275.9 493.3 275.9 493.3 275.8C493.3 275.7 494 275.6 495.1 275.7C496.2 275.8 497.8 276.3 499.2 277.4C500.6 278.5 501.4 279.9 501.8 281C502.3 282.1 502.3 282.9 502.2 282.9Z" fill="#E0E0E0"/>
<path d="M484.7 311.8C484.7 311.8 484.6 311.8 484.4 311.5C484.3 311.3 484.1 310.9 484.2 310.5C484.3 310 484.6 309.5 485.1 309.1C485.6 308.7 486.3 308.4 487 308.1C487.7 307.7 488.3 307.1 488.3 306.2C488.4 305.3 488 304.4 487.8 303.3C487.7 302.8 487.6 302.2 487.6 301.6C487.6 301 487.9 300.4 488.3 299.9C489.1 299 490.4 298.6 491.5 298.2C492.6 297.8 493.8 297.4 494.4 296.5C495 295.6 495 294.5 494.9 293.5C494.8 292.5 494.6 291.5 494.7 290.5C494.8 289.5 495 288.7 495.3 287.9C495.9 286.4 496.9 285.4 497.6 284.8C497.9 284.5 498.2 284.3 498.4 284.2C498.6 284.1 498.7 284 498.7 284C498.7 284 498.3 284.3 497.7 284.9C497.1 285.5 496.2 286.5 495.7 287.9C495.4 288.6 495.2 289.5 495.2 290.4C495.1 291.3 495.3 292.3 495.4 293.3C495.5 294.3 495.6 295.6 494.9 296.7C494.2 297.8 492.9 298.2 491.8 298.6C490.7 299 489.5 299.3 488.8 300.1C488.1 300.9 488.1 302 488.3 303C488.5 304 488.9 305 488.8 306C488.8 306.5 488.6 307 488.3 307.4C488 307.8 487.6 308 487.3 308.2C486.6 308.6 485.9 308.8 485.4 309.2C484.9 309.5 484.6 310 484.5 310.4C484.3 311.4 484.8 311.8 484.7 311.8Z" fill="#E0E0E0"/>
<path d="M511.9 292.1C511.8 292.1 511.7 291.3 511.3 290.1C510.9 288.9 510.1 287.3 508.7 285.9C507.3 284.5 505.7 283.7 504.5 283.3C503.3 282.9 502.5 282.8 502.5 282.8C502.5 282.7 503.3 282.7 504.6 283C505.9 283.3 507.6 284.1 509.1 285.5C510.6 287 511.3 288.7 511.7 290C512 291.3 511.9 292.1 511.9 292.1Z" fill="#E0E0E0"/>
<path d="M518 288.8C517.9 288.8 517.7 287.8 516.7 286.4C515.7 285.1 513.9 283.5 511.5 282.8C509.1 282 506.7 282.1 505.1 282.3C503.4 282.5 502.4 282.7 502.4 282.6C502.4 282.5 503.4 282.2 505.1 281.9C506.8 281.6 509.2 281.5 511.8 282.3C514.3 283.1 516.2 284.8 517.2 286.2C517.7 286.9 518 287.6 518.1 288C518 288.5 518.1 288.8 518 288.8Z" fill="#E0E0E0"/>
<path d="M504.7 281C504.7 281 504.5 281.5 503.9 282.1C503.3 282.7 502.3 283.4 501.1 283.8C499.9 284.2 498.7 284.3 497.8 284.2C497 284.1 496.5 283.9 496.5 283.8C496.5 283.6 498.6 284.1 500.9 283.3C503.3 282.5 504.6 280.8 504.7 281Z" fill="#263238"/>
<path d="M510.1 421.7C491.8 415.6 504.3 391.4 504.3 391.4L584.3 398.9C590.7 398.9 596 404.1 596 410.5C596 416.9 590.8 422.1 584.4 422.1L510.1 421.7Z" fill="#263238"/>
<path d="M491.3 421.7C473.5 415.7 485.8 391.4 485.8 391.4L563.8 398.8C571.4 398.9 575.1 402.6 575.1 410.4C575.1 416.8 572.7 422.2 563.8 422L491.3 421.7Z" fill="#263238"/>
<path d="M509.5 395.5C509.5 395.5 509.6 395.5 509.7 395.5C509.9 395.5 510.1 395.5 510.4 395.5C511 395.5 511.8 395.6 512.9 395.6C515.1 395.7 518.2 395.9 522.1 396.1C529.9 396.5 540.6 397.1 552.4 397.8C553.9 397.9 555.3 398 556.8 398C558.2 398 559.7 398.1 561.1 398.2C562.5 398.3 563.9 398.4 565.2 398.5C566.5 398.7 567.9 398.8 569.1 399.3C570.3 399.8 571.4 400.5 572.3 401.4C573.2 402.3 573.9 403.4 574.3 404.6C574.7 405.7 575 406.9 575.1 408C575.2 409.1 575.3 410.2 575.3 411.2C575.3 413.3 574.9 415.1 574.3 416.6C573.6 418.1 572.7 419.2 571.9 419.9C571 420.6 570.2 421 569.7 421.1C569.1 421.3 569.1 421.2 569.7 421C570.2 420.8 571 420.4 571.8 419.7C572.6 419 573.5 417.9 574.1 416.4C574.7 414.9 575.1 413.1 575.1 411.1C575.1 410.1 575 409 574.9 407.9C574.7 406.8 574.5 405.7 574.1 404.6C573.7 403.5 573.1 402.4 572.2 401.6C571.3 400.7 570.3 400.1 569.1 399.6C567.9 399.1 566.6 399 565.3 398.8C564 398.7 562.6 398.6 561.2 398.5C559.8 398.4 558.4 398.4 557 398.3C555.6 398.3 554.1 398.2 552.6 398.1C540.8 397.4 530.1 396.8 522.3 396.3C518.4 396.1 515.3 395.9 513.1 395.7C512 395.6 511.2 395.6 510.6 395.5C510.3 395.5 510.1 395.5 510 395.4C509.5 395.6 509.5 395.5 509.5 395.5Z" fill="#455A64"/>
<path d="M537.2 397.1L530.8 394L526.3 379.1L525.9 360.1L535 356.3L527.8 338.2C526.5 335.5 523.8 328.5 517 326.1C517 324.8 517 323.5 517.2 323.1C517.7 322.2 500.6 321.7 499.6 322C498.7 322.3 499.8 325.5 499.6 326C493.5 327.7 487.6 330.2 485.4 338.6C484.5 341.9 484.8 348.7 485.3 352.1L490.1 377.2L487.4 385.4C487.4 385.4 478.1 404.9 481.6 412.5C485.1 420.1 491.2 421.8 491.2 421.8L537.8 421.7L537.2 397.1Z" fill="#E8505B"/>
<g opacity="0.3">
<g opacity="0.3">
<g opacity="0.3">
<g opacity="0.3">
<g opacity="0.3">
<path opacity="0.3" d="M490.5 367.3C491.3 370.8 492.6 375.9 493.9 379.2C494.9 381.6 496 384 497.6 386.1C499.9 388.8 503.1 390.7 506.6 391.6C510 392.5 513.7 392.5 517.2 392.1L499.6 382.1L494.9 365.8L490.5 367.3Z" fill="black"/>
</g>
</g>
</g>
</g>
</g>
<path d="M526.3 378.6C526.3 378.6 526.2 378.1 526.2 377.3C526.2 376.4 526.1 375.1 526 373.6C525.9 370.5 525.7 366.2 525.6 361.5C525.5 356.8 525.4 352.5 525.3 349.4C525.3 347.9 525.3 346.7 525.3 345.7C525.3 344.8 525.3 344.3 525.3 344.3C525.3 344.3 525.4 344.8 525.4 345.6C525.4 346.5 525.5 347.8 525.6 349.3C525.7 352.4 525.9 356.7 526 361.4C526.1 366.1 526.2 370.4 526.3 373.5C526.3 375 526.3 376.2 526.3 377.2C526.3 378.1 526.3 378.6 526.3 378.6Z" fill="#263238"/>
<path d="M509.1 360.8C509.1 360.8 509 360.9 508.8 360.9C508.5 361 508.2 361.1 507.8 361.3C506.9 361.6 505.6 362.1 504 362.7C500.6 363.9 495.8 365.5 489.9 367.6L489.7 367.7V367.5C488.7 362.4 487.6 356.4 486.4 349.9C486.2 346.7 485.6 343.4 485.8 339.9C485.9 339 486.2 338.2 486.5 337.4C486.8 336.6 487.2 335.9 487.7 335.2C488.6 333.8 490 332.7 491.4 332C494.3 330.5 497.9 331 500.2 332.9C501.3 333.9 502 335.2 502.5 336.5C503.1 337.8 503.5 339 503.9 340.3C504.6 342.8 505.2 345.1 505.8 347.2C506.9 351.4 507.7 354.8 508.4 357.2C508.7 358.3 508.9 359.2 509.1 359.9C509.2 360.2 509.2 360.4 509.3 360.6C509 360.7 509.1 360.8 509.1 360.8C509.1 360.8 509.1 360.7 509 360.5C508.9 360.3 508.9 360.1 508.8 359.8C508.6 359.1 508.4 358.2 508 357.1C507.3 354.7 506.4 351.3 505.3 347.2C504.7 345.1 504.1 342.8 503.4 340.4C503 339.2 502.6 337.9 502 336.7C501.4 335.5 500.8 334.2 499.8 333.3C497.7 331.5 494.3 331 491.6 332.4C490.2 333.1 489 334.1 488.1 335.4C487.7 336.1 487.3 336.8 487 337.5C486.7 338.3 486.4 339 486.4 339.8C486.1 343.2 486.8 346.5 486.9 349.7C488.1 356.2 489.2 362.2 490.1 367.3L489.8 367.1C495.6 365.2 500.4 363.6 503.8 362.5C505.5 362 506.8 361.5 507.7 361.2C508.1 361.1 508.5 361 508.7 360.9C508.9 360.8 509 360.8 509.1 360.8Z" fill="#263238"/>
<path d="M494.989 365.434C495.147 365.383 495.014 364.532 494.693 363.533C494.372 362.534 493.984 361.765 493.827 361.816C493.669 361.866 493.801 362.717 494.122 363.716C494.443 364.715 494.831 365.484 494.989 365.434Z" fill="#263238"/>
<path d="M499.628 364.113C499.789 364.073 499.728 363.259 499.491 362.293C499.255 361.327 498.933 360.577 498.772 360.616C498.611 360.655 498.672 361.47 498.909 362.436C499.145 363.401 499.467 364.152 499.628 364.113Z" fill="#263238"/>
<path d="M504.276 362.531C504.435 362.484 504.371 361.802 504.134 361.008C503.896 360.214 503.575 359.61 503.416 359.657C503.258 359.704 503.321 360.386 503.559 361.18C503.796 361.974 504.117 362.579 504.276 362.531Z" fill="#263238"/>
<path d="M529.3 358.7C529.2 358.8 528.7 358.1 528.3 357.1C527.9 356.1 527.9 355.3 528 355.3C528.1 355.3 528.4 356 528.8 356.9C529.1 357.9 529.4 358.6 529.3 358.7Z" fill="#263238"/>
<path d="M532.831 356.686C532.979 356.611 532.777 355.911 532.379 355.122C531.982 354.332 531.54 353.753 531.392 353.827C531.244 353.902 531.446 354.602 531.844 355.392C532.241 356.181 532.683 356.76 532.831 356.686Z" fill="#263238"/>
<path d="M502.4 326.9C502.5 326.9 502.5 327.1 502.5 327.4H502.2C502.1 326.9 502 326 501.9 325C501.8 323.4 501.8 322.2 501.9 322.1C502 322 502.3 323.3 502.4 324.9C502.5 325.9 502.5 326.8 502.5 327.3H502.2C502.3 327 502.3 326.9 502.4 326.9Z" fill="#263238"/>
<path d="M506.566 326.885C506.732 326.873 506.789 325.836 506.694 324.569C506.599 323.302 506.389 322.285 506.223 322.298C506.058 322.31 506.001 323.347 506.096 324.614C506.191 325.88 506.401 326.897 506.566 326.885Z" fill="#263238"/>
<path d="M510.832 327.797C510.998 327.795 511.115 326.54 511.095 324.993C511.074 323.447 510.923 322.195 510.757 322.198C510.591 322.2 510.474 323.455 510.495 325.001C510.515 326.548 510.666 327.799 510.832 327.797Z" fill="#263238"/>
<path d="M514.5 327.3C514.666 327.3 514.8 326.225 514.8 324.9C514.8 323.575 514.666 322.5 514.5 322.5C514.334 322.5 514.2 323.575 514.2 324.9C514.2 326.225 514.334 327.3 514.5 327.3Z" fill="#263238"/>
<path d="M537.458 397.659C537.469 397.494 528.812 396.769 518.123 396.04C507.433 395.311 498.758 394.855 498.747 395.02C498.736 395.185 507.392 395.91 518.082 396.639C528.772 397.368 537.446 397.824 537.458 397.659Z" fill="#263238"/>
<path d="M492.5 366.7L496.8 380.7C498.3 385.9 502.7 389.8 508 390.9L534.7 396L542 395.8L539.5 389.6L514.7 379.8C512.7 379.4 511.2 377.9 510.7 375.9L506.9 361.8L492.5 366.7Z" fill="#FFBE9D"/>
<path d="M516.1 396L516.3 394.3L536.8 393.5L546.9 368.2L585.1 370.8L572.2 398.9L516.1 396Z" fill="#455A64"/>
<path d="M561.881 384.649C562.472 383.716 562.195 382.481 561.262 381.89C560.329 381.298 559.094 381.576 558.503 382.509C557.911 383.442 558.188 384.677 559.122 385.268C560.055 385.86 561.29 385.582 561.881 384.649Z" fill="white"/>
<path d="M238 214C254.7 207.9 246.1 182.8 246.1 182.8L161.4 190.6C154.8 190.6 149.4 195.9 149.4 202.5C149.4 209.1 154.7 214.4 161.3 214.4L238 214Z" fill="#263238"/>
<path d="M128.9 283.7L128.7 275.3L144.8 269.6L145.5 281.3L144.6 281.7C140.6 283.6 123.9 291.1 120.8 291.4C117.3 291.7 128.9 283.7 128.9 283.7Z" fill="#E8505B"/>
<g opacity="0.4">
<g opacity="0.4">
<g opacity="0.4">
<g opacity="0.4">
<g opacity="0.4">
<g opacity="0.4">
<g opacity="0.4">
<path opacity="0.4" d="M123.4 287.8C123.4 287.8 119.5 290.9 120.3 291.4C121.2 291.9 138.3 284.9 145.6 281.2L145.4 280.9L125.5 289.2C125.5 289.2 124.2 287.5 123.4 287.8Z" fill="white"/>
</g>
</g>
</g>
</g>
</g>
</g>
</g>
<path d="M145.6 280.8C145.6 280.8 145.5 280.9 145.4 280.9C145.2 281 144.9 281.1 144.7 281.2C144 281.5 143.1 281.9 142 282.4C139.7 283.4 136.6 284.8 133.1 286.2C129.6 287.6 126.4 288.9 124 289.7C122.9 290.1 122 290.4 121.2 290.7C120.9 290.8 120.7 290.9 120.4 291C120.2 291.1 120.1 291.1 120.1 291.1C120.1 291.1 120.2 291.1 120.4 291C120.6 290.9 120.9 290.8 121.1 290.7C121.8 290.4 122.8 290.1 123.8 289.6C126.1 288.7 129.3 287.5 132.8 286C136.3 284.6 139.5 283.2 141.8 282.2C142.9 281.7 143.8 281.3 144.5 281C144.8 280.9 145 280.8 145.2 280.7C145.5 280.9 145.6 280.8 145.6 280.8Z" fill="#263238"/>
<path d="M125.6 289.5C125.5 289.5 125.2 288.9 124.6 288.4C123.9 287.9 123.2 287.8 123.2 287.7C123.2 287.7 124 287.7 124.7 288.2C125.4 288.7 125.6 289.5 125.6 289.5Z" fill="#263238"/>
<path d="M129.101 285.459C129.133 285.414 128.867 285.17 128.507 284.914C128.148 284.658 127.83 284.487 127.798 284.532C127.766 284.577 128.032 284.821 128.391 285.077C128.751 285.333 129.069 285.504 129.101 285.459Z" fill="#263238"/>
<path d="M130.102 284.287C130.121 284.235 129.841 284.087 129.477 283.956C129.114 283.825 128.804 283.761 128.785 283.813C128.766 283.865 129.046 284.013 129.41 284.144C129.773 284.275 130.084 284.339 130.102 284.287Z" fill="#263238"/>
<path d="M129.438 283.013C129.845 282.842 130.158 282.662 130.137 282.611C130.115 282.56 129.768 282.658 129.361 282.829C128.953 283 128.64 283.18 128.662 283.231C128.683 283.282 129.031 283.184 129.438 283.013Z" fill="#263238"/>
<path d="M130.1 281.5C130.1 281.5 129.8 281.9 129.3 282.1C128.8 282.3 128.4 282.4 128.3 282.3C128.3 282.2 128.7 282.1 129.2 281.9C129.7 281.7 130 281.4 130.1 281.5Z" fill="#263238"/>
<path d="M128 284.3C128 284.3 127.7 284.5 127 284.7C126.7 284.8 126.3 284.9 125.9 284.9C125.7 284.9 125.5 284.9 125.2 284.9C125.1 284.9 124.9 284.8 124.8 284.7C124.7 284.6 124.7 284.4 124.8 284.3C125.5 283.4 126.7 283.6 127.2 283.9C127.5 284.1 127.7 284.3 127.8 284.4C127.9 284.5 127.9 284.6 127.9 284.7C127.9 284.7 127.7 284.3 127.1 284.1C126.8 284 126.5 283.9 126.1 283.9C125.7 283.9 125.2 284.1 125 284.4C124.9 284.6 125 284.7 125.2 284.8C125.4 284.8 125.6 284.8 125.8 284.8C126.2 284.8 126.6 284.7 126.9 284.7C127.7 284.4 128 284.3 128 284.3Z" fill="#263238"/>
<path d="M127.8 284.5C127.8 284.5 127.5 284.3 127.4 283.9C127.3 283.7 127.3 283.4 127.4 283.1C127.5 282.8 127.6 282.4 128 282.3C128.2 282.2 128.4 282.4 128.5 282.6C128.6 282.8 128.5 283 128.5 283.1C128.5 283.4 128.4 283.7 128.3 283.9C128.1 284.2 127.9 284.4 127.8 284.5C127.8 284.4 128 284.2 128.1 283.8C128.2 283.6 128.2 283.3 128.3 283.1C128.3 282.8 128.3 282.4 128 282.5C127.7 282.6 127.6 282.9 127.5 283.2C127.4 283.5 127.4 283.7 127.5 283.9C127.6 284.2 127.8 284.5 127.8 284.5Z" fill="#263238"/>
<path d="M143.6 276.9C143.6 276.9 143.2 277 142.5 277.4C141.9 277.7 141 278.4 140.5 279.4C140 280.4 139.8 281.4 139.9 282.1C139.9 282.8 140.1 283.3 140.1 283.3C140.1 283.3 140 283.2 140 283C139.9 282.8 139.9 282.5 139.8 282.1C139.7 281.4 139.8 280.3 140.4 279.2C141 278.2 141.8 277.5 142.5 277.2C142.8 277 143.1 276.9 143.3 276.9C143.5 276.9 143.6 276.8 143.6 276.9Z" fill="#263238"/>
<path d="M142.062 277.343C142.113 277.321 141.58 275.943 140.872 274.264C140.163 272.584 139.548 271.241 139.497 271.262C139.446 271.284 139.979 272.662 140.687 274.341C141.396 276.02 142.011 277.364 142.062 277.343Z" fill="#263238"/>
<path d="M137.6 282.7C137.6 282.7 136.7 283.3 135.5 283.8C134.3 284.3 133.2 284.6 133.2 284.5C133.2 284.4 134.2 284.1 135.4 283.6C136.6 283.1 137.5 282.6 137.6 282.7Z" fill="#263238"/>
<path d="M140.5 281.5C140.6 281.5 140.5 281.7 140.5 282C140.5 282.3 140.5 282.5 140.5 282.5C140.5 282.5 140.3 282.3 140.3 282C140.3 281.7 140.5 281.4 140.5 281.5Z" fill="#263238"/>
<path d="M140.944 280.043C141.029 279.839 141.056 279.657 141.005 279.635C140.954 279.614 140.844 279.763 140.759 279.967C140.675 280.171 140.648 280.354 140.699 280.375C140.75 280.396 140.86 280.247 140.944 280.043Z" fill="#263238"/>
<path d="M142.4 278.4C142.4 278.5 142.2 278.5 142 278.7C141.8 278.9 141.7 279 141.6 279C141.5 279 141.6 278.7 141.8 278.5C142.1 278.3 142.4 278.3 142.4 278.4Z" fill="#263238"/>
<path d="M143.275 277.855C143.395 277.741 143.462 277.616 143.424 277.576C143.386 277.536 143.258 277.595 143.138 277.709C143.017 277.823 142.95 277.948 142.988 277.988C143.026 278.028 143.154 277.968 143.275 277.855Z" fill="#263238"/>
<path d="M193.6 189.4L146.3 190.3C138.7 190.4 132.4 196.1 131.5 203.6L122.1 279.8H147.8L155.6 214H192.9L193.6 189.4Z" fill="#263238"/>
<path d="M122.4 275C122.4 275.1 128 275.3 135 275.3C141.9 275.3 147.5 275.2 147.6 275.2C148.4 275.1 142 274.9 135 274.9C128.1 274.8 122.4 274.9 122.4 275Z" fill="#455A64"/>
<path d="M219.6 187C219.6 187 219.5 187 219.4 187C219.2 187 219 187 218.7 187C218.1 187 217.2 187.1 216 187.1C213.7 187.2 210.3 187.4 206.2 187.6C197.9 188 186.5 188.6 173.9 189.3C172.3 189.4 170.8 189.5 169.2 189.5C167.7 189.5 166.1 189.6 164.7 189.7C163.2 189.8 161.8 189.9 160.3 190C158.9 190.2 157.4 190.3 156.1 190.8C154.8 191.3 153.6 192 152.6 192.9C151.6 193.8 150.9 194.9 150.5 196.1C150.1 197.3 149.8 198.4 149.6 199.5C149.4 200.6 149.4 201.7 149.4 202.8C149.4 204.9 149.8 206.8 150.5 208.3C151.2 209.8 152.2 210.9 153.1 211.6C154 212.3 154.9 212.7 155.5 212.9C156.1 213.1 156.1 213 155.5 212.8C154.9 212.6 154.1 212.2 153.2 211.5C152.3 210.8 151.4 209.7 150.7 208.2C150 206.7 149.7 204.9 149.7 202.8C149.7 201.8 149.8 200.7 150 199.6C150.2 198.5 150.4 197.4 150.9 196.2C151.3 195.1 152 194 152.9 193.2C153.8 192.3 155 191.7 156.2 191.2C157.5 190.7 158.8 190.6 160.3 190.4C161.7 190.3 163.2 190.2 164.7 190.1C166.2 190 167.7 190 169.2 189.9C170.7 189.9 172.3 189.8 173.9 189.7C186.5 189 197.9 188.4 206.2 187.9C210.3 187.7 213.6 187.4 216 187.3C217.1 187.2 218 187.2 218.7 187.1C219 187.1 219.2 187.1 219.4 187C219.5 187 219.6 187 219.6 187Z" fill="#455A64"/>
<path d="M204.5 155.4L200.4 168.3C198.8 173.6 194.4 177.6 188.8 178.7L164.9 185.3L163 180.9L161.3 174.4L182 167.4C184 167 185.6 165.4 186.2 163.4L194.4 145.5L204.8 151.9L204.5 155.4Z" fill="#B78876"/>
<path d="M214.6 115.1C205.9 116.1 203 119.7 199.5 124.9C198 127 196.8 129.4 196 131.8L189.4 150.6L203.2 154.9L202.7 170.2L196.4 188.9L249.5 193.1L249.3 166L248.9 149.6C249.4 143.4 250.7 130.3 249.6 127.1C244.9 113.8 234.4 116.3 226.8 114.4C225.2 114 217.6 114.1 216.3 114.4" fill="#E8505B"/>
<path d="M226.2 164.4C239.013 164.4 249.4 164.266 249.4 164.1C249.4 163.934 239.013 163.8 226.2 163.8C213.387 163.8 203 163.934 203 164.1C203 164.266 213.387 164.4 226.2 164.4Z" fill="#FAFAFA"/>
<path d="M225.5 173.7C238.313 173.7 248.7 173.566 248.7 173.4C248.7 173.234 238.313 173.1 225.5 173.1C212.687 173.1 202.3 173.234 202.3 173.4C202.3 173.566 212.687 173.7 225.5 173.7Z" fill="#FAFAFA"/>
<path d="M224.4 184.4C237.931 184.4 248.9 184.266 248.9 184.1C248.9 183.934 237.931 183.8 224.4 183.8C210.869 183.8 199.9 183.934 199.9 184.1C199.9 184.266 210.869 184.4 224.4 184.4Z" fill="#FAFAFA"/>
<g opacity="0.3">
<g opacity="0.3">
<g opacity="0.3">
<g opacity="0.3">
<g opacity="0.3">
<path opacity="0.3" d="M242.5 158.2C241.8 161.8 241.5 165.7 240.3 169.1C239.4 171.6 238.4 174.2 236.7 176.3C234.5 179.2 231.2 181.2 227.7 182.3C224.2 183.4 207.3 187.2 203.7 186.9L234.6 172.3L238.3 156.9L242.5 158.2Z" fill="black"/>
</g>
</g>
</g>
</g>
</g>
<path d="M240.7 157.7L237.3 170.8C236 176.2 231.7 180.5 226.2 181.8L199 188.2L191.5 188.3V178L218.9 170.6C220.9 170.1 222.4 168.4 222.9 166.4L225.5 154.9L240.7 157.7Z" fill="#B78876"/>
<path d="M224.1 126.5C238.238 126.5 249.7 126.366 249.7 126.2C249.7 126.034 238.238 125.9 224.1 125.9C209.962 125.9 198.5 126.034 198.5 126.2C198.5 126.366 209.962 126.5 224.1 126.5Z" fill="#FAFAFA"/>
<path d="M222.5 135.4C237.743 135.4 250.1 135.266 250.1 135.1C250.1 134.934 237.743 134.8 222.5 134.8C207.257 134.8 194.9 134.934 194.9 135.1C194.9 135.266 207.257 135.4 222.5 135.4Z" fill="#FAFAFA"/>
<path d="M220.309 145.204C236.326 145.079 249.308 144.843 249.307 144.677C249.306 144.511 236.321 144.479 220.305 144.604C204.288 144.73 191.306 144.966 191.307 145.132C191.308 145.297 204.293 145.33 220.309 145.204Z" fill="#FAFAFA"/>
<path d="M225.7 155.1C238.513 155.1 248.9 154.966 248.9 154.8C248.9 154.634 238.513 154.5 225.7 154.5C212.887 154.5 202.5 154.634 202.5 154.8C202.5 154.966 212.887 155.1 225.7 155.1Z" fill="#FAFAFA"/>
<path d="M245.3 158.8C245.3 158.8 245.3 158.7 245.3 158.6C245.3 158.4 245.4 158.2 245.4 158C245.5 157.4 245.6 156.6 245.8 155.6C246.1 153.5 246.6 150.4 247.1 146.6C247.6 142.8 248.2 138.1 248.5 132.9C248.6 130.3 248.8 127.5 247.5 124.9C246.9 123.6 245.9 122.5 244.7 121.7C243.5 120.9 242.1 120.3 240.6 120.1C239 119.6 237.2 119.9 235.5 120.4C233.8 121 232.2 121.8 230.8 122.9C230.5 123.1 230.3 123.4 230.1 123.7C229.9 124 229.7 124.3 229.6 124.7C229.3 125.4 229 126.1 228.8 126.8C228.4 128.2 228.1 129.7 227.9 131.2C227.4 134.1 226.9 136.9 226.4 139.6C225.4 145 224.5 150 223.7 154.4L223.5 154.2C229.9 155.6 235.2 156.7 238.9 157.5C240.7 157.9 242.1 158.2 243.1 158.4C243.6 158.5 243.9 158.6 244.2 158.7C244.4 158.8 244.6 158.8 244.6 158.8C244.6 158.8 244.5 158.8 244.2 158.8C243.9 158.7 243.5 158.7 243.1 158.6C242.1 158.4 240.7 158.1 238.8 157.8C235.1 157 229.8 156 223.4 154.7H223.2V154.5C224 150.1 224.9 145.1 225.8 139.6C226.3 136.9 226.8 134.1 227.3 131.2C227.6 129.8 227.8 128.3 228.2 126.8C228.4 126.1 228.7 125.3 229 124.6C229.2 124.2 229.3 123.9 229.6 123.6C229.8 123.2 230.1 122.9 230.4 122.7C231.9 121.5 233.5 120.6 235.3 120C237 119.4 238.9 119.1 240.7 119.7H240.6C242.2 119.9 243.7 120.5 244.9 121.4C246.2 122.3 247.2 123.4 247.9 124.8C248.3 125.5 248.5 126.2 248.7 126.8C248.8 127.5 249 128.2 249 128.9C249 129.3 249 129.6 249.1 129.9C249.1 130.2 249.1 130.6 249.1 130.9C249.1 131.6 249.1 132.2 249 132.9C248.7 138.1 248 142.8 247.4 146.6C246.8 150.4 246.3 153.5 245.9 155.6C245.7 156.6 245.6 157.4 245.4 158C245.3 158.3 245.3 158.5 245.3 158.6C245.4 158.7 245.3 158.8 245.3 158.8Z" fill="#263238"/>
<path d="M202.9 169.9C202.9 169.9 203 169.4 203 168.5C203 167.5 203 166.2 203 164.7C203 161.5 203 157.1 202.9 152.2C202.8 147.3 202.8 142.9 202.7 139.7C202.7 138.2 202.6 136.9 202.6 135.9C202.6 135 202.5 134.5 202.5 134.5C202.5 134.5 202.4 135 202.4 135.9C202.4 136.9 202.4 138.1 202.4 139.7C202.4 142.9 202.4 147.3 202.5 152.2C202.6 157.1 202.6 161.5 202.7 164.7C202.7 166.2 202.8 167.5 202.8 168.5C202.9 169.4 202.9 169.9 202.9 169.9Z" fill="#263238"/>
<path d="M219.6 190.4L220.1 188.2L199.4 186L190.4 160.1L148.4 159.8L162.2 189.8L219.6 190.4Z" fill="#455A64"/>
<path d="M175.4 176.4C176.4 175.8 176.7 174.5 176 173.5C175.4 172.5 174.1 172.2 173.1 172.9C172.1 173.5 171.8 174.8 172.5 175.8C173.1 176.7 174.4 177 175.4 176.4Z" fill="white"/>
<path d="M203.9 72.5C201.7 72.9 199.7 74.7 199.3 76.9C198.9 79.1 200 81.6 201.9 82.7C202.7 83.2 203.8 83.5 204.7 83C205.5 82.6 206 81.7 206.2 80.8C207.1 78 206.8 74.8 205.5 72.2" fill="#263238"/>
<path d="M221.3 123.6C216.3 123.6 212.3 119.5 212.3 114.5C212.3 111.4 212.4 108.7 212.4 108.7C212.4 108.7 205.2 108 204.7 100.9C204.2 93.8 204.4 77.3 204.4 77.3C212.4 73.2 222 73.9 229.5 78.9L230.6 79.6L230.3 114.6C230.2 119.6 226.2 123.6 221.3 123.6Z" fill="#B78876"/>
<path d="M212.4 108.6C212.4 108.6 216.9 108.7 221.5 105.4C221.5 105.4 219.6 110.7 212.5 110.5L212.4 108.6Z" fill="#AA6550"/>
<path d="M228.7 87.5C228.8 87.5 233.2 86.9 232.8 92.1C232.4 97.3 227.3 95.1 227.3 95C227.4 94.8 228.7 87.5 228.7 87.5Z" fill="#B78876"/>
<path d="M229.1 93.3C229.1 93.3 229.2 93.4 229.3 93.5C229.4 93.6 229.7 93.6 230 93.6C230.6 93.4 231.1 92.6 231.2 91.7C231.3 91.2 231.2 90.8 231.1 90.4C231 90 230.7 89.7 230.5 89.7C230.2 89.6 230 89.8 229.9 89.9C229.8 90 229.8 90.1 229.8 90.2C229.8 90.2 229.7 90.1 229.8 89.9C229.8 89.8 229.9 89.7 230 89.6C230.1 89.5 230.3 89.5 230.5 89.5C230.9 89.6 231.2 90 231.4 90.4C231.6 90.8 231.7 91.3 231.6 91.9C231.5 92.9 230.9 93.9 230.1 94C229.7 94.1 229.4 93.9 229.3 93.8C229.1 93.4 229.1 93.3 229.1 93.3Z" fill="#AA6550"/>
<path d="M209.3 80.2C210.3 79.8 211.8 78.4 212.7 77.8C213.6 79.2 215.1 80.1 216.7 80.3C218.3 80.5 220 79.9 221.1 78.8C221.1 79.7 221.7 80.6 222.5 81.1C223.3 81.5 224.3 81.5 225.2 81.1C225.2 83.9 225.3 86.6 225.3 89.4C225.3 90.2 225.3 91 225.8 91.7C226.3 92.3 227.4 92.5 227.8 91.9C227.7 90.9 227.6 89.8 228.1 88.9C228.5 88 229.7 87.3 230.6 87.8C230.9 86.1 230.9 84.6 230.9 82.9C230.9 82.6 230.9 81.7 231.1 81.4C231.4 80.9 231.5 81.3 232 81.2C233.5 80.9 234.7 79.4 234.8 77.9C234.9 76.4 234.1 74.8 232.8 73.9C231.5 73 229.9 72.7 228.4 72.8C229.4 71.9 229.3 70.1 228.4 69C227.5 67.9 226 67.5 224.6 67.6C223.2 67.7 221.7 68.5 221.5 69.8C221.1 67.1 218.7 64.9 216 64.8C213.3 64.7 210.7 66.8 210.2 69.4C208.5 68.7 206.2 67.8 204.6 68.6C202.9 69.4 201.5 70.5 201.2 73.3C201.2 73.3 200.8 79 204.4 80.1C207.9 81.4 209.3 80.2 209.3 80.2Z" fill="#263238"/>
<path d="M206.3 88.7C206.3 89.2 206.7 89.7 207.3 89.7C207.9 89.7 208.3 89.3 208.3 88.8C208.3 88.3 207.9 87.8 207.3 87.8C206.7 87.8 206.3 88.2 206.3 88.7Z" fill="#263238"/>
<path d="M206 87.6C206.1 87.7 206.9 87.2 208 87.2C209.1 87.2 209.9 87.7 210 87.6C210.1 87.5 209.9 87.3 209.6 87.1C209.3 86.9 208.7 86.6 208 86.6C207.3 86.6 206.8 86.9 206.4 87.1C206.1 87.3 206 87.5 206 87.6Z" fill="#263238"/>
<path d="M216.8 89C216.8 89.5 217.2 90 217.8 90C218.4 90 218.8 89.6 218.8 89.1C218.8 88.6 218.4 88.1 217.8 88.1C217.3 88 216.8 88.4 216.8 89Z" fill="#263238"/>
<path d="M216.6 87.8C216.7 87.9 217.5 87.4 218.6 87.4C219.7 87.4 220.5 87.9 220.6 87.8C220.7 87.7 220.5 87.5 220.2 87.3C219.9 87.1 219.3 86.8 218.6 86.8C217.9 86.8 217.4 87.1 217 87.3C216.7 87.5 216.6 87.7 216.6 87.8Z" fill="#263238"/>
<path d="M212.7 95.8C212.7 95.7 212 95.6 211 95.5C210.7 95.5 210.5 95.4 210.4 95.2C210.3 95 210.5 94.7 210.6 94.4C210.9 93.7 211.1 93 211.4 92.3C212.5 89.3 213.3 86.9 213.2 86.8C213.1 86.8 212.1 89.1 210.9 92.1C210.6 92.8 210.4 93.5 210.1 94.2C210 94.5 209.8 94.9 210 95.3C210.1 95.5 210.3 95.7 210.5 95.7C210.7 95.8 210.8 95.8 211 95.8C212 95.8 212.7 95.8 212.7 95.8Z" fill="#263238"/>
<path d="M215.9 96.5C215.7 96.5 215.7 97.7 214.7 98.5C213.7 99.3 212.5 99.2 212.4 99.4C212.4 99.5 212.7 99.6 213.2 99.6C213.7 99.6 214.5 99.5 215.1 98.9C215.7 98.4 216 97.7 216 97.2C216.1 96.8 216 96.5 215.9 96.5Z" fill="#263238"/>
<path d="M216.3 83.6C216.4 83.9 217.5 83.8 218.7 83.9C220 84 221 84.4 221.2 84.1C221.3 84 221.1 83.7 220.7 83.4C220.3 83.1 219.6 82.8 218.9 82.8C218.1 82.7 217.4 82.8 217 83C216.5 83.2 216.3 83.4 216.3 83.6Z" fill="#263238"/>
<path d="M206.4 84.5C206.6 84.7 207.3 84.5 208.2 84.5C209.1 84.5 209.8 84.7 210 84.4C210.1 84.3 210 84 209.6 83.8C209.3 83.6 208.7 83.4 208.1 83.4C207.5 83.4 207 83.6 206.6 83.9C206.5 84.1 206.3 84.3 206.4 84.5Z" fill="#263238"/>
<path d="M208.5 72.2C208.5 72.2 208.4 72.2 208.2 72.1C208 72.1 207.7 72.1 207.5 72.3C207.2 72.5 207 72.9 207.2 73.4C207.3 73.9 207.7 74.3 208.3 74.6C208.9 74.8 209.6 74.8 210.2 74.5C210.8 74.2 211.3 73.4 211.4 72.6C211.5 71.8 211.2 70.9 210.5 70.3C209.8 69.7 208.9 69.4 208 69.5C207.1 69.6 206.2 70.1 205.6 70.7C205 71.3 204.6 72.2 204.4 73C204 74.7 204.5 76.2 205.1 77.3C205.7 78.4 206.6 79.1 207.1 79.6C207.7 80 208.1 80.2 208.1 80.2C208.1 80.2 207.7 80.1 207 79.7C206.4 79.3 205.5 78.6 204.8 77.4C204.1 76.3 203.6 74.6 203.9 72.8C204.1 71.9 204.5 71 205.2 70.2C205.9 69.5 206.9 68.9 208 68.8C209.1 68.7 210.2 69 210.9 69.7C211.7 70.4 212.1 71.4 211.9 72.4C211.8 73.3 211.2 74.2 210.5 74.6C209.7 75 208.9 75 208.2 74.7C207.5 74.4 207.1 73.8 207 73.3C206.9 72.7 207.1 72.2 207.5 72C207.8 71.8 208.2 71.8 208.4 71.9C208.4 72.1 208.5 72.2 208.5 72.2Z" fill="#455A64"/>
<path d="M41 403.1C41.7 400.4 39.9 397.8 38 395.9C36 394 33.7 392.3 32.7 389.7C31 385.6 33.2 380.2 30.4 376.8C28.7 374.8 25.8 374.1 24.3 372C23.5 370.9 23.3 369.5 23 368.1C21.4 361.3 18 354.9 13.1 349.9C12.8 356 14.2 362.1 17 367.5C18.1 369.7 19.6 371.8 19.9 374.2C20.5 378.1 18.4 382.2 19.4 386C20.5 390.4 25.5 393.3 25.8 397.9C26 401.7 22.7 405.1 23 408.9C23.1 410.5 23.9 412 24.7 413.4C27.7 418.3 32.1 421.7 38.7 421.5L46.8 421.7L41 403.1Z" fill="#E8505B"/>
<g opacity="0.3">
<g opacity="0.3">
<g opacity="0.3">
<g opacity="0.3">
<path opacity="0.3" d="M41 403.1C41.7 400.4 39.9 397.8 38 395.9C36 394 33.7 392.3 32.7 389.7C31 385.6 33.2 380.2 30.4 376.8C28.7 374.8 25.8 374.1 24.3 372C23.5 370.9 23.3 369.5 23 368.1C21.4 361.3 18 354.9 13.1 349.9C12.8 356 14.2 362.1 17 367.5C18.1 369.7 19.6 371.8 19.9 374.2C20.5 378.1 18.4 382.2 19.4 386C20.5 390.4 25.5 393.3 25.8 397.9C26 401.7 22.7 405.1 23 408.9C23.1 410.5 23.9 412 24.7 413.4C27.7 418.3 32.1 421.7 38.7 421.5L46.8 421.7L41 403.1Z" fill="black"/>
</g>
</g>
</g>
</g>
<path d="M48.3001 422C48.3001 422 49.1001 422.2 50.5001 421.9C51.2001 421.8 52.1001 421.6 53.1001 421.2C54.1001 420.8 55.2001 420.3 56.3001 419.4C56.8001 418.9 57.3001 418.4 57.6001 417.6C57.9001 416.8 57.9001 416 58.0001 415.2C58.0001 414.4 58.0001 413.5 58.2001 412.6C58.3001 411.7 58.7001 410.8 59.2001 410C60.1001 408.3 61.7001 406.7 62.2001 404.4C62.7001 402.2 62.3001 399.7 61.9001 397.3C61.5001 394.9 61.1001 392.2 62.0001 389.7C62.9001 387.2 64.6001 384.9 65.5001 382C66.4001 379.1 65.9001 376 66.1001 373C66.2001 371.5 66.5001 369.9 67.1001 368.5C67.7001 367.1 68.6001 365.7 69.3001 364.2C70.7001 361.1 71.0001 357.7 71.3001 354.3C71.5001 352.6 71.7001 350.9 71.9001 349.1C72.1001 347.4 72.2001 345.6 72.8001 343.9C73.3001 342.2 74.0001 340.6 74.7001 338.9C75.0001 338.1 75.4001 337.2 75.6001 336.3C75.8001 335.3 75.8001 334.5 75.8001 333.5C75.9001 331.6 75.8001 329.8 75.6001 327.9C75.4001 326 75.0001 324.2 74.8001 322.3C74.8001 322.2 74.8001 322.1 74.8001 322V321.6L74.5001 321.8C72.8001 322.7 71.3001 324 70.2001 325.5C69.1001 327 68.2001 328.7 67.6001 330.4C66.3001 333.9 65.8001 337.5 65.1001 341C64.5001 344.5 63.6001 347.9 61.8001 350.8C60.9001 352.2 59.9001 353.6 58.9001 355C58.0001 356.4 57.2001 357.9 56.9001 359.6C56.4001 363 58.3001 366 58.0001 369C57.9001 370.5 57.3001 371.9 56.5001 373.2C55.8001 374.5 54.9001 375.7 54.1001 376.9C53.3001 378.1 52.5001 379.3 52.0001 380.6C51.4001 381.9 51.1001 383.3 51.0001 384.7C50.8001 387.4 51.2001 390 51.0001 392.5C50.8001 394.9 50.0001 397.2 49.0001 399.2C48.0001 401.2 47.0001 403 46.1001 404.8C45.6001 405.7 45.2001 406.5 44.9001 407.4C44.5001 408.3 44.4001 409.1 44.2001 410C43.9001 411.7 44.0001 413.2 44.2001 414.6C44.6001 417.4 45.6001 419.4 46.5001 420.5C46.7001 420.8 47.0001 421 47.2001 421.2C47.4001 421.4 47.6001 421.5 47.7001 421.6C48.1001 421.9 48.3001 422 48.3001 422C48.3001 422 47.6001 421.6 46.7001 420.5C45.8001 419.4 44.8001 417.4 44.5001 414.7C44.3001 413.3 44.3001 411.8 44.6001 410.2C44.8001 409.4 44.9001 408.5 45.3001 407.7C45.6001 406.9 46.1001 406 46.5001 405.2C47.4001 403.5 48.5001 401.7 49.5001 399.7C50.5001 397.7 51.4001 395.4 51.5001 392.9C51.7001 390.4 51.3001 387.8 51.5001 385.1C51.6001 383.8 51.9001 382.4 52.5001 381.2C53.1001 379.9 53.8001 378.7 54.6001 377.5C55.4001 376.3 56.3001 375.1 57.0001 373.8C57.7001 372.5 58.4001 371 58.5001 369.4C58.9001 366.2 57.0001 363.2 57.5001 360C57.7001 358.4 58.5001 357 59.4001 355.6C60.3001 354.2 61.4001 352.9 62.3001 351.4C64.1001 348.4 65.0001 344.9 65.6001 341.4C66.3001 337.9 66.7001 334.3 68.0001 330.9C68.7001 329.2 69.5001 327.5 70.6001 326.1C71.7001 324.6 73.1001 323.4 74.8001 322.6L74.4001 322.4C74.4001 322.5 74.4001 322.6 74.4001 322.7C74.6001 324.6 75.0001 326.4 75.2001 328.3C75.4001 330.1 75.5001 332 75.4001 333.8C75.4001 334.7 75.3001 335.6 75.2001 336.5C75.0001 337.4 74.6001 338.2 74.3001 339C73.6001 340.7 72.9001 342.3 72.4001 344.1C71.8001 345.8 71.7001 347.6 71.5001 349.4C71.3001 351.1 71.1001 352.9 71.0001 354.6C70.6001 358 70.4001 361.4 69.0001 364.3C68.3001 365.8 67.4001 367.1 66.8001 368.6C66.1001 370.1 65.8001 371.7 65.7001 373.3C65.5001 376.4 66.0001 379.5 65.1001 382.2C64.3001 385 62.5001 387.3 61.6001 389.9C60.7001 392.5 61.1001 395.3 61.5001 397.7C61.9001 400.1 62.3001 402.5 61.8001 404.7C61.3001 406.9 59.8001 408.5 58.9001 410.2C58.4001 411.1 58.0001 412 57.9001 412.9C57.8001 413.8 57.8001 414.7 57.7001 415.5C57.7001 416.3 57.6001 417.2 57.4001 417.9C57.2001 418.6 56.7001 419.2 56.2001 419.6C55.1001 420.5 54.0001 421 53.0001 421.4C52.0001 421.8 51.1001 422 50.4001 422.1C49.7001 422.2 49.1001 422.3 48.8001 422.3C48.5001 422 48.3001 422 48.3001 422Z" fill="white"/>
<path d="M73.3003 326.6C73.3003 326.6 73.3003 326.7 73.2003 326.8C73.2003 327 73.1003 327.2 73.0003 327.5C72.8003 328.1 72.7003 329.1 72.4003 330.3C72.1003 331.5 71.4003 332.9 70.7003 334.5C70.1003 336.2 69.4003 338.1 68.8003 340.2C68.2003 342.4 67.7003 344.8 67.1003 347.3C66.5003 349.9 66.0003 352.6 64.6003 355.2C63.9003 356.5 63.2003 357.9 62.6003 359.3C62.0003 360.8 61.7003 362.3 61.5003 363.9C61.1003 367.1 60.6003 370.4 59.8003 373.7C58.2003 380.3 56.7003 386.7 55.3003 392.4C53.9003 398.1 52.6003 403.3 51.6003 407.7C50.6003 412 49.7003 415.5 49.1003 418C48.8003 419.2 48.6003 420.1 48.5003 420.8C48.4003 421.1 48.4003 421.3 48.3003 421.5C48.3003 421.7 48.3003 421.8 48.3003 421.8C48.3003 421.8 48.3003 421.7 48.4003 421.6C48.5003 421.4 48.5003 421.2 48.6003 420.9C48.8003 420.2 49.0003 419.3 49.3003 418.1C49.9003 415.6 50.8003 412.1 51.9003 407.8C53.0003 403.5 54.3003 398.3 55.8003 392.6C57.2003 386.8 58.7003 380.5 60.3003 373.9C61.0003 370.6 61.6003 367.3 62.0003 364.1C62.2003 362.5 62.5003 361 63.1003 359.6C63.7003 358.2 64.4003 356.9 65.0003 355.5C66.4003 352.9 67.0003 350 67.5003 347.5C68.0003 344.9 68.5003 342.5 69.1003 340.4C69.7003 338.2 70.3003 336.3 70.9003 334.7C71.5003 333 72.2003 331.7 72.5003 330.4C72.8003 329.2 72.9003 328.2 73.0003 327.6C73.1003 327.3 73.1003 327.1 73.1003 326.9C73.3003 326.7 73.3003 326.6 73.3003 326.6Z" fill="white"/>
<path d="M49.7001 422C55.0001 418.8 56.4001 409.3 54.2001 403.6C52.0001 397.9 48.1001 392.7 47.4001 386.5C46.9001 381.8 48.4001 377 47.3001 372.4C45.8001 366.2 39.7001 361.4 39.7001 355.1C39.7001 351.5 41.7001 348.1 41.6001 344.6C41.4001 340.2 38.0001 336.8 35.9001 332.9C32.7001 327 32.4001 320 31.3001 313.4C30.2001 306.8 27.6001 299.7 21.7001 296.5C20.9001 302.1 19.4001 306 19.9001 313.6C20.1001 316.3 23.3001 321.6 23.8001 327.6C24.1001 331.2 24.3001 334.8 24.5001 338.4C24.7001 341.9 25.0001 345.4 26.2001 348.7C27.2001 351.2 28.7001 353.5 29.5001 356C30.9001 360.9 29.1001 366.1 30.2001 371C31.1001 375.2 34.0001 378.7 34.7001 383C35.6001 388.9 31.8001 395.1 33.8001 400.8C34.8001 403.6 37.1001 405.9 37.8001 408.8C38.3001 411.1 37.8001 413.4 38.3001 415.7C39.1001 419.3 46.0001 422.1 49.8001 421.9" fill="#E8505B"/>
<path d="M23.3003 302C23.3003 302 23.3003 302.1 23.3003 302.3C23.3003 302.5 23.4003 302.8 23.4003 303.2C23.5003 304 23.7003 305.2 24.0003 306.7C24.3003 308.2 25.1003 310 25.8003 312.1C26.5003 314.2 27.2003 316.6 27.8003 319.3C28.4003 322 28.9003 325 29.5003 328.2C30.1003 331.4 30.6003 334.9 32.3003 338.3C33.1003 340 33.9003 341.7 34.5003 343.5C35.1003 345.3 35.5003 347.2 35.6003 349.2C35.9003 353.2 36.4003 357.3 37.2003 361.5C38.9003 369.8 40.5003 377.8 41.9003 385C43.4003 392.2 44.8003 398.7 45.9003 404.1C47.1003 409.5 48.0003 413.9 48.7003 417C49.0003 418.5 49.3003 419.7 49.5003 420.5C49.6003 420.9 49.7003 421.2 49.7003 421.4C49.8003 421.6 49.8003 421.7 49.8003 421.7C49.8003 421.7 49.8003 421.6 49.8003 421.4C49.8003 421.2 49.7003 420.9 49.6003 420.5C49.4003 419.7 49.2003 418.5 48.9003 417C48.3003 413.9 47.4003 409.5 46.3003 404.1C45.2003 398.6 43.8003 392.2 42.4003 385C41.0003 377.8 39.4003 369.9 37.7003 361.5C36.9003 357.3 36.4003 353.2 36.1003 349.2C35.9003 347.2 35.6003 345.2 34.9003 343.4C34.2003 341.6 33.4003 339.9 32.6003 338.2C31.0003 334.9 30.4003 331.4 29.8003 328.2C29.2003 325 28.7003 322 28.0003 319.3C27.4003 316.6 26.7003 314.2 25.9003 312.1C25.2003 310 24.4003 308.3 24.1003 306.8C23.8003 305.3 23.6003 304.1 23.5003 303.3C23.4003 302.9 23.4003 302.6 23.3003 302.4C23.3003 302.1 23.3003 302 23.3003 302Z" fill="white"/>
<path d="M617.9 395.5C616.7 397.2 614.3 396.7 613.2 395.6C612.1 394.5 611.6 393 611.2 391.5C610.2 388.1 609.3 384.6 610 381.2C610.2 380.2 610.6 379.2 611.3 378.4C612 377.6 613.1 377.2 614.1 377.5C615.3 377.8 616 379 616.6 380.1C618.2 383.4 619 387 619 390.6C619.1 392.3 618.9 394.1 617.9 395.5Z" fill="#E8505B"/>
<g opacity="0.2">
<g opacity="0.2">
<g opacity="0.2">
<path opacity="0.2" d="M617.9 395.5C616.7 397.2 614.3 396.7 613.2 395.6C612.1 394.5 611.6 393 611.2 391.5C610.2 388.1 609.3 384.6 610 381.2C610.2 380.2 610.6 379.2 611.3 378.4C612 377.6 613.1 377.2 614.1 377.5C615.3 377.8 616 379 616.6 380.1C618.2 383.4 619 387 619 390.6C619.1 392.3 618.9 394.1 617.9 395.5Z" fill="black"/>
</g>
</g>
</g>
<path d="M613.3 404.3C611.3 403.3 609 403.1 606.7 403.5C605.5 403.7 604.3 404.1 603.5 404.9C602.7 405.8 602.5 407.4 603.5 408.1C604.1 408.6 604.8 408.6 605.5 408.6C607.2 408.6 609.2 408.3 610.5 409.3C611.3 409.9 611.8 410.9 612.8 411.2C613.7 411.5 614.8 410.9 615.3 410.1C615.8 409.3 615.8 408.2 615.6 407.3C615.6 407.4 615.3 405.3 613.3 404.3Z" fill="#E8505B"/>
<path d="M621.2 398C619.9 396.4 619.6 394.1 620.2 392.2C620.8 390.2 622.1 388.6 623.7 387.2C625.5 385.6 627.6 384.4 629.9 383.6C630.8 383.3 631.7 383 632.7 383.1C633.6 383.2 634.6 383.7 635 384.5C635.7 385.7 635 387.2 634.4 388.5C633.2 390.7 631.9 392.7 630.3 394.7C629.1 396.3 627.7 397.8 625.8 398.5C623.9 399.2 622 399.1 621 397.8" fill="#E8505B"/>
<path d="M618 421.7C618 421.7 617.9 421.4 617.9 420.9C617.8 420.3 617.8 419.6 617.7 418.7C617.6 417.8 617.5 416.7 617.2 415.5C616.9 414.3 616.6 413.1 616 411.8C615.5 410.5 614.8 409.4 614.1 408.4C613.4 407.5 612.5 406.8 611.7 406.4C610.9 406 610.2 405.8 609.7 405.8C609.2 405.7 608.9 405.7 608.9 405.7C608.9 405.7 609.2 405.7 609.7 405.7C610.2 405.7 611 405.9 611.8 406.3C612.7 406.7 613.6 407.4 614.3 408.3C615.1 409.3 615.7 410.4 616.3 411.7C616.8 413 617.2 414.3 617.4 415.5C617.6 416.7 617.7 417.8 617.8 418.7C617.9 419.6 617.9 420.4 617.9 420.9C618 421.5 618 421.7 618 421.7Z" fill="white"/>
<path d="M617.8 420.1C617.8 420.1 617.8 420 617.8 419.7C617.8 419.4 617.8 419.1 617.8 418.7C617.8 417.8 617.8 416.5 617.8 414.8C617.7 411.5 617.4 407.1 616.9 402.1C616.4 397.2 615.6 392.7 615 389.5C614.8 388.7 614.7 388 614.5 387.4C614.4 386.8 614.2 386.2 614.1 385.8C614 385.4 613.9 385 613.9 384.8C613.8 384.6 613.8 384.4 613.8 384.4C613.8 384.4 613.9 384.5 613.9 384.7C614 385 614.1 385.3 614.2 385.7C614.3 386.1 614.5 386.7 614.6 387.3C614.8 387.9 614.9 388.6 615.1 389.4C615.8 392.6 616.6 397 617.1 402C617.6 406.9 617.9 411.5 617.9 414.7C617.9 416.3 617.9 417.7 617.8 418.6C617.8 419 617.8 419.4 617.7 419.6C617.9 420 617.8 420.1 617.8 420.1Z" fill="white"/>
<path d="M617.8 411.4C617.8 411.4 617.8 411 617.8 410.3C617.8 409.6 617.9 408.6 618.1 407.3C618.3 406.1 618.6 404.6 619.1 403C619.5 401.4 620.1 399.6 620.9 397.9C622.4 394.3 624.4 391.4 626.2 389.6C626.6 389.1 627.1 388.8 627.5 388.4C627.7 388.2 627.9 388.1 628 387.9C628.2 387.8 628.3 387.7 628.5 387.6C629.1 387.2 629.4 387 629.4 387C629.5 387.1 628.1 387.9 626.4 389.7C624.7 391.5 622.7 394.4 621.2 397.9C620.4 399.7 619.8 401.4 619.4 403C618.9 404.6 618.6 406.1 618.4 407.3C618.2 408.5 618 409.5 618 410.2C617.9 411 617.8 411.4 617.8 411.4Z" fill="#FDFEFF"/>
</g>
<defs>
<clipPath id="clip0">
<rect width="683.4" height="428.2" fill="white"/>
</clipPath>
</defs>
</svg>
