<?xml version="1.0" encoding="utf-8"?>
<!-- Generator: Adobe Illustrator 19.2.1, SVG Export Plug-In . SVG Version: 6.00 Build 0)  -->
<svg version="1.1" id="Layer_1" xmlns="http://www.w3.org/2000/svg" xmlns:xlink="http://www.w3.org/1999/xlink" x="0px" y="0px"
	 viewBox="0 0 403 141" style="enable-background:new 0 0 403 141;" xml:space="preserve">
<style type="text/css">
	.st0{fill:#E9458D;}
</style>
<path class="st0" d="M322.3,0c-1.2,9.7-5.4,18.5-9.9,27c-26.2,50.2-67.3,80.2-123.4,87.7C111.4,124.9,38.5,76.8,16,1.9
	c-0.2-0.6-0.5-1.2-0.7-1.9C117.6,0,219.9,0,322.3,0z"/>
<path class="st0" d="M312.2,47.6c0-23.4,19.2-42.5,42.3-42.2c23.1,0.3,41.8,19.3,41.8,42.3c0,23.1-18.9,42.1-41.9,42.2
	C331.1,89.9,312.2,71,312.2,47.6z"/>
</svg>
