<svg xmlns="http://www.w3.org/2000/svg" width="45.689" height="45.689" viewBox="0 0 45.689 45.689">
  <g id="Group_14" data-name="Group 14" transform="translate(0 0)">
    <g id="Group_13" data-name="Group 13" transform="translate(0 0)">
      <g id="Group_12" data-name="Group 12" transform="translate(0 0)">
        <path id="Path_15" data-name="Path 15" d="M44.573,18.846l-3.555-.585a18.431,18.431,0,0,0-2.092-5.028l2.048-2.861a1.334,1.334,0,0,0-.141-1.723L37.052,4.866a1.334,1.334,0,0,0-1.723-.141L32.468,6.773a18.573,18.573,0,0,0-5.028-2.092l-.585-3.555A1.339,1.339,0,0,0,25.532,0H20.178a1.339,1.339,0,0,0-1.322,1.127l-.585,3.555a18.431,18.431,0,0,0-5.028,2.092L10.371,4.714a1.334,1.334,0,0,0-1.723.141L4.866,8.648a1.334,1.334,0,0,0-.141,1.723l2.048,2.861A18.573,18.573,0,0,0,4.682,18.26l-3.555.585A1.339,1.339,0,0,0,0,20.168v5.353a1.339,1.339,0,0,0,1.127,1.322l3.555.585a18.431,18.431,0,0,0,2.092,5.028L4.725,35.318a1.334,1.334,0,0,0,.141,1.723l3.782,3.782a1.334,1.334,0,0,0,1.723.141l2.861-2.048a18.573,18.573,0,0,0,5.028,2.092l.585,3.555a1.339,1.339,0,0,0,1.322,1.127h5.353a1.339,1.339,0,0,0,1.322-1.127l.585-3.555a18.431,18.431,0,0,0,5.028-2.092l2.861,2.048a1.334,1.334,0,0,0,1.723-.141l3.782-3.782a1.334,1.334,0,0,0,.141-1.723l-2.048-2.861a18.573,18.573,0,0,0,2.092-5.028l3.555-.585a1.339,1.339,0,0,0,1.127-1.322V20.168A1.338,1.338,0,0,0,44.573,18.846Zm-1.561,5.538-3.316.542A1.325,1.325,0,0,0,38.6,25.987a15.787,15.787,0,0,1-2.395,5.765,1.337,1.337,0,0,0,.022,1.528l1.907,2.677-2.178,2.178L33.28,36.228a1.337,1.337,0,0,0-1.528-.022A15.787,15.787,0,0,1,25.987,38.6,1.338,1.338,0,0,0,24.925,39.7l-.542,3.316H21.306L20.764,39.7A1.325,1.325,0,0,0,19.7,38.6a15.787,15.787,0,0,1-5.765-2.395,1.337,1.337,0,0,0-1.528.022L9.732,38.135,7.553,35.957,9.461,33.28a1.337,1.337,0,0,0,.022-1.528,15.787,15.787,0,0,1-2.395-5.765,1.338,1.338,0,0,0-1.095-1.062l-3.316-.542V21.306l3.316-.542A1.325,1.325,0,0,0,7.087,19.7a15.787,15.787,0,0,1,2.395-5.765,1.337,1.337,0,0,0-.022-1.528L7.553,9.742,9.732,7.564l2.677,1.907a1.337,1.337,0,0,0,1.528.022A15.787,15.787,0,0,1,19.7,7.1,1.338,1.338,0,0,0,20.764,6l.542-3.327h3.078l.542,3.316a1.325,1.325,0,0,0,1.062,1.095,15.787,15.787,0,0,1,5.765,2.395,1.337,1.337,0,0,0,1.528-.022l2.677-1.907,2.178,2.178-1.907,2.677a1.337,1.337,0,0,0-.022,1.528A15.787,15.787,0,0,1,38.6,19.7,1.338,1.338,0,0,0,39.7,20.764l3.316.542v3.078Z" transform="translate(0 0)" fill="#4b4949"/>
      </g>
    </g>
    <path id="Path_16" data-name="Path 16" d="M141.122,136.72h0a9.367,9.367,0,0,0-2.753-1.907,5.559,5.559,0,1,0-7.608,0,9.29,9.29,0,0,0-5.462,8.464v.466h2.319v-.466a6.952,6.952,0,0,1,13.9,0v.466h2.319v-.466A9.287,9.287,0,0,0,141.122,136.72Zm-6.556-9.19a3.24,3.24,0,1,1-3.24,3.24A3.242,3.242,0,0,1,134.566,127.53Z" transform="translate(-111.721 -111.632)" fill="#e01321"/>
  </g>
</svg>
