<svg id="Group_5" data-name="Group 5" xmlns="http://www.w3.org/2000/svg" width="47.967" height="50.785" viewBox="0 0 47.967 50.785">
  <path id="Path_1" data-name="Path 1" d="M5.975,38.847a1.87,1.87,0,0,0,.843.211,1.569,1.569,0,0,0,1.264-.7,1.75,1.75,0,0,0,.211-1.194,19.263,19.263,0,0,1-.632-4.916A20.354,20.354,0,0,1,26.9,11.879h0L25.428,14.2a1.543,1.543,0,0,0,1.615,2.318,1.671,1.671,0,0,0,.913-.632l2.809-4.354a.892.892,0,0,0,.281-.492l.492-.843-.632-.632a1.862,1.862,0,0,1-.351-.421L26.833,5.417a1.6,1.6,0,0,0-2.107-.07l-.07.07a1.548,1.548,0,0,0-.421,1.053,1.429,1.429,0,0,0,.421,1.053L25.92,8.859A23.41,23.41,0,0,0,4.5,32.245a21.616,21.616,0,0,0,.7,5.618A1.816,1.816,0,0,0,5.975,38.847Z" transform="translate(-4.499 -4.987)" fill="#4b4949"/>
  <path id="Path_2" data-name="Path 2" d="M43.091,61.844a1.722,1.722,0,0,0-1.124.421A20.44,20.44,0,0,1,13.1,60.65a17.761,17.761,0,0,1-2.177-2.95l2.739.211a1.722,1.722,0,0,0,1.124-.421,1.932,1.932,0,0,0,.562-1.053,1.5,1.5,0,0,0-1.4-1.615L7.273,54.4l-1.9,6.461a1.507,1.507,0,0,0,1.053,1.9,1.556,1.556,0,0,0,1.9-.983l.562-1.826A23.249,23.249,0,0,0,23.777,69.991a21.617,21.617,0,0,0,4.776.492A23.109,23.109,0,0,0,41.475,66.55c.913-.632,1.826-1.334,2.669-2.037a1.551,1.551,0,0,0,.14-2.177A3.9,3.9,0,0,0,43.091,61.844Z" transform="translate(-4.745 -19.697)" fill="#4b4949"/>
  <path id="Path_3" data-name="Path 3" d="M63.587,45.962a1.547,1.547,0,0,0-1.124-.351l-2.247.211A23.533,23.533,0,0,0,51.437,13.8a21.526,21.526,0,0,0-5.759-2.318,1.581,1.581,0,0,0-1.9,1.124,1.73,1.73,0,0,0,.14,1.194,1.49,1.49,0,0,0,.913.7A20.53,20.53,0,0,1,59.514,39.431a21.158,21.158,0,0,1-1.966,4.916l-.632-2.318a1.518,1.518,0,0,0-1.475-1.053h0a1.2,1.2,0,0,0-.492.07,1.551,1.551,0,0,0-.913.7,1.73,1.73,0,0,0-.14,1.194l1.686,4.916a1.015,1.015,0,0,0,.14.492l.351.913.983-.07h.351l5.337-.562a1.572,1.572,0,0,0,1.053-.562,1.652,1.652,0,0,0,.351-1.124A1.582,1.582,0,0,0,63.587,45.962Z" transform="translate(-16.181 -6.905)" fill="#4b4949"/>
  <path id="Path_4" data-name="Path 4" d="M43.239,33.178l-1.264-1.756A1.48,1.48,0,0,0,40.711,31a4.742,4.742,0,0,1-.983.14,2.755,2.755,0,0,1-1.264-.281,3.065,3.065,0,0,1-1.194-1.9,1.2,1.2,0,0,0-.983-.913L34.109,27.7h-.14a1.349,1.349,0,0,0-1.124.632,4.01,4.01,0,0,1-1.686,1.475.891.891,0,0,1-.421.07,3.707,3.707,0,0,1-1.756-.562,1.64,1.64,0,0,0-1.4,0L25.822,30.65a1.48,1.48,0,0,0-.421,1.264,3.33,3.33,0,0,1-.211,2.247,3.406,3.406,0,0,1-1.826,1.194,1.391,1.391,0,0,0-.983.983L22.1,38.445a1.38,1.38,0,0,0,.632,1.194,3.806,3.806,0,0,1,1.475,1.686,3.348,3.348,0,0,1-.492,2.177,1.276,1.276,0,0,0,0,1.4l1.264,1.756a1.48,1.48,0,0,0,1.264.421,4.742,4.742,0,0,1,.983-.14,2.755,2.755,0,0,1,1.264.281,3.5,3.5,0,0,1,1.194,1.9,1.2,1.2,0,0,0,.983.913l2.177.351h.07a1.265,1.265,0,0,0,1.124-.632,3.806,3.806,0,0,1,1.686-1.475c.14,0,.281-.07.421-.07a3.974,3.974,0,0,1,1.756.562,1.64,1.64,0,0,0,1.4,0l1.756-1.334a1.553,1.553,0,0,0,.421-1.334,3.33,3.33,0,0,1,.211-2.247,3.065,3.065,0,0,1,1.9-1.194,1.391,1.391,0,0,0,.983-.983l.351-2.177a1.38,1.38,0,0,0-.632-1.194,3.806,3.806,0,0,1-1.475-1.686,3.348,3.348,0,0,1,.492-2.177A1.18,1.18,0,0,0,43.239,33.178Zm-8.147-2.95A5.932,5.932,0,0,0,37.129,32.9a4.907,4.907,0,0,0,3.3.562l.351.492a5.364,5.364,0,0,0-.421,3.3,5.4,5.4,0,0,0,1.9,2.739l-.07.632a5.621,5.621,0,0,0-2.669,2.107,5.391,5.391,0,0,0-.632,3.3l-.492.351a6.6,6.6,0,0,0-2.318-.562,4.145,4.145,0,0,0-.983.14,5.4,5.4,0,0,0-2.739,1.9l-.632-.07a5.932,5.932,0,0,0-2.037-2.669,5.2,5.2,0,0,0-2.528-.632,2.881,2.881,0,0,0-.773.07l-.351-.492a5.519,5.519,0,0,0,.421-3.371,5.124,5.124,0,0,0-1.9-2.739l.07-.632A5.932,5.932,0,0,0,27.3,35.285a5.391,5.391,0,0,0,.632-3.3l.492-.351a5.292,5.292,0,0,0,2.318.492,4.145,4.145,0,0,0,.983-.14,5.4,5.4,0,0,0,2.739-1.9Z" transform="translate(-9.739 -11.749)" fill="#ed2129"/>
  <path id="Path_5" data-name="Path 5" d="M32.314,39.447h0a4.733,4.733,0,1,0,4-2.247,4.683,4.683,0,0,0-4,2.247Zm5.9,3.582a2.192,2.192,0,0,1-3.722-2.318,2.253,2.253,0,0,1,3.02-.773,2.3,2.3,0,0,1,.7,3.09Z" transform="translate(-12.579 -14.577)" fill="#ed2129"/>
</svg>
