<svg width="46" height="53" viewBox="0 0 46 53" fill="none" xmlns="http://www.w3.org/2000/svg">
<g clip-path="url(#clip0)">
<path d="M41.0705 37.5576L23.0834 48.056L5.05426 37.5576V16.4755L23.0834 5.97717L41.0705 16.4755V37.5576Z" fill="white"/>
<path d="M23.2874 42.3794C23.1762 42.379 23.0696 42.3342 22.9907 42.2546C22.9119 42.1751 22.8672 42.0672 22.8664 41.9545L22.8486 39.3951C22.8481 39.339 22.8587 39.2833 22.8795 39.2313C22.9004 39.1792 22.9312 39.1319 22.9702 39.092C23.0091 39.052 23.0555 39.0203 23.1066 38.9985C23.1577 38.9768 23.2126 38.9655 23.268 38.9653C23.3791 38.9653 23.4857 39.0098 23.5646 39.0891C23.6435 39.1684 23.6882 39.276 23.689 39.3886L23.7052 41.9496C23.7057 42.0056 23.6952 42.0612 23.6744 42.1131C23.6537 42.165 23.623 42.2123 23.5842 42.2522C23.5454 42.2921 23.4992 42.3239 23.4483 42.3457C23.3974 42.3675 23.3427 42.379 23.2874 42.3794ZM23.2567 37.6856C23.1454 37.6852 23.0388 37.6403 22.96 37.5608C22.8811 37.4812 22.8365 37.3734 22.8356 37.2607L22.8178 34.7013C22.8174 34.6451 22.8279 34.5895 22.8488 34.5374C22.8696 34.4854 22.9004 34.4381 22.9394 34.3981C22.9784 34.3582 23.0247 34.3265 23.0758 34.3047C23.127 34.283 23.1818 34.2717 23.2372 34.2715C23.3483 34.2715 23.4549 34.3159 23.5338 34.3952C23.6127 34.4745 23.6574 34.5822 23.6583 34.6947L23.6761 37.2558C23.6765 37.3688 23.6329 37.4774 23.5546 37.5579C23.4763 37.6384 23.3698 37.6843 23.2583 37.6856H23.2567ZM23.2259 32.9901C23.1146 32.9901 23.0079 32.9457 22.9287 32.8665C22.8496 32.7872 22.8045 32.6796 22.8032 32.5669L22.787 30.0058C22.787 29.9498 22.7979 29.8943 22.8191 29.8426C22.8402 29.7908 22.8713 29.7438 22.9104 29.7042C22.9494 29.6646 22.9959 29.6332 23.0469 29.6117C23.098 29.5903 23.1528 29.5793 23.2081 29.5793C23.2634 29.5793 23.3181 29.5903 23.3692 29.6117C23.4203 29.6332 23.4667 29.6646 23.5058 29.7042C23.5449 29.7438 23.5759 29.7908 23.5971 29.8426C23.6182 29.8943 23.6291 29.9498 23.6291 30.0058L23.6469 32.5652C23.6474 32.6214 23.6368 32.6771 23.616 32.7291C23.5951 32.7811 23.5643 32.8284 23.5253 32.8684C23.4864 32.9083 23.44 32.9401 23.3889 32.9618C23.3378 32.9835 23.2829 32.9948 23.2275 32.9951L23.2259 32.9901ZM23.1935 28.2963C23.0824 28.2963 22.9758 28.2518 22.8969 28.1725C22.818 28.0932 22.7733 27.9856 22.7725 27.873L22.7563 25.312C22.7558 25.256 22.7663 25.2004 22.7871 25.1485C22.8078 25.0966 22.8385 25.0493 22.8773 25.0094C22.9161 24.9695 22.9623 24.9377 23.0132 24.9159C23.0641 24.894 23.1188 24.8826 23.1741 24.8822C23.2853 24.8826 23.3919 24.9274 23.4708 25.007C23.5496 25.0865 23.5943 25.1944 23.5951 25.3071L23.6129 27.8665C23.6134 27.9797 23.5695 28.0886 23.4909 28.1691C23.4122 28.2497 23.3053 28.2954 23.1935 28.2963ZM23.1579 23.6025C23.0468 23.6025 22.9402 23.558 22.8613 23.4787C22.7824 23.3994 22.7377 23.2917 22.7368 23.1792L22.7206 20.6182C22.72 20.5621 22.7303 20.5064 22.751 20.4544C22.7717 20.4024 22.8023 20.3551 22.8412 20.3151C22.88 20.2751 22.9263 20.2434 22.9773 20.2216C23.0283 20.1998 23.0831 20.1885 23.1384 20.1883C23.2496 20.1883 23.3562 20.2328 23.435 20.3121C23.5139 20.3914 23.5586 20.499 23.5595 20.6116L23.5757 23.1726C23.5763 23.2287 23.566 23.2844 23.5453 23.3364C23.5246 23.3884 23.494 23.4357 23.4551 23.4757C23.4163 23.5157 23.37 23.5474 23.319 23.5692C23.268 23.5909 23.2132 23.6023 23.1579 23.6025ZM23.1271 18.9086C23.0158 18.9082 22.9092 18.8634 22.8304 18.7838C22.7516 18.7043 22.7069 18.5964 22.7061 18.4837L22.6882 15.9243C22.6878 15.8682 22.6983 15.8125 22.7192 15.7605C22.7401 15.7084 22.7709 15.6611 22.8098 15.6212C22.8488 15.5812 22.8952 15.5495 22.9463 15.5277C22.9974 15.506 23.0522 15.4947 23.1077 15.4945C23.2188 15.4945 23.3254 15.539 23.4043 15.6183C23.4831 15.6976 23.5279 15.8052 23.5287 15.9178L23.5449 18.4788C23.5454 18.5918 23.5017 18.7004 23.4234 18.7809C23.3451 18.8614 23.2386 18.9073 23.1271 18.9086ZM23.0963 14.2132C22.9852 14.2132 22.8786 14.1687 22.7997 14.0894C22.7209 14.0101 22.6761 13.9024 22.6753 13.7899L22.6575 11.2289C22.6573 11.1728 22.6679 11.1173 22.6889 11.0655C22.7099 11.0137 22.7407 10.9665 22.7796 10.9268C22.8186 10.887 22.8649 10.8554 22.9159 10.8338C22.9669 10.8121 23.0216 10.8009 23.0769 10.8007C23.188 10.8007 23.2946 10.8451 23.3735 10.9244C23.4524 11.0037 23.4971 11.1114 23.498 11.2239L23.5222 13.7817C23.5227 13.8945 23.479 14.003 23.4006 14.0832C23.3223 14.1635 23.2158 14.209 23.1044 14.2099L23.0963 14.2132Z" fill="#333A38"/>
<path d="M35.8931 34.8932C35.8204 34.8934 35.7489 34.8741 35.6858 34.8374L33.4882 33.5725C33.4375 33.5464 33.3925 33.5102 33.356 33.466C33.3195 33.4218 33.2922 33.3705 33.2757 33.3153C33.2593 33.2601 33.2541 33.2021 33.2604 33.1448C33.2667 33.0875 33.2844 33.0321 33.3125 32.982C33.3405 32.9318 33.3783 32.8879 33.4236 32.853C33.4688 32.818 33.5206 32.7927 33.5758 32.7786C33.631 32.7645 33.6884 32.7618 33.7446 32.7708C33.8008 32.7798 33.8546 32.8003 33.9028 32.831L36.1004 34.0942C36.1819 34.1404 36.246 34.2126 36.2825 34.2997C36.3191 34.3867 36.3261 34.4836 36.3023 34.5751C36.2786 34.6666 36.2255 34.7475 36.1514 34.8051C36.0773 34.8627 35.9865 34.8937 35.8931 34.8932ZM31.8639 32.575C31.7912 32.5752 31.7197 32.5559 31.6567 32.5192L29.4575 31.2543C29.362 31.1976 29.2923 31.1051 29.2637 30.9967C29.235 30.8884 29.2496 30.773 29.3044 30.6755C29.3591 30.578 29.4495 30.5062 29.5561 30.4758C29.6626 30.4453 29.7767 30.4586 29.8737 30.5127L32.0712 31.776C32.1528 31.8222 32.2168 31.8944 32.2534 31.9815C32.2899 32.0685 32.2969 32.1654 32.2732 32.2569C32.2494 32.3484 32.1963 32.4293 32.1223 32.4869C32.0482 32.5445 31.9573 32.5755 31.8639 32.575ZM27.8348 30.2568C27.7616 30.2568 27.6896 30.2376 27.6259 30.201L25.4251 28.9361C25.3296 28.8794 25.2599 28.7868 25.2313 28.6785C25.2026 28.5702 25.2173 28.4548 25.272 28.3573C25.3267 28.2598 25.4171 28.188 25.5237 28.1576C25.6302 28.1271 25.7443 28.1404 25.8413 28.1945L28.0388 29.4578C28.1204 29.5039 28.1844 29.5762 28.221 29.6633C28.2576 29.7503 28.2645 29.8472 28.2408 29.9387C28.217 30.0302 28.164 30.1111 28.0899 30.1687C28.0158 30.2263 27.9249 30.2573 27.8316 30.2568H27.8348ZM23.8056 27.9386C23.7324 27.9386 23.6605 27.9194 23.5967 27.8828L21.3992 26.6179C21.3037 26.5612 21.234 26.4686 21.2054 26.3603C21.1767 26.252 21.1913 26.1366 21.2461 26.0391C21.3008 25.9416 21.3912 25.8698 21.4978 25.8394C21.6043 25.8089 21.7184 25.8222 21.8154 25.8763L24.0129 27.1396C24.0945 27.1857 24.1585 27.258 24.1951 27.3451C24.2316 27.4321 24.2386 27.529 24.2149 27.6205C24.1911 27.712 24.138 27.7929 24.064 27.8505C23.9899 27.908 23.899 27.9391 23.8056 27.9386ZM19.7765 25.6204C19.7033 25.6204 19.6313 25.6012 19.5676 25.5646L17.37 24.2997C17.2745 24.243 17.2049 24.1504 17.1762 24.0421C17.1476 23.9338 17.1622 23.8184 17.2169 23.7209C17.2716 23.6234 17.3621 23.5516 17.4686 23.5212C17.5752 23.4907 17.6893 23.504 17.7862 23.5581L19.9838 24.8214C20.0653 24.8675 20.1294 24.9398 20.1659 25.0268C20.2025 25.1139 20.2094 25.2108 20.1857 25.3023C20.162 25.3938 20.1089 25.4747 20.0348 25.5323C19.9607 25.5898 19.8699 25.6208 19.7765 25.6204ZM15.7473 23.2973C15.6741 23.2973 15.6022 23.278 15.5384 23.2415L13.3409 21.9848C13.2434 21.9278 13.1722 21.8339 13.1431 21.7237C13.1139 21.6136 13.1291 21.4962 13.1854 21.3974C13.2417 21.2987 13.3344 21.2266 13.4431 21.197C13.5518 21.1675 13.6677 21.1829 13.7652 21.2399L15.9627 22.5032C16.0424 22.5508 16.1044 22.6236 16.1392 22.7105C16.1739 22.7973 16.1795 22.8934 16.155 22.9837C16.1305 23.0741 16.0773 23.1538 16.0036 23.2105C15.9299 23.2671 15.8398 23.2976 15.7473 23.2973ZM11.7182 20.984C11.645 20.984 11.573 20.9648 11.5093 20.9282L9.31171 19.6633C9.26288 19.636 9.21988 19.5992 9.18521 19.5549C9.15054 19.5107 9.12489 19.4599 9.10975 19.4056C9.09461 19.3512 9.09028 19.2943 9.09701 19.2382C9.10374 19.1822 9.1214 19.128 9.14896 19.0789C9.17652 19.0298 9.21344 18.9867 9.25756 18.9522C9.30169 18.9176 9.35215 18.8923 9.40601 18.8777C9.45987 18.8631 9.51606 18.8594 9.57132 18.867C9.62658 18.8746 9.6798 18.8932 9.72791 18.9217L11.9255 20.1801C12.007 20.2262 12.0711 20.2985 12.1076 20.3855C12.1442 20.4726 12.1511 20.5695 12.1274 20.6609C12.1037 20.7524 12.0506 20.8333 11.9765 20.8909C11.9024 20.9485 11.8116 20.9795 11.7182 20.9791V20.984Z" fill="#333A38"/>
<path d="M9.64694 35.602C9.55458 35.602 9.46477 35.5712 9.39137 35.5144C9.31796 35.4576 9.26503 35.378 9.24073 35.2877C9.21642 35.1974 9.2221 35.1015 9.25687 35.0148C9.29165 34.9282 9.3536 34.8555 9.43318 34.8079L11.6129 33.5118C11.6607 33.4805 11.7141 33.4593 11.7702 33.4495C11.8262 33.4397 11.8836 33.4415 11.9389 33.4547C11.9943 33.468 12.0464 33.4925 12.0921 33.5267C12.1378 33.5609 12.1762 33.6042 12.205 33.6539C12.2338 33.7035 12.2524 33.7586 12.2596 33.8157C12.2668 33.8729 12.2625 33.9309 12.247 33.9863C12.2314 34.0417 12.205 34.0934 12.1692 34.1382C12.1335 34.1829 12.0891 34.2199 12.0388 34.2469L9.85909 35.5364C9.7955 35.5772 9.7222 35.5999 9.64694 35.602ZM13.6421 33.2264C13.5499 33.2257 13.4604 33.1945 13.3873 33.1374C13.3143 33.0804 13.2616 33.0008 13.2374 32.9106C13.2132 32.8205 13.2187 32.7248 13.2532 32.6381C13.2877 32.5515 13.3492 32.4786 13.4283 32.4307L15.6081 31.1346C15.6551 31.0963 15.7098 31.0686 15.7683 31.0536C15.8268 31.0385 15.8878 31.0364 15.9472 31.0473C16.0066 31.0582 16.063 31.082 16.1125 31.1169C16.1621 31.1519 16.2036 31.1972 16.2344 31.2498C16.2651 31.3025 16.2843 31.3612 16.2907 31.422C16.297 31.4829 16.2904 31.5444 16.2712 31.6024C16.2521 31.6604 16.2208 31.7135 16.1796 31.7582C16.1384 31.8029 16.0882 31.8381 16.0324 31.8614L13.8542 33.1591C13.7898 33.1971 13.7167 33.2175 13.6421 33.2182V33.2264ZM17.6388 30.8442C17.546 30.8448 17.4555 30.8143 17.3815 30.7574C17.3075 30.7005 17.2542 30.6205 17.2298 30.5297C17.2054 30.4389 17.2113 30.3424 17.2466 30.2554C17.282 30.1684 17.3447 30.0956 17.4251 30.0485L19.6032 28.7524C19.6996 28.695 19.8146 28.6787 19.9229 28.7071C20.0312 28.7356 20.1239 28.8065 20.1805 28.9042C20.2372 29.0018 20.2533 29.1183 20.2252 29.228C20.1971 29.3377 20.1272 29.4316 20.0308 29.489L17.851 30.7851C17.7867 30.8234 17.7135 30.8438 17.6388 30.8442ZM21.634 28.4669C21.5411 28.4675 21.4506 28.437 21.3766 28.3801C21.3027 28.3233 21.2493 28.2432 21.2249 28.1524C21.2005 28.0616 21.2065 27.9652 21.2418 27.8781C21.2771 27.7911 21.3398 27.7184 21.4202 27.6712L23.6 26.3751C23.6477 26.3468 23.7005 26.3283 23.7553 26.3206C23.8101 26.3129 23.8659 26.3163 23.9194 26.3304C23.973 26.3446 24.0232 26.3693 24.0673 26.4032C24.1114 26.437 24.1485 26.4793 24.1765 26.5277C24.2045 26.5761 24.2228 26.6295 24.2303 26.6851C24.2379 26.7406 24.2346 26.7971 24.2206 26.8513C24.2066 26.9056 24.1822 26.9565 24.1488 27.0012C24.1154 27.0459 24.0736 27.0834 24.0259 27.1118L21.8461 28.4079C21.7815 28.4452 21.7083 28.4644 21.634 28.4636V28.4669ZM25.6291 26.0864C25.5369 26.0857 25.4475 26.0544 25.3744 25.9974C25.3013 25.9404 25.2487 25.8608 25.2244 25.7706C25.2002 25.6805 25.2058 25.5848 25.2402 25.4981C25.2747 25.4115 25.3362 25.3386 25.4154 25.2907L27.5951 23.9946C27.6429 23.9662 27.6957 23.9477 27.7505 23.9401C27.8053 23.9324 27.861 23.9357 27.9146 23.9499C27.9681 23.9641 28.0184 23.9888 28.0625 24.0226C28.1066 24.0565 28.1437 24.0988 28.1716 24.1472C28.1996 24.1955 28.2179 24.249 28.2255 24.3045C28.233 24.3601 28.2297 24.4165 28.2157 24.4708C28.2018 24.525 28.1774 24.5759 28.144 24.6206C28.1105 24.6653 28.0688 24.7029 28.021 24.7312L25.8429 26.0273C25.778 26.0656 25.7043 26.086 25.6291 26.0864ZM29.6243 23.7091C29.5319 23.7091 29.4421 23.6783 29.3687 23.6215C29.2953 23.5647 29.2424 23.4851 29.2181 23.3948C29.1938 23.3045 29.1994 23.2086 29.2342 23.1219C29.269 23.0353 29.3309 22.9625 29.4105 22.915L31.5903 21.6173C31.6867 21.5599 31.8017 21.5436 31.91 21.5721C32.0182 21.6005 32.1109 21.6714 32.1676 21.7691C32.2243 21.8667 32.2404 21.9832 32.2123 22.0929C32.1842 22.2026 32.1142 22.2965 32.0178 22.3539L29.838 23.65C29.7731 23.6883 29.6994 23.7087 29.6243 23.7091ZM33.621 21.3286C33.5475 21.3285 33.4753 21.3091 33.4115 21.2723C33.3476 21.2355 33.2942 21.1825 33.2567 21.1186C33.2287 21.0702 33.2103 21.0167 33.2028 20.9612C33.1952 20.9056 33.1985 20.8491 33.2125 20.7949C33.2264 20.7406 33.2508 20.6897 33.2843 20.645C33.3177 20.6004 33.3595 20.5628 33.4073 20.5345L35.587 19.2368C35.6834 19.1795 35.7984 19.1635 35.9065 19.1921C36.0146 19.2207 36.1071 19.2917 36.1635 19.3893C36.22 19.487 36.2359 19.6034 36.2076 19.713C36.1794 19.8225 36.1094 19.9162 36.0129 19.9734L33.8332 21.2695C33.7692 21.3087 33.6958 21.3292 33.621 21.3286Z" fill="#333A38"/>
<path d="M28.7709 25.6942C28.7904 24.4112 28.3456 23.1654 27.5203 22.1921C26.695 21.2188 25.5464 20.5854 24.2916 20.4115C23.0367 20.2376 21.7624 20.5353 20.7095 21.2484C19.6565 21.9614 18.8977 23.0404 18.5765 24.2816C17.4995 24.3621 16.4951 24.8621 15.7741 25.6768C15.0532 26.4914 14.6717 27.5573 14.7099 28.6507C14.748 29.7442 15.2028 30.7801 15.9787 31.5412C16.7546 32.3022 17.7913 32.7292 18.8713 32.7325H28.3919C29.2854 32.7355 30.1458 32.3908 30.7956 31.7695C31.4453 31.1482 31.8347 30.2979 31.8834 29.3941C31.932 28.4903 31.6362 27.6021 31.0569 26.9129C30.4777 26.2238 29.6593 25.7863 28.7709 25.6909V25.6942Z" fill="#E0166C"/>
<path d="M28.3919 33.5889H18.8712C17.628 33.579 16.4325 33.102 15.5165 32.2503C14.6004 31.3987 14.0289 30.233 13.9126 28.9789C13.7963 27.7248 14.1435 26.4716 14.8869 25.462C15.6303 24.4524 16.7171 23.7582 17.9368 23.5138C18.412 22.227 19.3017 21.1401 20.4621 20.4289C21.6224 19.7177 22.9856 19.4237 24.3313 19.5945C25.6769 19.7652 26.9264 20.3907 27.8778 21.3699C28.8292 22.349 29.4268 23.6246 29.5741 24.9904C30.5814 25.2763 31.4523 25.9225 32.0253 26.8092C32.5983 27.6959 32.8345 28.763 32.6902 29.8128C32.5459 30.8625 32.0308 31.8236 31.2404 32.5179C30.4501 33.2123 29.438 33.5928 28.3919 33.5889ZM23.5903 21.2547C22.6347 21.2549 21.7058 21.5735 20.9466 22.1615C20.1875 22.7494 19.6403 23.5739 19.3895 24.508L19.2275 25.0888L18.6348 25.1364C17.7974 25.2068 17.0162 25.5919 16.4448 26.216C15.8734 26.8402 15.553 27.6582 15.5465 28.5095C15.5474 29.4034 15.8983 30.2605 16.5222 30.8926C17.1461 31.5246 17.9921 31.8801 18.8745 31.881H28.3951C29.0713 31.8789 29.721 31.6142 30.2105 31.1415C30.6999 30.6688 30.9919 30.0241 31.0264 29.3399C31.0608 28.6557 30.8351 27.9842 30.3956 27.4635C29.9562 26.9428 29.3364 26.6126 28.664 26.5408L27.9223 26.4522V25.6942C27.9249 24.5247 27.4709 23.4017 26.6594 22.57C25.8478 21.7383 24.7446 21.2655 23.5903 21.2547Z" fill="#333A38"/>
<path d="M23.0834 48.9091C22.9362 48.909 22.7916 48.87 22.664 48.7959L4.6348 38.2959C4.50648 38.2212 4.39976 38.1137 4.3253 37.9842C4.25084 37.8546 4.21126 37.7075 4.21051 37.5576V16.4755C4.21081 16.3255 4.25002 16.1782 4.3242 16.0483C4.39838 15.9185 4.50493 15.8106 4.63318 15.7356L22.6721 5.23724C22.7999 5.16266 22.9448 5.12341 23.0923 5.12341C23.2398 5.12341 23.3847 5.16266 23.5125 5.23724L41.4996 15.7373C41.6276 15.8123 41.734 15.9202 41.8079 16.0501C41.8818 16.18 41.9207 16.3273 41.9206 16.4772V37.5592C41.9207 37.7091 41.8818 37.8564 41.8079 37.9863C41.734 38.1162 41.6276 38.2241 41.4996 38.2992L23.5125 48.7992C23.3817 48.8738 23.2335 48.9117 23.0834 48.9091ZM5.89796 37.0638L23.0834 47.0716L40.2283 37.0638V16.9694L23.0834 6.96154L5.89796 16.9694V37.0638Z" fill="#333A38"/>
<path d="M23.0834 51.5981C25.4097 51.5981 27.2956 49.6876 27.2956 47.3309C27.2956 44.9741 25.4097 43.0636 23.0834 43.0636C20.7571 43.0636 18.8713 44.9741 18.8713 47.3309C18.8713 49.6876 20.7571 51.5981 23.0834 51.5981Z" fill="white"/>
<path d="M23.0834 49.5079C24.2702 49.5079 25.2324 48.5332 25.2324 47.3308C25.2324 46.1284 24.2702 45.1537 23.0834 45.1537C21.8965 45.1537 20.9344 46.1284 20.9344 47.3308C20.9344 48.5332 21.8965 49.5079 23.0834 49.5079Z" fill="#D6DCDE"/>
<path d="M23.0834 52.4512C22.0834 52.4512 21.1058 52.1508 20.2743 51.5879C19.4429 51.025 18.7948 50.225 18.4122 49.2889C18.0296 48.3529 17.9296 47.323 18.1248 46.3293C18.32 45.3357 18.8017 44.4231 19.5089 43.7068C20.2162 42.9905 21.1172 42.5028 22.098 42.3054C23.0789 42.1079 24.0955 42.2096 25.0193 42.5975C25.9431 42.9854 26.7326 43.6422 27.288 44.4847C27.8433 45.3273 28.1396 46.3177 28.1393 47.3308C28.138 48.6887 27.6049 49.9906 26.6569 50.9506C25.709 51.9107 24.4238 52.4504 23.0834 52.4512ZM23.0834 43.92C22.4169 43.92 21.7653 44.1202 21.2111 44.4954C20.6569 44.8705 20.225 45.4037 19.9699 46.0276C19.7148 46.6514 19.6481 47.3379 19.7781 48.0002C19.9081 48.6625 20.2291 49.2708 20.7004 49.7483C21.1717 50.2258 21.7722 50.5509 22.4259 50.6827C23.0797 50.8144 23.7573 50.7468 24.3731 50.4884C24.9889 50.23 25.5152 49.7924 25.8855 49.2309C26.2558 48.6695 26.4534 48.0094 26.4534 47.3341C26.4534 46.4283 26.0985 45.5596 25.4666 44.9188C24.8347 44.278 23.9775 43.9176 23.0834 43.9167V43.92Z" fill="#333A38"/>
<path d="M23.0834 10.3724C25.4097 10.3724 27.2956 8.46191 27.2956 6.10516C27.2956 3.74841 25.4097 1.83789 23.0834 1.83789C20.7571 1.83789 18.8713 3.74841 18.8713 6.10516C18.8713 8.46191 20.7571 10.3724 23.0834 10.3724Z" fill="white"/>
<path d="M23.0834 8.2822C24.2702 8.2822 25.2324 7.30747 25.2324 6.10509C25.2324 4.9027 24.2702 3.92798 23.0834 3.92798C21.8965 3.92798 20.9344 4.9027 20.9344 6.10509C20.9344 7.30747 21.8965 8.2822 23.0834 8.2822Z" fill="#D6DCDE"/>
<path d="M23.0834 11.2272C22.0834 11.2272 21.1059 10.9268 20.2745 10.364C19.4431 9.8012 18.7951 9.00124 18.4124 8.06531C18.0297 7.12938 17.9296 6.09951 18.1247 5.10593C18.3198 4.11236 18.8013 3.1997 19.5084 2.48337C20.2154 1.76704 21.1163 1.27921 22.0971 1.08158C23.0778 0.88394 24.0944 0.985374 25.0182 1.37305C25.942 1.76072 26.7317 2.41723 27.2872 3.25954C27.8428 4.10186 28.1393 5.09215 28.1393 6.10519C28.138 7.46324 27.6049 8.7653 26.657 9.72558C25.7091 10.6859 24.4239 11.2259 23.0834 11.2272ZM23.0834 2.69597C22.4169 2.69597 21.7653 2.89621 21.2111 3.27136C20.6569 3.64651 20.225 4.17973 19.9699 4.80358C19.7148 5.42743 19.6481 6.1139 19.7781 6.77618C19.9081 7.43846 20.2291 8.0468 20.7004 8.52428C21.1717 9.00176 21.7722 9.32692 22.4259 9.45866C23.0797 9.59039 23.7573 9.52278 24.3731 9.26437C24.9889 9.00597 25.5152 8.56837 25.8855 8.00691C26.2558 7.44546 26.4534 6.78537 26.4534 6.11012C26.4534 5.20418 26.0985 4.33527 25.4667 3.69421C24.8348 3.05315 23.9776 2.69235 23.0834 2.69105V2.69597Z" fill="#333A38"/>
<path d="M40.9441 21.0414C43.2704 21.0414 45.1563 19.1309 45.1563 16.7741C45.1563 14.4174 43.2704 12.5068 40.9441 12.5068C38.6178 12.5068 36.732 14.4174 36.732 16.7741C36.732 19.1309 38.6178 21.0414 40.9441 21.0414Z" fill="white"/>
<path d="M40.9441 18.9513C42.131 18.9513 43.0931 17.9765 43.0931 16.7742C43.0931 15.5718 42.131 14.597 40.9441 14.597C39.7573 14.597 38.7951 15.5718 38.7951 16.7742C38.7951 17.9765 39.7573 18.9513 40.9441 18.9513Z" fill="#D6DCDE"/>
<path d="M40.9441 21.8962C39.9442 21.8962 38.9667 21.5958 38.1352 21.033C37.3038 20.4701 36.6558 19.6702 36.2731 18.7343C35.8904 17.7983 35.7903 16.7685 35.9854 15.7749C36.1805 14.7813 36.662 13.8686 37.3691 13.1523C38.0761 12.436 38.977 11.9482 39.9578 11.7505C40.9385 11.5529 41.9551 11.6543 42.8789 12.042C43.8027 12.4297 44.5924 13.0862 45.1479 13.9285C45.7035 14.7708 46 15.7611 46 16.7741C45.9987 18.1322 45.4656 19.4342 44.5177 20.3945C43.5698 21.3548 42.2846 21.8949 40.9441 21.8962ZM40.9441 13.3649C40.2776 13.3649 39.626 13.5652 39.0718 13.9403C38.5176 14.3155 38.0857 14.8487 37.8306 15.4725C37.5755 16.0964 37.5088 16.7828 37.6388 17.4451C37.7689 18.1074 38.0898 18.7157 38.5611 19.1932C39.0324 19.6707 39.6329 19.9959 40.2866 20.1276C40.9404 20.2593 41.618 20.1917 42.2338 19.9333C42.8496 19.6749 43.3759 19.2373 43.7462 18.6759C44.1165 18.1144 44.3141 17.4543 44.3141 16.7791C44.3142 15.8731 43.9592 15.0042 43.3274 14.3632C42.6955 13.7221 41.8383 13.3613 40.9441 13.36V13.3649Z" fill="#333A38"/>
<path d="M40.9441 41.9102C43.2704 41.9102 45.1563 39.9996 45.1563 37.6429C45.1563 35.2861 43.2704 33.3756 40.9441 33.3756C38.6178 33.3756 36.732 35.2861 36.732 37.6429C36.732 39.9996 38.6178 41.9102 40.9441 41.9102Z" fill="white"/>
<path d="M40.9441 39.8199C42.131 39.8199 43.0931 38.8452 43.0931 37.6428C43.0931 36.4404 42.131 35.4657 40.9441 35.4657C39.7573 35.4657 38.7951 36.4404 38.7951 37.6428C38.7951 38.8452 39.7573 39.8199 40.9441 39.8199Z" fill="#D6DCDE"/>
<path d="M40.9441 42.7633C39.9445 42.7629 38.9675 42.4624 38.1366 41.8995C37.3056 41.3367 36.658 40.5369 36.2757 39.6012C35.8935 38.6656 35.7936 37.6361 35.9888 36.6429C36.184 35.6498 36.6655 34.7376 37.3724 34.0216C38.0793 33.3057 38.9799 32.8182 39.9603 32.6207C40.9407 32.4233 41.9568 32.5248 42.8803 32.9124C43.8037 33.3 44.593 33.9563 45.1483 34.7983C45.7036 35.6403 46 36.6302 46 37.6429C45.9987 39.0008 45.4656 40.3026 44.5176 41.2627C43.5697 42.2227 42.2845 42.7624 40.9441 42.7633ZM40.9441 34.232C40.2776 34.232 39.626 34.4322 39.0718 34.8074C38.5176 35.1825 38.0857 35.7158 37.8306 36.3396C37.5755 36.9635 37.5088 37.6499 37.6388 38.3122C37.7689 38.9745 38.0898 39.5828 38.5611 40.0603C39.0324 40.5378 39.6329 40.863 40.2867 40.9947C40.9404 41.1264 41.618 41.0588 42.2338 40.8004C42.8496 40.542 43.3759 40.1044 43.7462 39.5429C44.1165 38.9815 44.3142 38.3214 44.3142 37.6461C44.3142 36.7404 43.9592 35.8716 43.3273 35.2308C42.6954 34.59 41.8382 34.2296 40.9441 34.2287V34.232Z" fill="#333A38"/>
<path d="M5.05425 21.0414C7.38055 21.0414 9.26639 19.1309 9.26639 16.7741C9.26639 14.4174 7.38055 12.5068 5.05425 12.5068C2.72794 12.5068 0.842102 14.4174 0.842102 16.7741C0.842102 19.1309 2.72794 21.0414 5.05425 21.0414Z" fill="white"/>
<path d="M5.05426 18.9513C6.24112 18.9513 7.20325 17.9765 7.20325 16.7742C7.20325 15.5718 6.24112 14.597 5.05426 14.597C3.86741 14.597 2.90527 15.5718 2.90527 16.7742C2.90527 17.9765 3.86741 18.9513 5.05426 18.9513Z" fill="#D6DCDE"/>
<path d="M5.05422 21.8962C4.05427 21.8962 3.07677 21.5958 2.24533 21.033C1.4139 20.4701 0.765876 19.6702 0.38321 18.7343C0.000542683 17.7983 -0.0995804 16.7685 0.0955015 15.7749C0.290583 14.7813 0.772108 13.8686 1.47918 13.1523C2.18626 12.436 3.08713 11.9482 4.06787 11.7505C5.04862 11.5529 6.06518 11.6543 6.98902 12.042C7.91286 12.4297 8.70248 13.0862 9.25803 13.9285C9.81357 14.7708 10.1101 15.7611 10.1101 16.7741C10.1088 18.1322 9.57572 19.4342 8.62784 20.3945C7.67996 21.3548 6.39473 21.8949 5.05422 21.8962ZM5.05422 13.3649C4.38735 13.3643 3.73528 13.5641 3.18054 13.9391C2.62581 14.314 2.19337 14.8473 1.93794 15.4714C1.68252 16.0955 1.6156 16.7823 1.74566 17.4449C1.87573 18.1076 2.19692 18.7162 2.66858 19.1938C3.14025 19.6714 3.74118 19.9965 4.39531 20.128C5.04945 20.2594 5.72737 20.1913 6.34327 19.9322C6.95916 19.6732 7.48535 19.2348 7.85521 18.6726C8.22507 18.1104 8.42199 17.4497 8.42103 16.7741C8.41974 15.8696 8.06472 15.0025 7.43369 14.3626C6.80266 13.7227 5.94706 13.3622 5.05422 13.36V13.3649Z" fill="#333A38"/>
<path d="M5.05425 41.9102C7.38055 41.9102 9.26639 39.9996 9.26639 37.6429C9.26639 35.2861 7.38055 33.3756 5.05425 33.3756C2.72794 33.3756 0.842102 35.2861 0.842102 37.6429C0.842102 39.9996 2.72794 41.9102 5.05425 41.9102Z" fill="white"/>
<path d="M5.05426 39.8199C6.24112 39.8199 7.20325 38.8452 7.20325 37.6428C7.20325 36.4404 6.24112 35.4657 5.05426 35.4657C3.86741 35.4657 2.90527 36.4404 2.90527 37.6428C2.90527 38.8452 3.86741 39.8199 5.05426 39.8199Z" fill="#D6DCDE"/>
<path d="M5.05428 42.7633C4.05471 42.7629 3.07769 42.4624 2.24673 41.8995C1.41578 41.3367 0.768214 40.5369 0.385918 39.6012C0.00362155 38.6656 -0.0962385 37.6361 0.0989638 36.6429C0.294166 35.6498 0.775664 34.7376 1.48258 34.0216C2.18949 33.3057 3.09008 32.8182 4.07046 32.6207C5.05085 32.4233 6.067 32.5248 6.99045 32.9124C7.9139 33.3 8.70317 33.9563 9.25847 34.7983C9.81377 35.6403 10.1102 36.6302 10.1102 37.6429C10.1089 39.0008 9.57573 40.3026 8.6278 41.2627C7.67988 42.2227 6.39464 42.7624 5.05428 42.7633ZM5.05428 34.232C4.38748 34.2313 3.73547 34.4311 3.18077 34.806C2.62607 35.1809 2.19362 35.7141 1.93815 36.3381C1.68268 36.9621 1.61567 37.6488 1.7456 38.3114C1.87553 38.974 2.19656 39.5826 2.66807 40.0603C3.13957 40.538 3.74035 40.8632 4.39438 40.9948C5.0484 41.1265 5.72627 41.0586 6.3422 40.7998C6.95812 40.541 7.48442 40.1029 7.85448 39.5409C8.22454 38.9789 8.42172 38.3184 8.42108 37.6429C8.42023 36.7382 8.06534 35.8708 7.43422 35.2308C6.8031 34.5908 5.94725 34.2305 5.05428 34.2287V34.232Z" fill="#333A38"/>
</g>
<defs>
<clipPath id="clip0">
<rect width="46" height="51.4665" fill="white" transform="translate(0 0.984741)"/>
</clipPath>
</defs>
</svg>
