<svg id="product" xmlns="http://www.w3.org/2000/svg" width="589.55" height="548.983" viewBox="0 0 589.55 548.983">
  <path id="Path_17" data-name="Path 17" d="M109.659,207.711c7.987,17.432,12.478,33.93,6.593,41.285a9.631,9.631,0,0,1-1.137,1.194c-4.532,3.992-13.443,4.081-28.49-1.86-40.043-15.813-41.942-43.108-50.041-69.766C28.6,152.241.711,156.69,0,156.807,64.983,134.174,96.105,178.154,109.659,207.711Z" transform="translate(0 23.306)" fill="#1a4694"/>
  <path id="Path_18" data-name="Path 18" d="M108.619,245.748a9.611,9.611,0,0,1-1.137,1.194c-7.523-4.529-21.913-14.139-28.715-24.924a157.943,157.943,0,0,1-8.749-16.866c-5.4-11.452-10.972-23.295-20.709-32.393l1.086-1.169c9.962,9.295,15.6,21.277,21.062,32.869a155.962,155.962,0,0,0,8.657,16.691C86.738,231.689,101.3,241.334,108.619,245.748Z" transform="translate(7.633 26.561)" fill="#fff"/>
  <path id="Path_19" data-name="Path 19" d="M95.366,219.821c-.473,1.159-.778,1.818-.81,1.907q-.186-.953-.365-1.907c-5.342-27.371-12.484-30.229-33.9-54.171-21.913-24.489-9.308-47.3-9.308-47.3C124.365,139.551,100.352,207.585,95.366,219.821Z" transform="translate(7.333 18.319)" fill="#548ae7"/>
  <path id="Path_20" data-name="Path 20" d="M92.493,215.987c-.473,1.159-.778,1.817-.81,1.905q-.186-.953-.365-1.905c2.379-23.662-11.9-51.428-16.384-56.411-4.64-5.157-7.5-12.252-8.575-14.926-.181-.445-.352-.867-.406-.953l1.035-.584c.089.162.21.457.473,1.105,1.054,2.619,3.862,9.571,8.365,14.57C81.5,165.1,94.675,193,92.493,215.987Z" transform="translate(10.209 22.153)" fill="#1a4694"/>
  <path id="Path_21" data-name="Path 21" d="M450.6,111.3l-9.042-14.8a2.576,2.576,0,1,1,4.4-2.687l6.4,10.48,17-10.064a2.581,2.581,0,1,1,2.623,4.446Z" transform="translate(68.292 14.331)" fill="#f0c141"/>
  <path id="Path_22" data-name="Path 22" d="M458.944,137.275a32.557,32.557,0,1,1,22.99-9.535A32.524,32.524,0,0,1,458.944,137.275Zm0-60.4a27.908,27.908,0,1,0,19.707,8.174A27.88,27.88,0,0,0,458.944,76.872Z" transform="translate(66.007 11.18)" fill="#f0c141"/>
  <path id="Path_23" data-name="Path 23" d="M362.89,68.928,357.3,59.779a1.593,1.593,0,1,1,2.718-1.661l3.954,6.472,10.505-6.218a1.592,1.592,0,1,1,1.622,2.741Z" transform="translate(55.272 8.878)" fill="#f0c141"/>
  <path id="Path_24" data-name="Path 24" d="M368.052,84.967a20.123,20.123,0,1,1,14.206-5.893A20.1,20.1,0,0,1,368.052,84.967Zm0-37.328a17.252,17.252,0,1,0,12.176,5.053A17.226,17.226,0,0,0,368.052,47.639Z" transform="translate(53.861 6.93)" fill="#f0c141"/>
  <path id="Path_25" data-name="Path 25" d="M273.8,40.483l-8.574-14.037a2.442,2.442,0,0,1,4.166-2.541l6.066,9.927,16.116-9.527a2.443,2.443,0,1,1,2.487,4.2Z" transform="translate(41.008 3.533)" fill="#c0d8ff"/>
  <path id="Path_26" data-name="Path 26" d="M281.72,65.121a30.872,30.872,0,1,1,21.792-9.042A30.834,30.834,0,0,1,281.72,65.121Zm0-57.262a26.456,26.456,0,1,0,18.68,7.749A26.432,26.432,0,0,0,281.72,7.859Z" transform="translate(38.836 0.535)" fill="#c0d8ff"/>
  <path id="Path_27" data-name="Path 27" d="M194.868,68.821,189.2,59.544a1.613,1.613,0,0,1,2.753-1.68l4.008,6.558,10.648-6.3a1.614,1.614,0,0,1,1.644,2.779Z" transform="translate(29.254 8.843)" fill="#f0c141"/>
  <path id="Path_28" data-name="Path 28" d="M200.107,85.1a20.4,20.4,0,1,1,14.4-5.973A20.372,20.372,0,0,1,200.107,85.1Zm0-37.836a17.482,17.482,0,1,0,12.346,5.12A17.466,17.466,0,0,0,200.107,47.26Z" transform="translate(27.822 6.865)" fill="#f0c141"/>
  <path id="Path_29" data-name="Path 29" d="M126.145,30.641l-7.092-11.614a2.021,2.021,0,0,1,3.449-2.106l5.014,8.213,13.338-7.892a2.02,2.02,0,1,1,2.052,3.471Z" transform="translate(18.383 2.47)" fill="#f0c141"/>
  <path id="Path_30" data-name="Path 30" d="M132.7,51.009a25.533,25.533,0,1,1,18.026-7.479A25.5,25.5,0,0,1,132.7,51.009Zm0-47.367a21.887,21.887,0,1,0,15.45,6.412A21.859,21.859,0,0,0,132.7,3.643Z" transform="translate(16.593 0)" fill="#f0c141"/>
  <path id="Path_31" data-name="Path 31" d="M48.014,80.818,40.151,67.944a2.239,2.239,0,0,1,3.811-2.334l5.561,9.1,14.8-8.74a2.24,2.24,0,0,1,2.28,3.855Z" transform="translate(6.175 10.009)" fill="#c0d8ff"/>
  <path id="Path_32" data-name="Path 32" d="M55.288,103.418a28.306,28.306,0,1,1,19.974-8.29A28.264,28.264,0,0,1,55.288,103.418Zm0-52.511a24.263,24.263,0,1,0,17.131,7.106A24.237,24.237,0,0,0,55.288,50.906Z" transform="translate(4.183 7.258)" fill="#c0d8ff"/>
  <path id="Path_33" data-name="Path 33" d="M421.085,34.061l-4.469-7.3a1.273,1.273,0,1,1,2.172-1.327l3.177,5.176,8.4-4.973a1.274,1.274,0,0,1,1.3,2.191Z" transform="translate(64.461 3.842)" fill="#c0d8ff"/>
  <path id="Path_34" data-name="Path 34" d="M425.219,46.9a16.094,16.094,0,1,1,11.362-4.714A16.082,16.082,0,0,1,425.219,46.9Zm0-29.852a5.709,5.709,0,1,0,0-.006Z" transform="translate(63.332 2.283)" fill="#c0d8ff"/>
  <path id="Path_35" data-name="Path 35" d="M225.629,437.185h44.346V302.494H225.629Z" transform="translate(34.926 46.824)" fill="#1a4694"/>
  <path id="Path_36" data-name="Path 36" d="M98.516,394.888H442.48a19.476,19.476,0,0,0,19.477-19.477V144.234a19.477,19.477,0,0,0-19.477-19.477H98.516a19.477,19.477,0,0,0-19.477,19.477V375.411A19.477,19.477,0,0,0,98.516,394.888Z" transform="translate(12.235 19.312)" fill="#cfc2e7"/>
  <path id="Path_37" data-name="Path 37" d="M92.022,356.411H441.7V99.863H92.022Z" transform="translate(17.489 15.458)" fill="#00328d"/>
  <path id="Path_38" data-name="Path 38" d="M92.022,130.85H444.949V99.864H92.022Z" transform="translate(14.245 15.458)" fill="#548ae7"/>
  <path id="Path_39" data-name="Path 39" d="M360.445,340.465c0,6.821,6.5,12.354,14.526,12.354s14.523-5.533,14.523-12.354-6.5-12.35-14.523-12.35S360.445,333.627,360.445,340.465Z" transform="translate(55.795 50.79)" fill="#fff"/>
  <path id="Path_40" data-name="Path 40" d="M357.955,414.727h-199.5v10.166h199.5Z" transform="translate(24.528 64.197)" fill="#548ae7"/>
  <path id="Path_41" data-name="Path 41" d="M150.913,108.21h-41.92a4.208,4.208,0,0,0-4.208,4.208v3.292a4.208,4.208,0,0,0,4.208,4.208h41.92a4.208,4.208,0,0,0,4.208-4.208v-3.292A4.208,4.208,0,0,0,150.913,108.21Z" transform="translate(16.22 16.75)" fill="#f5f7ff"/>
  <path id="Path_42" data-name="Path 42" d="M299.185,220.188H114.406v6.351H299.185Z" transform="translate(17.709 34.084)" fill="#e6e6e6"/>
  <path id="Path_43" data-name="Path 43" d="M251.457,230.093H114.406v6.351H251.457Z" transform="translate(17.709 35.617)" fill="#e6e6e6"/>
  <path id="Path_44" data-name="Path 44" d="M201.3,251.618h-86.9v6.351h86.9Z" transform="translate(17.709 38.949)" fill="#e6e6e6"/>
  <path id="Path_45" data-name="Path 45" d="M270.527,261.524H114.406v6.351H270.527Z" transform="translate(17.709 40.482)" fill="#e6e6e6"/>
  <path id="Path_46" data-name="Path 46" d="M260.66,285.194H114.406v6.351H260.66Z" transform="translate(17.709 44.146)" fill="#e6e6e6"/>
  <path id="Path_47" data-name="Path 47" d="M293,295.1H114.406v6.351H293Z" transform="translate(17.709 45.68)" fill="#e6e6e6"/>
  <path id="Path_48" data-name="Path 48" d="M111.248,220.188h-4.643v17.79h4.643Z" transform="translate(16.502 34.084)" fill="#18bdf7"/>
  <path id="Path_49" data-name="Path 49" d="M111.248,251.618h-4.643v17.791h4.643Z" transform="translate(16.502 38.949)" fill="#18bdf7"/>
  <path id="Path_50" data-name="Path 50" d="M111.248,285.194h-4.643v17.791h4.643Z" transform="translate(16.502 44.146)" fill="#18bdf7"/>
  <path id="Path_51" data-name="Path 51" d="M330.258,285.5h-14.8a5.326,5.326,0,0,0-5.326,5.326v14.8a5.326,5.326,0,0,0,5.326,5.326h14.8a5.326,5.326,0,0,0,5.326-5.326v-14.8A5.326,5.326,0,0,0,330.258,285.5Z" transform="translate(48.007 44.194)" fill="#18bdf7"/>
  <path id="Path_52" data-name="Path 52" d="M321.369,302.875l-6.437-5.608a1.27,1.27,0,0,1,1.668-1.905l4.548,3.966,6.488-7.241a1.273,1.273,0,1,1,1.905,1.689Z" transform="translate(48.694 45.147)" fill="#f3f3f3"/>
  <path id="Path_53" data-name="Path 53" d="M329.8,277.389H315.937a5.8,5.8,0,0,1-5.812-5.792V257.716a5.808,5.808,0,0,1,5.812-5.809h13.875a5.808,5.808,0,0,1,5.8,5.8V271.6a5.8,5.8,0,0,1-5.814,5.792ZM315.937,253.53a4.187,4.187,0,0,0-4.183,4.186V271.6a4.189,4.189,0,0,0,4.183,4.177h13.875a4.189,4.189,0,0,0,4.172-4.177V257.716a4.187,4.187,0,0,0-4.185-4.186Z" transform="translate(48.006 38.994)" fill="#18bdf7"/>
  <path id="Path_54" data-name="Path 54" d="M362.982,310.964H349.1a5.806,5.806,0,0,1-5.8-5.8V291.29a5.8,5.8,0,0,1,5.8-5.8h13.878a5.806,5.806,0,0,1,5.8,5.8v13.871a5.808,5.808,0,0,1-5.8,5.8ZM349.1,287.1a4.193,4.193,0,0,0-4.185,4.186v13.871a4.191,4.191,0,0,0,4.185,4.186h13.878a4.189,4.189,0,0,0,4.183-4.186V291.29a4.189,4.189,0,0,0-4.183-4.186Z" transform="translate(53.142 44.192)" fill="#18bdf7"/>
  <path id="Path_55" data-name="Path 55" d="M363.442,251.923h-14.8a5.326,5.326,0,0,0-5.326,5.326v14.8a5.326,5.326,0,0,0,5.326,5.326h14.8a5.325,5.325,0,0,0,5.325-5.326v-14.8A5.325,5.325,0,0,0,363.442,251.923Z" transform="translate(53.143 38.996)" fill="#18bdf7"/>
  <path id="Path_56" data-name="Path 56" d="M354.553,269.291l-6.435-5.609a1.27,1.27,0,0,1,1.668-1.905l4.548,3.967,6.489-7.235a1.27,1.27,0,0,1,1.889,1.689Z" transform="translate(53.832 39.96)" fill="#f3f3f3"/>
  <path id="Path_57" data-name="Path 57" d="M362.982,243.813H349.1a5.806,5.806,0,0,1-5.8-5.8V224.139a5.81,5.81,0,0,1,5.8-5.8h13.878a5.81,5.81,0,0,1,5.8,5.8v13.875a5.808,5.808,0,0,1-5.8,5.8ZM349.1,219.947a4.191,4.191,0,0,0-4.185,4.185v13.875a4.191,4.191,0,0,0,4.185,4.186h13.878a4.191,4.191,0,0,0,4.183-4.186V224.139a4.189,4.189,0,0,0-4.183-4.192Z" transform="translate(53.142 33.797)" fill="#18bdf7"/>
  <path id="Path_58" data-name="Path 58" d="M330.258,218.348h-14.8a5.325,5.325,0,0,0-5.326,5.326v14.8a5.326,5.326,0,0,0,5.326,5.326h14.8a5.326,5.326,0,0,0,5.326-5.326v-14.8A5.325,5.325,0,0,0,330.258,218.348Z" transform="translate(48.007 33.799)" fill="#18bdf7"/>
  <path id="Path_59" data-name="Path 59" d="M321.369,235.724l-6.437-5.618A1.27,1.27,0,0,1,316.6,228.2l4.548,3.963,6.488-7.228a1.274,1.274,0,1,1,1.905,1.693Z" transform="translate(48.694 34.753)" fill="#f3f3f3"/>
  <path id="Path_60" data-name="Path 60" d="M513.111,325.246c-4.763-2.287-9.527,12.92-9.527,12.92-8.115,10.725-19.462-3.544-18.35,12.49,1.94,28.058-32.3,8.822-16.515,38.109s-13.948,16.564-4.128,40.182-2.905,51.79,11.862,40.215c0,0,13.02-28.518,26.416-37.34s-8.035-19.293-3.836-31.275c6.094-17.406,20.776-16.724,10.188-35.429S529.345,333.005,513.111,325.246Z" transform="translate(71.601 50.31)" fill="#ef8762"/>
  <path id="Path_61" data-name="Path 61" d="M470.616,454.459c6.4-4.5,13.895-35.886,14.343-54.563.229-9.572,3.058-13.561,5.555-17.079,2.385-3.364,4.446-6.269,3.245-12.938-2.292-12.744,3.738-18.248,3.811-18.3l-.7-.793c-.27.231-6.551,5.907-4.128,19.283,1.121,6.231-.727,8.839-3.068,12.138-2.457,3.461-5.513,7.771-5.751,17.667-.479,20.054-8.139,49.678-13.891,53.724Z" transform="translate(72.759 54.299)" fill="#fff"/>
  <path id="Path_62" data-name="Path 62" d="M463.1,439.516c-.6-1.372-1.229-2.789-1.933-4.281-3.658-7.721-6.9-8.991-12.265-11.116-1.312-.514-2.8-1.095-4.446-1.829-7.689-3.455-6.2-8.549-4.888-13.04.185-.635.368-1.27.528-1.877.677-2.639-.635-3.967-2.588-5.974a22.377,22.377,0,0,1-4.685-6.279c-1.534-3.207-.753-4.925.175-5.805,1.949-1.848,6.446-1.508,10.692.811a15.387,15.387,0,0,1,3.553,3.061c2.709,2.835,6.079,6.351,14.609,6.4,4.858.022,7.52.692,8.892,2.241,1.562,1.756,1.27,4.389.86,8.028-.143,1.271-.3,2.687-.4,4.231a24.638,24.638,0,0,0,4.907,15.9c3.243,3.865,7.241,11.884,5.516,16.831a5.907,5.907,0,0,1-4.807,3.869,13.675,13.675,0,0,1-2.707.3C468.169,450.99,465.988,446.049,463.1,439.516Zm-19.9-48.444c-3.792-2.071-7.857-2.486-9.458-.971-1.216,1.152-.635,3.127.054,4.579a21.163,21.163,0,0,0,4.484,6c2.058,2.1,3.68,3.758,2.858,6.986-.162.635-.35,1.27-.537,1.905-1.3,4.475-2.541,8.7,4.306,11.779,1.607.722,3.081,1.3,4.382,1.811,5.418,2.128,9,3.531,12.833,11.63.715,1.508,1.341,2.931,1.95,4.306,3.31,7.507,5.31,12.036,12.55,10.572a4.914,4.914,0,0,0,4.018-3.176c1.521-4.351-2.118-11.964-5.329-15.791a25.288,25.288,0,0,1-5.15-16.65c.1-1.569.26-3.008.4-4.281.378-3.37.635-5.8-.6-7.206-1.143-1.27-3.646-1.867-8.11-1.905-8.972-.042-12.513-3.751-15.359-6.73a14.305,14.305,0,0,0-3.3-2.858Z" transform="translate(66.864 60.08)" fill="#548ae7"/>
  <path id="Path_63" data-name="Path 63" d="M475.617,455.968l1.058-.054c-.054-.994-1.388-24.409-10.8-31.263-10.316-7.517-13.564-15.6-15.114-21.021-1.826-6.389-11.115-8.1-11.509-8.164l-.185,1.042c.092,0,9.033,1.664,10.674,7.416,1.588,5.573,4.932,13.875,15.511,21.595C474.261,432.067,475.6,455.729,475.617,455.968Z" transform="translate(67.966 61.216)" fill="#f9b253"/>
  <path id="Path_64" data-name="Path 64" d="M453.136,345.72c6.669-2.29,5.294,10.588,8.117,20.115s31.408,4.157,19.411,28.02,15.173,7.981,7.056,28.8-.7,43.092-9.527,37.43-4.958-31.888-14.132-35-10.674-6.749-1.588-15.218-23.818-16.88-15.688-33.981S445.409,348.359,453.136,345.72Z" transform="translate(68.958 53.474)" fill="#f9b253"/>
  <path id="Path_65" data-name="Path 65" d="M472.623,455.057c.838-3.566,8.015-34.934,1.321-38.745-5.9-3.341-5.758-16.339-4.836-28.617.813-10.864-13.142-15.942-13.735-16.154l-.352,1c.136.047,13.786,5.021,13.02,15.078-.953,12.6-1.045,25.981,5.37,29.615,5.081,2.88.4,28.093-1.829,37.562Z" transform="translate(70.435 57.512)" fill="#fff"/>
  <path id="Path_66" data-name="Path 66" d="M497.5,434.173l-9.54,36.195H466.642l-9.54-36.195Z" transform="translate(70.757 67.208)" fill="#415487"/>
  <path id="Path_67" data-name="Path 67" d="M497.5,434.173s-21,3.945-21,36.2h-9.845l-9.527-36.2Z" transform="translate(70.761 67.208)" fill="#4968ad"/>
  <path id="Path_68" data-name="Path 68" d="M221.83,359.639a8.029,8.029,0,0,1,1.042,2.747,12.934,12.934,0,0,0,1.27,3.245,30.605,30.605,0,0,1,1.543,5.4c0,.39-.851,2.839-.728,3.623s.572,2.335-.133,2.439-1.5-1.169-1.5-1.169a1.033,1.033,0,0,1-.53.994,1.743,1.743,0,0,1-1.769.067s-.428.791-.953.9a2.178,2.178,0,0,1-1.76-.238,2.127,2.127,0,0,1-1.336.428,1.751,1.751,0,0,1-1.484-.92s-1.325.267-1.708-.35a5.868,5.868,0,0,1-.477-1.835,21.394,21.394,0,0,1,1.677-9.249,8.187,8.187,0,0,0-.435-7.179Z" transform="translate(33.011 55.5)" fill="#eea886"/>
  <path id="Path_69" data-name="Path 69" d="M223.516,374.08s.118-4.535-1.074-5.5-1.33.671-1.33.671.162-1.617-1.14-1.836-1.359,1.7-1.359,1.7a1.273,1.273,0,0,0-.576-.844,1.246,1.246,0,0,0-.491-.179,1.279,1.279,0,0,0-.521.032c-1.37.258-1.042,1.849-1.042,1.849s-1.308-1.56-2.157-.06c-1.432,2.541-.053,5.515-.053,5.515s.4.684,1.708.35c0,0,.871,1.756,2.82.492,0,0,2,1.1,2.725-.661A1.648,1.648,0,0,0,223.516,374.08Z" transform="translate(32.998 56.871)" fill="#db9c7c"/>
  <path id="Path_70" data-name="Path 70" d="M237.175,304.38s-7.758,25.857-10.378,35.393c-.823,2.992-2.814,31.555-3.176,32.711s-10.191,2.728-10.191,2.728,1.191-35.733,1.3-37.683,10.859-41.853,13.974-43.279c2.34-1.064,3.575-.184,6.526,2.007C239.394,299.325,237.175,304.38,237.175,304.38Z" transform="translate(33.038 45.478)" fill="#ef8762"/>
  <path id="Path_71" data-name="Path 71" d="M317.252,261.569,299.5,273.189l.863,1.319,17.756-11.62Z" transform="translate(46.36 40.489)" fill="#4da8f2"/>
  <path id="Path_72" data-name="Path 72" d="M319.01,268.048a4.589,4.589,0,0,1-.457,1.407s-.581.7-.953,1.213a4.624,4.624,0,0,0-.276.41,8.541,8.541,0,0,1-1.468,2.281c-.844.857-4.128,3.586-4.128,3.586l-2.82-2.4-2.931-1.312s1.641-7.132,2.337-8.021a2.215,2.215,0,0,1,.209-.245,10.526,10.526,0,0,1,1.838-1.27c.143-.118,1.649-1.2,2.188-1.064a1.822,1.822,0,0,1,1.353,1.131,4.357,4.357,0,0,1,2.007,1.289,2.7,2.7,0,0,1,1.744,1.62C317.629,266.682,318.952,267.21,319.01,268.048Z" transform="translate(47.364 40.653)" fill="#efaa88"/>
  <path id="Path_73" data-name="Path 73" d="M229.78,455.918s-.709,4.909-.8,5.646-7.866-.434-7.866-.434l-.635-5.843S228.827,455.225,229.78,455.918Z" transform="translate(34.129 70.476)" fill="#424773"/>
  <path id="Path_74" data-name="Path 74" d="M229.236,460.227a20.97,20.97,0,0,0,4.849,4.248c2.386,1.29,6.13,1.8,7.54,3.132,1.016.953,3.7,5.112-6.2,5.027s-14.673.588-15.733-1,1.537-11.75,1.537-11.75S223.587,460.754,229.236,460.227Z" transform="translate(33.968 71.187)" fill="#292c47"/>
  <path id="Path_75" data-name="Path 75" d="M278.045,455.918s-.7,4.909-.793,5.646-7.866-.434-7.866-.434l-.635-5.843S277.074,455.225,278.045,455.918Z" transform="translate(41.601 70.476)" fill="#424773"/>
  <path id="Path_76" data-name="Path 76" d="M277.5,460.227a20.969,20.969,0,0,0,4.849,4.248c2.386,1.29,11.154,2.348,12.564,3.681,1.016.953,2.708,4.84-11.22,4.477-9.9-.258-14.673.588-15.733-1s1.534-11.75,1.534-11.75S271.693,460.8,277.5,460.227Z" transform="translate(41.439 71.187)" fill="#292c47"/>
  <path id="Path_77" data-name="Path 77" d="M236.39,346.616s-7.308,11.626-6.771,22.107-2.648,21.954-3.747,32.92c-1.223,12.223-6.231,41.161-6.415,47.7s.778,27.416.778,27.416l10.026.229s8.422-50.589,10.6-55.75,12.995-41.965,13.361-46.094S236.39,346.616,236.39,346.616Z" transform="translate(33.967 53.654)" fill="#292c47"/>
  <path id="Path_78" data-name="Path 78" d="M273.086,348.459s5.511,28.766,6.238,35.191,1.209,31.087,1.588,35.1,3.394,52.42,4.359,58.5h-12.83s-9.845-35.277-9.845-51.965S255,389,250.094,378s-16.139-11.274-19.156-31.707C230.938,346.29,269,341.977,273.086,348.459Z" transform="translate(35.748 53.386)" fill="#292c47"/>
  <path id="Path_79" data-name="Path 79" d="M245.5,262.2s9.81-3.662,14.332,3.811,4.087,22.418-.858,24.253-12.385.88-14.9-3.795-4.818-11.432-4.706-15.94S242.927,263.5,245.5,262.2Z" transform="translate(37.052 40.449)" fill="#eea886"/>
  <path id="Path_80" data-name="Path 80" d="M257.536,287.921s-.41,2.649.267,3.954-12.7,1.337-12.7,1.337a88.064,88.064,0,0,0-3.148-13.091C239.891,274.126,257.536,287.921,257.536,287.921Z" transform="translate(37.427 43.128)" fill="#eea886"/>
  <path id="Path_81" data-name="Path 81" d="M242.433,282.952s.924,1.524,4.7.93,8.368-5.605,9.943-6.157,1.588-1.474,1.588-1.474l.987,1.439,1.671.1s-1.524-4.486.778-6.316-2.388-14.523-14.492-10.3c0,0-9.289,2.56-8.95,7.845S240.357,280.323,242.433,282.952Z" transform="translate(36.941 40.297)" fill="#2c1e56"/>
  <path id="Path_82" data-name="Path 82" d="M258.363,290.454s-.042-2.493-1.172-2.735-12.471-1.327-13.859-.784v2.907S246,291.486,258.363,290.454Z" transform="translate(37.666 44.393)" fill="#e2d2ca"/>
  <path id="Path_83" data-name="Path 83" d="M256.23,272.71c-.214-.886-2.464-3.419-3.328-.708s1.3,6.351,2.512,6.034S256.776,274.956,256.23,272.71Z" transform="translate(39.117 41.916)" fill="#eea886"/>
  <path id="Path_84" data-name="Path 84" d="M279.958,296.71c-7.778-1.025-18.758-3.776-18.758-3.776l-15.031-.61s-13.8,3.036-19.23,5.488c-.515.236-.517,12.31-1.931,15.477l4.5,9.5s2.6,18.825,3.141,27.2c.251,3.843-5.364,36.039-5.364,36.039a103.605,103.605,0,0,0,16.273,2.9c10.257,1.131,35.886-.41,36.054-1.622s-4.963-45.119-5.192-47.393c-.346-3.493,1.2-22.033,1.2-22.033,2.37-1.835,23.164-11.49,28.84-16.514,1.517-1.346,7.939-7.587,9.749-9.741,6.451-7.622,11.751-14.173,12.386-15.583.73-.8-7.175-5.066-7.877-5.3-.616-.207-9.171,11.146-12.528,14.783a94.046,94.046,0,0,1-7.716,6.146S284.823,296.989,279.958,296.71Z" transform="translate(34.83 41.909)" fill="#ef8762"/>
  <path id="Path_85" data-name="Path 85" d="M243.022,262.844s-12.506.978-.385,19.718Z" transform="translate(36.74 40.687)" fill="#2c1e56"/>
  <path id="Path_86" data-name="Path 86" d="M315.743,262.886l1.025-1.566-1.889.248Z" transform="translate(48.741 40.451)" fill="#dfe1e8"/>
  <path id="Path_87" data-name="Path 87" d="M98.958,341.05s6.085.368,7.79,1.319,13.207-2.68,13.421-3.516a1.9,1.9,0,0,0,0-1.248H97.586Z" transform="translate(15.106 52.259)" fill="#de9673"/>
  <path id="Path_88" data-name="Path 88" d="M76.989,317.508s-1.94,15.244,0,17.251c7.415,7.622,34.9,7.03,34.9,7.03V344.9S70.111,350.108,66.23,342c-4.665-9.733-2.858-25.612-2.858-25.612Z" transform="translate(9.756 48.975)" fill="#de9673"/>
  <path id="Path_89" data-name="Path 89" d="M63.951,457.559l2.48-2.83-4.481-4.687-3.782,2.653Z" transform="translate(9.004 69.664)" fill="#2f4563"/>
  <path id="Path_90" data-name="Path 90" d="M58.977,452.337s5.113,3.852,6.536,4,2.093.791,1.925,2.956,2.077,11.294,3.643,11.434,6.895.174,7.863,3.69-16.911,2.776-18.019-.107-8.8-16.851-7.892-17.976S56.354,452.712,58.977,452.337Z" transform="translate(8.197 70.019)" fill="#1e2d40"/>
  <path id="Path_91" data-name="Path 91" d="M90.613,358.19s33.4,58.2,19.843,70.242c-5.317,4.718-10.436,8.99-17.785,15.307a181.941,181.941,0,0,0-14.234,13.078l-.232.245c-3.992,4.16-7.3,7.675-8.3,8.765a1.285,1.285,0,0,0-.1.1l-.111.12L65.976,469.6l-5.456-4.8a161.607,161.607,0,0,0,9.67-15.125c4.894-9.209,13.116-20.065,16.921-23.091,6.517-5.179,8.308-6.2,8.308-11.15,0-5.313-30.614-35-30.614-35S60.358,361.862,70.971,357C81.3,352.264,90.613,358.19,90.613,358.19Z" transform="translate(9.368 54.978)" fill="#23344a"/>
  <path id="Path_92" data-name="Path 92" d="M65.514,465.08a16.621,16.621,0,0,1,.241-4.4c.451-1.715-6.914-.73-6.914-.73s-.953,7.159-.673,8.8S65.514,465.08,65.514,465.08Z" transform="translate(8.996 71.155)" fill="#41608a"/>
  <path id="Path_93" data-name="Path 93" d="M67.141,476.756,57.2,478.547s-.714-12.679-.587-22.389c.14-10.443-.384-18.649,2.8-26.96,2.982-7.774,2.3-10.734,2.563-16.04s-2.541-32.631-2.541-32.631-3.417-12.234,4.44-20.865c7.654-8.41,27.458-.036,27.458-.036s-4.129,37.329-14.031,60.42c-2.8,6.535-1.27,10.505-4.862,20.6C72.448,440.645,67.017,462.668,67.141,476.756Z" transform="translate(8.762 55.094)" fill="#2f4563"/>
  <path id="Path_94" data-name="Path 94" d="M74.98,296.219a11.505,11.505,0,0,0-1.178,3.194,27.965,27.965,0,0,0-.543,3.411,39.7,39.7,0,0,0-.2,4.339s-13.252-2.884-11.08-5.974.9-12.459.9-12.459S76.7,293.328,74.98,296.219Z" transform="translate(9.557 44.694)" fill="#eea987"/>
  <path id="Path_95" data-name="Path 95" d="M82.769,273.422s3.392,2.945,1.877,11.434c0,0,.749,6.761,1.785,7.939s-2.779,1.617-3.176,2.464-1.162,4.824-3.811,7.219-15.822-4.824-16.463-8.892-9.762-21.563,4.675-22.364S82.769,273.422,82.769,273.422Z" transform="translate(9.218 41.963)" fill="#eea886"/>
  <path id="Path_96" data-name="Path 96" d="M91.984,331.575c-.267.851.743,13.91.651,15.038-.5,6.177,1.089,15.561,1.718,18.927.149.794.232,1.2.232,1.2-14.31,6.987-34.216,6.386-34.216,6.386.073-.543,2.858-7.266,2.922-7.781,1.178-8.4,2.919-12.24,2.445-17.92a35.705,35.705,0,0,0-2.76-10.665c-4.862-11.941-4.6-19.89-3.811-26.451a32.081,32.081,0,0,1,2.76-10.3l12.09,1.3c2.566,2.858,4.849,4.357,12.144,10.833C93.928,319.031,95.287,321.121,91.984,331.575Z" transform="translate(9.09 46.44)" fill="#f9b253"/>
  <path id="Path_97" data-name="Path 97" d="M57.878,466.271s6.987-1.989,7.2-2.185.254-.617,1.219-.232,1.362,1.848,2.309,2.312,6.717,2.15,9.88,3.706c1.143.562,5.977,2.4,6.669,3.945s.479,3.855-7.828,3.306-17.394.635-19.213-.286S57.4,468.675,57.878,466.271Z" transform="translate(8.84 71.778)" fill="#23344a"/>
  <path id="Path_98" data-name="Path 98" d="M85.051,282.358s1.623-17.622-15.469-14.479S61.3,290.292,63.6,296.57c0,0-.279-9.75,7.939-10.068S81.481,284.28,85.051,282.358Z" transform="translate(9.176 41.408)" fill="#464240"/>
  <path id="Path_99" data-name="Path 99" d="M69.311,281.933c-1.029-1.788-4.557-.835-4.154,1.905s3.23,5.446,4.167,4.128S70.823,284.556,69.311,281.933Z" transform="translate(10.081 43.501)" fill="#eea987"/>
  <path id="Path_100" data-name="Path 100" d="M70.7,312s-1.41,15.1.53,17.1c7.415,7.638,36.674,7.783,36.674,7.783l1.4,4.389s-43.489,2.963-47.37-5.141c-4.665-9.734-2.858-25.613-2.858-25.613Z" transform="translate(9.091 48.066)" fill="#eea987"/>
  <path id="Path_101" data-name="Path 101" d="M65.2,271.931s-6.58-6.313-11.261.838S59.5,289.9,63.646,283.977A13.209,13.209,0,0,0,65.2,271.931Z" transform="translate(8.164 41.695)" fill="#464240"/>
  <path id="Path_102" data-name="Path 102" d="M73.285,298.615a27.965,27.965,0,0,0-.543,3.411c-4.4-2.007-7.695-8.14-7.695-8.14A33.6,33.6,0,0,0,73.285,298.615Z" transform="translate(10.069 45.492)" fill="#a77860"/>
  <path id="Path_103" data-name="Path 103" d="M132.221,337.145H90.742v2.315h41.479Z" transform="translate(14.046 52.188)" fill="#6e6760"/>
  <path id="Path_104" data-name="Path 104" d="M143.553,306.151l-18.682,37.033,2.067,1.043,18.682-37.033Z" transform="translate(19.329 47.39)" fill="#6e6760"/>
  <path id="Path_105" data-name="Path 105" d="M96.2,333.6s6.084-.468,7.79-1.674,13.209,3.408,13.44,4.491a2.747,2.747,0,0,1,0,1.588h-22.6Z" transform="translate(14.679 51.349)" fill="#eea987"/>
  <path id="Path_106" data-name="Path 106" d="M61.5,300.318l.851-2.312,11.611,2.312v2.058Z" transform="translate(9.52 46.13)" fill="#eb4747"/>
  <path id="Path_107" data-name="Path 107" d="M70.631,313.255s1.245-8.752-4.846-9.527-6.761,7.869-6.761,7.869Z" transform="translate(9.136 47.008)" fill="#eea987"/>
  <path id="Path_108" data-name="Path 108" d="M412.8,454.948s.7,4.954.793,5.7,7.866-.439,7.866-.439l.635-5.9S413.776,454.233,412.8,454.948Z" transform="translate(63.9 70.324)" fill="#5c544d"/>
  <path id="Path_109" data-name="Path 109" d="M415.233,459.279a21.121,21.121,0,0,1-4.846,4.288c-2.382,1.3-6.13,1.816-7.536,3.176-1.02.972-3.707,5.157,6.192,5.081s14.669.594,15.729-1.013-1.534-11.846-1.534-11.846S420.893,459.794,415.233,459.279Z" transform="translate(62.187 71.045)" fill="#3c4145"/>
  <path id="Path_110" data-name="Path 110" d="M364.555,454.948s.708,4.954.793,5.7,7.866-.439,7.866-.439l.635-5.9S365.526,454.233,364.555,454.948Z" transform="translate(56.431 70.324)" fill="#5c544d"/>
  <path id="Path_111" data-name="Path 111" d="M367.594,459.282a21.053,21.053,0,0,1-4.847,4.288c-2.385,1.3-11.153,2.369-12.56,3.715-1.02.972-2.713,4.888,11.217,4.52,9.892-.258,14.668.594,15.729-1.013s-1.534-11.846-1.534-11.846S373.39,459.854,367.594,459.282Z" transform="translate(54.105 71.042)" fill="#3c4145"/>
  <path id="Path_112" data-name="Path 112" d="M413.3,344.083s4.128,12.294,3.595,22.888,2.141,22.189,3.236,33.257c1.226,12.341,6.231,41.552,6.415,48.151s-.777,27.674-.777,27.674l-10.026.231s-8.42-51.066-10.6-56.278-12.993-42.358-13.358-46.524S413.3,344.083,413.3,344.083Z" transform="translate(60.646 53.262)" fill="#33373b"/>
  <path id="Path_113" data-name="Path 113" d="M375.549,346.461s-5.5,29.04-6.23,35.525-1.214,31.379-1.588,35.431-2.424,53.035-4.364,59.07h12.817s9.846-35.607,9.846-52.454,7.605-36.627,12.512-47.741,16.136-11.379,19.153-32C417.7,344.273,379.633,339.92,375.549,346.461Z" transform="translate(56.247 53.072)" fill="#3c4145"/>
  <path id="Path_114" data-name="Path 114" d="M398.887,260.162s-10.1-3.773-14.761,3.916-4.208,23.088.883,24.981,12.741.9,15.348-3.909,4.96-11.77,4.849-16.419S401.527,261.5,398.887,260.162Z" transform="translate(58.96 40.128)" fill="#eea886"/>
  <path id="Path_115" data-name="Path 115" d="M385.963,285.9s.41,2.648-.267,3.951,12.7,1.34,12.7,1.34a88.513,88.513,0,0,1,3.147-13.091C403.6,272.1,385.963,285.9,385.963,285.9Z" transform="translate(59.7 42.814)" fill="#eea886"/>
  <path id="Path_116" data-name="Path 116" d="M402.135,280.93s-.925,1.524-4.694.933-8.369-5.608-9.944-6.157-1.588-1.477-1.588-1.477l-.987,1.439-1.67.107s1.524-4.488-.775-6.317,2.378-14.523,14.478-10.286c0,0,9.286,2.559,8.946,7.841S404.228,278.3,402.135,280.93Z" transform="translate(59.118 39.985)" fill="#2c1e56"/>
  <path id="Path_117" data-name="Path 117" d="M385.008,288.423s.044-2.492,1.172-2.731,12.471-1.33,13.859-.784v2.9S397.362,289.463,385.008,288.423Z" transform="translate(59.597 44.079)" fill="#e2d2ca"/>
  <path id="Path_118" data-name="Path 118" d="M385.632,270.689c.212-.886,2.464-3.417,3.328-.7s-1.3,6.351-2.512,6.034S385.1,272.935,385.632,270.689Z" transform="translate(59.648 41.603)" fill="#eea886"/>
  <path id="Path_119" data-name="Path 119" d="M390.644,288.019s-6.215,2.223-13.418,5.294c0,0-8.282,3.094-9.177,12.243-.477,4.856-5.647,30.626-6.619,32.805S349,375.572,348.595,376.3s9.355,4.764,10,4.446,11.116-31.951,12.151-34.3c0,0,6.034-18.966,6.18-21.792,0,0,.171,8.059.5,10.32s-5.355,46.173-5.193,47.382,25.791,2.751,36.048,1.62a125.666,125.666,0,0,0,18.534-3.493s-8.07-34.654-7.823-38.5c.54-8.371,3.335-24.135,3.335-24.135l8.365,15.768-10.706,27.543,2.452,8.372s19.894-30.063,20.542-32.809-.976-6.244-2.027-8.505-7.939-19.474-9.562-21.913-4.344-12.124-10.941-14.824c-5.52-2.258-14.774-4.109-14.774-4.109Z" transform="translate(53.959 44.484)" fill="#f9b253"/>
  <path id="Path_120" data-name="Path 120" d="M387.843,351.421l-46.865-12.014L332.6,372.1l46.864,12.015Z" transform="translate(51.484 52.538)" fill="#d6d6d6"/>
  <path id="Path_121" data-name="Path 121" d="M345.319,370.575s-1.341,2.166-1.829,2.782,1.2,1,1.927.381S345.319,370.575,345.319,370.575Z" transform="translate(53.157 57.363)" fill="#c98462"/>
  <path id="Path_122" data-name="Path 122" d="M354.837,379.025a5.069,5.069,0,0,0,.953-1.356s.234-.985.445-1.677a4.761,4.761,0,0,1,.184-.528,9.429,9.429,0,0,0,1.071-2.858c.2-1.346.793-7.329.793-7.329l-3.633-.915-2.915-.615s-6.3,6.284-6.638,7.507a3.036,3.036,0,0,0-.076.352,11.984,11.984,0,0,0,.092,2.5c0,.21.018,2.293.5,2.684a2.038,2.038,0,0,0,1.925.464,4.934,4.934,0,0,0,2.5.953,3.073,3.073,0,0,0,2.624.488C352.68,378.695,354.055,379.533,354.837,379.025Z" transform="translate(53.398 56.306)" fill="#de9d7d"/>
  <path id="Path_123" data-name="Path 123" d="M368.443,344.648s-8.318,25.193-9.846,27.835c0,0-6.1-1.27-10-4.446l9.133-27.185Z" transform="translate(53.96 52.762)" fill="#f9b253"/>
  <path id="Path_124" data-name="Path 124" d="M379.936,175.583a37.333,37.333,0,1,1-2.811-14.374A37.494,37.494,0,0,1,379.936,175.583Z" transform="translate(47.203 21.375)" fill="#eef0f7"/>
  <path id="Path_125" data-name="Path 125" d="M368.2,193.483a5.214,5.214,0,0,0-.635-.372l-.035-.022c-1.646-.909-6.469-3.306-15.987-6.035-1.724-.527-3.03-.87-3.493-.984l-.807-1.27a39.747,39.747,0,0,1-.064-4.513c1.341-1.555,2.541-3.985,3.23-7.778.216.165.385-.191.385-.191-.121-.216,1.81-4.925,1.461-5.99-.2-.6-.6-.527-.911-.349.047-.276.095-.562.146-.864,0,0,.762-7.224-2.893-11.249a4.077,4.077,0,0,0-1.724-.454c-5.872-1.8-9.394-.994-11.6-.051-3.27,2.68-3.519,7.237-3.369,9.75.066.594.133,1.191.2,1.771a.057.057,0,0,0,0,.02c.029.231.054.457.082.682-.318-.187-.7-.283-.927.318-.39,1.047,1.036,5.754,1.214,6.034,0,0,.318.483.55.263.676,4.128,1.905,6.685,3.176,8.258-.092,1.677-.318,3.648-.506,4.909l-1.45,1.515-.229.076c-16.417,4.379-21.053,7.428-21.053,7.428a4.445,4.445,0,0,0-1.27,1.944,37.5,37.5,0,0,0,58.384,1.2C369.386,195.775,368.878,194.156,368.2,193.483Z" transform="translate(48.249 23.582)" fill="#aec1ff"/>
  <path id="Path_126" data-name="Path 126" d="M109.377,144.97h-.67v63.366h.67Z" transform="translate(16.827 22.441)" fill="#e0e0e0"/>
  <path id="Path_127" data-name="Path 127" d="M150.721,144.97h-.67v63.366h.67Z" transform="translate(23.227 22.441)" fill="#e0e0e0"/>
  <path id="Path_128" data-name="Path 128" d="M192.069,144.97H191.4v63.366h.671Z" transform="translate(29.627 22.441)" fill="#e0e0e0"/>
  <path id="Path_129" data-name="Path 129" d="M233.416,144.97h-.67v63.366h.67Z" transform="translate(36.028 22.441)" fill="#e0e0e0"/>
  <path id="Path_130" data-name="Path 130" d="M274.756,144.97h-.67v63.366h.67Z" transform="translate(42.427 22.441)" fill="#e0e0e0"/>
  <path id="Path_131" data-name="Path 131" d="M116.592,203.093H109v2.2h7.6Z" transform="translate(16.872 31.438)" fill="#b8b8b8"/>
  <path id="Path_132" data-name="Path 132" d="M120.432,138.208H109v1.651h11.436Z" transform="translate(16.872 21.394)" fill="#d9d9d9"/>
  <path id="Path_133" data-name="Path 133" d="M125.217,140.853H109V142.5h16.221Z" transform="translate(16.872 21.803)" fill="#d9d9d9"/>
  <path id="Path_134" data-name="Path 134" d="M163.326,138.208H149.9v1.651h13.428Z" transform="translate(23.203 21.394)" fill="#d9d9d9"/>
  <path id="Path_135" data-name="Path 135" d="M158.483,140.853H149.9V142.5h8.585Z" transform="translate(23.203 21.803)" fill="#d9d9d9"/>
  <path id="Path_136" data-name="Path 136" d="M200.3,138.208H191.98v1.651H200.3Z" transform="translate(29.717 21.394)" fill="#d9d9d9"/>
  <path id="Path_137" data-name="Path 137" d="M201.679,140.853h-9.7V142.5h9.7Z" transform="translate(29.717 21.803)" fill="#d9d9d9"/>
  <path id="Path_138" data-name="Path 138" d="M245.444,138.208h-12.12v1.651h12.12Z" transform="translate(36.117 21.394)" fill="#d9d9d9"/>
  <path id="Path_139" data-name="Path 139" d="M243.023,140.853h-9.7V142.5h9.7Z" transform="translate(36.117 21.803)" fill="#d9d9d9"/>
  <path id="Path_140" data-name="Path 140" d="M281.616,138.208h-7.237v1.651h7.237Z" transform="translate(42.472 21.394)" fill="#d9d9d9"/>
  <path id="Path_141" data-name="Path 141" d="M280.171,140.853h-5.792V142.5h5.792Z" transform="translate(42.472 21.803)" fill="#d9d9d9"/>
  <path id="Path_142" data-name="Path 142" d="M157.94,203.093h-7.6v2.2h7.6Z" transform="translate(23.272 31.438)" fill="#b8b8b8"/>
  <path id="Path_143" data-name="Path 143" d="M199.577,203.093h-7.6v2.2h7.6Z" transform="translate(29.717 31.438)" fill="#b8b8b8"/>
  <path id="Path_144" data-name="Path 144" d="M240.92,203.093h-7.6v2.2h7.6Z" transform="translate(36.117 31.438)" fill="#b8b8b8"/>
  <path id="Path_145" data-name="Path 145" d="M282.264,203.093h-7.6v2.2h7.6Z" transform="translate(42.517 31.438)" fill="#b8b8b8"/>
  <path id="Path_146" data-name="Path 146" d="M283.434,187.3c-14.895,0-27.839-5.789-41.336-11.826-16.66-7.451-33.889-15.158-56.846-13.047-14.66,1.348-23.86,6.717-31.977,11.452-7.348,4.291-14.291,8.06-23.707,8.384-15.212.521-20.487-5.312-20.576-5.671v-3.742c.02.063,3.341,6.612,20.56,6.533,8.48-.038,14.735-3.69,21.983-7.917,8.422-4.916,17.965-10.48,33.393-11.9,23.872-2.194,41.523,5.716,58.593,13.338,17.86,7.988,34.9,15.479,56.456,8.979v3.074A53.588,53.588,0,0,1,283.434,187.3Z" transform="translate(16.871 24.643)" fill="#f9b253"/>
  <path id="Path_147" data-name="Path 147" d="M194.043,187.738c-10.991,0-19.709-6.647-28.245-13.158-6.473-4.936-13.185-9.981-20.938-12.468-23.654-7.6-35.756,6.273-35.864,6.4v-4.221c.127-.143,2.286-2.664,8.534-5.081,5.684-2.192,15.224-3.941,28.381.178,8.336,2.608,15.243,7.885,21.954,12.991,13.583,10.356,25.314,19.3,45.684,5.291,15.428-10.614,29.973-20.716,44.283-24.409,14-3.615,28.582-.953,42.238,11.318l-.1,3.83c-29.014-26.209-53.721-9.6-84.475,11.556C207.337,185.568,200.322,187.738,194.043,187.738Z" transform="translate(16.872 23.493)" fill="#ef8762"/>
</svg>
