<svg id="Group_11" data-name="Group 11" xmlns="http://www.w3.org/2000/svg" width="49.052" height="45.311" viewBox="0 0 49.052 45.311">
  <path id="Path_12" data-name="Path 12" d="M48.976,19.2h0a.791.791,0,0,0-.72-.452h-3.3l-.033-.2A22.62,22.62,0,1,0,42.281,34a1.854,1.854,0,0,0-.67-2.511,1.759,1.759,0,0,0-1.389-.184,1.832,1.832,0,0,0-1.1.854,19.005,19.005,0,1,1,2.059-13.742l.067.3H37.862a.78.78,0,0,0-.6,1.289l5.206,6.243a.78.78,0,0,0,1.205,0L48.876,20A.735.735,0,0,0,48.976,19.2Z" fill="#4b4949"/>
  <path id="Path_13" data-name="Path 13" d="M117.121,89.38h0A1.122,1.122,0,0,1,116,88.259V75.621a1.122,1.122,0,0,1,1.121-1.121h0a1.122,1.122,0,0,1,1.121,1.121V88.242A1.125,1.125,0,0,1,117.121,89.38Z" transform="translate(-96.584 -62.03)" fill="#e01321"/>
  <path id="Path_14" data-name="Path 14" d="M130.01,152.16H117a1.007,1.007,0,0,1-1-1V150.9a1.007,1.007,0,0,1,1-1H130.01a1.007,1.007,0,0,1,1,1v.251A1.018,1.018,0,0,1,130.01,152.16Z" transform="translate(-96.584 -124.809)" fill="#e01321"/>
</svg>
