<?xml version="1.0" encoding="utf-8"?><!--Generator: Adobe Illustrator 22.1.0, SVG Export Plug-In . SVG Version: 6.00 Build 0)--><svg id="Layer_1" xmlns="http://www.w3.org/2000/svg" viewBox="0 0 800 600" width="800" height="600"><style>.st15,.st18{opacity:.15;fill:#253338;enable-background:new}.st18{opacity:.2}.st19{fill:#fff}.st20{opacity:.2}.st21{fill:#485f68}.st23{fill:#57ad5f}.st24{fill:#5c7ccc}.st25{fill:#62e8c2}.st26{fill:#f9b54c}.st27{fill:#f7e3a1}.st28{fill:#ff3849}.st29{fill:#dd3146}.st30{fill:#4e67b0}.st31{fill:#1ed3a3}.st33{fill:#ffd05b}.st34{fill:#d1dae0}.st37,.st42{opacity:.1;fill:#324853;enable-background:new}.st42{opacity:5.000000e-02;fill:#253338}.st47{fill:#546f77}.st51{fill:none;stroke:#d1dae0;stroke-width:2;stroke-miterlimit:10;stroke-dasharray:10,5}.st55,.st56{opacity:.3;fill:#8499a0;enable-background:new}.st56{opacity:.2;fill:#485f68}.st57{fill:#ff6e80}.st60,.st61,.st62,.st63{fill:none;stroke:#263840;stroke-width:1.6232;stroke-miterlimit:10}.st61,.st62,.st63{stroke:#8499a0}.st62,.st63{stroke:#263840;stroke-width:1.0821}.st63{stroke:#8499a0}.st70{opacity:.15;fill:#8499a0;enable-background:new}</style><g id="Layer_4"><linearGradient id="SVGID_1_" gradientUnits="userSpaceOnUse" x1="422.3" y1="284.814" x2="422.3" y2="163.741" gradientTransform="matrix(1 0 0 -1 0 600)"><stop offset="0" stop-color="#253338" stop-opacity=".07"/><stop offset="1" stop-color="#253338" stop-opacity="0"/></linearGradient><path fill="url(#SVGID_1_)" d="M405.3 354.2h34v85.1h-34z"/><linearGradient id="SVGID_2_" gradientUnits="userSpaceOnUse" x1="378.9" y1="284.814" x2="378.9" y2="163.741" gradientTransform="matrix(1 0 0 -1 0 600)"><stop offset="0" stop-color="#253338" stop-opacity=".07"/><stop offset="1" stop-color="#253338" stop-opacity="0"/></linearGradient><path fill="url(#SVGID_2_)" d="M361.9 305.9h34v133.4h-34z"/><linearGradient id="SVGID_3_" gradientUnits="userSpaceOnUse" x1="465.6" y1="284.814" x2="465.6" y2="163.741" gradientTransform="matrix(1 0 0 -1 0 600)"><stop offset="0" stop-color="#253338" stop-opacity=".07"/><stop offset="1" stop-color="#253338" stop-opacity="0"/></linearGradient><path fill="url(#SVGID_3_)" d="M448.6 342.7h34v96.6h-34z"/><linearGradient id="SVGID_4_" gradientUnits="userSpaceOnUse" x1="247.7" y1="284.814" x2="247.7" y2="163.741" gradientTransform="matrix(1 0 0 -1 0 600)"><stop offset="0" stop-color="#253338" stop-opacity=".07"/><stop offset="1" stop-color="#253338" stop-opacity="0"/></linearGradient><path fill="url(#SVGID_4_)" d="M230.7 289.8h34v149.5h-34z"/><linearGradient id="SVGID_5_" gradientUnits="userSpaceOnUse" x1="509" y1="284.814" x2="509" y2="163.741" gradientTransform="matrix(1 0 0 -1 0 600)"><stop offset="0" stop-color="#253338" stop-opacity=".07"/><stop offset="1" stop-color="#253338" stop-opacity="0"/></linearGradient><path fill="url(#SVGID_5_)" d="M492 273.7h34v165.6h-34z"/><linearGradient id="SVGID_6_" gradientUnits="userSpaceOnUse" x1="335.6" y1="284.814" x2="335.6" y2="163.741" gradientTransform="matrix(1 0 0 -1 0 600)"><stop offset="0" stop-color="#253338" stop-opacity=".07"/><stop offset="1" stop-color="#253338" stop-opacity="0"/></linearGradient><path fill="url(#SVGID_6_)" d="M318.6 318.5h34v120.8h-34z"/><linearGradient id="SVGID_7_" gradientUnits="userSpaceOnUse" x1="291.1" y1="284.814" x2="291.1" y2="163.741" gradientTransform="matrix(1 0 0 -1 0 600)"><stop offset="0" stop-color="#253338" stop-opacity=".07"/><stop offset="1" stop-color="#253338" stop-opacity="0"/></linearGradient><path fill="url(#SVGID_7_)" d="M274.1 305.9h34v133.4h-34z"/><linearGradient id="SVGID_8_" gradientUnits="userSpaceOnUse" x1="682.3" y1="250.566" x2="682.3" y2="162.906" gradientTransform="matrix(1 0 0 -1 0 600)"><stop offset="0" stop-color="#253338" stop-opacity=".07"/><stop offset="1" stop-color="#253338" stop-opacity="0"/></linearGradient><path fill="url(#SVGID_8_)" d="M665.3 226.9h34v212.4h-34z"/><linearGradient id="SVGID_9_" gradientUnits="userSpaceOnUse" x1="552.3" y1="284.814" x2="552.3" y2="163.741" gradientTransform="matrix(1 0 0 -1 0 600)"><stop offset="0" stop-color="#253338" stop-opacity=".07"/><stop offset="1" stop-color="#253338" stop-opacity="0"/></linearGradient><path fill="url(#SVGID_9_)" d="M535.3 239.2h34v200.1h-34z"/><linearGradient id="SVGID_10_" gradientUnits="userSpaceOnUse" x1="639" y1="275.059" x2="639" y2="163.503" gradientTransform="matrix(1 0 0 -1 0 600)"><stop offset="0" stop-color="#253338" stop-opacity=".07"/><stop offset="1" stop-color="#253338" stop-opacity="0"/></linearGradient><path fill="url(#SVGID_10_)" d="M622 211.4h34v227.9h-34z"/><linearGradient id="SVGID_11_" gradientUnits="userSpaceOnUse" x1="595.6" y1="267.763" x2="595.6" y2="163.325" gradientTransform="matrix(1 0 0 -1 0 600)"><stop offset="0" stop-color="#253338" stop-opacity=".07"/><stop offset="1" stop-color="#253338" stop-opacity="0"/></linearGradient><path fill="url(#SVGID_11_)" d="M578.6 195.2h34v244.1h-34z"/><linearGradient id="SVGID_12_" gradientUnits="userSpaceOnUse" x1="204.4" y1="284.814" x2="204.4" y2="163.741" gradientTransform="matrix(1 0 0 -1 0 600)"><stop offset="0" stop-color="#253338" stop-opacity=".07"/><stop offset="1" stop-color="#253338" stop-opacity="0"/></linearGradient><path fill="url(#SVGID_12_)" d="M187.4 318.5h34v120.8h-34z"/><linearGradient id="SVGID_13_" gradientUnits="userSpaceOnUse" x1="161" y1="268.169" x2="161" y2="163.335" gradientTransform="matrix(1 0 0 -1 0 600)"><stop offset="0" stop-color="#253338" stop-opacity=".07"/><stop offset="1" stop-color="#253338" stop-opacity="0"/></linearGradient><path fill="url(#SVGID_13_)" d="M144 313.8h34v125.5h-34z"/><linearGradient id="SVGID_14_" gradientUnits="userSpaceOnUse" x1="117.7" y1="330.909" x2="117.7" y2="164.866" gradientTransform="matrix(1 0 0 -1 0 600)"><stop offset="0" stop-color="#253338" stop-opacity=".07"/><stop offset="1" stop-color="#253338" stop-opacity="0"/></linearGradient><path fill="url(#SVGID_14_)" d="M100.7 295.7h34v143.5h-34z"/><path class="st15" d="M665.3 221.2h34v2.3h-34v-2.3z"/><linearGradient id="SVGID_15_" gradientUnits="userSpaceOnUse" x1="725.8" y1="276.05" x2="725.8" y2="163.528" gradientTransform="matrix(1 0 0 -1 0 600)"><stop offset="0" stop-color="#253338" stop-opacity=".07"/><stop offset="1" stop-color="#253338" stop-opacity="0"/></linearGradient><path fill="url(#SVGID_15_)" d="M708.8 166.7h34v272.6h-34z"/><path class="st15" d="M708.8 160.9h34v2.3h-34v-2.3zM622 205.7h34v2.3h-34v-2.3zM578.6 189.5h34v2.3h-34v-2.3zM535.3 233.4h34v2.3h-34v-2.3zM492 267.9h34v2.3h-34v-2.3zM448.6 336.9h34v2.3h-34v-2.3zM405.3 348.4h34v2.3h-34v-2.3zM361.9 300.1h34v2.3h-34v-2.3zM318.6 312.8h34v2.3h-34v-2.3zM274.1 300.1h34v2.3h-34v-2.3zM230.7 284h34v2.3h-34V284zM187.4 312.8h34v2.3h-34v-2.3zM144 308h34v2.3h-34V308zM100.7 290h34v2.3h-34V290z"/><linearGradient id="SVGID_16_" gradientUnits="userSpaceOnUse" x1="74.2" y1="270.266" x2="74.2" y2="163.386" gradientTransform="matrix(1 0 0 -1 0 600)"><stop offset="0" stop-color="#253338" stop-opacity=".07"/><stop offset="1" stop-color="#253338" stop-opacity="0"/></linearGradient><path fill="url(#SVGID_16_)" d="M57.2 346.9h34v92.4h-34z"/><path class="st15" d="M57.2 341.1h34v2.3h-34v-2.3z"/><path class="st18" d="M595.3 457.8l-68.3 32 119.7 37.4 73.6-43.2-125-26.2z"/><path class="st19" d="M594.4 454.9L527 487.2l119.1 38.5 71.3-45.4-123-25.4z"/><g class="st20"><path class="st21" d="M615.2 486l-.3.1v.1l-16.9-6.7-10.4-4.2-1.7-.7c-2.5.7-4.8 1.5-6.7 2.4-3.8 1.9-6.1 4.1-6.6 6.4h.1c-1.3 5.1 4.8 10.9 18.3 15.3 6.9 2.2 14.5 3.7 22.6 4.6 18.6 2 37.9.3 47.9-5.1.4-.2.9-.5 1.2-.7 5.2-3.3 6.1-7.2 3.3-10.9-3.6-5-13.6-9.7-27.6-12.6l-.2.1c-4.6-.9-9.2-1.6-13.8-2l-.8 1.4-8.4 12.5z"/><path class="st21" d="M611.4 482.2l8.4-12.3.8-1.3c-14-1.2-27.4-.1-37.2 2.7l28 10.9z"/></g><path d="M635.9 473.8l2.3-1.2c-4.6-.9-9.3-1.6-14-2l-.8 1.4c4.1.3 8.3.9 12.5 1.8z" fill="#65c469"/><path class="st23" d="M588.3 474.2l-2.5-1c-2.5.7-4.6 1.5-6.5 2.5-3.8 1.9-6 4.1-6.6 6.4l3.9.2 38.4 2.5-26.7-10.6z"/><path class="st24" d="M582.3 476.4c1.7-.8 3.9-1.6 6-2.2l-2.5-1c-2.5.7-4.8 1.5-6.7 2.4-3.8 1.9-6 4.1-6.6 6.4l3.9.2c.6-2.1 2.5-4.1 5.9-5.8z"/><path class="st25" d="M619.5 468.5l.8-1.3c-13.9-1.2-27.3-.1-37.1 2.8l2.4.9c8.6-2.6 21.4-3.5 33.9-2.4z"/><path class="st26" d="M638 472.4l-2.3 1.2c22.5 4.7 32.8 14.5 19.9 21.4-8.8 4.8-25.8 6.4-42.2 4.8l-.1 1.9c18.6 1.9 37.7.3 47.7-5.2 14.3-8 2.3-18.9-23-24.1z"/><path class="st27" d="M638 472.4l-2.3 1.2c22.5 4.7 37.1 16.5 25.2 22.9 14.5-7.8 2.4-18.9-22.9-24.1z"/><path class="st28" d="M593.3 495.9c-12.3-3.8-17.9-9.1-16.7-13.7l-3.9-.2c-1.3 5 4.7 10.9 18.2 15.2 6.8 2.2 14.5 3.7 22.5 4.5l.1-1.9c-7.2-.6-14.2-2-20.2-3.9z"/><path class="st29" d="M593.3 495.9c-12.3-3.8-21.8-9.4-20.6-14-1.3 5 4.7 10.9 18.2 15.2 6.8 2.2 14.5 3.7 22.5 4.5l.1-1.9c-7.2-.5-14.2-1.9-20.2-3.8z"/><path class="st23" d="M614.8 484.7l21.1-10.9c-4.2-.9-8.4-1.5-12.5-1.9l-8.6 12.8z"/><path class="st30" d="M587.5 473.9c-2.4.7-12.8 3.9-14.9 8.2l42.1 2.7-27.2-10.9z"/><path class="st31" d="M619.5 468.5c-12.6-1.1-25.2-.2-33.9 2.4l25.5 9.9 8.4-12.3z"/><path d="M613.5 499.9c16.4 1.6 33.2.1 42.2-4.8 12.8-7 2.5-16.8-19.9-21.4l-21 10.9-1.3 15.3z" fill="#f9d970"/><path class="st33" d="M613.5 499.9c16.4 1.6 38.5 1.6 47.6-3.3 12.9-7-.3-19.3-22.9-24l-23.4 12-1.3 15.3z"/><path class="st28" d="M576.4 482.2c-1.2 4.6 4.4 9.9 16.7 13.7 6 1.9 13.2 3.2 20.3 3.9l1.3-15.1-38.3-2.5z"/><path class="st18" d="M68.7 433.2l57.9 20.8 94.6-19.3-54.2-18-98.3 16.5z"/><path class="st19" d="M70.4 429.7l56.7 23.5 95.5-21.4-54.9-16.7-97.3 14.6z"/><path class="st34" d="M161.5 422.3l-50.6 8.5-4.4-1.7 51.5-8.2zM170 425.5l-48.4 9.5-4.5-1.8 49.4-9zM178.9 428.9l-46.2 10.4-4.4-1.7 47-10zM187.5 432.2l-44 11.3-4.5-1.7 44.9-11z"/><path class="st28" d="M105.5 430.5c2.1.8 2.1 1.7 0 2.1s-5.6 0-7.7-.8-2.1-1.8.1-2.1c2.1-.4 5.5 0 7.6.8z"/><path class="st33" d="M116.4 434.8c2.1.8 2.2 1.8.2 2.2-2 .4-5.4.1-7.6-.8-2.1-.8-2.1-1.8-.1-2.2 2.1-.4 5.4-.1 7.5.8z"/><path class="st31" d="M127.4 439c2.1.8 2.3 1.8.4 2.3-1.9.4-5.3.1-7.4-.7-2.1-.8-2.2-1.9-.2-2.3 1.9-.4 5.1-.1 7.2.7z"/><path class="st30" d="M138.4 443.4c2.1.8 2.3 1.9.5 2.3-1.8.5-5.1.2-7.3-.6s-2.3-1.9-.4-2.4c2-.5 5.1-.2 7.2.7z"/><linearGradient id="SVGID_17_" gradientUnits="userSpaceOnUse" x1="164.737" y1="181.076" x2="182.479" y2="194.383" gradientTransform="matrix(1 0 -.01098 -.9971 -2.017 600.57)"><stop offset="0" stop-color="#485f68" stop-opacity="0"/><stop offset="1" stop-color="#253338" stop-opacity=".3"/></linearGradient><path d="M70.4 429.7l56.7 23.5 95.5-21.4-54.9-16.7-97.3 14.6z" fill="url(#SVGID_17_)"/><linearGradient id="SVGID_18_" gradientUnits="userSpaceOnUse" x1="139.229" y1="75.65" x2="159.316" y2="246.062" gradientTransform="matrix(1 0 -.01098 -.9971 -2.017 600.57)"><stop offset="0" stop-color="#485f68" stop-opacity="0"/><stop offset="1" stop-color="#253338" stop-opacity=".3"/></linearGradient><path d="M70.4 429.7l56.7 23.5 95.5-21.4-54.9-16.7-97.3 14.6z" fill="url(#SVGID_18_)"/><path class="st18" d="M164.6 512.5l90.2 45.6 223.9-57.4-86.9-34.1-227.2 45.9z"/><path class="st19" d="M168.2 508.5l87.4 48 223.1-58.7-85.7-34.4-224.8 45.1z"/><path class="st37" d="M214.3 447.5l-40.6 23.6 452.3-2.3-38.3-23.5z"/><linearGradient id="SVGID_19_" gradientUnits="userSpaceOnUse" x1="-6.415" y1="227.321" x2="751.358" y2="400.572" gradientTransform="matrix(1 0 -.01098 -.9971 -2.017 600.57)"><stop offset="0" stop-color="#485f68"/><stop offset="1" stop-color="#253338"/></linearGradient><path fill="url(#SVGID_19_)" d="M615.8 442.9l-434.3 4.8 7.9-331.8 414.5 2.4z"/><linearGradient id="SVGID_20_" gradientUnits="userSpaceOnUse" x1="402.069" y1="141.289" x2="409.332" y2="481.852" gradientTransform="matrix(1 0 -.01098 -.9971 -2.017 600.57)"><stop offset="0" stop-color="#dbdbdb"/><stop offset="1" stop-color="#fff"/></linearGradient><path fill="url(#SVGID_20_)" d="M615.8 442.9l-434.3 4.8 8.4-305.7 414.9-.8z"/><path class="st19" d="M335.5 145.7l-88.5 2.1 8.8-21.8 71.3.2z"/><path fill="#f3f7f8" d="M604.1 154.3L187.9 158l-6.4 289.7 434.3-4.8z"/><path class="st19" d="M604.1 154.3L187.9 158l-6.4 289.7 434.3-4.8z"/><path opacity=".5" fill="#e2ebed" d="M604.2 154.3l-416.1 1.5-6.6 291.9 434.3-4.8z"/><path class="st42" d="M213.3 310.5l244-.8-1.6-100.7-240.8.1zM339.9 318.3v104l119-.8-1.6-103.6zM464.5 209.1l1.7 100.7 116.5-.4-3.2-100.4zM465.9 318l1.7 103.6 118.1-.8-3.2-103.3z"/><path class="st34" d="M457.3 309.7l-.2-5h.1zM457 299.9l-.2-9.5h.4v9.5zM456.7 285.6l-.3-9.6h.7l.1 9.6zM456.3 271.3l-.2-9.6h.9l.1 9.6zM456 256.9l-.2-9.5h1.1v9.5zM455.7 242.6l-.3-9.5h1.4v9.5zM455.3 228.3l-.2-9.5 1.6-.1v9.6zM455 214l-.1-5 .8.8h-5v-1.7l5 .1h.8l.1.8v5zM445.7 209.8l-10 .1v-1.8h10zM430.7 209.9l-10.1.1v-2h10.1zM415.6 210l-10 .1v-2.2l10 .1zM400.6 210.1h-10.1v-2.2h10.1zM385.5 210.2h-10v-2.4h10zM370.4 210.3h-10v-2.6l10 .1zM355.4 210.3h-10.1v-2.6h10.1zM340.3 210.3l-10 .1v-2.7h10zM325.3 210.4h-10.1v-2.7h10.1zM310.2 210.4h-10v-2.7h10zM295.2 210.4h-10.1v-2.7h10.1zM280.1 210.5h-10v-2.9l10 .1zM265.1 210.5H255v-2.9h10.1zM250 210.5h-10v-2.9h10zM234.9 210.6h-10v-3h10zM219.9 210.6h-5l1.5-1.5-.1 5h-3l.1-5v-1.5h6.5zM216.2 218.9l-.2 9.6h-2.9l.2-9.6zM216 233.3l-.2 9.7-2.9-.1.1-9.6zM215.7 247.8l-.2 9.6-2.8-.1.1-9.6zM215.4 262.2l-.1 9.6h-2.8l.1-9.6zM215.2 276.6l-.2 9.6h-2.7l.1-9.6zM214.9 291l-.1 9.7-2.7-.1.1-9.6zM214.7 305.5l-.1 5-1.3-1.4h5v2.7h-6.4v-1.4l.1-5zM223.1 309.1h9.8v2.6h-9.8zM237.8 309.1h9.7v2.5l-9.7.1zM252.4 309.1h9.7v2.4l-9.7.1zM267 309.1h9.8v2.3l-9.8.1zM281.6 309.1h9.8v2.2l-9.8.1zM296.3 309.1h9.7v2.1h-9.7zM310.9 309.2h9.7v1.9h-9.7zM325.5 309.2h9.8v1.7l-9.8.1zM340.1 309.2h9.8v1.6l-9.8.1zM354.8 309.2l9.7.1v1.4l-9.7.1zM369.4 309.3h9.7v1.2l-9.7.1zM384 309.3l9.8.1v1l-9.8.1zM398.6 309.4l9.8.1v.7l-9.8.1zM413.2 309.5h9.8v.5l-9.7.1zM427.9 309.6h9.7v.2l-9.7.2zM442.5 309.7h5l-5 .1z"/><g><path class="st34" d="M449.5 317.9l-5 .1v-.2zM439.3 318.1l-10.5.2v-.6l10.5.1zM423.5 318.4l-10.4.2v-1.1l10.4.1zM407.8 318.6l-10.5.2v-1.4l10.5.1zM392.1 318.9l-10.5.1v-1.7l10.5.1zM376.4 319.1l-10.5.1v-1.9h10.5zM360.6 319.3l-10.5.1v-2.2l10.5.1zM344.9 319.4l-5 .1 1.1-1.2.1 5h-2.4v-6.1h6.2zM341.1 328.3l.1 9.9h-2.6l.1-9.9zM341.2 343.1v9.9h-2.6v-9.9zM341.2 357.9l.1 9.9h-2.7v-9.9zM341.3 372.8v9.9h-2.8v-9.9zM341.3 387.6v9.9h-2.8v-9.9zM341.3 402.4l.1 9.9h-3l.1-9.9zM341.4 417.3v5l-1.5-1.5 5-.1v3l-5 .1h-1.5v-6.5zM349.9 420.7h9.9v2.9l-9.9.1zM364.7 420.6h9.9v2.9l-9.9.1zM379.6 420.6l9.9-.1v2.8l-9.9.1zM394.4 420.5h9.9l.1 2.7-10 .1zM409.3 420.5l9.9-.1v2.6l-9.9.1zM424.1 420.4h9.9l.1 2.5-9.9.1zM439 420.3h9.9v2.4l-9.9.2zM453.9 420.3h5l-1.1 1.2-.1-5 2.2-.1.1 5v1.2h-6.1zM457.7 411.6l-.1-9.9h1.9l.3 9.8zM457.6 396.8l-.1-9.9h1.7l.2 9.8zM457.5 382l-.1-9.9h1.4l.3 9.9zM457.4 367.2l-.1-9.8 1.1-.1.3 9.9zM457.3 352.4v-9.8h.7l.3 9.8zM457.3 337.7v-9.9h.3l.3 9.8zM457.3 322.9v-5l.1 5z"/></g><g><path class="st34" d="M474.2 309.8l5-.1v.1zM484.4 309.6l10.4-.2v.6l-10.4-.1zM500 309.3l10.3-.2v1H500zM515.5 309l10.4-.1v1.4l-10.4-.1zM531 308.8l10.4-.1v1.7l-10.4-.1zM546.6 308.6l10.3-.1.1 1.9h-10.4zM562.1 308.4l10.4-.1v2.2l-10.4-.1zM577.7 308.2h5l-1.2 1.2-.2-5 2.4-.1.1 5 .1 1.2h-6.2zM581.1 299.6l-.3-9.5 2.5-.1.3 9.6zM580.6 285.4l-.3-9.5 2.6-.1.3 9.5zM580.1 271.1l-.3-9.5 2.7-.1.3 9.5zM579.7 256.8l-.4-9.5 2.8-.1.3 9.5zM579.2 242.6l-.3-9.5 2.8-.1.3 9.5zM578.7 228.3l-.3-9.5 2.9-.1.3 9.5zM578.2 214l-.2-5 1.5 1.5h-5v-3h6.5v1.4l.2 5zM569.8 210.5h-9.6v-3h9.6zM555.4 210.5l-9.5-.1v-2.8h9.5zM541.1 210.4h-9.5v-2.8h9.5zM526.8 210.4h-9.5v-2.7h9.5zM512.5 210.4h-9.6v-2.6l9.6-.1zM498.2 210.4h-9.6v-2.6h9.6zM483.9 210.4l-9.6-.1v-2.4l9.5-.1zM469.5 210.3l-5-.1 1.1-1.1.1 5h-2.2l-.1-5V208h6.1zM465.7 218.9l.1 9.5h-1.9l-.2-9.5zM465.9 233.2v9.5l-1.7.1-.2-9.6zM466 247.5v9.6h-1.4l-.3-9.6zM466.1 261.8v9.6H465l-.3-9.6zM466.1 276.1l.1 9.6h-.8l-.3-9.5zM466.2 290.5v9.5h-.3l-.3-9.5zM466.2 304.8v5l-.2-5z"/></g><g><path class="st34" d="M470.9 318.1l-5-.1.2 5h-.2v-5l5-.1zM466.2 327.9l.3 9.9h-.6v-9.9zM466.7 342.7l.2 9.8h-.9l-.1-9.8zM467.1 357.5l.3 9.8H466v-9.8zM467.5 372.2l.2 9.9h-1.6v-9.9zM467.9 387l.2 9.8-1.8.1-.1-9.9zM468.2 401.8l.2 9.8h-2l-.1-9.8zM468.6 416.5l.1 5-1.1-1 5-.1v2.3h-6.1v-1.1l-.1-5zM477.5 420.3l9.8-.1v2.5h-9.8zM492.2 420.1l9.9-.1v2.6l-9.9.1zM507 420l9.8-.1v2.7H507zM521.7 419.8h9.9v2.7h-9.9zM536.5 419.7l9.8-.1v2.8l-9.8.1zM551.2 419.6l9.9-.1v2.9h-9.9zM566 419.4l9.8-.1v3H566zM580.7 419.3h5l-1.5 1.5-.1-5 3-.1.1 5 .1 1.5-1.6.1h-5zM583.9 410.9l-.2-9.8 2.9-.1.3 9.8zM583.5 396.2l-.3-9.8 2.9-.1.3 9.8zM583.1 381.5l-.3-9.9h2.8l.3 9.8zM582.7 366.7l-.3-9.8 2.7-.1.3 9.8zM582.2 352l-.2-9.8 2.6-.1.3 9.8zM581.8 337.3l-.3-9.8 2.6-.1.3 9.8zM581.4 322.6l-.1-5 1.2 1.1h-5v-2.3l5-.1h1.2v1.2l.2 5zM572.7 318.7H563v-2.2l9.6-.1zM558.1 318.6h-9.7v-1.9l9.7-.1zM543.6 318.6h-9.7v-1.7l9.7-.1zM529 318.5h-9.6l-.1-1.4 9.7-.2zM514.5 318.5l-9.7-.1v-1.1l9.7-.2zM500 318.3h-9.7v-.8l9.7-.1zM485.4 318.2l-9.7-.1v-.3l9.7-.2z"/></g><path class="st37" d="M211.3 130.9c0 2.9-2.3 5.2-5.1 5.2-2.9 0-5.3-2.4-5.3-5.3s2.3-5.2 5.2-5.2c2.8.1 5.2 2.5 5.2 5.3zM225.9 131.1c0 2.8-2.2 5.1-4.9 5.1-2.8 0-5-2.3-5.1-5.2 0-2.8 2.2-5.1 5-5.1 2.7.1 4.9 2.4 5 5.2zM239.8 131.3c0 2.7-2.1 5-4.7 4.9-2.6 0-4.8-2.3-4.9-5.1 0-2.8 2.1-5 4.8-4.9 2.7.1 4.8 2.3 4.8 5.1z"/><path d="M211.3 130c0 2.9-2.3 5.2-5.1 5.2-2.9 0-5.3-2.4-5.3-5.3s2.3-5.2 5.2-5.2c2.8 0 5.1 2.4 5.2 5.3z" fill="#ee2028"/><path d="M225.9 130.1c0 2.8-2.2 5.1-4.9 5.1-2.8 0-5-2.3-5.1-5.2 0-2.8 2.2-5.1 5-5.1 2.7.1 4.9 2.4 5 5.2z" fill="#f9dd7b"/><path d="M239.8 130.3c0 2.7-2.1 5-4.7 4.9-2.6 0-4.8-2.3-4.9-5.1 0-2.8 2.1-5 4.8-4.9 2.7.1 4.8 2.4 4.8 5.1z" fill="#21d7ac"/><path opacity=".05" fill="#324853" d="M188.2 156.7l-.1-.9 417.2-1.7.2 2.9z"/><g><path class="st19" d="M181.5 447.7l6.4-305.7h2z"/></g><g><path class="st47" d="M187.9 142l.6-26.1v-.9h.9l414.5 3.3-414.5-1.4.9-1-.4 26.1z"/></g><g><path d="M594.7 236.3c-1.4 0-2.6-1.1-2.7-2.5l-.8-35.1c0-1.4 1.1-2.7 2.5-2.7 1.4-.1 2.6 1.1 2.7 2.5l.8 35.1c0 1.4-1.1 2.6-2.5 2.7z" fill="#e8eef0"/></g><g><path d="M604.7 141.3l3.4 75.4c1.1 25.1 2.1 50.3 3.2 75.4 1 25.1 2.1 50.3 3.1 75.4l2.9 75.4.1 1.4H616l-53.5.7-53.5.5-107 1-107 .7-53.5.2-53.5.1 53.5-1 53.5-1 107-1.7 107-1.3 53.5-.6 53.5-.5-1.4 1.5-2.7-75.4c-.9-25.1-1.7-50.3-2.5-75.4s-1.7-50.3-2.4-75.4l-2.3-75.4z" fill="#d2d7d7"/></g><g opacity=".75"><path class="st34" d="M274.3 133.4v4.6l45.3-.2v-4.5z"/><path class="st51" d="M265.4 131.5l-6.4 6.8M258.8 131.3l6.7 6.7"/></g><g><path opacity=".1" fill="#253338" d="M511.5 199.6l1.7 105.6 99-.8-3.2-105.5z"/><linearGradient id="SVGID_21_" gradientUnits="userSpaceOnUse" x1="105.424" y1="344.299" x2="663.572" y2="471.909" gradientTransform="matrix(1 0 -.01098 -.9971 -2.017 600.57)"><stop offset="0" stop-color="#485f68"/><stop offset="1" stop-color="#253338"/></linearGradient><path fill="url(#SVGID_21_)" d="M579.2 200.8l-364.3.7.4-23.8 363.2-.5z"/><path d="M524.9 184.5l1.4 102.8 120.4-.9-3.2-102.7-118.6.8z" opacity=".3" fill="none" stroke="#fff" stroke-width="10" stroke-miterlimit="10"/><path class="st19" d="M524.9 184.5l1.4 102.8 120.4-.9-3.2-102.7-118.6.8z"/><path class="st55" d="M618.9 263.7l-64-.2-1.1-61.9-3.7-.1.1 5.1-4.9-.1v3.5l5 .1.1 8.9-4.9-.2v3.6l5 .1.1 8.9-4.9-.1v3.5l5 .1.2 9-5-.1v3.6l5 .1.2 9-5-.1v3.6l5 .1.2 6.9h7.3v4.8h3.8l-.1-4.8 9.4.1.1 4.7h3.7l-.1-4.7h9.3l.1 4.7h3.7l-.1-4.7h9.2l.1 4.7h3.6l-.1-4.7h9.1l.1 4.7h3.6l-.1-4.6h5.1z"/><path class="st21" d="M608 206.3l1.5 50.9 8.4.1-1.6-50.8z"/><path class="st56" d="M565.5 259.5h8.7l-.5-23.4-8.7-.2zM581.6 259.5l8.6.1-.8-29.9-8.5-.2zM611.6 208.8l1.6 50.9 8.4.1-1.7-50.8zM597.5 259.6l8.5.1-1.3-41.7-8.3-.2z"/><path class="st33" d="M571.8 257l-10.1-.1-.5-21.3 10 .2z"/><path class="st31" d="M587.6 257.2l-9.9-.1-.8-28.1 9.8.2z"/><path class="st30" d="M603.2 257.3l-9.7-.1-1.3-38.1 9.5.3z"/><path class="st28" d="M618.5 257.5l-9.6-.1-2-51.2 9.4.3z"/><path class="st27" d="M561.7 256.9l-.5-21.3 10 .2-7.1 2.4z"/><path class="st25" d="M577.7 257.1l-.8-28.1 9.8.2-7.3 2.4z"/><path class="st24" d="M593.5 257.2l-1.3-38.1 9.5.3-6.8 2.2z"/><path class="st57" d="M608.9 257.4l-2-51.2 9.4.3-6.8 2.1z"/><g><linearGradient id="SVGID_22_" gradientUnits="userSpaceOnUse" x1="668.321" y1="324.26" x2="625.971" y2="298.043" gradientTransform="matrix(1 0 -.01098 -.9971 -2.017 600.57)"><stop offset="0" stop-color="#485f68"/><stop offset="1" stop-color="#253338"/></linearGradient><path d="M671.7 301.6l-45.8-44.8c-.4-.4-1.1-.5-1.6-.3-.6.2-.9.8-.9 1.4l.5 66.7c0 .6.4 1.2 1 1.4.6.2 1.3 0 1.7-.5l12-15 8.2 17.4c.3.5.8.9 1.4.9.2 0 .4 0 .6-.1l10.6-4.7c.4-.2.7-.5.8-.9s.1-.8 0-1.2l-8.2-17.5 18.9-.3c.6 0 1.2-.4 1.4-1 0-.4-.2-1-.6-1.5z" fill="url(#SVGID_22_)"/><path class="st47" d="M660.1 323.2c.3-.9-.4-1.6-.8-2.3l-1.2-2.3-2.4-4.5c-1.6-3-3.2-6.1-4.7-9.1l-.7-1.3 1.6-.1 11-.5 5.5-.2H670.8c.1 0 .1-.1 0-.2l-7.7-7.4-7.8-7.7c-5.2-5.2-10.4-10.4-15.5-15.7-2.5-2.7-5.1-5.3-7.6-8l-3.7-4.1-1.9-2c-.3-.3-.6-.7-.9-1-.4-.2-.9-.3-1.3-.1.4-.2.9-.2 1.4 0 .4.2.7.6 1.1.9l2.1 1.8 4.1 3.7c2.8 2.4 5.5 4.9 8.2 7.4 5.4 5 10.8 10 16.1 15.1l7.9 7.7 3.9 3.9 2 1.9 1 1 .5.5.3.3c.2.2.3.3.4.5.5.8.5 1.8.2 2.6s-1 1.5-1.9 1.7c-.2.1-.4.1-.6.1h-8l-11-.1.9-1.4c1.3 3.1 2.7 6.3 4 9.4l2 4.7 1 2.4.5 1.2c-.3.3-.3.8-.4 1.2z"/></g></g><g><path class="st19" d="M212.9 318.9l-1.4 104 119.6-.6.1-104.1-118.3.7z"/><g class="st20"><path class="st21" d="M279.7 371.2c-.1-.1-.2-.3-.4-.4-.1-.1-.3-.2-.4-.3-1.5-1.2-3.3-1.8-5.1-1.9h-1c-.9.1-1.8.3-2.7.7l-11-5.9 6.7 10.4c-.3.8-.5 1.7-.6 2.6v1c.2 1.7.9 3.4 2.2 4.8.1.1.2.3.4.4.1.1.3.2.4.3 1.5 1.2 3.3 1.8 5.1 1.9 2.3.1 4.7-.7 6.4-2.4 1.7-1.7 2.5-4.1 2.3-6.3-.2-1.8-.9-3.5-2.3-4.9zm-3.2 8.3c-.8.9-2 1.3-3.1 1.2-.9 0-1.8-.4-2.5-.9l-.2-.2-.2-.2c-.6-.7-1-1.5-1.1-2.4v-.5c0-.9.3-1.7 1-2.4l.2-.2.2-.2c.7-.6 1.5-1 2.4-1h.5c.9 0 1.8.3 2.5.9l.2.2.2.2c.6.7 1 1.5 1.1 2.4.1 1.1-.3 2.3-1.2 3.1z"/><path class="st21" d="M300.4 353.6c-.2-.3-.5-.6-.8-.8l-.8-.8c-6.7-6.2-15.8-9.8-25.7-9.5-9.8.3-18.4 4.4-24.5 10.7-6.1 6.3-9.7 14.7-9.5 23.9.2 9.2 4.1 17.5 10.4 23.6l.1-.1 7-7c-4.4-4.3-7.2-10.1-7.3-16.6s2.5-12.5 6.8-16.9c4.3-4.4 10.4-7.2 17.3-7.4 6.9-.2 13.3 2.4 17.9 6.7.3.3.6.5.8.8 4.2 4.3 6.8 10 6.8 16.3.1 6.7-2.7 12.8-7.3 17.2l1.7 1.6 6.1 5.7c6.6-6.2 10.6-14.9 10.6-24.6-.3-8.7-3.8-16.7-9.6-22.8z"/></g><path d="M277.3 368.5c-1.5-1.2-3.3-1.8-5.1-1.9h-1c-.9.1-1.8.3-2.7.7l-11-5.9 6.7 10.4c-.3.8-.5 1.7-.6 2.6v1c.2 1.7.9 3.4 2.2 4.8l.4.4c.1.1.3.2.4.3 1.5 1.2 3.2 1.8 5 1.9 2.3.1 4.7-.7 6.4-2.5 1.7-1.8 2.5-4.1 2.3-6.3-.2-1.8-.9-3.5-2.2-4.8-.1-.1-.2-.3-.4-.4-.1-.1-.3-.2-.4-.3zm-2.4 3.5c.6.7 1 1.5 1.1 2.4.1 1.1-.3 2.2-1.1 3.1-.8.9-2 1.3-3.1 1.2-.9 0-1.8-.3-2.5-.9l-.2-.2-.2-.2c-.6-.7-1-1.5-1.1-2.3v-.5c0-.9.3-1.7.9-2.4l.2-.2.2-.2c.7-.6 1.5-1 2.4-1h.5c.9 0 1.8.3 2.5.9l.2.2c.1 0 .2 0 .2.1z" fill="#263840"/><path class="st25" d="M248.5 352.7l-1.6-1.5c-6.1 6.3-9.7 14.7-9.5 23.9.2 9.2 4.1 17.5 10.4 23.6l.1-.1c-5.4-5.9-8.7-13.6-8.9-22-.2-9.2 3.5-17.6 9.5-23.9z"/><path class="st57" d="M291.1 359c-.3-.3-.6-.5-.9-.8 4.2 4.3 6.8 10 6.8 16.3.1 6.7-2.7 12.8-7.3 17.2l1.7 1.6c4.6-4.4 7.4-10.4 7.3-17.2 0-6.7-2.9-12.8-7.6-17.1z"/><path class="st28" d="M297.9 350.7l-.8-.8-.1.1c.3.2.6.4.9.7z"/><path class="st27" d="M273.1 342c9-.3 17.4 2.7 23.9 8l.1-.1c-6.7-6.2-15.8-9.8-25.6-9.4-9.7.3-18.4 4.4-24.5 10.8l1.6 1.5c6.1-6.4 14.7-10.5 24.5-10.8z"/><path class="st31" d="M247.6 375c-.1-6.5 2.5-12.5 6.7-16.9l-5.8-5.5c-6.1 6.3-9.7 14.7-9.5 23.9.2 8.4 3.5 16.1 8.9 22l7-7c-4.4-4.1-7.2-10-7.3-16.5z"/><path class="st28" d="M298.7 351.5l-7.6 7.5c4.7 4.3 7.6 10.4 7.7 17.1s-2.7 12.8-7.3 17.2l6.1 5.7c6.6-6.2 10.6-14.9 10.5-24.6-.1-8.8-3.6-16.8-9.4-22.9z"/><path class="st33" d="M298.8 351.4c-.3-.3-.6-.5-.9-.8.3.4.5.6.9.8zM248.5 352.7l5.8 5.5z"/><path class="st33" d="M298.7 351.5c-.3-.3-.5-.6-.8-.8-.3-.3-.6-.5-.9-.7l-7.6 7.5c.3.3.6.5.8.8.3.2.6.5.9.8l7.6-7.6z"/><path class="st33" d="M248.5 352.7l5.8 5.5c4.3-4.4 10.4-7.3 17.2-7.4 6.9-.2 13.2 2.4 17.9 6.7l7.6-7.5c-6.5-5.2-14.9-8.3-23.9-8-9.8.3-18.4 4.4-24.6 10.7z"/><g class="st20"><path class="st60" d="M246.7 400.4l-3.5 3.5M235.3 375.6h-4.9M245 350l-3.6-3.5M270.9 338.2l-.1-5.1M298.3 347.9l3.9-3.8M310.4 373.9h5.6M299.5 400.2l3.9 3.7"/><g><path class="st61" d="M246.7 400.4l-3.5 3.5M235.3 375.6h-4.9M245 350l-3.6-3.5M270.9 338.2l-.1-5.1M298.3 347.9l3.9-3.8M310.4 373.9h5.6M299.5 400.2l3.9 3.7"/></g></g><g class="st20"><path class="st62" d="M242.5 397.2l-2 1.4M239.8 393.3l-2.2 1.2M237.6 389l-2.3.9M236 384.6l-2.4.6M235 380l-2.4.3M234.8 370.6l-2.4-.3M235.7 366l-2.5-.7M237.1 361.5l-2.3-1M239.1 357.2l-2.2-1.3M241.7 353.1l-2.1-1.5M248.3 346.2l-1.6-2M252.2 343.4l-1.3-2.2M256.6 341.1l-1-2.4M261.2 339.3l-.7-2.4M266 338.2l-.4-2.6M275.9 337.8l.4-2.6M280.9 338.6l.7-2.6M285.7 340l1-2.5M290.3 342l1.4-2.3M294.6 344.6l1.7-2.2M302 351.3l2.2-1.6M305 355.3l2.4-1.3M307.4 359.7l2.6-1M309.1 364.4l2.7-.7M310.3 369.2l2.7-.3M310.5 379.1l2.7.4M309.5 384l2.7.7M308 388.7l2.5 1M305.8 393.1l2.4 1.3M303 397.2l2.2 1.6"/><g><path class="st63" d="M242.5 397.2l-2 1.4M239.8 393.3l-2.2 1.2M237.6 389l-2.3.9M236 384.6l-2.4.6M235 380l-2.4.3M234.8 370.6l-2.4-.3M235.7 366l-2.5-.7M237.1 361.5l-2.3-1M239.1 357.2l-2.2-1.3M241.7 353.1l-2.1-1.5M248.3 346.2l-1.6-2M252.2 343.4l-1.3-2.2M256.6 341.1l-1-2.4M261.2 339.3l-.7-2.4M266 338.2l-.4-2.6M275.9 337.8l.4-2.6M280.9 338.6l.7-2.6M285.7 340l1-2.5M290.3 342l1.4-2.3M294.6 344.6l1.7-2.2M302 351.3l2.2-1.6M305 355.3l2.4-1.3M307.4 359.7l2.6-1M309.1 364.4l2.7-.7M310.3 369.2l2.7-.3M310.5 379.1l2.7.4M309.5 384l2.7.7M308 388.7l2.5 1M305.8 393.1l2.4 1.3M303 397.2l2.2 1.6"/></g></g><g><path d="M278.1 369.2c-.6-.6-1.4-1.1-2.1-1.5-.8-.4-1.6-.6-2.4-.8-.4-.1-.8-.1-1.3-.1-.4 0-.8 0-1.3.1-.8.1-1.6.4-2.4.7l-.2.1-.2-.1c-1.9-.9-3.7-1.9-5.5-2.9l-5.5-2.9.7-.8c2.2 3.5 4.4 6.9 6.5 10.4l.1.2-.1.2c-.3.7-.5 1.5-.6 2.3v1.2c0 .4.1.8.2 1.2.2.8.5 1.6.9 2.3.4.7.9 1.4 1.6 1.9-1.4-1-2.4-2.4-2.9-4.1-.3-.8-.3-1.7-.3-2.6s.2-1.8.5-2.6v.4c-2.3-3.4-4.5-6.9-6.8-10.3l-1.2-1.8 1.9 1.1 5.5 3c1.8 1 3.7 2 5.5 3.1h-.3c.8-.3 1.7-.6 2.6-.6s1.8 0 2.7.2c1.6.4 3.3 1.3 4.4 2.7z" fill="#8fa3aa"/></g><g><path d="M252.5 356.5c-4.3 4.4-6.9 10.4-6.8 16.9.1 6.5 2.9 12.4 7.4 16.7l-6.8 6.8c.5.6 1 1.2 1.6 1.8l7-7c-4.4-4.3-7.2-10.1-7.3-16.6s2.5-12.5 6.7-16.9l-1.8-1.7z" fill="#1aa87f"/><path class="st29" d="M298.7 351.5l-.1.1c4.9 5.8 7.8 13.2 7.9 21.2.1 9.7-4 18.4-10.5 24.6l1.7 1.6c6.6-6.2 10.6-14.9 10.5-24.6-.2-8.8-3.7-16.8-9.5-22.9z"/><path class="st26" d="M287.7 355.8c-4.7-4.3-11-6.9-17.9-6.7-6.8.2-12.9 3-17.3 7.4l1.8 1.7c4.3-4.4 10.4-7.3 17.2-7.4 6.7-.2 12.8 2.2 17.4 6.3-.1-.2-.3-.3-.4-.5-.2-.3-.5-.5-.8-.8z"/></g></g><g><path d="M212.9 318.9c.1 8.7.1 17.3.1 26l-.1 26-.1 13-.1 13-.3 26-1-1c10-.1 19.9-.1 29.9-.1h29.9l29.9.1c10 .1 19.9.2 29.9.4-10 .3-19.9.5-29.9.7l-29.9.5-29.9.3c-10 .1-19.9.2-29.9.2h-1v-1l.4-26 .2-13 .3-13 .6-26c.5-8.8.7-17.4 1-26.1z" fill="#e2ebed"/></g><path class="st55" d="M269.1 537.5l-58-27.7-4.5 1 4.4 2.1-6.7 1.5 3.3 1.6 6.7-1.5 8.4 4-6.6 1.5 3.3 1.6 6.6-1.5 8.4 4-6.6 1.6 3.4 1.6 6.5-1.6 8.5 4-6.5 1.6 3.3 1.6 6.5-1.6 8.5 4.1-6.4 1.6 3.3 1.6 6.4-1.6 6.8 3.2 9.5-2.5 4.8 2.3 4.2-1.1-4.7-2.3 10.6-2.8 4.7 2.3 4.1-1.1-4.7-2.3 10.3-2.7 4.6 2.2 4-1-4.6-2.2 9.9-2.6 4.6 2.1 3.9-1-4.6-2.2 9.7-2.5 4.5 2.1 3.7-1-4.5-2.1 9.4-2.5 4.5 2.2 3.6-1-4.4-2.1 9.1-2.4 4.4 2.1 3.5-1-4.4-2 8.9-2.4 4.4 2.1 3.4-.9-4.4-2.1 8.6-2.2 4.4 2 3.3-.9-4.3-2 8.4-2.2 4.2 2 3.3-.9-4.3-2 8.2-2.1 4.2 1.9 3.1-.8-4.2-1.9 7.9-2.1 4.2 1.9 3.1-.8-4.2-1.9 7.7-2.1 4.2 1.9 2.9-.8-4.1-1.9 3.7-.9-2.8-1.3z"/><path d="M381.5 474s-2.2-.2-8.3 4c-3.4 2.3-3.4 10.6-15.4 10.8-25.3.4-32.8 6.1-35.9 13.9-3.2 8.2 3.4 11.9-32.8 16.9-36.1 5-27.5 9.5-27.5 9.5l9.3 4.4L425 494l-43.5-20z" opacity=".3" fill="#1ed3a3"/><g><path class="st25" d="M381.7 475.3c-1.3.2-2.8.6-4 1.1-1.3.5-2.5 1.1-3.2 2-.3.3-.6 1.1-.9 1.7-.3.7-.7 1.4-1.1 2.1-.8 1.4-1.8 2.7-3 3.7-2.4 2.2-5.6 3.3-8.7 3.7-1.5.2-3.1.2-4.6.2s-3 .1-4.4.1c-5.9.3-11.8.9-17.4 2.7-2.8.9-5.4 2.2-7.6 4.1s-3.7 4.4-4.7 7.1c-.5 1.4-.7 2.8-1.1 4.3-.3 1.5-1.1 3-2.3 4.1-1.2 1.1-2.6 1.8-4 2.4-1.4.6-2.8 1-4.3 1.4-5.8 1.6-11.7 2.5-17.6 3.3s-11.8 1.6-17.7 2.7c-2.9.6-5.8 1.2-8.7 2.1-1.4.4-2.8 1-4.1 1.7-.6.4-1.3.8-1.7 1.4-.2.3-.2.7-.1 1.1.2.3.4.6.8.8-.3-.2-.6-.4-.8-.8-.2-.3-.1-.8 0-1.1.4-.7 1-1.1 1.6-1.5 1.3-.8 2.7-1.3 4.1-1.8 2.8-.9 5.7-1.6 8.7-2.2 5.8-1.2 11.7-2.1 17.6-3 5.9-1 11.8-1.9 17.4-3.6 2.8-.9 5.7-1.8 7.8-3.7 1-1 1.6-2.2 1.9-3.6s.5-2.9 1-4.4c.9-2.9 2.6-5.7 4.9-7.7 2.3-2.1 5.1-3.5 8-4.5s5.8-1.7 8.8-2.1c3-.5 6-.8 9-1 1.5-.1 3-.2 4.5-.2s2.9-.1 4.4-.3c2.8-.4 5.5-1.5 7.5-3.3 1-.9 1.8-2 2.5-3.3.3-.6.6-1.3.9-1.9.3-.7.5-1.4 1.2-2.2 1.2-1.5 2.7-2.2 4.2-2.9 1.5-.6 3-1 4.6-1.3l.6 2.6z"/></g><path class="st25" d="M274 522.1c1.3.6.9 1.4-.8 1.9-1.7.4-4.2.3-5.4-.3-1.3-.6-.9-1.4.8-1.9s4.1-.3 5.4.3zM308 516.3c1.2.6 1 1.4-.6 1.8-1.6.4-3.9.2-5.2-.3-1.2-.6-.9-1.4.7-1.8 1.6-.5 3.9-.3 5.1.3zM323.3 504.3c1.2.6 1 1.3-.6 1.7-1.5.4-3.8.2-5-.4s-.9-1.3.6-1.7c1.5-.3 3.8-.2 5 .4zM335.1 491.6c1.2.5.9 1.3-.5 1.6-1.5.3-3.6.2-4.8-.4-1.2-.5-.9-1.3.5-1.6 1.5-.3 3.7-.1 4.8.4zM363.1 487.9c1.1.5 1 1.2-.4 1.5s-3.4.1-4.6-.4-1-1.2.4-1.5c1.5-.3 3.5-.1 4.6.4zM374.7 477.6c1.1.5 1 1.2-.4 1.5-1.3.3-3.3.1-4.4-.4s-.9-1.2.4-1.5c1.4-.3 3.3-.1 4.4.4z"/><g><linearGradient id="SVGID_23_" gradientUnits="userSpaceOnUse" x1="326.54" y1="103.066" x2="326.54" y2="145.244" gradientTransform="matrix(1 0 -.01098 -.9971 -2.017 600.57)"><stop offset="0" stop-color="#485f68" stop-opacity="0"/><stop offset="1" stop-color="#253338" stop-opacity=".3"/></linearGradient><path d="M168.2 508.5l87.4 48 223.1-58.7-85.7-34.4-224.8 45.1z" fill="url(#SVGID_23_)"/></g><path opacity=".2" fill="#d1dae0" d="M224.8 185.8v8l80-.4-.1-8.2z"/><path class="st70" d="M398.5 353.1c-8.7 0-15.8 7.1-15.8 15.9s7.1 15.9 15.8 15.9c8.7 0 15.8-7.1 15.8-15.9 0-8.7-7.1-15.9-15.8-15.9zm6.5 7.9l2.3.3.4 13.7h-2.4l-.3-14zm-3.6 3.7l2.4.2.2 10-2.5-.1-.1-10.1zm-4 2.5l2.6.2.1 7.4-2.6-.1-.1-7.5zm-4.1 1.2l2.7.2v6.2l-2.8-.1.1-6.3zm14.7 9.5h-18.4l.4-18.9 1.7.2-.3 16.9 16.5.2.1 1.6zM526.9 353.3c-8.7 0-15.7 7.1-15.7 15.8 0 8.8 7 15.9 15.7 15.9s15.7-7.1 15.7-15.8c0-8.8-7-15.9-15.7-15.9zm6.4 7.9l2.3.3.4 13.6h-2.4l-.3-13.9zm-3.6 3.7l2.4.2.2 10-2.5-.1-.1-10.1zm-3.9 2.5l2.6.2.1 7.4-2.6-.1-.1-7.5zm-4.1 1.2l2.7.2v6.2l-2.8-.1.1-6.3zm14.7 9.4h-18.2l.4-18.8 1.7.2-.3 16.9 16.4.2v1.5zM334.4 242.3c-8.8 0-15.9 7.1-15.9 15.8 0 8.8 7.1 15.9 15.8 16 8.8 0 15.8-7.1 15.9-15.8 0-8.8-7.1-15.9-15.8-16zm6.5 8l2.3.3.4 13.7-2.4-.1-.3-13.9zm-3.7 3.6l2.4.2.2 10-2.5-.1-.1-10.1zm-3.9 2.5l2.6.2.1 7.4-2.6-.1-.1-7.5zm-4.2 1.2l2.7.2v6.2l-2.8-.1.1-6.3zm14.8 9.5l-18.4-.1.4-18.9 1.7.2-.3 16.9 16.5.2.1 1.7z"/></g></svg>