<svg xmlns="http://www.w3.org/2000/svg" width="53.412" height="53.6" viewBox="0 0 53.412 53.6">
  <g id="Group_8" data-name="Group 8" transform="translate(-16.8 -16.2)">
    <path id="Path_6" data-name="Path 6" d="M284.5,277.162A11.6,11.6,0,0,1,294.755,271a11.436,11.436,0,0,1,5.277,1.272v.055a11.607,11.607,0,0,0-15.532,4.835Z" transform="translate(-238.084 -226.612)" fill="#141414" opacity="0.44"/>
    <g id="Group_7" data-name="Group 7" transform="translate(16.8 16.2)">
      <path id="Path_7" data-name="Path 7" d="M69.725,56.027v-.077a1.073,1.073,0,0,0-.011-.188.951.951,0,0,0-.011-.177,12.9,12.9,0,0,0-4.691-9.238v-.055c-.077-.055-.144-.122-.221-.177V24.342c0-2.622-2.71-4.779-7.833-6.24A61.818,61.818,0,0,0,40.8,16.2a61.7,61.7,0,0,0-16.163,1.9c-5.122,1.46-7.833,3.618-7.833,6.24V56.06c0,2.622,2.71,4.779,7.833,6.24A61.818,61.818,0,0,0,40.8,64.2c1.8,0,3.673-.077,5.576-.21.21.277.42.553.653.819.133.155.266.3.409.443a2.091,2.091,0,0,0,.221.221l.221.221.011.011c.066.066.144.133.21.2s.122.111.188.166a6.321,6.321,0,0,0,.52.431c.055.044.122.089.177.133a9.929,9.929,0,0,0,.9.62c.066.044.133.077.188.122.111.066.21.133.321.188l.232.133a1.789,1.789,0,0,1,.2.111c.033.011.066.033.1.044l.266.133c.088.044.188.089.288.133s.188.089.288.122.2.077.288.122.177.066.254.1c.022.011.055.022.077.033a13.144,13.144,0,0,0,1.5.443c.31.066.62.133.94.177a.067.067,0,0,1,.044.011l.277.033.321.033a2.721,2.721,0,0,0,.31.022h.033c.1.011.188.011.288.022h.044c.1,0,.21.011.31.011h.332c.221,0,.431,0,.653-.011.144-.011.288-.011.431-.033a1.356,1.356,0,0,0,.21-.022A12.974,12.974,0,0,0,67.7,63.229h0c.033-.055.077-.111.111-.166h0c.111-.177.21-.354.31-.531a.516.516,0,0,0,.055-.111c.077-.144.144-.277.221-.42.111-.221.21-.443.31-.664.077-.177.144-.365.221-.553a12.948,12.948,0,0,0,.763-3.54c.011-.21.022-.409.033-.62V56.27C69.725,56.193,69.725,56.1,69.725,56.027ZM25.6,21.6a57.8,57.8,0,0,1,15.212-1.8,57.863,57.863,0,0,1,15.212,1.8c3.927,1.128,5.189,2.334,5.189,2.733s-1.272,1.615-5.189,2.733a57.8,57.8,0,0,1-15.212,1.8A57.84,57.84,0,0,1,25.6,27.075c-3.927-1.128-5.189-2.334-5.189-2.733S21.668,22.727,25.6,21.6Zm-5.2,7.335c4.835,2.6,13.508,3.551,20.4,3.551s15.566-.951,20.4-3.551v5.974c0,.409-1.272,1.615-5.189,2.733a57.8,57.8,0,0,1-15.212,1.8,57.863,57.863,0,0,1-15.212-1.8c-3.927-1.128-5.189-2.334-5.189-2.733V28.933ZM40.8,60.6a57.863,57.863,0,0,1-15.212-1.8C21.657,57.664,20.4,56.458,20.4,56.06V50.086c4.835,2.6,13.519,3.551,20.4,3.551,1.051,0,2.157-.033,3.352-.088a13.227,13.227,0,0,0,.4,6.948C43.207,60.563,41.968,60.6,40.8,60.6Zm0-10.576a57.863,57.863,0,0,1-15.212-1.8c-3.927-1.128-5.189-2.334-5.189-2.733V39.51c4.835,2.6,13.508,3.551,20.4,3.551s15.566-.951,20.4-3.551v4.646a12.738,12.738,0,0,0-4.414-.785,12.958,12.958,0,0,0-11.218,6.494C43.949,49.975,42.355,50.02,40.8,50.02ZM56.782,66.913a10.6,10.6,0,1,1,10.6-10.6A10.614,10.614,0,0,1,56.782,66.913Z" transform="translate(-16.8 -16.2)" fill="#4b4949"/>
    </g>
    <path id="Path_8" data-name="Path 8" d="M283.483,270.265v-.077a1.2,1.2,0,0,0-.011-.2,1.011,1.011,0,0,0-.011-.177V269.8a13.551,13.551,0,0,0-4.691-9.459v-.055l-.177-.144a13.964,13.964,0,0,0-2.445-1.615l-.73-.376v.089a13.305,13.305,0,0,0-5.388-1.139,13.442,13.442,0,0,0-11.694,6.826h-.011l-.144.266a13.534,13.534,0,0,0,1.7,15.189c.133.155.277.31.42.465.077.077.155.155.221.232l.221.221.022.022c.077.066.144.144.221.21s.133.111.2.177c.177.155.365.31.542.454.066.044.122.1.188.144.31.232.62.454.929.642l.011.011c.066.044.133.077.188.122l.332.2c.077.044.166.089.243.133s.144.077.21.111l.1.055c.089.044.177.088.277.133s.2.089.3.144l.3.133a2.582,2.582,0,0,0,.31.122c.089.033.177.066.254.1a.764.764,0,0,1,.089.033,12.1,12.1,0,0,0,1.56.465c.321.077.642.133.974.188l.044.011a2.6,2.6,0,0,1,.288.044l.332.033.321.033h.044c.1.011.188.011.288.022h.055c.111,0,.21.011.321.011h.343c.221,0,.454-.011.675-.022l.443-.033c.077-.011.155-.011.221-.022a13.354,13.354,0,0,0,9.957-6.129l.52-.819h-.033a.479.479,0,0,1,.044-.077c.089-.155.155-.3.221-.443.111-.232.221-.465.321-.7.077-.188.155-.376.221-.575a13.961,13.961,0,0,0,.8-3.684c.011-.21.022-.431.033-.642v-.376A.73.73,0,0,0,283.483,270.265Zm-13.442-9.813a10.112,10.112,0,1,1-10.1,10.112A10.12,10.12,0,0,1,270.042,260.452Z" transform="translate(-213.271 -214.249)" fill="#e01321"/>
  </g>
</svg>
