<?xml version="1.0" encoding="utf-8"?>
<!-- Generator: Adobe Illustrator 16.0.0, SVG Export Plug-In . SVG Version: 6.00 Build 0)  -->
<!DOCTYPE svg PUBLIC "-//W3C//DTD SVG 1.1//EN" "http://www.w3.org/Graphics/SVG/1.1/DTD/svg11.dtd">
<svg version="1.1" xmlns="http://www.w3.org/2000/svg" xmlns:xlink="http://www.w3.org/1999/xlink" x="0px" y="0px" width="626px"
	 height="466px" viewBox="0 0 626 466" enable-background="new 0 0 626 466" xml:space="preserve">
<g id="BACKGROUND" display="none">
	<rect x="63" y="-37" display="inline" fill="#00ACEE" width="500" height="500"/>
</g>
<g id="OBJECTS">
	<circle display="none" fill="#009BDE" cx="313" cy="232.769" r="177.667"/>
	<g>
		<path fill="#1F3540" d="M379.746,378.704h-125c-9.113,0-16.5-7.388-16.5-16.5V106.871c0-9.113,7.387-16.5,16.5-16.5h125
			c9.112,0,16.5,7.387,16.5,16.5v255.333C396.246,371.316,388.858,378.704,379.746,378.704z"/>
		<path fill="#29424C" d="M345.863,91.621h-89.979c-8.914,0-16.139,7.323-16.139,16.357v253.119c0,9.034,7.226,16.357,16.139,16.357
			h21.798L345.863,91.621z"/>
		<path fill="#19B5FF" d="M378.995,97.37h-24.666c-1.703,0-3.083,1.381-3.083,3.084v0.158c0,3.87-3.138,7.007-7.007,7.007h-53.987
			c-3.87,0-7.007-3.137-7.007-7.007v-0.158c0-1.703-1.38-3.084-3.083-3.084h-24.666c-5.661,0-10.25,4.589-10.25,10.25v253.833
			c0,5.661,4.589,10.25,10.25,10.25h123.5c5.66,0,10.25-4.589,10.25-10.25V107.621C389.246,101.959,384.656,97.37,378.995,97.37z"/>
		<rect x="258.163" y="101.954" fill="#FFFFFF" width="7" height="2"/>
		<circle fill="#FFFFFF" cx="376.496" cy="102.954" r="1.75"/>
		<circle fill="#FFFFFF" cx="367.746" cy="102.954" r="1.75"/>
		<g>
			<rect x="255.413" y="126.537" fill="#FFFFFF" width="37.5" height="2.333"/>
			<rect x="255.413" y="120.391" fill="#1F3540" width="47.958" height="3.625"/>
			<circle fill="#1F3540" cx="264.663" cy="275.204" r="9.25"/>
			<rect x="279.913" y="267.454" fill="#1F3540" width="37.333" height="3.664"/>
			<rect x="255.413" y="289.704" fill="#FFFFFF" width="122.583" height="2.166"/>
			<rect x="255.413" y="294.829" fill="#FFFFFF" width="122.583" height="2.166"/>
			<rect x="255.413" y="299.954" fill="#FFFFFF" width="122.583" height="2.166"/>
			<rect x="255.413" y="305.079" fill="#FFFFFF" width="122.583" height="2.166"/>
			<g>
				<rect x="255.413" y="133.037" fill="#FFFFFF" width="123.667" height="123.667"/>
				<rect x="259.579" y="137.204" fill="#00ACEE" width="115.333" height="115.333"/>
				<g>
					<polygon fill="#DBDBDB" points="354.443,172.371 288.31,252.537 374.912,252.537 374.912,197.182 					"/>
					<polygon fill="#C9C7C7" points="354.443,172.371 349.996,190.954 356.746,202.704 347.412,224.704 356.746,236.204 
						351.464,252.537 374.912,252.537 374.912,197.182 					"/>
				</g>
				<g>
					<circle opacity="0.2" fill="#FFFFFF" cx="291.038" cy="168.121" r="28.583"/>
					<circle fill="#FBDA6E" cx="291.037" cy="168.121" r="14.796"/>
				</g>
				<g>
					<polygon fill="#EAEAEA" points="346.182,252.537 302.88,200.454 259.579,252.537 					"/>
					<polygon fill="#FFFFFF" points="302.246,206.954 305.349,218.37 298.349,224.704 305.349,234.537 298.349,243.037 
						307.182,252.537 259.579,252.537 					"/>
				</g>
			</g>
		</g>
		<g>
			<defs>
				<path id="SVGID_1_" d="M378.995,97.37h-24.666c-1.703,0-3.083,1.381-3.083,3.084v0.158c0,3.87-3.138,7.007-7.007,7.007h-53.987
					c-3.87,0-7.007-3.137-7.007-7.007v-0.158c0-1.703-1.38-3.084-3.083-3.084h-24.666c-5.661,0-10.25,4.589-10.25,10.25v253.833
					c0,5.661,4.589,10.25,10.25,10.25h123.5c5.66,0,10.25-4.589,10.25-10.25V107.621C389.246,101.959,384.656,97.37,378.995,97.37z"
					/>
			</defs>
			<clipPath id="SVGID_2_">
				<use xlink:href="#SVGID_1_"  overflow="visible"/>
			</clipPath>
			<g clip-path="url(#SVGID_2_)">
				<rect x="255.413" y="325.465" fill="#FFFFFF" width="37.5" height="2.333"/>
				<rect x="255.413" y="319.319" fill="#1F3540" width="47.958" height="3.625"/>
				<g>
					<rect x="255.413" y="331.965" fill="#FFFFFF" width="123.667" height="123.667"/>
					<rect x="259.579" y="336.132" fill="#00ACEE" width="115.333" height="115.333"/>
					<g>
						<polygon fill="#DBDBDB" points="354.443,371.298 288.31,451.465 374.912,451.465 374.912,396.109 						"/>
						<polygon fill="#C9C7C7" points="354.443,371.298 349.996,389.882 356.746,401.632 347.412,423.632 356.746,435.132 
							351.464,451.465 374.912,451.465 374.912,396.109 						"/>
					</g>
					<g>
						<circle opacity="0.2" fill="#FFFFFF" cx="291.038" cy="367.048" r="28.583"/>
						<circle fill="#FBDA6E" cx="291.037" cy="367.048" r="14.796"/>
					</g>
					<g>
						<polygon fill="#EAEAEA" points="346.182,451.465 302.88,399.382 259.579,451.465 						"/>
						<polygon fill="#FFFFFF" points="302.246,405.882 305.349,417.298 298.349,423.632 305.349,433.465 298.349,441.965 
							307.182,451.465 259.579,451.465 						"/>
					</g>
				</g>
			</g>
		</g>
		<g>
			<defs>
				<path id="SVGID_3_" d="M378.995,97.37h-24.666c-1.703,0-3.083,1.381-3.083,3.084v0.158c0,3.87-3.138,7.007-7.007,7.007h-53.987
					c-3.87,0-7.007-3.137-7.007-7.007v-0.158c0-1.703-1.38-3.084-3.083-3.084h-24.666c-5.661,0-10.25,4.589-10.25,10.25v253.833
					c0,5.661,4.589,10.25,10.25,10.25h123.5c5.66,0,10.25-4.589,10.25-10.25V107.621C389.246,101.959,384.656,97.37,378.995,97.37z"
					/>
			</defs>
			<clipPath id="SVGID_4_">
				<use xlink:href="#SVGID_3_"  overflow="visible"/>
			</clipPath>
			<g opacity="0.4" clip-path="url(#SVGID_4_)">
				<polygon fill="#FFFFFF" points="118.477,82.005 118.477,405.37 176.504,405.37 254.409,82.005 				"/>
				<polygon fill="#FFFFFF" points="273.631,82.005 195.726,405.37 212.114,405.37 290.02,82.005 				"/>
				<polygon fill="#FFFFFF" points="366.184,82.005 288.278,405.37 302.934,405.37 380.839,82.005 				"/>
				<polygon fill="#FFFFFF" points="314.811,82.005 236.905,405.37 269.683,405.37 347.588,82.005 				"/>
			</g>
		</g>
	</g>
	<g>
		<path fill="#FFFFFF" d="M269.491,344.856H153.438c-1.668,0-3.021-1.352-3.021-3.02v-79.428c0-1.668,1.353-3.021,3.021-3.021
			h116.053c1.668,0,3.021,1.353,3.021,3.021v79.428C272.511,343.505,271.159,344.856,269.491,344.856z"/>
		<path fill="#FF6543" d="M150.417,332.037v9.799c0,1.669,1.353,3.021,3.021,3.021h116.053c1.668,0,3.021-1.352,3.021-3.021v-9.799
			H150.417z"/>
		<circle fill="#FF6543" cx="211.464" cy="295.912" r="23.5"/>
		<path fill="#FFFFFF" d="M205.564,284.226l18.352,10.596c0.84,0.484,0.84,1.697,0,2.182l-18.352,10.596
			c-0.84,0.485-1.89-0.121-1.89-1.091v-21.191C203.674,284.347,204.725,283.741,205.564,284.226z"/>
		<rect x="150.417" y="337.952" fill="#1F3540" width="122.094" height="1.566"/>
		<rect x="150.417" y="337.952" fill="#FFFFFF" width="73.232" height="1.566"/>
		<g>
			<circle fill="#FFFFFF" cx="223.649" cy="338.735" r="2.503"/>
			<circle fill="#FF6543" cx="223.649" cy="338.735" r="0.99"/>
		</g>
	</g>
	<g>
		<polygon fill="#FFFFFF" points="385.184,294.931 423.01,268.666 460.71,294.931 		"/>
		<rect x="385.184" y="294.931" fill="#DBDBDB" width="75.399" height="48.728"/>
		<g>
			<path fill="#FF6543" d="M426.182,278.686c8.345,0,13.676,5.679,13.676,13.753c0,7.069-4.752,10.624-8.809,10.624
				c-2.201,0-4.018-1.082-4.442-2.937h-0.077c-1.082,1.507-3.053,2.55-4.636,2.55c-3.052,0-5.1-2.24-5.1-5.795
				c0-4.713,3.361-9.464,7.804-9.464c1.274,0,2.279,0.54,2.936,1.931h0.078l0.54-1.622h3.516l-1.777,8.499
				c-0.54,2.24,0.039,3.322,1.777,3.322c2.318,0,4.598-2.704,4.598-6.954c0-5.523-2.975-10.469-10.547-10.469
				c-6.606,0-13.135,5.64-13.135,14.332c0,7.61,5.254,11.281,11.281,11.281c2.008,0,4.249-0.657,5.871-1.507l1.236,3.091
				c-2.356,1.274-4.829,1.854-7.571,1.854c-7.727,0-14.643-4.714-14.643-14.564C408.758,285.794,416.678,278.686,426.182,278.686z
				 M423.091,299.122c0.812,0,1.584-0.464,2.55-1.738l0.927-5.216c-0.386-0.733-1.004-1.12-1.776-1.12
				c-2.318,0-3.709,3.168-3.709,5.485C421.082,298.271,421.816,299.122,423.091,299.122z"/>
		</g>
		<polygon fill="#C4C4C4" points="460.71,294.931 422.883,321.195 460.71,343.658 		"/>
		<polygon fill="#FFFFFF" points="385.184,294.931 423.01,321.195 385.184,343.658 		"/>
	</g>
	<rect x="392.245" y="93.253" fill="#FFFFFF" width="8.715" height="26.904"/>
	<rect x="404.067" y="102.105" fill="#F9BF3A" width="8.716" height="18.051"/>
	<rect x="415.89" y="89.918" fill="#FFFFFF" width="8.716" height="30.239"/>
	<rect x="427.713" y="94.92" fill="#F9BF3A" width="8.715" height="25.237"/>
	<rect x="439.535" y="76.428" fill="#DEE1E2" width="8.716" height="43.729"/>
	<rect x="389.611" y="121.879" fill="#1F3540" width="61.273" height="1.347"/>
	<g>
		<path fill="#DEE1E2" d="M477.359,275.277v3.146c3.881,0,7.038,3.157,7.039,7.038h3.146
			C487.545,279.846,482.976,275.277,477.359,275.277z"/>
		<path fill="#DEE1E2" d="M477.359,280.661v4.801h4.801C482.16,282.814,480.007,280.661,477.359,280.661z"/>
		<path fill="#DEE1E2" d="M489.782,285.462h4.36c0-9.269-7.514-16.783-16.783-16.783v4.36
			C484.21,273.039,489.782,278.612,489.782,285.462z"/>
	</g>
	<g>
		<path fill="#FFFFFF" d="M322.445,69.949v2.214c2.731,0,4.953,2.222,4.953,4.953h2.215
			C329.612,73.164,326.397,69.949,322.445,69.949z"/>
		<path fill="#FFFFFF" d="M322.445,73.738v3.378h3.378C325.823,75.253,324.309,73.738,322.445,73.738z"/>
		<path fill="#FFFFFF" d="M331.188,77.116h3.068c0-6.523-5.288-11.811-11.811-11.811v3.068
			C327.266,68.374,331.188,72.296,331.188,77.116z"/>
	</g>
	<g>
		<path fill="#FFFFFF" d="M211.95,109.862v2.226c2.745,0,4.979,2.233,4.979,4.979h2.226
			C219.154,113.094,215.922,109.862,211.95,109.862z"/>
		<path fill="#FFFFFF" d="M211.95,113.671v3.396h3.396C215.345,115.194,213.822,113.671,211.95,113.671z"/>
		<path fill="#FFFFFF" d="M220.737,117.067h3.084c0-6.556-5.315-11.872-11.872-11.872v3.084
			C216.795,108.28,220.737,112.222,220.737,117.067z"/>
	</g>
	<path fill="#FFFFFF" d="M228.375,243.657h-0.719c0.574,0,1.039-0.466,1.039-1.039v-0.021c0-0.573-0.465-1.038-1.039-1.038h-0.172
		h-1.164h-2.278c0.378-0.64,0.584-1.366,0.584-2.11v-1.124c0-0.63-0.511-1.141-1.141-1.141h-0.023c-0.63,0-1.141,0.511-1.141,1.141
		v0.16c0,0.802-0.279,1.511-0.584,2.046c-0.306,0.536-0.806,0.91-1.357,1.188c-0.119,0.06-0.228,0.135-0.324,0.224
		c-0.511,0.466-1.213,0.665-1.905,0.665h-0.265v6.186c0,0.062,0.05,0.11,0.111,0.11h0.018c0.756,0,1.512,0.226,2.091,0.712
		c0.251,0.212,0.575,0.339,0.93,0.339h2.439v-0.001h2.591v0.001h1.335c0.003,0,0.005-0.001,0.008-0.001h0.077v-0.008
		c0.534-0.044,0.954-0.485,0.954-1.03v-0.021c0-0.545-0.42-0.987-0.954-1.031v-0.008h0.497c0.574,0,1.039-0.466,1.039-1.039v-0.021
		c0-0.573-0.465-1.039-1.039-1.039h0.394c0.574,0,1.039-0.465,1.039-1.039v-0.021C229.414,244.122,228.948,243.657,228.375,243.657z
		"/>
	<path fill="#EFD8B1" d="M199.674,151.683c-3.974-1.924-8.679-8.076-8.679-8.076h-4.177v5.027h2.472v2.472
		C189.291,151.106,202.015,152.816,199.674,151.683z"/>
	<g>
		<g>
			<circle fill="#DBDBDB" cx="428.962" cy="188.725" r="51.728"/>
			<circle fill="#FF6543" cx="426.64" cy="188.725" r="51.728"/>
			<circle fill="#FFFFFF" cx="426.64" cy="188.725" r="41.458"/>
			<circle fill="#FF6543" cx="426.64" cy="188.725" r="31.187"/>
			<circle fill="#FFFFFF" cx="426.64" cy="188.725" r="20.917"/>
			<circle fill="#FF6543" cx="426.64" cy="188.725" r="10.646"/>
		</g>
		<path fill="#BFBFBF" d="M421.768,197.533h3.468v42.884c0.468,0.013,0.934,0.036,1.404,0.036c0.39,0,0.774-0.021,1.161-0.029
			c0.081,0.002,0.162,0.003,0.243,0.006v-42.897h3.469l-4.873-8.808L421.768,197.533z"/>
		<g>
			
				<rect x="418.34" y="215.917" transform="matrix(0.7071 0.7071 -0.7071 0.7071 287.0047 -258.248)" fill="#1F3540" width="73.79" height="2.809"/>
			<polygon fill="#323C3E" points="436.313,191.507 426.64,188.725 429.422,198.398 			"/>
			<polygon fill="#323C3E" points="491.753,246.946 482.816,238.011 475.926,238.011 475.926,244.902 484.861,253.838 
				484.861,246.946 			"/>
		</g>
	</g>
	<g>
		<path fill="#FFFFFF" d="M176.482,167.098l7.013-0.003c0.752,0,1.413-0.5,1.619-1.224l7.098-25.131l-10.323,0.005L176.482,167.098z
			"/>
		<polygon fill="#DBDBDB" points="192.161,140.922 190.881,145.453 180.768,146.208 181.852,140.926 		"/>
		<path fill="#FF6543" d="M135.235,158.341h0.068c1.85-0.001,3.349-1.501,3.348-3.351l-0.027-54.285
			c-0.001-1.85-1.501-3.349-3.351-3.348h-0.068c-1.85,0.001-3.348,1.501-3.347,3.351l0.027,54.285
			C131.885,156.843,133.386,158.342,135.235,158.341z"/>
		<path fill="#ED573E" d="M135.232,152.225h0.068c1.85-0.001,3.349-1.501,3.347-3.351l0.003,6.116
			c0.001,1.85-1.498,3.35-3.348,3.351h-0.068c-1.85,0.001-3.35-1.498-3.351-3.348l-0.003-6.116
			C131.882,150.728,133.383,152.226,135.232,152.225z"/>
		<path fill="#FFFFFF" d="M138.624,100.912l0.225,0.134c13.921,8.295,28.67,12.777,42.395,13.396l16.39,0.74
			c1.165,0.052,2.102,1.028,2.103,2.18l0.01,20.914c0,1.152-0.936,2.128-2.1,2.182l-16.389,0.753
			c-13.724,0.632-28.468,5.128-42.381,13.438l-0.225,0.134L138.624,100.912z"/>
		<path fill="#DBDBDB" d="M138.651,147.917l0.225-0.134c13.913-8.31,28.657-12.806,42.381-13.438l16.389-0.753
			c1.152-0.053,2.079-1.012,2.097-2.148l0.003,6.832c0,1.152-0.936,2.128-2.1,2.182l-16.389,0.753
			c-13.724,0.632-28.468,5.128-42.381,13.438l-0.225,0.134l-0.027-53.871l0.003,0.002L138.651,147.917z"/>
		<path fill="#FF6543" d="M177.679,142.987l20.324-1.852c0.987-0.09,1.743-0.917,1.743-1.909v-22.759
			c0-0.991-0.755-1.819-1.743-1.909l-20.324-1.852c-1.123-0.102-2.09,0.782-2.09,1.909v26.462
			C175.588,142.205,176.556,143.089,177.679,142.987z"/>
		<path fill="#ED573E" d="M177.679,137.12l20.324-1.852c0.987-0.09,1.743-0.917,1.743-1.909v5.867c0,0.991-0.755,1.819-1.743,1.909
			l-20.324,1.852c-1.123,0.102-2.09-0.782-2.09-1.909v-5.867C175.588,136.338,176.556,137.222,177.679,137.12z"/>
	</g>
	<rect x="204.246" y="149.193" fill="#172A31" width="34" height="23.178"/>
	<rect x="204.246" y="168.594" fill="#0F1D21" width="34" height="3.776"/>
	<rect x="200.746" y="150.662" fill="#FFFFFF" width="3.5" height="20.239"/>
	<rect x="200.746" y="167.704" fill="#DBDBDB" width="3.5" height="3.197"/>
	<circle fill="#FFFFFF" cx="207.803" cy="168.594" r="1.496"/>
	<path fill="#EFD8B1" d="M200.746,151.106h-0.017c-1.078,0-2.146-0.204-3.148-0.602l-4.719-1.871h-11.84h-1.374h-3.035
		c-1.62,0-2.933,1.313-2.933,2.933v0.059c0,1.62,1.313,2.933,2.933,2.933h-1.635c-1.62,0-2.933,1.313-2.933,2.933v0.06
		c0,1.62,1.313,2.933,2.934,2.933h1.194c-1.62,0-2.933,1.313-2.933,2.933v0.059c0,1.62,1.313,2.934,2.933,2.934h1.244
		c-1.62,0-2.934,1.313-2.934,2.933v0.059c0,1.62,1.313,2.933,2.934,2.933h2.231v0.032h9.642h2.726c1.494,0,2.948-0.485,4.143-1.381
		l0.028-0.021c0.57-0.428,1.264-0.659,1.976-0.659h2.583V151.106z"/>
	<path fill="#29424C" d="M192.267,222.468v-6.809l-2.951-0.541c-0.466-2.108-1.299-4.074-2.425-5.838l1.708-2.475l-4.814-4.814
		l-2.475,1.708c-1.764-1.126-3.73-1.959-5.838-2.425l-0.541-2.951h-6.809l-0.541,2.951c-2.108,0.466-4.074,1.299-5.838,2.425
		l-2.475-1.708l-4.814,4.814l1.708,2.475c-1.126,1.764-1.959,3.73-2.425,5.838l-2.951,0.541v6.809l2.951,0.541
		c0.466,2.108,1.299,4.073,2.425,5.838l-1.708,2.475l4.814,4.814l2.475-1.708c1.764,1.126,3.73,1.959,5.838,2.425l0.541,2.95h6.809
		l0.541-2.95c2.108-0.466,4.074-1.299,5.838-2.425l2.475,1.708l4.814-4.814l-1.708-2.475c1.126-1.765,1.959-3.729,2.425-5.838
		L192.267,222.468z M181.131,219.063c0,5.304-4.3,9.604-9.604,9.604s-9.604-4.301-9.604-9.604c0-5.304,4.3-9.604,9.604-9.604
		S181.131,213.759,181.131,219.063z"/>
	<path fill="#FFFFFF" d="M216.559,202.827v-4.839l-2.097-0.384c-0.331-1.498-0.923-2.895-1.723-4.149l1.214-1.759l-3.421-3.422
		l-1.759,1.214c-1.254-0.8-2.651-1.392-4.149-1.723l-0.384-2.097h-4.839l-0.384,2.097c-1.498,0.331-2.895,0.923-4.149,1.723
		l-1.759-1.214l-3.422,3.422l1.214,1.759c-0.8,1.254-1.392,2.651-1.723,4.149l-2.097,0.384v4.839l2.097,0.385
		c0.331,1.498,0.923,2.895,1.723,4.148l-1.214,1.759l3.422,3.422l1.759-1.214c1.254,0.8,2.651,1.392,4.149,1.723l0.384,2.097h4.839
		l0.384-2.097c1.498-0.331,2.895-0.923,4.149-1.723l1.759,1.214l3.421-3.422l-1.214-1.759c0.8-1.253,1.393-2.651,1.723-4.148
		L216.559,202.827z M208.645,200.407c0,3.77-3.056,6.826-6.826,6.826c-3.77,0-6.826-3.056-6.826-6.826s3.056-6.826,6.826-6.826
		C205.589,193.582,208.645,196.638,208.645,200.407z"/>
	<path fill="#DEE1E2" d="M156.347,203.482v-3.567l-1.546-0.283c-0.244-1.104-0.68-2.134-1.27-3.058l0.895-1.297l-2.522-2.522
		l-1.296,0.895c-0.924-0.59-1.954-1.026-3.058-1.271l-0.283-1.545h-3.567l-0.284,1.545c-1.104,0.244-2.134,0.681-3.058,1.271
		l-1.296-0.895l-2.522,2.522l0.895,1.297c-0.589,0.924-1.026,1.954-1.27,3.058l-1.546,0.283v3.567l1.546,0.283
		c0.244,1.104,0.681,2.134,1.27,3.058l-0.895,1.296l2.522,2.522l1.296-0.895c0.924,0.59,1.954,1.026,3.058,1.27l0.284,1.546h3.567
		l0.283-1.546c1.104-0.244,2.134-0.68,3.058-1.27l1.296,0.895l2.522-2.522l-0.895-1.296c0.59-0.924,1.026-1.954,1.27-3.058
		L156.347,203.482z M150.514,201.699c0,2.779-2.252,5.031-5.031,5.031s-5.031-2.252-5.031-5.031c0-2.778,2.252-5.031,5.031-5.031
		S150.514,198.92,150.514,201.699z"/>
	<path fill="#DEE1E2" d="M428.609,368.454c-0.006,0-0.013,0-0.02,0c-2.875-0.003-5.611-1.253-7.533-3.391
		c-0.071-0.079-0.14-0.156-0.206-0.231c-0.746-0.845-1.153-1.934-1.156-3.062v-0.038c-0.003-1.197-0.975-2.164-2.171-2.162
		l-0.044,0.001c-1.196,0.003-2.164,0.975-2.161,2.171v0.233c0.005,1.72,0.52,3.399,1.481,4.825l0.015,0.021l-6.729,0.017
		c-1.083,0.003-1.96,0.883-1.957,1.967v0.04c0.003,1.084,0.883,1.96,1.967,1.957l-1.094,0.003c-1.083,0.003-1.96,0.883-1.957,1.967
		v0.04c0.003,1.084,0.883,1.96,1.967,1.957l0.799-0.002c-1.084,0.003-1.96,0.884-1.957,1.968v0.039
		c0.002,1.084,0.883,1.96,1.967,1.958l0.832-0.002c-1.084,0.002-1.96,0.883-1.958,1.967v0.04c0.003,1.083,0.884,1.96,1.968,1.957
		l1.492-0.003v0.021l6.451-0.015l1.828-0.005c0.997-0.002,1.967-0.328,2.763-0.93l0.019-0.014c0.382-0.288,0.848-0.444,1.325-0.444
		l4.112-0.005l-0.031-12.846H428.609z"/>
	<path fill="#DEE1E2" d="M221.213,74.728c-0.005,0-0.01,0-0.015,0c-2.133-0.002-4.163-0.929-5.589-2.516
		c-0.052-0.058-0.104-0.116-0.153-0.171c-0.553-0.627-0.855-1.435-0.857-2.271v-0.029c-0.002-0.888-0.724-1.605-1.611-1.603h-0.033
		c-0.888,0.002-1.605,0.723-1.604,1.611l0,0.173c0.003,1.276,0.386,2.521,1.099,3.58l0.011,0.016l-4.993,0.012
		c-0.804,0.002-1.455,0.655-1.453,1.459v0.03c0.002,0.804,0.655,1.454,1.459,1.452l-0.811,0.002
		c-0.804,0.002-1.455,0.655-1.453,1.459v0.029c0.002,0.804,0.655,1.455,1.459,1.453l0.593-0.001
		c-0.804,0.002-1.455,0.655-1.453,1.459l0,0.029c0.001,0.804,0.655,1.454,1.459,1.452l0.618-0.001
		c-0.804,0.002-1.455,0.655-1.453,1.459v0.029c0.002,0.804,0.655,1.455,1.459,1.453l1.107-0.003v0.016l4.786-0.012l1.356-0.003
		c0.74-0.002,1.459-0.244,2.05-0.69l0.014-0.01c0.283-0.214,0.628-0.33,0.983-0.33l3.051-0.003l-0.023-9.531H221.213z"/>
	<g>
		<g>
			<g>
				<path fill="#DEE1E2" d="M375.088,74.57h-19.694v-2.631c0-5.384,4.364-9.749,9.748-9.749h0.197c5.384,0,9.749,4.364,9.749,9.749
					V74.57z"/>
				<circle fill="#DEE1E2" cx="365.24" cy="55.803" r="4.897"/>
			</g>
		</g>
		<g>
			<circle fill="#DEE1E2" cx="380.543" cy="59.372" r="3.966"/>
			<path fill="#DEE1E2" d="M380.623,64.545h-0.159c-1.819,0-3.49,0.622-4.825,1.656c1.177,1.611,1.88,3.59,1.88,5.739v2.631h10.999
				v-2.131C388.518,68.08,384.983,64.545,380.623,64.545z"/>
		</g>
	</g>
	<g>
		<g>
			<g>
				<path fill="#DEE1E2" d="M279.213,407.423h-17.311v-2.313c0-4.732,3.837-8.568,8.569-8.568h0.173
					c4.732,0,8.569,3.836,8.569,8.568V407.423z"/>
				<circle fill="#DEE1E2" cx="270.558" cy="390.927" r="4.305"/>
			</g>
		</g>
		<g>
			<circle fill="#DEE1E2" cx="284.009" cy="394.063" r="3.486"/>
			<path fill="#DEE1E2" d="M284.079,398.611h-0.14c-1.599,0-3.068,0.546-4.241,1.455c1.035,1.416,1.653,3.156,1.653,5.044v2.313
				h9.668v-1.872C291.019,401.718,287.912,398.611,284.079,398.611z"/>
		</g>
	</g>
	<g>
		<rect x="252.236" y="60.04" fill="#FFFFFF" width="48.011" height="39.788"/>
		<rect x="252.236" y="60.04" fill="#DBDBDB" width="48.011" height="10.673"/>
		<rect x="252.236" y="60.04" fill="#1F3540" width="48.011" height="8.333"/>
		<g>
			<path fill="#FFFFFF" d="M262.604,64.207h-0.029c-0.803,0-1.455-0.651-1.455-1.455v-4.427c0-0.804,0.651-1.455,1.455-1.455h0.029
				c0.804,0,1.455,0.651,1.455,1.455v4.427C264.058,63.555,263.407,64.207,262.604,64.207z"/>
			<path fill="#FFFFFF" d="M276.257,64.207h-0.03c-0.803,0-1.455-0.651-1.455-1.455v-4.427c0-0.804,0.651-1.455,1.455-1.455h0.03
				c0.803,0,1.455,0.651,1.455,1.455v4.427C277.711,63.555,277.06,64.207,276.257,64.207z"/>
			<path fill="#FFFFFF" d="M289.91,64.207h-0.029c-0.804,0-1.455-0.651-1.455-1.455v-4.427c0-0.804,0.651-1.455,1.455-1.455h0.029
				c0.803,0,1.455,0.651,1.455,1.455v4.427C291.364,63.555,290.713,64.207,289.91,64.207z"/>
		</g>
		<g>
			<path fill="#FF6543" d="M264.776,87.224c1.032,1.005,2.309,1.739,3.776,1.739c1.685,0,2.798-0.734,2.798-2.038
				c0-1.521-0.896-2.473-4.646-2.473v-2.825c3.097,0,4.075-0.924,4.075-2.31c0-1.195-0.76-1.902-2.119-1.902
				c-1.223,0-2.146,0.571-3.233,1.521l-2.01-2.445c1.576-1.358,3.315-2.201,5.434-2.201c3.559,0,5.949,1.711,5.949,4.727
				c0,1.793-1.032,3.042-2.88,3.831v0.108c1.983,0.571,3.424,1.983,3.424,4.211c0,3.206-2.935,5.026-6.412,5.026
				c-2.798,0-4.754-0.978-6.004-2.445L264.776,87.224z"/>
			<path fill="#FF6543" d="M278.579,88.636h3.75v-9.971h-3.233v-2.472c1.875-0.354,3.07-0.842,4.292-1.576h2.935v14.019h3.232v3.233
				h-10.976V88.636z"/>
		</g>
	</g>
	<g>
		<path fill="#FF6543" d="M450.187,245.004l-0.086-0.086c-2.351-2.35-6.16-2.35-8.51,0l-2.411,2.411l-2.412-2.411
			c-2.35-2.35-6.159-2.35-8.509,0l-0.086,0.086c-2.351,2.35-2.351,6.159,0,8.509l2.411,2.412l0,0l8.596,8.595l8.595-8.595l0,0
			l2.412-2.412C452.536,251.163,452.536,247.354,450.187,245.004z"/>
		<path fill="#FFFFFF" d="M452.805,259.701l-0.024-0.024c-0.667-0.667-1.749-0.667-2.416,0l-0.685,0.685l-0.684-0.685
			c-0.668-0.667-1.749-0.667-2.416,0l-0.024,0.024c-0.667,0.667-0.667,1.748,0,2.415l0.685,0.685l0,0l2.439,2.439l2.44-2.439l0,0
			l0.685-0.685C453.471,261.449,453.471,260.368,452.805,259.701z"/>
	</g>
	<g>
		<path fill="#DEE1E2" d="M215.554,359.188c6.43,0,10.538,4.375,10.538,10.597c0,5.446-3.662,8.186-6.787,8.186
			c-1.697,0-3.096-0.834-3.423-2.263h-0.06c-0.833,1.161-2.352,1.965-3.572,1.965c-2.352,0-3.929-1.727-3.929-4.465
			c0-3.632,2.59-7.293,6.013-7.293c0.982,0,1.756,0.417,2.262,1.488h0.06l0.417-1.25h2.709l-1.37,6.549
			c-0.417,1.727,0.03,2.56,1.37,2.56c1.786,0,3.542-2.083,3.542-5.358c0-4.256-2.292-8.066-8.126-8.066
			c-5.09,0-10.12,4.346-10.12,11.044c0,5.863,4.048,8.691,8.692,8.691c1.548,0,3.274-0.506,4.524-1.161l0.953,2.382
			c-1.816,0.981-3.721,1.429-5.834,1.429c-5.953,0-11.281-3.632-11.281-11.222C202.129,364.664,208.231,359.188,215.554,359.188z
			 M213.172,374.934c0.625,0,1.221-0.357,1.965-1.34l0.714-4.019c-0.298-0.565-0.774-0.863-1.369-0.863
			c-1.786,0-2.857,2.441-2.857,4.227C211.625,374.278,212.19,374.934,213.172,374.934z"/>
	</g>
	<g>
		<rect x="318.833" y="361.715" fill="#FFFFFF" width="52.917" height="52.917"/>
		<rect x="321.651" y="364.532" fill="#65D1DD" width="47.28" height="47.281"/>
		<g>
			<polygon fill="#72C423" points="360.54,378.949 333.429,411.813 368.932,411.813 368.932,389.12 			"/>
			<polygon fill="#68AF1C" points="360.54,378.949 358.717,386.567 361.484,391.384 357.658,400.403 361.484,405.117 
				359.318,411.813 368.932,411.813 368.932,389.12 			"/>
		</g>
		<g>
			<g>
				<g>
					<circle fill="#FF6543" cx="340.612" cy="377.207" r="6.065"/>
				</g>
			</g>
		</g>
		<g>
			<polygon fill="#79D12C" points="357.153,411.813 339.402,390.462 321.651,411.813 			"/>
		</g>
	</g>
	<path fill="#DEE1E2" d="M473.046,129.662l-0.071-0.071c-1.951-1.951-5.114-1.951-7.065,0l-2.002,2.002l-2.003-2.002
		c-1.951-1.951-5.114-1.951-7.065,0l-0.071,0.071c-1.951,1.951-1.951,5.115,0,7.066l2.003,2.002l0,0l7.137,7.137l7.137-7.137l0,0
		l2.002-2.002C474.997,134.777,474.997,131.613,473.046,129.662z"/>
	<g>
		<path fill="#1976D2" d="M159.321,57.417h-18.457c-1.697,0-3.076,1.361-3.076,3.035v18.21c0,1.674,1.379,3.035,3.076,3.035h18.457
			c1.697,0,3.076-1.361,3.076-3.035v-18.21C162.397,58.778,161.018,57.417,159.321,57.417z"/>
		<path fill="#FAFAFA" d="M158.551,69.558h-3.845v-3.036c0-0.837,0.689-0.758,1.538-0.758h1.538V61.97h-3.076l0,0
			c-2.549,0-4.614,2.039-4.614,4.553v3.036h-3.076v3.793h3.076v8.347h4.614v-8.347h2.308L158.551,69.558z"/>
	</g>
	<g>
		
			<linearGradient id="SVGID_5_" gradientUnits="userSpaceOnUse" x1="16239.625" y1="7385.0381" x2="16239.625" y2="6839.8882" gradientTransform="matrix(0.0363 0 0 0.0363 -82.6708 -80.0227)">
			<stop  offset="0" style="stop-color:#E09B3D"/>
			<stop  offset="0.3" style="stop-color:#C74C4D"/>
			<stop  offset="0.6" style="stop-color:#C21975"/>
			<stop  offset="1" style="stop-color:#7024C4"/>
		</linearGradient>
		<path fill="url(#SVGID_5_)" d="M510.795,168.079h-8.084c-3.285,0-5.958,2.672-5.958,5.957v8.084c0,3.285,2.673,5.959,5.958,5.959
			h8.084c3.285,0,5.958-2.674,5.958-5.959v-8.084C516.753,170.751,514.08,168.079,510.795,168.079z M514.741,182.12
			c0,2.18-1.768,3.947-3.946,3.947h-8.084c-2.179,0-3.946-1.768-3.946-3.947v-8.084c0-2.178,1.768-3.945,3.946-3.945h8.084
			c2.179,0,3.946,1.768,3.946,3.945V182.12L514.741,182.12z"/>
		
			<linearGradient id="SVGID_6_" gradientUnits="userSpaceOnUse" x1="16239.625" y1="7385.0225" x2="16239.625" y2="6839.8726" gradientTransform="matrix(0.0363 0 0 0.0363 -82.6708 -80.0227)">
			<stop  offset="0" style="stop-color:#E09B3D"/>
			<stop  offset="0.3" style="stop-color:#C74C4D"/>
			<stop  offset="0.6" style="stop-color:#C21975"/>
			<stop  offset="1" style="stop-color:#7024C4"/>
		</linearGradient>
		<path fill="url(#SVGID_6_)" d="M506.753,172.905c-2.852,0-5.173,2.322-5.173,5.174s2.321,5.172,5.173,5.172
			s5.173-2.32,5.173-5.172S509.604,172.905,506.753,172.905z M506.753,181.239c-1.746,0-3.16-1.414-3.16-3.16s1.414-3.16,3.16-3.16
			s3.16,1.414,3.16,3.16S508.499,181.239,506.753,181.239z"/>
		
			<linearGradient id="SVGID_7_" gradientUnits="userSpaceOnUse" x1="16382.4141" y1="7384.9668" x2="16382.4141" y2="6839.9414" gradientTransform="matrix(0.0363 0 0 0.0363 -82.6708 -80.0227)">
			<stop  offset="0" style="stop-color:#E09B3D"/>
			<stop  offset="0.3" style="stop-color:#C74C4D"/>
			<stop  offset="0.6" style="stop-color:#C21975"/>
			<stop  offset="1" style="stop-color:#7024C4"/>
		</linearGradient>
		<circle fill="url(#SVGID_7_)" cx="511.936" cy="172.945" r="1.239"/>
	</g>
	<path fill="#F61C0D" d="M497.599,312.218h-11.691c-2.295,0-4.154,1.859-4.154,4.154v5.844c0,2.295,1.859,4.154,4.154,4.154h11.691
		c2.295,0,4.154-1.859,4.154-4.154v-5.844C501.753,314.077,499.894,312.218,497.599,312.218z M494.79,319.578l-5.469,2.608
		c-0.146,0.07-0.314-0.037-0.314-0.198v-5.38c0-0.164,0.173-0.27,0.318-0.195l5.47,2.771
		C494.958,319.267,494.954,319.5,494.79,319.578z"/>
	<path fill="#0077B7" d="M109.519,268.686H93.136c-0.999,0-1.809,0.811-1.809,1.809v16.383c0,0.998,0.81,1.809,1.809,1.809h16.382
		c0.998,0,1.809-0.811,1.809-1.809v-16.383C111.327,269.496,110.517,268.686,109.519,268.686z M97.516,285.955
		c0,0.291-0.236,0.526-0.527,0.526h-2.241c-0.291,0-0.527-0.235-0.527-0.526v-9.395c0-0.291,0.236-0.527,0.527-0.527h2.241
		c0.291,0,0.527,0.236,0.527,0.527V285.955z M95.869,275.148c-1.176,0-2.129-0.953-2.129-2.129c0-1.177,0.953-2.13,2.129-2.13
		c1.176,0,2.129,0.953,2.129,2.13C97.998,274.195,97.045,275.148,95.869,275.148z M109.228,285.997c0,0.268-0.217,0.484-0.483,0.484
		h-2.405c-0.268,0-0.484-0.217-0.484-0.484v-4.406c0-0.657,0.193-2.881-1.717-2.881c-1.482,0-1.783,1.521-1.844,2.204v5.083
		c0,0.268-0.217,0.484-0.484,0.484h-2.326c-0.267,0-0.484-0.217-0.484-0.484v-9.479c0-0.268,0.217-0.484,0.484-0.484h2.326
		c0.267,0,0.484,0.217,0.484,0.484v0.82c0.55-0.825,1.366-1.462,3.105-1.462c3.851,0,3.828,3.598,3.828,5.574V285.997
		L109.228,285.997z"/>
	<path fill="#65BBF2" d="M221.844,190.246c-2.317,0.035-4.144,2.037-4.144,4.355v0.563c-4.144-0.738-6.181-1.861-8.429-4.215
		c-1.334,2.599,0.141,4.776,1.756,5.971c-1.089,0-2.002-0.141-2.704-0.773c-0.07-0.035-0.141,0-0.105,0.07
		c0.597,2.178,2.634,3.758,4.214,4.215c-1.439,0-2.388,0.211-3.406-0.422c-0.07-0.035-0.141,0-0.105,0.07
		c0.773,2.143,2.318,2.81,4.566,2.81c-1.125,0.843-2.635,1.687-5.479,1.756c-0.104,0-0.175,0.141-0.069,0.211
		c1.053,0.878,3.652,1.546,7.305,1.546c6.005,0,10.887-5.339,10.887-11.941v-0.352c0.948-0.351,1.475-1.193,1.756-2.037
		c0-0.034-0.035-0.069-0.07-0.069l-2.002,0.702c-0.035,0-0.07-0.07-0.035-0.105c0.844-0.667,1.475-1.51,1.756-2.318
		c0,0-0.035-0.035-0.07-0.035c-0.947,0.387-1.861,0.773-2.563,0.984c-0.105,0.035-0.245,0.035-0.351-0.035
		C224.092,190.949,222.723,190.246,221.844,190.246"/>
	<g>
		<path fill="#C8232C" d="M361.663,186.841c5.523,0,10,4.478,10,10c0,5.523-4.477,10-10,10s-10-4.477-10-10
			C351.663,191.319,356.141,186.841,361.663,186.841z"/>
		<path fill="#FFFFFF" d="M361.966,191.22c-3.524,0-5.3,2.446-5.3,4.485c0,1.235,0.482,2.334,1.52,2.743
			c0.169,0.066,0.322,0.002,0.371-0.18l0.15-0.576c0.051-0.18,0.031-0.244-0.105-0.4c-0.3-0.341-0.49-0.782-0.49-1.408
			c0-1.814,1.402-3.438,3.651-3.438c1.992,0,3.086,1.178,3.086,2.751c0,2.07-0.947,3.818-2.352,3.818
			c-0.775,0-1.356-0.621-1.17-1.385c0.222-0.908,0.655-1.891,0.655-2.547c0-0.588-0.326-1.078-1.001-1.078
			c-0.794,0-1.431,0.794-1.431,1.858c0,0.679,0.237,1.136,0.237,1.136l-0.954,3.914c-0.283,1.16-0.042,2.584-0.021,2.728
			c0.012,0.085,0.125,0.104,0.176,0.042c0.073-0.094,1.018-1.223,1.339-2.352c0.091-0.318,0.521-1.974,0.521-1.974
			c0.258,0.478,1.011,0.896,1.812,0.896c2.383,0,4.001-2.104,4.001-4.92C366.66,193.204,364.798,191.22,361.966,191.22z"/>
	</g>
	<g>
		<path fill="#C8232C" d="M692.663-117.159c5.523,0,10,4.478,10,10c0,5.523-4.477,10-10,10s-10-4.477-10-10
			C682.663-112.681,687.14-117.159,692.663-117.159z"/>
		<path fill="#FFFFFF" d="M692.966-112.78c-3.523,0-5.3,2.446-5.3,4.485c0,1.235,0.483,2.334,1.519,2.743
			c0.17,0.066,0.322,0.002,0.371-0.18l0.152-0.576c0.049-0.18,0.03-0.244-0.107-0.4c-0.299-0.341-0.488-0.782-0.488-1.408
			c0-1.814,1.401-3.438,3.65-3.438c1.992,0,3.086,1.178,3.086,2.751c0,2.07-0.947,3.818-2.352,3.818
			c-0.775,0-1.356-0.621-1.17-1.385c0.223-0.909,0.654-1.891,0.654-2.547c0-0.587-0.325-1.078-1-1.078
			c-0.793,0-1.43,0.794-1.43,1.859c0,0.678,0.236,1.136,0.236,1.136l-0.954,3.914c-0.283,1.16-0.042,2.584-0.022,2.728
			c0.013,0.085,0.125,0.104,0.177,0.042c0.073-0.094,1.018-1.223,1.339-2.352c0.091-0.318,0.521-1.974,0.521-1.974
			c0.258,0.478,1.011,0.896,1.812,0.896c2.383,0,4.001-2.104,4.001-4.92C697.66-110.796,695.798-112.78,692.966-112.78z"/>
	</g>
	<g>
		<path fill="#C8232C" d="M411.426,63.116c5.523,0,10,4.478,10,10c0,5.523-4.477,10-10,10s-10-4.477-10-10
			C401.426,67.594,405.902,63.116,411.426,63.116z"/>
		<path fill="#FFFFFF" d="M411.729,67.495c-3.523,0-5.3,2.446-5.3,4.485c0,1.235,0.483,2.334,1.519,2.743
			c0.17,0.066,0.322,0.002,0.371-0.18l0.152-0.576c0.049-0.18,0.03-0.244-0.107-0.4c-0.299-0.341-0.488-0.782-0.488-1.408
			c0-1.814,1.401-3.438,3.65-3.438c1.992,0,3.086,1.178,3.086,2.751c0,2.07-0.947,3.818-2.352,3.818
			c-0.775,0-1.356-0.621-1.17-1.385c0.223-0.909,0.654-1.891,0.654-2.548c0-0.587-0.325-1.078-1-1.078
			c-0.793,0-1.43,0.795-1.43,1.859c0,0.678,0.236,1.136,0.236,1.136l-0.954,3.914c-0.283,1.16-0.042,2.584-0.022,2.728
			c0.013,0.085,0.125,0.104,0.177,0.042c0.073-0.094,1.018-1.223,1.339-2.352c0.091-0.318,0.521-1.974,0.521-1.974
			c0.258,0.478,1.011,0.896,1.812,0.896c2.383,0,4.001-2.104,4.001-4.921C416.423,69.479,414.561,67.495,411.729,67.495z"/>
	</g>
	<g>
		<path fill="#F34A38" d="M154.017,394.32h3.125c-0.548,1.551-2.034,2.662-3.773,2.649c-2.11-0.016-3.855-1.704-3.937-3.813
			c-0.088-2.261,1.726-4.127,3.967-4.127c1.025,0,1.96,0.391,2.665,1.03c0.167,0.151,0.421,0.152,0.585-0.002l1.148-1.08
			c0.18-0.17,0.18-0.455,0.001-0.624c-1.118-1.06-2.618-1.72-4.272-1.752c-3.528-0.069-6.501,2.823-6.526,6.353
			c-0.024,3.555,2.85,6.443,6.398,6.443c3.413,0,6.201-2.672,6.388-6.039c0.005-0.041,0.009-1.469,0.009-1.469h-5.778
			c-0.237,0-0.429,0.193-0.429,0.43v1.57C153.588,394.128,153.78,394.32,154.017,394.32z"/>
		<path fill="#F34A38" d="M165.09,392.034v-1.535c0-0.208-0.169-0.376-0.377-0.376h-1.291c-0.208,0-0.377,0.168-0.377,0.376v1.535
			h-1.534c-0.208,0-0.376,0.168-0.376,0.376v1.291c0,0.208,0.168,0.377,0.376,0.377h1.534v1.535c0,0.207,0.169,0.375,0.377,0.375
			h1.291c0.208,0,0.377-0.168,0.377-0.375v-1.535h1.534c0.208,0,0.376-0.169,0.376-0.377v-1.291c0-0.208-0.168-0.376-0.376-0.376
			H165.09L165.09,392.034z"/>
	</g>
</g>
<g id="DESIGNED_BY_FREEPIK">
</g>
</svg>
