<svg xmlns="http://www.w3.org/2000/svg" width="46.155" height="46.155" viewBox="0 0 46.155 46.155">
  <g id="Group_10" data-name="Group 10" transform="translate(-0.027 0.025)">
    <g id="Group_9" data-name="Group 9" transform="translate(0.029 -0.025)">
      <path id="Path_9" data-name="Path 9" d="M10.007.374A1.344,1.344,0,0,0,8.1.374L.442,8.027a1.36,1.36,0,0,0,0,1.911L13.559,23.055l1.911-1.911L3.309,8.974,9.042,3.241l3.822,3.822-.956.956a1.36,1.36,0,0,0,0,1.911,1.344,1.344,0,0,0,1.911,0l.956-.956,1.911,1.911-.956.956a1.344,1.344,0,0,0,0,1.911,1.36,1.36,0,0,0,1.911,0L18.6,12.8,21.2,15.4l1.911-1.911C22.844,13.211,11.071,1.447,10.007.374Z" transform="translate(-0.05 0.025)" fill="#e01321"/>
      <path id="Path_10" data-name="Path 10" d="M278.681,269.116c-.685-.685-12.386-12.377-13.116-13.116l-1.911,1.911,2.605,2.605-.956.956a1.351,1.351,0,0,0,1.911,1.911l.956-.956,1.911,1.911-.956.956a1.351,1.351,0,0,0,1.911,1.911l.956-.956,3.822,3.822-5.733,5.733-12.17-12.161L256,265.565l13.116,13.116a1.36,1.36,0,0,0,1.911,0l7.654-7.654A1.344,1.344,0,0,0,278.681,269.116Z" transform="translate(-232.927 -232.92)" fill="#e01321"/>
    </g>
    <path id="Path_11" data-name="Path 11" d="M44.99,5.1l-3.84-3.84a4.053,4.053,0,0,0-5.724,0L23.1,13.581l-1.911,1.911-5.733,5.733-1.92,1.92-9.2,9.2a1.307,1.307,0,0,0-.325.532L.1,44.448a1.346,1.346,0,0,0,1.7,1.7l11.566-3.912a1.413,1.413,0,0,0,.532-.325l9.2-9.2L25.013,30.8l5.733-5.733,1.911-1.911,3.011-3.011h0l9.3-9.3A4.051,4.051,0,0,0,44.99,5.1ZM3.513,42.735l2.371-6.923c.415.406,3.732,3.732,4.552,4.552ZM37.327,14.654l-1.911,1.911L12.942,39.048l-1.911-1.911L9.12,35.226,7.209,33.315,20.578,19.946l.739-.739.487-.487.243-.243L22.525,18l1.388-1.388.442-.442L26.924,13.6l.343-.343.325-.325.3-.3.415-.415.252-.252c.081-.081.153-.153.225-.234l.108-.108c.108-.1.2-.2.288-.279s.162-.162.225-.225l.279-.279h0L31.594,8.93l2.479-2.479,5.733,5.733ZM43.07,8.921l-1.523,1.533L35.813,4.72l1.533-1.533a1.349,1.349,0,0,1,1.9,0L43.07,7.01A1.344,1.344,0,0,1,43.07,8.921Z" transform="translate(0 -0.091)" fill="#4b4949"/>
  </g>
</svg>
