<?xml version="1.0" encoding="utf-8"?>
<!-- Generator: Adobe Illustrator 19.2.1, SVG Export Plug-In . SVG Version: 6.00 Build 0)  -->
<svg version="1.1" xmlns="http://www.w3.org/2000/svg" xmlns:xlink="http://www.w3.org/1999/xlink" x="0px" y="0px"
	 viewBox="0 0 600.7 496" style="enable-background:new 0 0 600.7 496;" xml:space="preserve">
<style type="text/css">
	.st0{display:none;fill:#151B3F;}
	.st1{fill:#FFFFFF;}
	.st2{fill:#455A64;}
	.st3{fill:#263238;}
	.st4{fill:#E8505B;}
	.st5{fill:#FAFAFA;}
	.st6{fill:#FFBE9D;}
	.st7{opacity:0.6;}
	.st8{opacity:0.3;}
	.st9{fill:#EB996E;}
	.st10{fill:#E0E0E0;}
	.st11{fill-rule:evenodd;clip-rule:evenodd;}
	.st12{fill:#EBEBEB;}
	.st13{fill:#D8095E;}
	.st14{display:none;}
	.st15{display:inline;fill:#EBEBEB;}
</style>
<g id="Character">
	<rect x="-41.7" y="-23.9" class="st0" width="660" height="531.5"/>
	<path id="XMLID_1_" class="st1" d="M572.1,270.9c-10-13.9-21.9-27.5-25-46.4c-5.4-32.7,17.6-60.6,25.1-92.5
		c5.2-22.1,2.5-47.2-7.1-66.5c-9.6-19.3-25.9-32.3-43.1-34.4c-29.7-3.6-58.7,23.1-87.9,15.3C410.6,40.3,392.1,13,368.4,10
		c-27.9-3.4-51.1,27.4-77.8,39c-31.9,13.9-66.5-0.6-97.9-16.6S128.3-1.2,95.3,6.4c-36.8,8.5-67.7,51.4-72.6,100.9
		c-4.9,49.1,36,88.5,1.2,147.4C13,273.1,5.7,298.8,10.6,321.4c4.7,21.9,24.6,35.8,24.7,58.6c0.1,18-12.6,32.3-13.6,50.3
		c-0.9,15.4,7.4,29.7,17.6,37c10.2,7.3,22,9.1,33.5,10.7l0,0c-0.6,0.9-0.8,2.2-0.5,3.4c0.3,1.2,1.2,2,2.1,2.1
		c56.2,6.3,112.8,4.8,169.2,3.3c91.6-2.4,183.2-4.9,274.9-7.3c9.4-0.3,19.1-0.6,27.8-5.1c8.8-4.6,16.6-14.4,18-26.8
		c2.3-21.2-14.3-39.6-12.8-61c2-27.2,30.6-37.8,36.1-64.1C591.4,303.6,582.1,284.8,572.1,270.9z"/>
	<g>
		<g>
			<g>
				<g>
					<g>
						<g>
							<path class="st2" d="M176.7,279.9l26.1,88.2c1.2,3.9,4.8,6.6,8.8,6.6l106,0.3c5.6,0,10.1-4.7,9.8-10.3l0,0
								c-0.3-5.2-4.6-9.3-9.8-9.3h-40.5l-32.5-90.4h-56.8C180.1,264.9,174.5,272.4,176.7,279.9z"/>
						</g>
					</g>
				</g>
				<g>
					<g>
						<g>
							<g>
								<ellipse class="st3" cx="242.2" cy="362.6" rx="24.1" ry="0.4"/>
							</g>
						</g>
					</g>
				</g>
				<g>
					<g>
						<g>
							<g>
								<path class="st3" d="M184.5,267.7c0.2-0.1,7.4,21,16.1,47.2c8.7,26.1,15.6,47.3,15.4,47.4c-0.2,0.1-7.4-21-16.1-47.2
									C191.2,289,184.3,267.8,184.5,267.7z"/>
							</g>
						</g>
					</g>
				</g>
			</g>
			<g>
				<polygon class="st2" points="262,453 255.5,452.8 255.5,374.6 262,374.6 				"/>
			</g>
			<g>
				<polygon class="st2" points="228.7,452.6 288.8,452.6 261.6,443.2 255.1,443.2 				"/>
			</g>
		</g>
		<g>
			<g>
				<g>
					<g>
						<g>
							<g>
								<g>
									<g>
										<path class="st4" d="M213.5,244.7l9.9,49.7l-1.8,37.3l66.9-11.1l-2.6-32.6l-0.1-27l16.4,31.8L315,268l-23.4-42.3l0,0
											c-4.3-4.4-9.3-7.7-15.3-9.9c-2.9-1.1-6-1.7-9.6-1.8v0c-7.7,2.4-15.4,2.4-23.2,0c-0.9,0.1-2.2,0.2-3.9,0.4
											c-0.1,0-0.2,0-0.3,0c-14.2,1.7-25,13.5-25.8,27.8L213.5,244.7z"/>
									</g>
								</g>
							</g>
						</g>
					</g>
					<g>
						<g>
							<g>
								<path class="st4" d="M239.7,214.4c0,0-27.5,0.2-30.9,29.2l-0.5,21.3l23.7-0.2L239.7,214.4z"/>
							</g>
						</g>
					</g>
				</g>
			</g>
			<g>
				<g>
					<g>
						<g>
							<path class="st5" d="M305.3,251.7c0,0.2-21.6,0.4-48.3,0.4c-26.7,0-48.3-0.2-48.3-0.4c0-0.2,21.6-0.4,48.3-0.4
								C283.7,251.3,305.3,251.5,305.3,251.7z"/>
						</g>
					</g>
				</g>
			</g>
			<g>
				<g>
					<g>
						<g>
							<path class="st5" d="M305.3,256.3c0,0.2-21.6,0.4-48.3,0.4c-26.7,0-48.3-0.2-48.3-0.4c0-0.2,21.6-0.4,48.3-0.4
								C283.7,255.9,305.3,256.1,305.3,256.3z"/>
						</g>
					</g>
				</g>
			</g>
			<g>
				<g>
					<g>
						<g>
							<path class="st5" d="M303.8,247.9c0,0.2-21.3,0.4-47.5,0.4c-26.2,0-47.5-0.2-47.5-0.4c0-0.2,21.3-0.4,47.5-0.4
								C282.5,247.5,303.8,247.7,303.8,247.9z"/>
						</g>
					</g>
				</g>
			</g>
			<g>
				<g>
					<g>
						<g>
							
								<ellipse transform="matrix(2.200594e-002 -0.9998 0.9998 2.200594e-002 13.4052 546.5389)" class="st3" cx="286.1" cy="266.4" rx="26.3" ry="0.4"/>
						</g>
					</g>
				</g>
			</g>
			<g>
				<g>
					<g>
						<path class="st6" d="M276.1,273.6c0,0,13,0.9,15.3,4.4c2.3,3.4,5.9,13.2,4.6,13.3c-1.4,0.1-2.3-0.7-2.3-0.7l-3.6-6.3
							c0,0,0.6,6.1-1.6,6.2c-2.1,0.1-12.7,2.2-12.7,2.2L276.1,273.6z"/>
					</g>
				</g>
			</g>
			<g>
				<g>
					<g>
						<path class="st4" d="M208.4,259.2l0,33.5c0.4,7.8,7.8,13.4,15.4,11.8l52.4-10.8l-0.1-21.5l-45.2,8.7l-0.6-22.7L208.4,259.2z"
							/>
					</g>
				</g>
			</g>
			<g>
				<g>
					<g>
						<g>
							<path class="st3" d="M238.3,301.8c0,0,0.2-0.1,0.7-0.2c0.5-0.1,1.2-0.3,2-0.5c1.8-0.4,4.4-0.9,7.7-1.6
								c6.7-1.4,16.1-3.3,27.3-5.6l-0.3,0.3c0-6.7,0-14.2,0-22.1l0.4,0.4c-3,0.6-6.1,1.2-9.2,1.8c-13.2,2.5-25.6,4.9-36,6.9
								l-0.4,0.1l0-0.4c0.3-10,0.6-18.3,0.8-24.2c0.1-2.9,0.2-5.1,0.3-6.7c0-0.7,0.1-1.3,0.1-1.8c0-0.4,0.1-0.6,0.1-0.6
								c0,0,0,0.2,0,0.6c0,0.5,0,1,0,1.8c0,1.6-0.1,3.9-0.1,6.8c-0.1,5.9-0.3,14.2-0.6,24.2l-0.4-0.3c10.4-2,22.8-4.4,36-7
								c3.2-0.6,6.3-1.2,9.2-1.8l0.4-0.1l0,0.4c0,7.9,0,15.3,0,22.1l0,0.3l-0.3,0.1c-11.2,2.2-20.6,4-27.3,5.3
								c-3.3,0.6-5.9,1.1-7.7,1.4c-0.9,0.1-1.5,0.3-2.1,0.4C238.5,301.8,238.3,301.8,238.3,301.8z"/>
						</g>
					</g>
				</g>
			</g>
			<g>
				<g>
					<g>
						<g>
							<path class="st3" d="M268.3,214.4c0,0,0.1,0.2,0.2,0.5c0.1,0.3,0.3,0.8,0.4,1.5c0.3,1.3,0.4,3.3-0.2,5.6
								c-0.6,2.3-2.2,4.9-4.5,7c-2.4,2.2-5.8,3.6-9.5,3.6c-3.7,0-7.2-1.5-9.4-3.8c-2.2-2.3-3.2-5.2-3.5-7.6
								c-0.3-2.4,0.2-4.4,0.7-5.6c0.2-0.6,0.5-1.1,0.7-1.4c0.2-0.3,0.3-0.5,0.3-0.4c0.1,0-0.3,0.7-0.7,1.9c-0.4,1.2-0.7,3.1-0.4,5.4
								c0.3,2.3,1.3,5,3.5,7.2c2.1,2.2,5.4,3.6,8.9,3.6c3.5,0,6.8-1.3,9.1-3.4c2.3-2,3.8-4.4,4.5-6.7c0.7-2.2,0.6-4.2,0.5-5.4
								C268.5,215.1,268.3,214.4,268.3,214.4z"/>
						</g>
					</g>
				</g>
			</g>
			<g>
				<g>
					<g>
						<g>
							<path class="st5" d="M270.9,295.5c-0.1,0-0.1-1.3,0-3.3c0.1-2,0.2-4.8,0.2-7.9c0-3.1,0-5.9-0.1-7.9c-0.1-2-0.1-3.3,0-3.3
								c0.1,0,0.3,1.2,0.5,3.3c0.2,2,0.3,4.9,0.3,8c0,3.1-0.2,5.9-0.4,8C271.2,294.2,271,295.5,270.9,295.5z"/>
						</g>
					</g>
				</g>
			</g>
			<g>
				<g>
					<g>
						<g>
							<path class="st5" d="M268.2,296c-0.1,0-0.1-1.3-0.1-3.3c0-2.3,0.1-5,0.1-7.9c0-2.9,0-5.6,0-7.9c0-2,0-3.3,0.1-3.3
								c0.1,0,0.3,1.2,0.4,3.3c0.1,2,0.2,4.8,0.2,7.9c0,3.1-0.1,5.9-0.3,7.9C268.4,294.8,268.3,296,268.2,296z"/>
						</g>
					</g>
				</g>
			</g>
		</g>
		<g>
			<g>
				<g>
					<g>
						<path class="st4" d="M320.6,429.2l9.9,27.3l14.1,19.3c1,1.4,0.6,3.4-0.8,4.3l0,0c-0.8,0.5-1.8,0.6-2.7,0.2
							c-5.7-2.4-26.5-11.1-27.1-13.1c-0.7-2.4-14.1-31.7-14.1-31.7L320.6,429.2z"/>
					</g>
				</g>
				<g class="st7">
					<g>
						<path class="st1" d="M343.8,480l-30.5-14.7l0.4,1.1c0.4,1,1.1,1.8,2,2.3c2.5,1.3,9.5,4.9,25.2,11.5
							C341.9,480.7,342.9,480.6,343.8,480L343.8,480z"/>
					</g>
				</g>
				<g class="st7">
					<g>
						<g>
							<path class="st1" d="M315.4,454.4c0.9,0.2,1.5,1.1,1.3,2c-0.2,0.9-1.1,1.5-2,1.3c-0.9-0.2-1.6-1.3-1.4-2.1
								c0.3-0.8,1.4-1.5,2.2-1.1"/>
						</g>
					</g>
				</g>
				<g>
					<g>
						<g>
							<path class="st3" d="M333,470.6c0.2,0,0.2-1.6,1.6-3c1.3-1.4,2.9-1.6,2.9-1.8c0-0.1-0.4-0.2-1.1,0c-0.7,0.2-1.5,0.6-2.3,1.4
								c-0.7,0.8-1.1,1.7-1.2,2.4C332.8,470.2,332.9,470.6,333,470.6z"/>
						</g>
					</g>
				</g>
				<g>
					<g>
						<g>
							<path class="st3" d="M336.3,473.5c0.2,0.1,0.7-1.2,1.9-2.1c1.2-1,2.5-1.2,2.5-1.4c0-0.2-1.5-0.2-2.9,0.9
								C336.5,472,336.2,473.5,336.3,473.5z"/>
						</g>
					</g>
				</g>
				<g>
					<g>
						<g>
							<path class="st3" d="M327.6,467.4c0.2,0.1,1-1.8,2.8-3.4c1.8-1.7,3.7-2.3,3.6-2.5c0-0.2-2.2,0.2-4.1,2
								C328,465.2,327.4,467.3,327.6,467.4z"/>
						</g>
					</g>
				</g>
				<g>
					<g>
						<g>
							<path class="st3" d="M323.9,459.3c0.1,0.1,1.4-1.1,3.3-1.9c1.9-0.9,3.6-1,3.6-1.1c0-0.2-1.8-0.3-3.9,0.6
								C324.9,457.7,323.8,459.2,323.9,459.3z"/>
						</g>
					</g>
				</g>
				<g>
					<g>
						<g>
							<path class="st3" d="M320.8,451.4c0.1,0.1,1.3-1.4,3.4-2.1c2.1-0.8,3.9-0.3,3.9-0.5c0-0.1-0.4-0.3-1.2-0.4
								c-0.8-0.1-1.9-0.1-3,0.3c-1.1,0.4-2,1-2.5,1.6C320.9,450.9,320.7,451.3,320.8,451.4z"/>
						</g>
					</g>
				</g>
				<g>
					<g>
						<g>
							<path class="st3" d="M323.5,447.8c0,0,0-0.4-0.4-1c-0.3-0.6-0.9-1.5-1.9-2.4c-0.5-0.4-1-0.9-1.9-1c-0.4,0-1,0.3-1.2,0.7
								c-0.2,0.5-0.1,1,0,1.4c0.7,1.7,2.8,2.8,4.8,2.3c2-0.5,3.3-2.3,3.5-4.1c0-0.4,0-1-0.4-1.3c-0.4-0.4-1-0.4-1.4-0.1
								c-0.8,0.4-1.1,1.1-1.4,1.6c-0.6,1.1-0.9,2.1-1,2.8c-0.1,0.7-0.1,1.1-0.1,1.1c0.1,0,0.2-1.6,1.5-3.7c0.3-0.5,0.7-1.1,1.3-1.4
								c0.3-0.1,0.6-0.1,0.7,0.1c0.2,0.2,0.3,0.5,0.2,0.9c-0.2,1.5-1.4,3.1-3.1,3.5c-1.7,0.4-3.6-0.5-4.1-1.9
								c-0.1-0.3-0.2-0.7-0.1-1c0.1-0.3,0.3-0.4,0.6-0.4c0.6,0,1.2,0.4,1.7,0.8C322.9,446.3,323.4,447.9,323.5,447.8z"/>
						</g>
					</g>
				</g>
			</g>
		</g>
		<g>
			<g>
				<g>
					<path class="st4" d="M362.4,422l-0.9,22.2c0,0,22.2,8.3,22.5,12.4l-43-0.1l-0.1-34.6L362.4,422z"/>
				</g>
				<g class="st7">
					<g>
						<path class="st1" d="M348.3,442.3c-0.8,0.2-1.4,1.2-1.2,2c0.2,0.8,1.1,1.4,2,1.2c0.8-0.2,1.6-1.3,1.3-2.1
							c-0.3-0.8-1.4-1.5-2.2-1"/>
					</g>
				</g>
				<g class="st7">
					<path class="st1" d="M341,456.5l0-3.4l41.4,1.4c0,0,1.9,0.8,1.7,2.2L341,456.5z"/>
				</g>
				<g>
					<g>
						<path class="st3" d="M362.3,444c0,0.2-1.1,0.3-2.1,1c-1.1,0.6-1.6,1.6-1.8,1.5c-0.2,0,0.1-1.3,1.4-2.1
							C361.1,443.5,362.3,443.8,362.3,444z"/>
					</g>
				</g>
				<g>
					<g>
						<path class="st3" d="M366.8,445.9c0,0.2-0.9,0.6-1.6,1.4c-0.7,0.9-0.9,1.8-1.1,1.8c-0.2,0-0.3-1.2,0.6-2.3
							C365.6,445.7,366.8,445.7,366.8,445.9z"/>
					</g>
				</g>
				<g>
					<g>
						<path class="st3" d="M369.4,451.3c-0.2,0-0.5-1,0.1-2.2c0.5-1.2,1.5-1.6,1.6-1.4c0.1,0.2-0.5,0.8-1,1.7
							C369.6,450.4,369.6,451.2,369.4,451.3z"/>
					</g>
				</g>
				<g>
					<g>
						<path class="st3" d="M361.9,438.9c-0.1,0.2-1.1-0.1-2.2,0c-1.2,0.1-2.1,0.4-2.2,0.3c-0.1-0.2,0.8-0.9,2.2-1
							C361,438.1,362,438.7,361.9,438.9z"/>
					</g>
				</g>
			</g>
			<g class="st8">
				<polygon points="362.3,426.4 362.1,430.4 341,430.1 341,426.6 				"/>
			</g>
			<g>
				<g>
					<path class="st3" d="M362,434.4c0,0.1-0.8,0.2-2.2,0c-0.7-0.1-1.4-0.3-2.3-0.7c-0.4-0.2-0.8-0.4-1.2-0.7
						c-0.2-0.1-0.4-0.3-0.6-0.5c-0.2-0.2-0.4-0.8-0.1-1.1c0.2-0.3,0.6-0.5,0.9-0.5c0.3,0,0.6,0.1,0.8,0.1c0.5,0.1,0.9,0.3,1.3,0.5
						c0.8,0.4,1.5,0.9,2,1.3c1,0.9,1.3,1.7,1.3,1.8c-0.1,0.1-0.6-0.6-1.6-1.4c-0.5-0.4-1.2-0.8-1.9-1.1c-0.4-0.2-0.8-0.3-1.2-0.4
						c-0.5-0.1-0.8-0.1-1,0.1c0,0.1,0,0.1,0,0.2c0.1,0.1,0.3,0.2,0.5,0.4c0.4,0.2,0.8,0.5,1.1,0.7c0.7,0.4,1.5,0.6,2.1,0.8
						C361.2,434.3,362,434.3,362,434.4z"/>
				</g>
			</g>
			<g>
				<g>
					<path class="st3" d="M361.7,434.7c-0.1,0-0.5-0.7-0.6-2.1c0-0.7,0-1.5,0.3-2.4c0.1-0.4,0.3-0.9,0.6-1.3c0.3-0.4,0.6-1,1.4-1.1
						c0.4,0,0.8,0.3,0.9,0.6c0.1,0.3,0.2,0.5,0.2,0.8c0.1,0.5,0.1,1,0,1.5c-0.1,0.9-0.5,1.7-0.9,2.2c-0.8,1.1-1.7,1.4-1.7,1.3
						c-0.1-0.1,0.7-0.5,1.3-1.6c0.3-0.5,0.6-1.2,0.7-2c0-0.4,0-0.8,0-1.2c-0.1-0.5-0.2-0.8-0.4-0.8c-0.2,0-0.6,0.3-0.8,0.7
						c-0.2,0.4-0.4,0.8-0.5,1.2c-0.3,0.8-0.4,1.5-0.4,2.1C361.6,433.9,361.9,434.7,361.7,434.7z"/>
				</g>
			</g>
		</g>
		<g>
			<g>
				<g>
					<g>
						<g>
							<path class="st3" d="M341,315.8c-25.4,2.6-59.1,6.1-59.1,6.1l4.6,41.4c0,0,49.5-13.1,49.2-12c-0.4,1.1,2.3,88.1,2.3,88.1
								h29.8l0.6-98.5C368.5,325.9,355.7,314.2,341,315.8z"/>
						</g>
					</g>
				</g>
				<g>
					<g>
						<g>
							<path class="st3" d="M221,332.5v12.8c0,8.7,10,18,18.7,18h6.8c5.3,0,13.7-3.9,18-7l2.6-1.9l31.1,96.2c0,0,35.5-6.4,35.5-7.5
								c0-1.1-24.1-78.8-35.2-114.9c-4.5-14.7-20.3-23.3-34.9-18.3c-0.5,0.2-1,0.4-1.5,0.6C246.1,316.9,221,332.5,221,332.5z"/>
						</g>
					</g>
				</g>
				<g>
					<g>
						<g>
							<g>
								<path class="st2" d="M333.6,443.1c0,0-0.1-0.1-0.2-0.3c-0.1-0.3-0.2-0.6-0.4-1c-0.3-0.9-0.8-2.2-1.4-4
									c-1.2-3.5-2.8-8.5-4.8-14.8c-4-12.5-9.3-29.9-15.1-49.1c-2.9-9.6-5.6-18.8-8.1-27.1c-1.2-4.2-2.4-8.1-3.5-11.8
									c-0.6-1.9-1.1-3.6-1.6-5.4c-0.5-1.7-1-3.4-1.6-4.9c-1.2-3-3.1-5.3-5-7.1c-1.9-1.8-3.7-3.1-5.3-4.1c-1.5-1-2.7-1.8-3.6-2.3
									c-0.4-0.2-0.7-0.4-0.9-0.6c-0.2-0.1-0.3-0.2-0.3-0.2c0,0,0.1,0,0.3,0.2c0.3,0.1,0.6,0.3,1,0.5c0.9,0.5,2.1,1.2,3.6,2.2
									c1.6,1,3.4,2.3,5.4,4c1.9,1.8,3.9,4.1,5.2,7.2c0.7,1.5,1.2,3.2,1.7,4.9c0.5,1.7,1.1,3.5,1.6,5.3c1.1,3.7,2.3,7.7,3.6,11.8
									c2.5,8.3,5.3,17.5,8.2,27.1c5.8,19.2,11,36.5,14.8,49.2c1.9,6.2,3.5,11.3,4.6,14.9c0.5,1.7,1,3.1,1.3,4
									c0.1,0.4,0.2,0.8,0.3,1.1C333.6,443,333.6,443.1,333.6,443.1z"/>
							</g>
						</g>
					</g>
				</g>
				<g>
					<g>
						<g>
							<g>
								<path class="st2" d="M341.1,338.8c0.2,0.1-1.5,2.7-2.9,6.1c-1.4,3.4-2,6.4-2.3,6.4c-0.2,0,0.1-3.1,1.6-6.7
									C338.9,341.1,340.9,338.7,341.1,338.8z"/>
							</g>
						</g>
					</g>
				</g>
				<g>
					<g>
						<g>
							<g>
								<path class="st2" d="M346.8,342.8c0.1,0.2-2.5,1.3-5.1,3.4c-2.7,2.1-4.4,4.3-4.6,4.2c-0.2-0.1,1.3-2.6,4.1-4.8
									C343.9,343.5,346.7,342.6,346.8,342.8z"/>
							</g>
						</g>
					</g>
				</g>
				<g>
					<g>
						<g>
							<g>
								<path class="st2" d="M298.4,450.6c-0.2,0.1-8.6-25.7-18.7-57.5c-10.2-31.8-18.2-57.7-18-57.7c0.2-0.1,8.6,25.7,18.7,57.5
									C290.5,424.7,298.6,450.5,298.4,450.6z"/>
							</g>
						</g>
					</g>
				</g>
			</g>
		</g>
		<g>
			<g>
				<g>
					<polygon class="st2" points="260.3,300.5 361.9,301.5 380.9,247.9 306.9,248.4 289.8,296.6 260.3,297 					"/>
				</g>
			</g>
		</g>
		<g>
			<g>
				<g>
					<path class="st3" d="M252,155.5c1-3.6,3.6-5.3,7.1-6.5c3.5-1.2,7.6-0.5,10.5,1.7c2,1.5,3.5,3.7,5.8,4.5c3.8,1.3,8.3-1.5,12,0.2
						c2.2,1,3.4,3.7,2.9,6c-0.6,2.3-2.9,4.1-5.3,4c2.5,0.9,3.3,4.5,1.8,6.7c-1.5,2.2-4.5,3.1-7.1,2.6c-2.6-0.5-4.9-2.1-6.9-3.9
						c-2-1.8-3.8-3.8-5.9-5.4c-2.1-1.6-4.7-2.8-7.4-2.7c-3.6,0.2-6.7,2.9-8.3,6.1s-2,6.9-2.2,10.5c-0.2,3.6-0.3,7.3-1.3,10.7
						c-0.1,0.4-0.3,0.9-0.7,1c-0.6,0.2-1.1-0.4-1.4-1c-3.3-6.1-5.4-12.8-6.1-19.7c-0.4-4-0.3-7.8,1.9-11.1
						C243.7,155.8,249.3,153.4,252,155.5"/>
				</g>
			</g>
			<g>
				<g>
					<g>
						<g>
							<g>
								<g>
									<g>
										<g>
											<g>
												<g>
													<g>
														<g>
															<g>
																<g>
																	<g>
																		<path class="st6" d="M245,172.2l-1.8,40.5c-0.3,6.9,0.6,17.1,11.5,17.1l0,0c9.5-0.7,12.3-9.6,12.5-16
																			c0.1-3,0.3-5.6,0.3-5.9c0,0,10.3-0.5,11.6-10.7c0.6-4.9,1-15.1,1.2-24.4c0.3-9.9-7.2-18.4-17-19.4l-1-0.1
																			C251.6,152.8,245.2,161.6,245,172.2z"/>
																	</g>
																</g>
															</g>
														</g>
													</g>
												</g>
											</g>
										</g>
									</g>
									<g>
										<g>
											<g>
												<g>
													<g>
														<g>
															<g>
																<g>
																	<g>
																		<path class="st9" d="M267.6,207.7c0,0-6.5-0.2-12.9-5.2c0,0,2.4,7.7,12.6,7.8L267.6,207.7z"/>
																	</g>
																</g>
															</g>
														</g>
													</g>
												</g>
											</g>
										</g>
									</g>
								</g>
							</g>
						</g>
						<g>
							<g>
								<g>
									<g>
										<g>
											<g>
												<g>
													<g>
														<g>
															<g>
																<g>
																	<g>
																		<g>
																			<g>
																				<g>
																					<path class="st3" d="M276.6,179.3c-0.1,0.8-0.8,1.4-1.6,1.3c-0.8,0-1.4-0.7-1.4-1.5c0.1-0.8,0.8-1.4,1.6-1.3
																						C276,177.9,276.6,178.6,276.6,179.3z"/>
																				</g>
																			</g>
																		</g>
																	</g>
																</g>
															</g>
														</g>
													</g>
												</g>
												<g>
													<g>
														<g>
															<g>
																<g>
																	<g>
																		<g>
																			<g>
																				<g>
																					<g>
																						<path class="st3" d="M277.6,177.6c-0.2,0.2-1.2-0.8-2.8-0.9c-1.6-0.2-2.8,0.5-2.9,0.3
																							c-0.1-0.1,0.1-0.4,0.7-0.7c0.5-0.3,1.4-0.6,2.4-0.5c1,0.1,1.8,0.6,2.2,1C277.5,177.2,277.7,177.5,277.6,177.6
																							z"/>
																					</g>
																				</g>
																			</g>
																		</g>
																	</g>
																</g>
															</g>
														</g>
													</g>
												</g>
											</g>
											<g>
												<g>
													<g>
														<g>
															<g>
																<g>
																	<g>
																		<g>
																			<g>
																				<g>
																					<path class="st3" d="M261.2,178.2c-0.1,0.8-0.8,1.4-1.6,1.3c-0.8,0-1.4-0.7-1.4-1.5c0.1-0.8,0.8-1.4,1.6-1.3
																						C260.6,176.8,261.3,177.5,261.2,178.2z"/>
																				</g>
																			</g>
																		</g>
																	</g>
																</g>
															</g>
														</g>
													</g>
												</g>
												<g>
													<g>
														<g>
															<g>
																<g>
																	<g>
																		<g>
																			<g>
																				<g>
																					<g>
																						<path class="st3" d="M262.2,176.3c-0.2,0.2-1.2-0.8-2.8-0.9c-1.6-0.2-2.8,0.5-2.9,0.3
																							c-0.1-0.1,0.1-0.4,0.7-0.7c0.5-0.3,1.4-0.6,2.4-0.5c1,0.1,1.8,0.6,2.2,1C262.1,175.8,262.3,176.2,262.2,176.3
																							z"/>
																					</g>
																				</g>
																			</g>
																		</g>
																	</g>
																</g>
															</g>
														</g>
													</g>
												</g>
											</g>
											<g>
												<g>
													<g>
														<g>
															<g>
																<g>
																	<g>
																		<g>
																			<g>
																				<g>
																					<path class="st3" d="M266.6,188.4c0-0.1,1-0.2,2.6-0.2c0.4,0,0.8,0,0.9-0.3c0.1-0.3,0-0.7-0.1-1.2
																						c-0.3-1-0.6-2.1-0.9-3.2c-1.2-4.5-2-8.2-1.8-8.2c0.2,0,1.3,3.6,2.5,8.1c0.3,1.1,0.6,2.2,0.8,3.2
																						c0.1,0.5,0.3,1,0,1.6c-0.1,0.3-0.5,0.5-0.7,0.5c-0.3,0.1-0.5,0-0.7,0C267.6,188.6,266.6,188.5,266.6,188.4z"/>
																				</g>
																			</g>
																		</g>
																	</g>
																</g>
															</g>
														</g>
													</g>
												</g>
											</g>
											<g>
												<g>
													<g>
														<g>
															<g>
																<g>
																	<g>
																		<g>
																			<g>
																				<g>
																					<path class="st3" d="M261.9,189c0.3,0,0.1,1.7,1.4,3.1c1.3,1.4,3.2,1.4,3.1,1.6c0,0.1-0.4,0.3-1.2,0.2
																						c-0.8-0.1-1.8-0.4-2.6-1.2c-0.8-0.8-1.1-1.9-1.1-2.6C261.5,189.4,261.8,189,261.9,189z"/>
																				</g>
																			</g>
																		</g>
																	</g>
																</g>
															</g>
														</g>
													</g>
												</g>
											</g>
										</g>
									</g>
								</g>
								<g>
									<g>
										<g>
											<g>
												<g>
													<g>
														<g>
															<g>
																<g>
																	<path class="st3" d="M263.2,170.2c-0.2,0.4-1.7,0-3.6,0.1c-1.9,0-3.4,0.4-3.6,0c-0.1-0.2,0.2-0.6,0.9-0.9
																		c0.6-0.3,1.6-0.6,2.7-0.6c1.1,0,2.1,0.3,2.7,0.6C263,169.6,263.3,170,263.2,170.2z"/>
																</g>
															</g>
														</g>
													</g>
												</g>
											</g>
										</g>
									</g>
								</g>
								<g>
									<g>
										<g>
											<g>
												<g>
													<g>
														<g>
															<g>
																<g>
																	<path class="st3" d="M277.5,173c-0.3,0.3-1.4-0.2-2.6-0.3c-1.3-0.2-2.4,0-2.6-0.4c-0.1-0.2,0.1-0.5,0.6-0.8
																		c0.5-0.3,1.3-0.5,2.2-0.4c0.9,0.1,1.6,0.5,2,0.9C277.5,172.5,277.6,172.8,277.5,173z"/>
																</g>
															</g>
														</g>
													</g>
												</g>
											</g>
										</g>
									</g>
								</g>
							</g>
						</g>
					</g>
				</g>
			</g>
			<g>
				<g>
					<g>
						<g>
							<g>
								<g>
									<g>
										<g>
											<g>
												<g>
													<path class="st6" d="M245,179.8c-0.2-0.1-6.8-2.8-7.3,4.2c-0.5,7,6.6,6.1,6.6,5.9C244.4,189.7,245,179.8,245,179.8z"/>
												</g>
											</g>
										</g>
									</g>
								</g>
							</g>
						</g>
					</g>
				</g>
				<g>
					<g>
						<g>
							<g>
								<g>
									<g>
										<g>
											<g>
												<g>
													<g>
														<path class="st9" d="M242.4,187.1c0,0-0.1,0.1-0.3,0.2c-0.2,0.1-0.6,0.1-0.9,0c-0.7-0.3-1.3-1.5-1.2-2.8
															c0-0.6,0.2-1.2,0.5-1.7c0.3-0.5,0.6-0.8,1-0.9c0.4-0.1,0.6,0.2,0.7,0.4c0.1,0.2,0,0.3,0.1,0.4c0,0,0.2-0.1,0.1-0.4
															c0-0.1-0.1-0.3-0.2-0.5c-0.2-0.1-0.4-0.2-0.7-0.2c-0.5,0-1.1,0.5-1.4,1c-0.3,0.5-0.5,1.2-0.6,1.9
															c-0.1,1.4,0.6,2.8,1.5,3.1c0.5,0.2,0.9,0,1.1-0.1C242.4,187.2,242.5,187.1,242.4,187.1z"/>
													</g>
												</g>
											</g>
										</g>
									</g>
								</g>
							</g>
						</g>
					</g>
				</g>
			</g>
			<g>
				<g>
					<path class="st3" d="M282.7,171c-4.6,0.7-9.5-1-12.7-4.3c-2.3-2.4-3.8-5.6-6.8-6.9c-2-0.9-4.4-0.7-6.4,0.2
						c-2,0.9-3.7,2.3-5.3,3.9c1.4,5.4-0.5,11-2.4,16.2c-0.2,0.6-0.5,1.2-1,1.5c-0.9,0.5-2.1-0.1-2.7-0.9c-1-1.3-1.3-3.1-1.4-4.7
						c-0.3-3.8,0-7.7,1.3-11.3c1.2-3.6,3.4-6.9,6.4-9.3c3.8-2.9,8.7-4.1,13.5-3.5c4.7,0.6,9.2,2.8,12.6,6.1c1.6,1.5,3.1,3.3,3.7,5.4
						"/>
				</g>
			</g>
		</g>
	</g>
</g>
<g id="Background_Complete">
	<g>
		<g>
			<g>
				<g>
					<rect x="97.5" y="124.3" class="st1" width="125.2" height="83.8"/>
				</g>
			</g>
			<g>
				<g>
					<g>
						<path class="st10" d="M222.8,208.2c0,0,0-0.5,0-1.5c0-1,0-2.5,0-4.4c0-3.9,0-9.6,0-16.9c0-14.6-0.1-35.5-0.1-61l0.2,0.2
							c-34.5,0-78,0-125.2,0h0l0.2-0.2c0,29.9,0,58.3,0,83.8l-0.2-0.2c36.9,0,68.1,0.1,90.2,0.1c11,0,19.8,0,25.8,0.1
							c3,0,5.3,0,6.9,0c0.8,0,1.4,0,1.8,0C222.5,208.2,222.8,208.2,222.8,208.2s-0.2,0-0.6,0c-0.4,0-1,0-1.7,0c-1.6,0-3.8,0-6.8,0
							c-6,0-14.7,0-25.7,0.1c-22.1,0-53.4,0.1-90.3,0.1l-0.2,0v-0.2c0-25.6,0-54,0-83.8l0-0.2h0.2h0c47.2,0,90.7,0,125.2,0l0.2,0
							l0,0.2c0,25.6-0.1,46.5-0.1,61.1c0,7.3,0,13,0,16.8c0,1.9,0,3.4,0,4.4C222.8,207.7,222.8,208.2,222.8,208.2z"/>
					</g>
				</g>
			</g>
		</g>
		<g>
			<g>
				<g>
					<path class="st10" d="M97.5,131.8c0-0.1,28-0.2,62.6-0.2c34.6,0,62.6,0.1,62.6,0.2c0,0.1-28,0.2-62.6,0.2
						C125.6,132,97.5,131.9,97.5,131.8z"/>
				</g>
			</g>
		</g>
		<g>
			<g class="st8">
				<g>
					<circle class="st10" cx="101.5" cy="128" r="1"/>
				</g>
			</g>
			<g class="st8">
				<g>
					<circle class="st10" cx="104.9" cy="128" r="1"/>
				</g>
			</g>
			<g class="st8">
				<g>
					<circle class="st10" cx="108.3" cy="128" r="1"/>
				</g>
			</g>
		</g>
		<g>
			<g>
				<rect x="108.3" y="140.6" class="st10" width="33.4" height="33.4"/>
			</g>
		</g>
		<g>
			<g>
				<g>
					<ellipse class="st10" cx="176.5" cy="150" rx="29.1" ry="0.2"/>
				</g>
			</g>
		</g>
		<g>
			<g>
				<g>
					<ellipse class="st10" cx="176.5" cy="156.2" rx="29.1" ry="0.2"/>
				</g>
			</g>
		</g>
		<g>
			<g>
				<g>
					<ellipse class="st10" cx="176.5" cy="162.4" rx="29.1" ry="0.2"/>
				</g>
			</g>
		</g>
		<g>
			<g>
				<g>
					<path class="st10" d="M181.8,168.6c0,0-0.5,0.1-1.4,0.1c-1,0-2.2,0-3.7,0.1c-3.1,0-7.4,0.1-12.2,0.1c-4.7,0-9,0-12.2-0.1
						c-1.5,0-2.7-0.1-3.7-0.1c-0.9,0-1.4-0.1-1.4-0.1c0,0,0.5-0.1,1.4-0.1c1,0,2.2,0,3.7-0.1c3.1,0,7.4-0.1,12.2-0.1
						c4.7,0,9,0,12.2,0.1c1.5,0,2.7,0.1,3.7,0.1C181.3,168.6,181.8,168.6,181.8,168.6z"/>
				</g>
			</g>
		</g>
		<g>
			<g>
				<rect x="110.4" y="185.2" class="st10" width="15.7" height="15.7"/>
			</g>
		</g>
		<g>
			<g>
				<rect x="138.9" y="185.2" class="st10" width="15.7" height="15.7"/>
			</g>
		</g>
		<g>
			<g>
				<rect x="167.3" y="185.2" class="st10" width="15.7" height="15.7"/>
			</g>
		</g>
		<g>
			<g>
				<rect x="195.8" y="185.2" class="st10" width="15.7" height="15.7"/>
			</g>
		</g>
	</g>
	<g>
		<g>
			<g>
				<g>
					<g>
						<g>
							<g>
								<path d="M480.9,128.6c-0.8,1.1-1.7,2-2.7,2.8l0.7,3.5l-5.4,2.4l-2.1-2.9c-1.3,0.2-2.6,0.2-3.9,0.1l-2,3l-5.5-2.1l0.5-3.5
									c-1.1-0.8-2-1.7-2.8-2.7l-3.5,0.7l-2.4-5.4l2.9-2.1c-0.2-1.3-0.2-2.6-0.1-3.9l-3-2l2.1-5.5l3.5,0.5c0.8-1.1,1.7-2,2.7-2.8
									l-0.7-3.5l5.4-2.4l2.1,2.9c1.3-0.2,2.6-0.2,3.9-0.1l2-3l5.5,2.1l-0.5,3.5c1.1,0.8,2,1.7,2.8,2.7l3.5-0.7l2.4,5.4l-2.9,2.1
									c0.2,1.3,0.2,2.6,0.1,3.9l3,2l-2.1,5.5L480.9,128.6L480.9,128.6z M474.9,122.5c1.3-3.3-0.4-6.9-3.6-8.2
									c-3.3-1.3-6.9,0.4-8.2,3.6c-1.3,3.3,0.4,6.9,3.6,8.2C470,127.4,473.7,125.8,474.9,122.5z"/>
							</g>
						</g>
					</g>
				</g>
			</g>
			<g>
				<g>
					<g>
						<g>
							<g>
								<g>
									<path d="M474.9,122.5c0,0-0.1,0.6-0.7,1.4c-0.6,0.8-1.7,2-3.4,2.5c-0.9,0.3-1.9,0.4-3,0.2c-1.1-0.2-2.2-0.7-3.1-1.5
										c-0.5-0.4-0.9-0.9-1.2-1.4c-0.4-0.5-0.6-1.1-0.8-1.8c-0.4-1.3-0.3-2.7,0.2-4.1c0.5-1.3,1.4-2.4,2.6-3.1
										c0.6-0.4,1.2-0.6,1.8-0.8c0.6-0.2,1.2-0.3,1.9-0.2c1.2,0,2.4,0.4,3.3,1c0.9,0.6,1.6,1.3,2.1,2.1c1,1.6,1,3.2,0.9,4.2
										C475.2,122,474.9,122.5,474.9,122.5c0,0,0.2-0.5,0.3-1.5c0.1-1,0-2.5-0.9-4c-0.5-0.7-1.1-1.5-2-2c-0.9-0.5-2-0.9-3.1-0.9
										c-0.6,0-1.2,0.1-1.8,0.2c-0.6,0.2-1.2,0.4-1.7,0.8c-1.1,0.7-1.9,1.7-2.4,3c-0.5,1.3-0.5,2.6-0.2,3.8
										c0.2,0.6,0.4,1.2,0.7,1.7c0.3,0.5,0.7,1,1.2,1.3c0.9,0.8,1.9,1.2,2.9,1.4c1,0.2,2,0.1,2.9-0.1c1.7-0.5,2.8-1.6,3.4-2.3
										C474.7,123.1,474.9,122.5,474.9,122.5z"/>
								</g>
							</g>
						</g>
					</g>
				</g>
			</g>
			<g>
				<g>
					<g>
						<g>
							<g>
								<g>
									<path d="M480.9,128.6c0,0,0.1,0,0.2,0c0.2,0,0.4,0,0.7,0.1c0.6,0.1,1.5,0.2,2.7,0.4l-0.1,0c0.5-1.4,1.2-3.3,2.1-5.5l0,0.1
										c-0.9-0.6-1.9-1.3-3-2l-0.1,0l0-0.1c0.1-1.2,0.1-2.5-0.1-3.8l0-0.1l0.1,0c0.9-0.7,1.9-1.4,2.9-2.1l0,0.2
										c-0.8-1.7-1.6-3.5-2.4-5.4l0.2,0.1c-1.1,0.2-2.3,0.5-3.5,0.7l-0.1,0l-0.1-0.1c-0.7-0.9-1.7-1.8-2.8-2.6l-0.1-0.1l0-0.1
										c0.2-1.1,0.3-2.3,0.5-3.5l0.1,0.2c-1.7-0.7-3.6-1.4-5.5-2.1l0.2-0.1c-0.6,0.9-1.3,1.9-2,3l-0.1,0.1l-0.1,0
										c-1.2-0.1-2.5-0.1-3.8,0.1l-0.1,0l-0.1-0.1c-0.7-0.9-1.4-1.9-2.1-2.9l0.2,0.1c-1.7,0.8-3.5,1.6-5.4,2.4l0.1-0.2
										c0.2,1.1,0.5,2.3,0.7,3.5l0,0.1l-0.1,0.1c-0.9,0.8-1.9,1.7-2.6,2.8l0,0l0,0c-0.1,0,0.2-0.1-0.2,0.1l0,0l0,0l0,0l0,0l-0.1,0
										l-0.1,0l-0.2,0l-0.4-0.1l-0.9-0.1c-0.6-0.1-1.2-0.2-1.8-0.3l0.2-0.1c-0.7,1.9-1.4,3.7-2.1,5.5l-0.1-0.2c1,0.7,2,1.3,3,2
										l0.1,0.1l0,0.1c-0.1,1.3-0.1,2.6,0.1,3.8l0,0.1l-0.1,0.1c-1,0.7-1.9,1.4-2.9,2.1l0.1-0.2c0.8,1.8,1.6,3.7,2.4,5.4l-0.2-0.1
										c1.2-0.2,2.4-0.5,3.5-0.7l0.1,0l0.1,0.1c0.8,1,1.7,1.9,2.8,2.6l0.1,0.1l0,0.1c-0.2,1.2-0.4,2.4-0.5,3.5l-0.1-0.2
										c1.9,0.8,3.8,1.5,5.5,2.1l-0.2,0.1c0.7-1,1.4-2,2-3l0-0.1l0.1,0c1.4,0.2,2.6,0.1,3.8-0.1l0.1,0l0,0.1c0.8,1,1.5,2,2.1,2.9
										l-0.1,0c2.1-0.9,3.9-1.7,5.4-2.4l0,0.1c-0.3-1.4-0.5-2.6-0.7-3.5l0,0l0,0c1-0.8,1.7-1.5,2.1-2c0.2-0.2,0.3-0.4,0.5-0.6
										C480.8,128.6,480.9,128.6,480.9,128.6c0,0,0,0.1-0.1,0.2c-0.1,0.1-0.2,0.3-0.4,0.6c-0.4,0.5-1,1.2-2.1,2.1l0-0.1
										c0.2,1,0.4,2.1,0.7,3.5l0,0.1l-0.1,0c-1.5,0.7-3.3,1.5-5.4,2.4l-0.1,0l-0.1-0.1c-0.7-0.9-1.4-1.8-2.1-2.9l0.1,0
										c-1.2,0.2-2.5,0.3-3.9,0.1l0.1-0.1c-0.6,0.9-1.3,1.9-2,3l-0.1,0.1l-0.1,0c-1.7-0.7-3.6-1.4-5.5-2.1l-0.1,0l0-0.1
										c0.2-1.1,0.3-2.3,0.5-3.5l0.1,0.2c-1-0.7-2-1.6-2.8-2.7l0.2,0.1c-1.1,0.2-2.3,0.5-3.5,0.7l-0.1,0l-0.1-0.1
										c-0.8-1.8-1.6-3.6-2.4-5.4l-0.1-0.1l0.1-0.1c0.9-0.7,1.9-1.4,2.9-2.1l-0.1,0.2c-0.2-1.3-0.2-2.6-0.1-3.9l0.1,0.2
										c-1-0.7-2-1.3-3-2l-0.1-0.1l0.1-0.1c0.7-1.8,1.4-3.7,2.1-5.5l0.1-0.1l0.1,0c0.6,0.1,1.2,0.2,1.8,0.3l0.9,0.1l0.4,0.1l0.2,0
										l0.1,0l0.1,0l0,0l0,0l0,0l0,0c-0.3,0.1-0.1,0-0.2,0.1l0,0l0,0c0.8-1.1,1.7-2.1,2.7-2.8l-0.1,0.2c-0.2-1.2-0.5-2.4-0.7-3.5
										l0-0.1l0.1-0.1c1.9-0.8,3.7-1.6,5.4-2.4l0.1-0.1l0.1,0.1c0.7,1,1.5,2,2.1,2.9l-0.2-0.1c1.3-0.2,2.7-0.2,3.9-0.1l-0.2,0.1
										c0.7-1,1.4-2,2-3l0.1-0.1l0.1,0c1.9,0.7,3.8,1.5,5.5,2.1l0.1,0l0,0.1c-0.2,1.2-0.4,2.4-0.5,3.5l-0.1-0.1
										c1.1,0.8,2.1,1.7,2.8,2.7l-0.1-0.1c1.2-0.2,2.4-0.5,3.5-0.7l0.1,0l0,0.1c0.8,1.9,1.6,3.7,2.4,5.4l0,0.1l-0.1,0.1
										c-1,0.7-2,1.5-2.9,2.1l0-0.1c0.2,1.4,0.2,2.7,0.1,3.9l0-0.1c1.1,0.7,2.1,1.4,3,2l0.1,0l0,0.1c-0.9,2.2-1.6,4.1-2.2,5.5l0,0
										l0,0c-1.1-0.2-2-0.3-2.6-0.4c-0.3,0-0.5-0.1-0.7-0.1C481,128.6,480.9,128.6,480.9,128.6z"/>
								</g>
							</g>
						</g>
					</g>
				</g>
			</g>
		</g>
		<g>
			<g>
				<g>
					<g>
						<g>
							<path class="st11" d="M512.4,111.7c-0.6,0.9-1.4,1.7-2.2,2.3l0.6,2.9l-4.5,2l-1.8-2.4c-1,0.2-2.1,0.2-3.2,0.1l-1.7,2.5
								l-4.6-1.8l0.4-2.9c-0.9-0.6-1.7-1.4-2.3-2.2l-2.9,0.6l-2-4.5l2.4-1.8c-0.2-1-0.2-2.1-0.1-3.2l-2.5-1.7l1.8-4.6l2.9,0.4
								c0.6-0.9,1.4-1.7,2.2-2.3l-0.6-2.9l4.5-2l1.8,2.4c1-0.2,2.1-0.2,3.2-0.1l1.7-2.5l4.6,1.8l-0.4,2.9c0.9,0.6,1.7,1.4,2.3,2.2
								l2.9-0.6l2,4.5l-2.4,1.8c0.2,1,0.2,2.1,0.1,3.2l2.5,1.7l-1.8,4.6L512.4,111.7L512.4,111.7z M507.4,106.7c1-2.7-0.3-5.8-3-6.8
								c-2.7-1-5.8,0.3-6.8,3c-1,2.7,0.3,5.8,3,6.8C503.3,110.8,506.4,109.5,507.4,106.7z"/>
						</g>
					</g>
				</g>
			</g>
		</g>
		<g>
			<g>
				<g>
					<g>
						<g>
							<path class="st11" d="M493,84.4c-1,1.4-2.2,2.6-3.5,3.6l0.9,4.6l-7,3.1l-2.8-3.7c-1.6,0.3-3.3,0.3-5,0.1L473,96l-7.2-2.8
								l0.7-4.6c-1.4-1-2.6-2.2-3.6-3.5l-4.6,0.9l-3.1-7l3.7-2.8c-0.3-1.6-0.3-3.3-0.1-5l-3.9-2.6l2.8-7.2l4.6,0.7
								c1-1.4,2.2-2.6,3.5-3.6l-0.9-4.6l7-3.1l2.8,3.7c1.6-0.3,3.3-0.3,5-0.1l2.6-3.9l7.2,2.8l-0.7,4.6c1.4,1,2.6,2.2,3.6,3.5
								l4.6-0.9l3.1,7l-3.7,2.8c0.3,1.6,0.3,3.3,0.1,5l3.9,2.6l-2.8,7.2L493,84.4L493,84.4z M485.3,76.5c1.6-4.3-0.5-9-4.7-10.7
								c-4.3-1.6-9,0.5-10.7,4.7c-1.6,4.3,0.5,9,4.7,10.7C478.8,82.9,483.6,80.8,485.3,76.5z"/>
						</g>
					</g>
				</g>
			</g>
		</g>
	</g>
	<g>
		<g>
			<g>
				<g>
					<path d="M398.4,69.3c0,0,0.2-0.2,0.5-0.6c0.4-0.4,0.9-0.9,1.5-1.5c1.3-1.3,3.1-3,5.1-4.9l0,0l0,0.3c-2-1.9-3.8-3.6-5.1-4.8
						c-0.6-0.6-1.1-1.1-1.5-1.5c-0.4-0.4-0.5-0.6-0.5-0.6c0,0,0.2,0.2,0.6,0.5c0.4,0.4,1,0.9,1.6,1.4c1.3,1.2,3.2,2.9,5.2,4.8
						l0.1,0.1l-0.1,0.1l0,0c-2,1.9-3.8,3.6-5.2,4.9c-0.6,0.6-1.2,1.1-1.6,1.4C398.7,69.1,398.4,69.3,398.4,69.3z"/>
				</g>
			</g>
		</g>
		<g>
			<g>
				<g>
					<path d="M382.8,55.5c0,0-0.2,0.2-0.5,0.6c-0.4,0.4-0.9,0.9-1.5,1.5c-1.3,1.3-3.1,3-5.1,4.9l0,0l0-0.3c2,1.9,3.8,3.6,5.1,4.8
						c0.6,0.6,1.1,1.1,1.5,1.5c0.4,0.4,0.5,0.6,0.5,0.6c0,0-0.2-0.2-0.6-0.5c-0.4-0.4-1-0.9-1.6-1.4c-1.3-1.2-3.2-2.9-5.2-4.8
						l-0.1-0.1l0.1-0.1l0,0c2-1.9,3.8-3.6,5.2-4.9c0.6-0.6,1.2-1.1,1.6-1.4C382.6,55.7,382.8,55.5,382.8,55.5z"/>
				</g>
			</g>
		</g>
		<g>
			<g>
				<g>
					<ellipse transform="matrix(0.3503 -0.9366 0.9366 0.3503 195.443 406.364)" cx="390.7" cy="62.3" rx="10.9" ry="0.2"/>
				</g>
			</g>
		</g>
		<g>
			<g>
				<g>
					<path d="M416.2,82.4c0,0,0-0.3,0-0.8c0-0.5,0-1.3,0-2.2c0-1.9,0-4.8,0-8.4c0-7.2,0-17.5-0.1-30l0.1,0.1c-14.5,0-32,0-50.8,0h0
						l0.2-0.2c0,15,0,29.1,0,41.4l-0.2-0.2c15.1,0,27.7,0.1,36.7,0.1c4.5,0,8,0,10.4,0c1.2,0,2.1,0,2.8,0c0.3,0,0.5,0,0.7,0
						C416.1,82.4,416.2,82.4,416.2,82.4s-0.1,0-0.2,0c-0.2,0-0.4,0-0.7,0c-0.6,0-1.5,0-2.7,0c-2.4,0-5.9,0-10.4,0
						c-8.9,0-21.6,0-36.8,0.1l-0.2,0l0-0.2c0-12.3,0-26.4,0-41.4v-0.2h0.2h0c18.8,0,36.2,0,50.8,0l0.1,0l0,0.1
						c0,12.5-0.1,22.8-0.1,30.1c0,3.6,0,6.4,0,8.4c0,1,0,1.7,0,2.2C416.2,82.1,416.2,82.4,416.2,82.4z"/>
				</g>
			</g>
		</g>
		<g>
			<g>
				<g>
					<ellipse cx="391" cy="47.1" rx="25.6" ry="0.2"/>
				</g>
			</g>
		</g>
		<g>
			<g>
				<g>
					<ellipse cx="368.9" cy="44.1" rx="0.7" ry="0.7"/>
				</g>
			</g>
			<g>
				<g>
					<ellipse cx="371.4" cy="44.1" rx="0.7" ry="0.7"/>
				</g>
			</g>
			<g>
				<g>
					<ellipse cx="373.8" cy="44.1" rx="0.7" ry="0.7"/>
				</g>
			</g>
		</g>
	</g>
	<g>
		<g>
			<g>
				<g>
					<rect x="200.6" y="61" class="st1" width="117.4" height="47.7"/>
				</g>
			</g>
			<g>
				<g>
					<g>
						<path d="M318,108.6c0,0,0-0.3,0-0.9c0-0.6,0-1.4,0-2.5c0-2.2,0-5.4,0-9.5c0-8.2,0-20.1-0.1-34.9l0.1,0.1
							c-29.9,0-71.4,0-117.4,0.1h0l0.2-0.2c0,16.7,0,32.8,0,47.7l-0.2-0.2c34,0,63.3,0.1,84.2,0.1c10.4,0,18.7,0,24.4,0
							c2.8,0,5,0,6.5,0c0.7,0,1.3,0,1.7,0C317.8,108.6,318,108.6,318,108.6s-0.2,0-0.6,0c-0.4,0-0.9,0-1.7,0c-1.5,0-3.7,0-6.5,0
							c-5.7,0-14,0-24.4,0c-20.9,0-50.2,0.1-84.3,0.1l-0.2,0v-0.2c0-14.9,0-31,0-47.7v-0.2h0.2h0c45.9,0,87.5,0,117.4,0.1l0.1,0
							l0,0.1c0,14.8-0.1,26.7-0.1,34.9c0,4.1,0,7.3,0,9.5c0,1.1,0,1.9,0,2.5C318,108.4,318,108.6,318,108.6z"/>
					</g>
				</g>
			</g>
		</g>
		<g>
			<g>
				<g>
					<path class="st10" d="M200.8,67.4c0-0.1,26.2-0.2,58.6-0.2c32.4,0,58.6,0.1,58.6,0.2c0,0.1-26.2,0.2-58.6,0.2
						C227,67.6,200.8,67.5,200.8,67.4z"/>
				</g>
			</g>
		</g>
		<g>
			<g class="st8">
				<g>
					<circle class="st12" cx="204.8" cy="64.5" r="0.9"/>
				</g>
			</g>
			<g class="st8">
				<g>
					<circle class="st12" cx="207.7" cy="64.5" r="0.9"/>
				</g>
			</g>
			<g class="st8">
				<g>
					<circle class="st12" cx="210.6" cy="64.5" r="0.9"/>
				</g>
			</g>
		</g>
		<g>
			<g>
				<rect x="210.6" y="75.1" class="st13" width="28.4" height="28.4"/>
			</g>
		</g>
		<g>
			<g>
				<g>
					<g>
						<ellipse cx="277.3" cy="82.7" rx="32.6" ry="0.2"/>
					</g>
				</g>
			</g>
			<g>
				<g>
					<g>
						<ellipse cx="277.3" cy="88.5" rx="32.6" ry="0.2"/>
					</g>
				</g>
			</g>
			<g>
				<g>
					<g>
						<path d="M286.7,94.3c0,0-0.1,0-0.4,0c-0.3,0-0.7,0-1.2,0c-1.1,0-2.6,0-4.5,0.1c-3.8,0-9.1,0-14.8,0.1c-5.8,0-11,0-14.8-0.1
							c-1.9,0-3.4,0-4.5-0.1c-0.5,0-0.9,0-1.2,0c-0.3,0-0.4,0-0.4,0c0,0,0.1,0,0.4,0c0.3,0,0.7,0,1.2,0c1.1,0,2.6,0,4.5-0.1
							c3.8,0,9.1,0,14.8-0.1c5.8,0,11,0,14.8,0.1c1.9,0,3.4,0,4.5,0.1c0.5,0,0.9,0,1.2,0C286.5,94.3,286.7,94.3,286.7,94.3z"/>
					</g>
				</g>
			</g>
		</g>
	</g>
</g>
<g id="Background_Simple" class="st14">
	<path class="st15" d="M472.7,105.4l-2.5-4.1c-20.1-32.6-56.2-52.4-94.4-50.4c-5.4,0.3-10.7,1-16,2.1c-35.2,7.4-65.8,33.7-78.5,67.3
		c-7.5,19.8-9.5,42.6-23.7,58.3c-18.4,20.4-49.7,21.1-77.2,20.2c-27.5-0.8-58.8-0.1-77.2,20.4C91.8,232,88.1,250.3,89,267.5
		c2.5,45.6,34.6,86.3,75.5,106.6c40.9,20.3,89,22.1,133.8,13.2c62.7-12.5,122.3-46.8,158.2-99.7
		C492.3,234.6,501.4,162.5,472.7,105.4z"/>
	<path class="st15" d="M218.9,116.6c-9.9-9.9-27.3-16.8-39.1-9.3l1.7-0.9c-12.5,6.2-20.6,20.4-19.3,34.3c1.3,13.9,12,26.5,25.6,29.8
		c13.6,3.3,29-3.2,36-15.2C230.8,143.2,228.8,126.5,218.9,116.6z"/>
</g>
<g id="Floor">
	<g>
		<g>
			<path class="st3" d="M501.7,453c0,0.1-99.8,0.3-222.9,0.3c-123.1,0-222.9-0.1-222.9-0.3s99.8-0.3,222.9-0.3
				C401.9,452.7,501.7,452.9,501.7,453z"/>
		</g>
	</g>
</g>
<g id="Screens">
	<g>
		<g>
			<rect x="335.8" y="122.3" class="st10" width="140.1" height="114.2"/>
		</g>
		<g>
			<rect x="325.9" y="129.6" class="st12" width="140.1" height="114.2"/>
		</g>
		<g>
			<g>
				<rect x="312.1" y="137.5" class="st1" width="143.9" height="117.2"/>
			</g>
			<g>
				<g>
					<path class="st3" d="M456,254.7c0,0,0-0.7,0-2.2c0-1.4,0-3.5,0-6.3c0-5.5,0-13.5-0.1-23.7c0-20.5-0.1-49.7-0.1-85l0.2,0.2
						c-41.2,0-90.6,0-143.9,0h0l0.3-0.3c0,42.4,0,82.4,0,117.2l-0.2-0.2c42.8,0,78.7,0.1,104,0.1c12.6,0,22.6,0,29.4,0.1
						c3.4,0,6,0,7.8,0c0.9,0,1.5,0,2,0C455.8,254.7,456,254.7,456,254.7s-0.2,0-0.7,0c-0.5,0-1.1,0-2,0c-1.8,0-4.4,0-7.7,0
						c-6.8,0-16.7,0-29.4,0.1c-25.3,0-61.3,0.1-104.1,0.1l-0.2,0l0-0.2c0-34.8,0-74.8,0-117.2v-0.3h0.3h0c53.2,0,102.7,0,143.9,0
						l0.2,0l0,0.2c0,35.4-0.1,64.7-0.1,85.2c0,10.2,0,18.2-0.1,23.7c0,2.7,0,4.8,0,6.2C456,254,456,254.7,456,254.7z"/>
				</g>
			</g>
		</g>
		<g>
			<path class="st4" d="M329.7,154.5l-1.5,0.6l1.5,0.6v0.6l-2.2-0.8v-0.6l2.2-0.8V154.5z"/>
			<path class="st4" d="M333.3,153.4v3.2h-0.8v-1.3h-1.5v1.3h-0.8v-3.2h0.8v1.3h1.5v-1.3H333.3z"/>
			<path class="st4" d="M334.8,154h-1v-0.6h2.8v0.6h-1v2.6h-0.8V154z"/>
			<path class="st4" d="M339.9,156.7l0-1.9l-1,1.6h-0.3l-1-1.6v1.9H337v-3.2h0.6l1.2,2l1.2-2h0.6l0,3.2H339.9z"/>
			<path class="st4" d="M341.4,153.4h0.8v2.6h1.6v0.6h-2.4V153.4z"/>
			<path class="st4" d="M346.3,154.7v0.6l-2.2,0.8v-0.6l1.5-0.6l-1.5-0.6v-0.6L346.3,154.7z"/>
		</g>
		<g>
			<path class="st4" d="M328.4,243.3l-1.5,0.6l1.5,0.6v0.6l-2.2-0.8v-0.6l2.2-0.8V243.3z"/>
			<path class="st4" d="M330,241.6h0.6l-1.5,4.4h-0.6L330,241.6z"/>
			<path class="st4" d="M333.8,242.3v3.2h-0.8v-1.3h-1.5v1.3h-0.8v-3.2h0.8v1.3h1.5v-1.3H333.8z"/>
			<path class="st4" d="M335.3,242.9h-1v-0.6h2.8v0.6h-1v2.6h-0.8V242.9z"/>
			<path class="st4" d="M340.4,245.5l0-1.9l-1,1.6h-0.3l-1-1.6v1.9h-0.7v-3.2h0.6l1.2,2l1.2-2h0.6l0,3.2H340.4z"/>
			<path class="st4" d="M341.9,242.3h0.8v2.6h1.6v0.6h-2.4V242.3z"/>
			<path class="st4" d="M346.8,243.6v0.6l-2.2,0.8v-0.6l1.5-0.6l-1.5-0.6v-0.6L346.8,243.6z"/>
		</g>
		<g>
			<path d="M339.9,163.3l-1.6,0.6l1.6,0.6v0.4l-2.1-0.8v-0.4l2.1-0.8V163.3z"/>
			<path d="M343.5,162.4v3.2H343v-1.4h-1.9v1.4h-0.5v-3.2h0.5v1.4h1.9v-1.4H343.5z"/>
			<path d="M346.8,165.2v0.4h-2.4v-3.2h2.3v0.4h-1.8v1h1.6v0.4h-1.6v1H346.8z"/>
			<path d="M349.6,164.8h-1.7l-0.4,0.8H347l1.5-3.2h0.5l1.5,3.2H350L349.6,164.8z M349.4,164.4l-0.7-1.6l-0.7,1.6H349.4z"/>
			<path d="M350.9,162.4h1.4c1,0,1.8,0.7,1.8,1.6c0,1-0.7,1.6-1.8,1.6h-1.4V162.4z M352.3,165.2c0.8,0,1.3-0.5,1.3-1.2
				c0-0.7-0.5-1.2-1.3-1.2h-0.9v2.4H352.3z"/>
			<path d="M356.7,163.8v0.4l-2.1,0.8v-0.4l1.7-0.6l-1.7-0.6V163L356.7,163.8z"/>
			<path d="M339.9,174.5l-1.6,0.6l1.6,0.6v0.4l-2.1-0.8v-0.4l2.1-0.8V174.5z"/>
			<path d="M341.3,173.9h-1.1v-0.4h2.7v0.4h-1.1v2.8h-0.5V173.9z"/>
			<path d="M343.4,173.5h0.5v3.2h-0.5V173.5z"/>
			<path d="M345.5,173.9h-1.1v-0.4h2.7v0.4h-1.1v2.8h-0.5V173.9z"/>
			<path d="M347.5,173.5h0.5v2.8h1.8v0.4h-2.2V173.5z"/>
			<path d="M352.7,176.3v0.4h-2.4v-3.2h2.3v0.4h-1.8v1h1.6v0.4h-1.6v1H352.7z"/>
			<path d="M355.3,174.9v0.4l-2.1,0.8v-0.4l1.7-0.6l-1.7-0.6v-0.4L355.3,174.9z"/>
			<path d="M357.3,173.5h0.5v2.8h1.8v0.4h-2.2V173.5z"/>
			<path d="M359.8,175.5c0-0.7,0.5-1.3,1.3-1.3c0.7,0,1.3,0.5,1.3,1.3c0,0.7-0.5,1.3-1.3,1.3C360.3,176.8,359.8,176.2,359.8,175.5z
				 M361.9,175.5c0-0.5-0.4-0.9-0.8-0.9c-0.5,0-0.8,0.3-0.8,0.9c0,0.5,0.4,0.9,0.8,0.9C361.5,176.4,361.9,176,361.9,175.5z"/>
			<path d="M364.3,174.2v0.4c0,0-0.1,0-0.1,0c-0.5,0-0.8,0.3-0.8,0.8v1.2h-0.4v-2.5h0.4v0.4C363.5,174.4,363.8,174.2,364.3,174.2z"
				/>
			<path d="M367,175.6h-2c0.1,0.4,0.4,0.7,0.9,0.7c0.3,0,0.5-0.1,0.7-0.3l0.2,0.3c-0.2,0.3-0.6,0.4-1,0.4c-0.8,0-1.3-0.5-1.3-1.3
				c0-0.7,0.5-1.3,1.2-1.3c0.7,0,1.2,0.5,1.2,1.3C367,175.6,367,175.6,367,175.6z M365,175.3h1.6c0-0.4-0.4-0.7-0.8-0.7
				C365.4,174.6,365.1,174.9,365,175.3z"/>
			<path d="M371.7,175.3v1.4h-0.4v-1.4c0-0.5-0.2-0.7-0.6-0.7c-0.4,0-0.7,0.3-0.7,0.8v1.3h-0.4v-1.4c0-0.5-0.2-0.7-0.6-0.7
				c-0.4,0-0.7,0.3-0.7,0.8v1.3h-0.4v-2.5h0.4v0.4c0.2-0.3,0.5-0.4,0.8-0.4c0.4,0,0.7,0.1,0.9,0.5c0.2-0.3,0.5-0.5,0.9-0.5
				C371.3,174.2,371.7,174.6,371.7,175.3z"/>
			<path d="M373.7,173.5c0-0.2,0.1-0.3,0.3-0.3c0.2,0,0.3,0.1,0.3,0.3c0,0.2-0.1,0.3-0.3,0.3C373.8,173.8,373.7,173.7,373.7,173.5z
				 M373.8,174.3h0.4v2.5h-0.4V174.3z"/>
			<path d="M377.6,175.5c0,0.8-0.5,1.3-1.2,1.3c-0.3,0-0.7-0.1-0.9-0.4v1.3h-0.4v-3.4h0.4v0.4c0.2-0.3,0.5-0.4,0.9-0.4
				C377.1,174.2,377.6,174.7,377.6,175.5z M377.2,175.5c0-0.5-0.4-0.9-0.8-0.9c-0.5,0-0.8,0.3-0.8,0.9c0,0.5,0.4,0.9,0.8,0.9
				C376.8,176.4,377.2,176,377.2,175.5z"/>
			<path d="M377.9,176.5l0.2-0.4c0.2,0.1,0.5,0.3,0.9,0.3c0.4,0,0.6-0.1,0.6-0.3c0-0.6-1.6-0.1-1.6-1.1c0-0.4,0.4-0.7,1-0.7
				c0.3,0,0.7,0.1,0.9,0.2l-0.2,0.4c-0.2-0.1-0.5-0.2-0.7-0.2c-0.4,0-0.6,0.1-0.6,0.3c0,0.6,1.6,0.1,1.6,1.1c0,0.4-0.4,0.7-1.1,0.7
				C378.5,176.8,378.1,176.6,377.9,176.5z"/>
			<path d="M382.8,174.3v2.5h-0.4v-0.4c-0.2,0.3-0.5,0.4-0.8,0.4c-0.6,0-1.1-0.3-1.1-1.1v-1.4h0.4v1.4c0,0.5,0.2,0.7,0.7,0.7
				c0.5,0,0.8-0.3,0.8-0.8v-1.3H382.8z"/>
			<path d="M387.8,175.3v1.4h-0.4v-1.4c0-0.5-0.2-0.7-0.6-0.7c-0.4,0-0.7,0.3-0.7,0.8v1.3h-0.4v-1.4c0-0.5-0.2-0.7-0.6-0.7
				c-0.4,0-0.7,0.3-0.7,0.8v1.3h-0.4v-2.5h0.4v0.4c0.2-0.3,0.5-0.4,0.8-0.4c0.4,0,0.7,0.1,0.9,0.5c0.2-0.3,0.5-0.5,0.9-0.5
				C387.4,174.2,387.8,174.6,387.8,175.3z"/>
			<path d="M391.8,174.5l-1.6,0.6l1.6,0.6v0.4l-2.1-0.8v-0.4l2.1-0.8V174.5z"/>
			<path d="M393.5,172.8h0.4l-1.5,4.4H392L393.5,172.8z"/>
			<path d="M395,173.9h-1.1v-0.4h2.7v0.4h-1.1v2.8H395V173.9z"/>
			<path d="M397.1,173.5h0.5v3.2h-0.5V173.5z"/>
			<path d="M399.2,173.9H398v-0.4h2.7v0.4h-1.1v2.8h-0.5V173.9z"/>
			<path d="M401.2,173.5h0.5v2.8h1.8v0.4h-2.2V173.5z"/>
			<path d="M406.3,176.3v0.4H404v-3.2h2.3v0.4h-1.8v1h1.6v0.4h-1.6v1H406.3z"/>
			<path d="M409,174.9v0.4l-2.1,0.8v-0.4l1.7-0.6l-1.7-0.6v-0.4L409,174.9z"/>
			<path d="M339.9,185.6l-1.6,0.6l1.6,0.6v0.4l-2.1-0.8V186l2.1-0.8V185.6z"/>
			<path d="M341.6,183.9h0.4l-1.5,4.4h-0.4L341.6,183.9z"/>
			<path d="M345.1,184.6v3.2h-0.5v-1.4h-1.9v1.4h-0.5v-3.2h0.5v1.4h1.9v-1.4H345.1z"/>
			<path d="M348.4,187.4v0.4h-2.4v-3.2h2.3v0.4h-1.8v1h1.6v0.4h-1.6v1H348.4z"/>
			<path d="M351.2,187h-1.7l-0.4,0.8h-0.5l1.5-3.2h0.5l1.5,3.2h-0.5L351.2,187z M351.1,186.7l-0.7-1.6l-0.7,1.6H351.1z"/>
			<path d="M352.6,184.6h1.4c1,0,1.8,0.7,1.8,1.6c0,1-0.7,1.6-1.8,1.6h-1.4V184.6z M353.9,187.4c0.8,0,1.3-0.5,1.3-1.2
				c0-0.7-0.5-1.2-1.3-1.2H353v2.4H353.9z"/>
			<path d="M358.3,186v0.4l-2.1,0.8v-0.4l1.7-0.6l-1.7-0.6v-0.4L358.3,186z"/>
		</g>
		<g>
			<path d="M331.3,195.2l-1.6,0.6l1.6,0.6v0.4l-2.1-0.8v-0.4l2.1-0.8V195.2z"/>
			<path d="M334.8,196.6c0,0.6-0.4,0.9-1.2,0.9h-1.5v-3.2h1.5c0.7,0,1.2,0.3,1.2,0.8c0,0.4-0.2,0.6-0.4,0.7
				C334.6,195.9,334.8,196.2,334.8,196.6z M332.5,194.6v1h1c0.5,0,0.7-0.2,0.7-0.5c0-0.3-0.3-0.5-0.7-0.5H332.5z M334.4,196.6
				c0-0.4-0.3-0.5-0.8-0.5h-1.1v1.1h1.1C334.1,197.1,334.4,197,334.4,196.6z"/>
			<path d="M335.3,195.9c0-1,0.7-1.7,1.7-1.7c1,0,1.7,0.7,1.7,1.7s-0.7,1.7-1.7,1.7C336,197.5,335.3,196.8,335.3,195.9z
				 M338.3,195.9c0-0.7-0.5-1.2-1.3-1.2c-0.7,0-1.3,0.5-1.3,1.2c0,0.7,0.5,1.2,1.3,1.2C337.7,197.1,338.3,196.6,338.3,195.9z"/>
			<path d="M339.5,194.3h1.4c1,0,1.8,0.7,1.8,1.6c0,1-0.7,1.6-1.8,1.6h-1.4V194.3z M340.8,197.1c0.8,0,1.3-0.5,1.3-1.2
				s-0.5-1.2-1.3-1.2h-0.9v2.4H340.8z"/>
			<path d="M344.4,196.4v1.1h-0.5v-1.1l-1.3-2.1h0.5l1,1.7l1-1.7h0.5L344.4,196.4z"/>
			<path d="M348,195.7v0.4l-2.1,0.8v-0.4l1.7-0.6l-1.7-0.6v-0.4L348,195.7z"/>
			<path d="M331.3,206.4l-1.6,0.6l1.6,0.6v0.4l-2.1-0.8v-0.4l2.1-0.8V206.4z"/>
			<path d="M334.8,205.4v3.2h-0.5v-1.4h-1.9v1.4h-0.5v-3.2h0.5v1.4h1.9v-1.4H334.8z"/>
			<path d="M336.6,205.4v3.2h-0.5v-2.8h-0.7v-0.4H336.6z"/>
			<path d="M339.4,206.8v0.4l-2.1,0.8v-0.4l1.7-0.6l-1.7-0.6V206L339.4,206.8z"/>
			<path d="M341.5,205.4h0.3v3h1.8v0.3h-2.2V205.4z"/>
			<path d="M343.9,207.4c0-0.7,0.5-1.2,1.2-1.2c0.7,0,1.2,0.5,1.2,1.2s-0.5,1.2-1.2,1.2C344.4,208.6,343.9,208.1,343.9,207.4z
				 M346,207.4c0-0.6-0.4-1-0.9-1c-0.5,0-0.9,0.4-0.9,1c0,0.6,0.4,1,0.9,1C345.7,208.4,346,208,346,207.4z"/>
			<path d="M348.3,206.2v0.3c0,0-0.1,0-0.1,0c-0.5,0-0.8,0.3-0.8,0.9v1.2H347v-2.4h0.3v0.5C347.5,206.3,347.8,206.2,348.3,206.2z"/>
			<path d="M351,207.5h-2c0,0.5,0.4,0.8,1,0.8c0.3,0,0.6-0.1,0.7-0.3l0.2,0.2c-0.2,0.3-0.6,0.4-0.9,0.4c-0.8,0-1.3-0.5-1.3-1.2
				s0.5-1.2,1.2-1.2c0.7,0,1.2,0.5,1.2,1.2C351,207.4,351,207.5,351,207.5z M348.9,207.3h1.7c0-0.5-0.4-0.8-0.9-0.8
				C349.3,206.4,349,206.8,348.9,207.3z"/>
			<path d="M355.7,207.2v1.4h-0.3v-1.4c0-0.5-0.3-0.8-0.7-0.8c-0.5,0-0.8,0.3-0.8,0.9v1.3h-0.3v-1.4c0-0.5-0.3-0.8-0.7-0.8
				c-0.5,0-0.8,0.3-0.8,0.9v1.3h-0.3v-2.4h0.3v0.4c0.2-0.3,0.5-0.5,0.9-0.5c0.4,0,0.7,0.2,0.9,0.5c0.2-0.3,0.5-0.5,1-0.5
				C355.3,206.2,355.7,206.5,355.7,207.2z"/>
			<path d="M357.7,205.4c0-0.1,0.1-0.2,0.2-0.2s0.2,0.1,0.2,0.2c0,0.1-0.1,0.2-0.2,0.2C357.8,205.7,357.7,205.5,357.7,205.4z
				 M357.8,206.2h0.3v2.4h-0.3V206.2z"/>
			<path d="M361.5,207.4c0,0.7-0.5,1.2-1.2,1.2c-0.4,0-0.7-0.2-0.9-0.5v1.4H359v-3.3h0.3v0.5c0.2-0.3,0.5-0.5,0.9-0.5
				C361,206.2,361.5,206.7,361.5,207.4z M361.2,207.4c0-0.6-0.4-1-0.9-1c-0.5,0-0.9,0.4-0.9,1c0,0.6,0.4,1,0.9,1
				C360.8,208.4,361.2,208,361.2,207.4z"/>
			<path d="M361.8,208.3l0.1-0.3c0.2,0.2,0.5,0.3,0.9,0.3c0.5,0,0.7-0.2,0.7-0.4c0-0.6-1.6-0.1-1.6-1.1c0-0.4,0.3-0.7,1-0.7
				c0.3,0,0.7,0.1,0.9,0.2l-0.1,0.3c-0.2-0.1-0.5-0.2-0.7-0.2c-0.4,0-0.6,0.2-0.6,0.4c0,0.7,1.6,0.2,1.6,1.1c0,0.4-0.4,0.7-1,0.7
				C362.4,208.6,362,208.5,361.8,208.3z"/>
			<path d="M366.6,206.2v2.4h-0.3v-0.4c-0.2,0.3-0.5,0.5-0.9,0.5c-0.6,0-1-0.3-1-1v-1.4h0.3v1.4c0,0.5,0.3,0.8,0.7,0.8
				c0.5,0,0.8-0.3,0.8-0.9v-1.3H366.6z"/>
			<path d="M371.6,207.2v1.4h-0.3v-1.4c0-0.5-0.3-0.8-0.7-0.8c-0.5,0-0.8,0.3-0.8,0.9v1.3h-0.3v-1.4c0-0.5-0.3-0.8-0.7-0.8
				c-0.5,0-0.8,0.3-0.8,0.9v1.3h-0.3v-2.4h0.3v0.4c0.2-0.3,0.5-0.5,0.9-0.5c0.4,0,0.7,0.2,0.9,0.5c0.2-0.3,0.5-0.5,1-0.5
				C371.2,206.2,371.6,206.5,371.6,207.2z"/>
			<path d="M375.9,205.2v3.4h-0.3v-0.5c-0.2,0.3-0.5,0.5-0.9,0.5c-0.7,0-1.2-0.5-1.2-1.2c0-0.7,0.5-1.2,1.2-1.2
				c0.4,0,0.7,0.2,0.9,0.5v-1.5H375.9z M375.6,207.4c0-0.6-0.4-1-0.9-1c-0.5,0-0.9,0.4-0.9,1c0,0.6,0.4,1,0.9,1
				C375.2,208.4,375.6,208,375.6,207.4z"/>
			<path d="M376.6,207.4c0-0.7,0.5-1.2,1.2-1.2c0.7,0,1.2,0.5,1.2,1.2s-0.5,1.2-1.2,1.2C377.1,208.6,376.6,208.1,376.6,207.4z
				 M378.7,207.4c0-0.6-0.4-1-0.9-1c-0.5,0-0.9,0.4-0.9,1c0,0.6,0.4,1,0.9,1C378.3,208.4,378.7,208,378.7,207.4z"/>
			<path d="M379.7,205.2h0.3v3.4h-0.3V205.2z"/>
			<path d="M380.7,207.4c0-0.7,0.5-1.2,1.2-1.2c0.7,0,1.2,0.5,1.2,1.2s-0.5,1.2-1.2,1.2C381.3,208.6,380.7,208.1,380.7,207.4z
				 M382.9,207.4c0-0.6-0.4-1-0.9-1c-0.5,0-0.9,0.4-0.9,1c0,0.6,0.4,1,0.9,1C382.5,208.4,382.9,208,382.9,207.4z"/>
			<path d="M385.1,206.2v0.3c0,0-0.1,0-0.1,0c-0.5,0-0.8,0.3-0.8,0.9v1.2h-0.3v-2.4h0.3v0.5C384.3,206.3,384.7,206.2,385.1,206.2z"
				/>
			<path d="M386.6,208.3l0.1-0.3c0.2,0.2,0.5,0.3,0.9,0.3c0.5,0,0.7-0.2,0.7-0.4c0-0.6-1.6-0.1-1.6-1.1c0-0.4,0.3-0.7,1-0.7
				c0.3,0,0.7,0.1,0.9,0.2l-0.1,0.3c-0.2-0.1-0.5-0.2-0.7-0.2c-0.4,0-0.6,0.2-0.6,0.4c0,0.7,1.6,0.2,1.6,1.1c0,0.4-0.4,0.7-1,0.7
				C387.2,208.6,386.8,208.5,386.6,208.3z"/>
			<path d="M389.1,205.4c0-0.1,0.1-0.2,0.2-0.2c0.1,0,0.2,0.1,0.2,0.2c0,0.1-0.1,0.2-0.2,0.2C389.2,205.7,389.1,205.5,389.1,205.4z
				 M389.2,206.2h0.3v2.4h-0.3V206.2z"/>
			<path d="M391.7,208.5c-0.1,0.1-0.3,0.2-0.5,0.2c-0.5,0-0.7-0.3-0.7-0.7v-1.5h-0.4v-0.3h0.4v-0.5h0.3v0.5h0.7v0.3h-0.7v1.5
				c0,0.3,0.1,0.4,0.4,0.4c0.1,0,0.3,0,0.4-0.1L391.7,208.5z"/>
			<path d="M395.4,207.1v1.5h-0.3v-0.4c-0.1,0.3-0.4,0.4-0.8,0.4c-0.6,0-0.9-0.3-0.9-0.7c0-0.4,0.2-0.7,0.9-0.7h0.8v-0.1
				c0-0.4-0.2-0.6-0.7-0.6c-0.3,0-0.6,0.1-0.8,0.3l-0.1-0.2c0.2-0.2,0.6-0.3,1-0.3C395,206.2,395.4,206.5,395.4,207.1z M395.1,207.9
				v-0.4h-0.8c-0.5,0-0.6,0.2-0.6,0.4c0,0.3,0.2,0.5,0.6,0.5C394.7,208.4,394.9,208.2,395.1,207.9z"/>
			<path d="M400.3,207.2v1.4H400v-1.4c0-0.5-0.3-0.8-0.7-0.8c-0.5,0-0.8,0.3-0.8,0.9v1.3h-0.3v-1.4c0-0.5-0.3-0.8-0.7-0.8
				c-0.5,0-0.8,0.3-0.8,0.9v1.3h-0.3v-2.4h0.3v0.4c0.2-0.3,0.5-0.5,0.9-0.5c0.4,0,0.7,0.2,0.9,0.5c0.2-0.3,0.5-0.5,1-0.5
				C399.9,206.2,400.3,206.5,400.3,207.2z"/>
			<path d="M403.3,207.5h-2c0,0.5,0.4,0.8,1,0.8c0.3,0,0.6-0.1,0.7-0.3l0.2,0.2c-0.2,0.3-0.6,0.4-0.9,0.4c-0.8,0-1.3-0.5-1.3-1.2
				s0.5-1.2,1.2-1.2c0.7,0,1.2,0.5,1.2,1.2C403.3,207.4,403.3,207.5,403.3,207.5z M401.3,207.3h1.7c0-0.5-0.4-0.8-0.9-0.8
				C401.7,206.4,401.3,206.8,401.3,207.3z"/>
			<path d="M405.3,208.5c-0.1,0.1-0.3,0.2-0.5,0.2c-0.5,0-0.7-0.3-0.7-0.7v-1.5h-0.4v-0.3h0.4v-0.5h0.3v0.5h0.7v0.3h-0.7v1.5
				c0,0.3,0.1,0.4,0.4,0.4c0.1,0,0.3,0,0.4-0.1L405.3,208.5z"/>
			<path d="M406.2,208.4c0,0.1,0,0.1-0.1,0.3l-0.2,0.6h-0.2l0.2-0.7c-0.1,0-0.2-0.1-0.2-0.2c0-0.1,0.1-0.3,0.2-0.3
				C406.1,208.1,406.2,208.3,406.2,208.4z"/>
			<path d="M407.9,207.4c0-0.7,0.5-1.2,1.3-1.2c0.4,0,0.8,0.2,1,0.5l-0.2,0.2c-0.2-0.2-0.4-0.4-0.7-0.4c-0.5,0-0.9,0.4-0.9,1
				c0,0.6,0.4,1,0.9,1c0.3,0,0.5-0.1,0.7-0.4l0.2,0.2c-0.2,0.3-0.5,0.5-1,0.5C408.4,208.6,407.9,208.1,407.9,207.4z"/>
			<path d="M410.5,207.4c0-0.7,0.5-1.2,1.2-1.2c0.7,0,1.2,0.5,1.2,1.2s-0.5,1.2-1.2,1.2C411,208.6,410.5,208.1,410.5,207.4z
				 M412.6,207.4c0-0.6-0.4-1-0.9-1c-0.5,0-0.9,0.4-0.9,1c0,0.6,0.4,1,0.9,1C412.2,208.4,412.6,208,412.6,207.4z"/>
			<path d="M415.9,207.2v1.4h-0.3v-1.4c0-0.5-0.3-0.8-0.7-0.8c-0.5,0-0.9,0.3-0.9,0.9v1.3h-0.3v-2.4h0.3v0.5
				c0.2-0.3,0.5-0.5,0.9-0.5C415.4,206.2,415.9,206.5,415.9,207.2z"/>
			<path d="M416.4,208.3l0.1-0.3c0.2,0.2,0.5,0.3,0.9,0.3c0.5,0,0.7-0.2,0.7-0.4c0-0.6-1.6-0.1-1.6-1.1c0-0.4,0.3-0.7,1-0.7
				c0.3,0,0.7,0.1,0.9,0.2l-0.1,0.3c-0.2-0.1-0.5-0.2-0.7-0.2c-0.4,0-0.6,0.2-0.6,0.4c0,0.7,1.6,0.2,1.6,1.1c0,0.4-0.4,0.7-1,0.7
				C417,208.6,416.6,208.5,416.4,208.3z"/>
			<path d="M421.1,207.5h-2c0,0.5,0.4,0.8,1,0.8c0.3,0,0.6-0.1,0.7-0.3l0.2,0.2c-0.2,0.3-0.6,0.4-0.9,0.4c-0.8,0-1.3-0.5-1.3-1.2
				s0.5-1.2,1.2-1.2c0.7,0,1.2,0.5,1.2,1.2C421.1,207.4,421.1,207.5,421.1,207.5z M419.1,207.3h1.7c0-0.5-0.4-0.8-0.9-0.8
				C419.5,206.4,419.1,206.8,419.1,207.3z"/>
			<path d="M421.6,207.4c0-0.7,0.5-1.2,1.3-1.2c0.4,0,0.8,0.2,1,0.5l-0.2,0.2c-0.2-0.2-0.4-0.4-0.7-0.4c-0.5,0-0.9,0.4-0.9,1
				c0,0.6,0.4,1,0.9,1c0.3,0,0.5-0.1,0.7-0.4l0.2,0.2c-0.2,0.3-0.5,0.5-1,0.5C422.1,208.6,421.6,208.1,421.6,207.4z"/>
			<path d="M425.7,208.5c-0.1,0.1-0.3,0.2-0.5,0.2c-0.5,0-0.7-0.3-0.7-0.7v-1.5h-0.4v-0.3h0.4v-0.5h0.3v0.5h0.7v0.3h-0.7v1.5
				c0,0.3,0.1,0.4,0.4,0.4c0.1,0,0.3,0,0.4-0.1L425.7,208.5z"/>
			<path d="M428.4,207.5h-2c0,0.5,0.4,0.8,1,0.8c0.3,0,0.6-0.1,0.7-0.3l0.2,0.2c-0.2,0.3-0.6,0.4-0.9,0.4c-0.8,0-1.3-0.5-1.3-1.2
				s0.5-1.2,1.2-1.2s1.2,0.5,1.2,1.2C428.4,207.4,428.4,207.5,428.4,207.5z M426.3,207.3h1.7c0-0.5-0.4-0.8-0.9-0.8
				C426.7,206.4,426.4,206.8,426.3,207.3z"/>
			<path d="M430.3,208.5c-0.1,0.1-0.3,0.2-0.5,0.2c-0.5,0-0.7-0.3-0.7-0.7v-1.5h-0.4v-0.3h0.4v-0.5h0.3v0.5h0.7v0.3h-0.7v1.5
				c0,0.3,0.1,0.4,0.4,0.4c0.1,0,0.3,0,0.4-0.1L430.3,208.5z"/>
			<path d="M433.1,206.2v2.4h-0.3v-0.4c-0.2,0.3-0.5,0.5-0.9,0.5c-0.6,0-1-0.3-1-1v-1.4h0.3v1.4c0,0.5,0.3,0.8,0.7,0.8
				c0.5,0,0.8-0.3,0.8-0.9v-1.3H433.1z"/>
			<path d="M436.2,207.5h-2c0,0.5,0.4,0.8,1,0.8c0.3,0,0.6-0.1,0.7-0.3l0.2,0.2c-0.2,0.3-0.6,0.4-0.9,0.4c-0.8,0-1.3-0.5-1.3-1.2
				s0.5-1.2,1.2-1.2c0.7,0,1.2,0.5,1.2,1.2C436.2,207.4,436.2,207.5,436.2,207.5z M434.1,207.3h1.7c0-0.5-0.4-0.8-0.9-0.8
				C434.5,206.4,434.2,206.8,434.1,207.3z"/>
			<path d="M438.1,206.2v0.3c0,0-0.1,0-0.1,0c-0.5,0-0.8,0.3-0.8,0.9v1.2h-0.3v-2.4h0.3v0.5C437.3,206.3,437.6,206.2,438.1,206.2z"
				/>
			<path d="M331.2,212.7v1.5h-0.3v-0.4c-0.1,0.3-0.4,0.4-0.8,0.4c-0.6,0-0.9-0.3-0.9-0.7c0-0.4,0.2-0.7,0.9-0.7h0.8v-0.1
				c0-0.4-0.2-0.6-0.7-0.6c-0.3,0-0.6,0.1-0.8,0.3l-0.1-0.2c0.2-0.2,0.6-0.3,1-0.3C330.8,211.7,331.2,212,331.2,212.7z M330.8,213.5
				v-0.4h-0.8c-0.5,0-0.6,0.2-0.6,0.4c0,0.3,0.2,0.5,0.6,0.5C330.4,213.9,330.7,213.8,330.8,213.5z"/>
			<path d="M334.3,210.7v3.4H334v-0.5c-0.2,0.3-0.5,0.5-0.9,0.5c-0.7,0-1.2-0.5-1.2-1.2c0-0.7,0.5-1.2,1.2-1.2
				c0.4,0,0.7,0.2,0.9,0.5v-1.5H334.3z M334,213c0-0.6-0.4-1-0.9-1c-0.5,0-0.9,0.4-0.9,1c0,0.6,0.4,1,0.9,1
				C333.6,213.9,334,213.5,334,213z"/>
			<path d="M335.1,211c0-0.1,0.1-0.2,0.2-0.2c0.1,0,0.2,0.1,0.2,0.2c0,0.1-0.1,0.2-0.2,0.2C335.2,211.2,335.1,211.1,335.1,211z
				 M335.2,211.7h0.3v2.4h-0.3V211.7z"/>
			<path d="M338.9,213c0,0.7-0.5,1.2-1.2,1.2c-0.4,0-0.7-0.2-0.9-0.5v1.4h-0.3v-3.3h0.3v0.5c0.2-0.3,0.5-0.5,0.9-0.5
				C338.4,211.7,338.9,212.2,338.9,213z M338.6,213c0-0.6-0.4-1-0.9-1c-0.5,0-0.9,0.4-0.9,1c0,0.6,0.4,1,0.9,1
				C338.2,213.9,338.6,213.5,338.6,213z"/>
			<path d="M339.5,211c0-0.1,0.1-0.2,0.2-0.2c0.1,0,0.2,0.1,0.2,0.2c0,0.1-0.1,0.2-0.2,0.2C339.6,211.2,339.5,211.1,339.5,211z
				 M339.6,211.7h0.3v2.4h-0.3V211.7z"/>
			<path d="M340.5,213.9l0.1-0.3c0.2,0.2,0.5,0.3,0.9,0.3c0.5,0,0.7-0.2,0.7-0.4c0-0.6-1.6-0.1-1.6-1.1c0-0.4,0.3-0.7,1-0.7
				c0.3,0,0.7,0.1,0.9,0.2l-0.1,0.3c-0.2-0.1-0.5-0.2-0.7-0.2c-0.4,0-0.6,0.2-0.6,0.4c0,0.7,1.6,0.2,1.6,1.1c0,0.4-0.4,0.7-1,0.7
				C341.1,214.2,340.7,214.1,340.5,213.9z"/>
			<path d="M342.9,213c0-0.7,0.5-1.2,1.3-1.2c0.4,0,0.8,0.2,1,0.5l-0.2,0.2c-0.2-0.2-0.4-0.4-0.7-0.4c-0.5,0-0.9,0.4-0.9,1
				c0,0.6,0.4,1,0.9,1c0.3,0,0.5-0.1,0.7-0.4l0.2,0.2c-0.2,0.3-0.5,0.5-1,0.5C343.4,214.2,342.9,213.7,342.9,213z"/>
			<path d="M345.6,211c0-0.1,0.1-0.2,0.2-0.2c0.1,0,0.2,0.1,0.2,0.2c0,0.1-0.1,0.2-0.2,0.2C345.8,211.2,345.6,211.1,345.6,211z
				 M345.7,211.7h0.3v2.4h-0.3V211.7z"/>
			<path d="M349.2,212.8v1.4h-0.3v-1.4c0-0.5-0.3-0.8-0.7-0.8c-0.5,0-0.9,0.3-0.9,0.9v1.3H347v-2.4h0.3v0.5c0.2-0.3,0.5-0.5,0.9-0.5
				C348.8,211.7,349.2,212.1,349.2,212.8z"/>
			<path d="M352.4,211.7v2.1c0,0.8-0.4,1.2-1.2,1.2c-0.4,0-0.9-0.1-1.1-0.4l0.2-0.3c0.2,0.2,0.6,0.3,1,0.3c0.6,0,0.9-0.3,0.9-0.9
				v-0.3c-0.2,0.3-0.6,0.5-1,0.5c-0.7,0-1.2-0.5-1.2-1.2s0.5-1.2,1.2-1.2c0.4,0,0.8,0.2,1,0.5v-0.5H352.4z M352.1,212.9
				c0-0.5-0.4-0.9-0.9-0.9c-0.5,0-0.9,0.4-0.9,0.9c0,0.5,0.4,0.9,0.9,0.9C351.7,213.8,352.1,213.4,352.1,212.9z"/>
			<path d="M356.6,213.1h-2c0,0.5,0.4,0.8,1,0.8c0.3,0,0.6-0.1,0.7-0.3l0.2,0.2c-0.2,0.3-0.6,0.4-0.9,0.4c-0.8,0-1.3-0.5-1.3-1.2
				c0-0.7,0.5-1.2,1.2-1.2c0.7,0,1.2,0.5,1.2,1.2C356.6,213,356.6,213,356.6,213.1z M354.6,212.8h1.7c0-0.5-0.4-0.8-0.9-0.8
				C355,212,354.6,212.3,354.6,212.8z"/>
			<path d="M357.3,210.7h0.3v3.4h-0.3V210.7z"/>
			<path d="M358.5,211c0-0.1,0.1-0.2,0.2-0.2s0.2,0.1,0.2,0.2c0,0.1-0.1,0.2-0.2,0.2C358.6,211.2,358.5,211.1,358.5,211z
				 M358.6,211.7h0.3v2.4h-0.3V211.7z"/>
			<path d="M361.1,214c-0.1,0.1-0.3,0.2-0.5,0.2c-0.5,0-0.7-0.3-0.7-0.7V212h-0.4v-0.3h0.4v-0.5h0.3v0.5h0.7v0.3h-0.7v1.5
				c0,0.3,0.1,0.4,0.4,0.4c0.1,0,0.3,0,0.4-0.1L361.1,214z"/>
			<path d="M362,214c0,0.1,0,0.1-0.1,0.3l-0.2,0.6h-0.2l0.2-0.7c-0.1,0-0.2-0.1-0.2-0.2c0-0.1,0.1-0.3,0.2-0.3
				C361.9,213.7,362,213.8,362,214z"/>
			<path d="M363.6,213.9l0.1-0.3c0.2,0.2,0.5,0.3,0.9,0.3c0.5,0,0.7-0.2,0.7-0.4c0-0.6-1.6-0.1-1.6-1.1c0-0.4,0.3-0.7,1-0.7
				c0.3,0,0.7,0.1,0.9,0.2l-0.1,0.3c-0.2-0.1-0.5-0.2-0.7-0.2c-0.4,0-0.6,0.2-0.6,0.4c0,0.7,1.6,0.2,1.6,1.1c0,0.4-0.4,0.7-1,0.7
				C364.2,214.2,363.8,214.1,363.6,213.9z"/>
			<path d="M368.3,213.1h-2c0,0.5,0.4,0.8,1,0.8c0.3,0,0.6-0.1,0.7-0.3l0.2,0.2c-0.2,0.3-0.6,0.4-0.9,0.4c-0.8,0-1.3-0.5-1.3-1.2
				c0-0.7,0.5-1.2,1.2-1.2s1.2,0.5,1.2,1.2C368.3,213,368.3,213,368.3,213.1z M366.3,212.8h1.7c0-0.5-0.4-0.8-0.9-0.8
				C366.7,212,366.3,212.3,366.3,212.8z"/>
			<path d="M371.2,210.7v3.4h-0.3v-0.5c-0.2,0.3-0.5,0.5-0.9,0.5c-0.7,0-1.2-0.5-1.2-1.2c0-0.7,0.5-1.2,1.2-1.2
				c0.4,0,0.7,0.2,0.9,0.5v-1.5H371.2z M370.9,213c0-0.6-0.4-1-0.9-1c-0.5,0-0.9,0.4-0.9,1c0,0.6,0.4,1,0.9,1
				C370.5,213.9,370.9,213.5,370.9,213z"/>
			<path d="M375.6,210.7v3.4h-0.3v-0.5c-0.2,0.3-0.5,0.5-0.9,0.5c-0.7,0-1.2-0.5-1.2-1.2c0-0.7,0.5-1.2,1.2-1.2
				c0.4,0,0.7,0.2,0.9,0.5v-1.5H375.6z M375.2,213c0-0.6-0.4-1-0.9-1c-0.5,0-0.9,0.4-0.9,1c0,0.6,0.4,1,0.9,1
				C374.9,213.9,375.2,213.5,375.2,213z"/>
			<path d="M376.4,211c0-0.1,0.1-0.2,0.2-0.2c0.1,0,0.2,0.1,0.2,0.2c0,0.1-0.1,0.2-0.2,0.2C376.5,211.2,376.4,211.1,376.4,211z
				 M376.5,211.7h0.3v2.4h-0.3V211.7z"/>
			<path d="M379.6,212.7v1.5h-0.3v-0.4c-0.1,0.3-0.4,0.4-0.8,0.4c-0.6,0-0.9-0.3-0.9-0.7c0-0.4,0.2-0.7,0.9-0.7h0.8v-0.1
				c0-0.4-0.2-0.6-0.7-0.6c-0.3,0-0.6,0.1-0.8,0.3l-0.1-0.2c0.2-0.2,0.6-0.3,1-0.3C379.2,211.7,379.6,212,379.6,212.7z M379.2,213.5
				v-0.4h-0.8c-0.5,0-0.6,0.2-0.6,0.4c0,0.3,0.2,0.5,0.6,0.5C378.8,213.9,379.1,213.8,379.2,213.5z"/>
			<path d="M384.5,212.8v1.4h-0.3v-1.4c0-0.5-0.3-0.8-0.7-0.8c-0.5,0-0.8,0.3-0.8,0.9v1.3h-0.3v-1.4c0-0.5-0.3-0.8-0.7-0.8
				c-0.5,0-0.8,0.3-0.8,0.9v1.3h-0.3v-2.4h0.3v0.4c0.2-0.3,0.5-0.5,0.9-0.5c0.4,0,0.7,0.2,0.9,0.5c0.2-0.3,0.5-0.5,1-0.5
				C384.1,211.7,384.5,212.1,384.5,212.8z"/>
			<path d="M387.3,211.9l-1.6,0.6l1.6,0.6v0.4l-2.1-0.8v-0.4l2.1-0.8V211.9z"/>
			<path d="M389,210.3h0.4l-1.5,4.4h-0.4L389,210.3z"/>
			<path d="M392.5,210.9v3.2h-0.5v-1.4h-1.9v1.4h-0.5v-3.2h0.5v1.4h1.9v-1.4H392.5z"/>
			<path d="M394.2,210.9v3.2h-0.5v-2.8h-0.7v-0.4H394.2z"/>
			<path d="M397.1,212.4v0.4l-2.1,0.8v-0.4l1.7-0.6l-1.7-0.6v-0.4L397.1,212.4z"/>
			<path d="M331.3,223l-1.6,0.6l1.6,0.6v0.4l-2.1-0.8v-0.4l2.1-0.8V223z"/>
			<path d="M334.7,223.2c0,0.7-0.5,1.1-1.4,1.1h-0.8v1h-0.5v-3.2h1.3C334.2,222.1,334.7,222.5,334.7,223.2z M334.2,223.2
				c0-0.5-0.3-0.7-0.9-0.7h-0.8v1.5h0.8C333.9,223.9,334.2,223.7,334.2,223.2z"/>
			<path d="M337.3,223.5v0.4l-2.1,0.8v-0.4l1.7-0.6l-1.7-0.6v-0.4L337.3,223.5z"/>
			<path d="M341.2,223l-1.6,0.6l1.6,0.6v0.4l-2.1-0.8v-0.4l2.1-0.8V223z"/>
			<path d="M342,222.1h0.5v3.2H342V222.1z"/>
			<path d="M346.5,225.3l0-2.4l-1.2,2h-0.2l-1.2-2v2.4h-0.4v-3.2h0.4l1.4,2.3l1.3-2.3h0.4l0,3.2H346.5z"/>
			<path d="M350.2,223.7h0.4v1.3c-0.3,0.3-0.8,0.4-1.2,0.4c-1,0-1.7-0.7-1.7-1.7c0-1,0.7-1.7,1.7-1.7c0.5,0,1,0.2,1.2,0.5l-0.3,0.3
				c-0.3-0.3-0.6-0.4-0.9-0.4c-0.8,0-1.3,0.5-1.3,1.2c0,0.7,0.5,1.2,1.3,1.2c0.3,0,0.5-0.1,0.8-0.2V223.7z"/>
			<path d="M352.4,224.9l0.2-0.4c0.2,0.2,0.7,0.4,1.1,0.4c0.6,0,0.8-0.2,0.8-0.5c0-0.8-2-0.3-2-1.5c0-0.5,0.4-0.9,1.2-0.9
				c0.4,0,0.8,0.1,1,0.3l-0.2,0.4c-0.3-0.2-0.6-0.3-0.9-0.3c-0.6,0-0.8,0.2-0.8,0.5c0,0.8,2,0.3,2,1.5c0,0.5-0.4,0.9-1.3,0.9
				C353.2,225.3,352.7,225.2,352.4,224.9z"/>
			<path d="M357.8,225.3l-0.7-1c-0.1,0-0.1,0-0.2,0h-0.8v1h-0.5v-3.2h1.3c0.8,0,1.4,0.4,1.4,1.1c0,0.5-0.3,0.9-0.7,1l0.8,1.1H357.8z
				 M357.8,223.2c0-0.5-0.3-0.7-0.9-0.7h-0.8v1.5h0.8C357.4,223.9,357.8,223.7,357.8,223.2z"/>
			<path d="M358.7,223.7c0-1,0.7-1.7,1.7-1.7c0.5,0,0.9,0.2,1.2,0.5l-0.3,0.3c-0.3-0.3-0.6-0.4-0.9-0.4c-0.7,0-1.3,0.5-1.3,1.2
				c0,0.7,0.5,1.2,1.3,1.2c0.4,0,0.7-0.1,0.9-0.4l0.3,0.3c-0.3,0.3-0.7,0.5-1.2,0.5C359.4,225.3,358.7,224.6,358.7,223.7z"/>
			<path d="M362.1,223h2.1v0.4h-2.1V223z M362.1,224.1h2.1v0.4h-2.1V224.1z"/>
			<path d="M366.1,222.1h0.4l0,1.3h-0.3L366.1,222.1z M366.9,222.1h0.4l0,1.3h-0.3L366.9,222.1z"/>
			<path d="M368.1,222.1h0.5v2.8h1.8v0.4h-2.2V222.1z"/>
			<path d="M370.5,224.1c0-0.7,0.5-1.3,1.3-1.3c0.7,0,1.3,0.5,1.3,1.3c0,0.7-0.5,1.3-1.3,1.3C371,225.3,370.5,224.8,370.5,224.1z
				 M372.6,224.1c0-0.5-0.4-0.9-0.8-0.9c-0.5,0-0.8,0.3-0.8,0.9c0,0.5,0.4,0.9,0.8,0.9C372.3,224.9,372.6,224.6,372.6,224.1z"/>
			<path d="M375,222.8v0.4c0,0-0.1,0-0.1,0c-0.5,0-0.8,0.3-0.8,0.8v1.2h-0.4v-2.5h0.4v0.4C374.3,223,374.6,222.8,375,222.8z"/>
			<path d="M377.7,224.2h-2c0.1,0.4,0.4,0.7,0.9,0.7c0.3,0,0.5-0.1,0.7-0.3l0.2,0.3c-0.2,0.3-0.6,0.4-1,0.4c-0.8,0-1.3-0.5-1.3-1.3
				c0-0.7,0.5-1.3,1.2-1.3c0.7,0,1.2,0.5,1.2,1.3C377.7,224.1,377.7,224.2,377.7,224.2z M375.7,223.9h1.6c0-0.4-0.4-0.7-0.8-0.7
				C376.1,223.2,375.8,223.5,375.7,223.9z"/>
			<path d="M382.4,223.9v1.4H382v-1.4c0-0.5-0.2-0.7-0.6-0.7c-0.4,0-0.7,0.3-0.7,0.8v1.3h-0.4v-1.4c0-0.5-0.2-0.7-0.6-0.7
				c-0.4,0-0.7,0.3-0.7,0.8v1.3h-0.4v-2.5h0.4v0.4c0.2-0.3,0.5-0.4,0.8-0.4c0.4,0,0.7,0.1,0.9,0.5c0.2-0.3,0.5-0.5,0.9-0.5
				C382,222.8,382.4,223.2,382.4,223.9z"/>
			<path d="M384.4,222.1c0-0.2,0.1-0.3,0.3-0.3c0.2,0,0.3,0.1,0.3,0.3c0,0.2-0.1,0.3-0.3,0.3C384.6,222.4,384.4,222.3,384.4,222.1z
				 M384.5,222.8h0.4v2.5h-0.4V222.8z"/>
			<path d="M388.3,224.1c0,0.8-0.5,1.3-1.2,1.3c-0.3,0-0.7-0.1-0.9-0.4v1.3h-0.4v-3.4h0.4v0.4c0.2-0.3,0.5-0.4,0.9-0.4
				C387.8,222.8,388.3,223.3,388.3,224.1z M387.9,224.1c0-0.5-0.4-0.9-0.8-0.9c-0.5,0-0.8,0.3-0.8,0.9c0,0.5,0.4,0.9,0.8,0.9
				C387.5,224.9,387.9,224.6,387.9,224.1z"/>
			<path d="M388.6,225l0.2-0.4c0.2,0.1,0.5,0.3,0.9,0.3c0.4,0,0.6-0.1,0.6-0.3c0-0.6-1.6-0.1-1.6-1.1c0-0.4,0.4-0.7,1-0.7
				c0.3,0,0.7,0.1,0.9,0.2l-0.2,0.4c-0.2-0.1-0.5-0.2-0.7-0.2c-0.4,0-0.6,0.1-0.6,0.3c0,0.6,1.6,0.1,1.6,1.1c0,0.4-0.4,0.7-1.1,0.7
				C389.3,225.3,388.8,225.2,388.6,225z"/>
			<path d="M393.6,222.8v2.5h-0.4v-0.4c-0.2,0.3-0.5,0.4-0.8,0.4c-0.6,0-1.1-0.3-1.1-1.1v-1.4h0.4v1.4c0,0.5,0.2,0.7,0.7,0.7
				c0.5,0,0.8-0.3,0.8-0.8v-1.3H393.6z"/>
			<path d="M398.5,223.9v1.4H398v-1.4c0-0.5-0.2-0.7-0.6-0.7c-0.4,0-0.7,0.3-0.7,0.8v1.3h-0.4v-1.4c0-0.5-0.2-0.7-0.6-0.7
				c-0.4,0-0.7,0.3-0.7,0.8v1.3h-0.4v-2.5h0.4v0.4c0.2-0.3,0.5-0.4,0.8-0.4c0.4,0,0.7,0.1,0.9,0.5c0.2-0.3,0.5-0.5,0.9-0.5
				C398.1,222.8,398.5,223.2,398.5,223.9z"/>
			<path d="M399.2,222.1h0.4l0,1.3h-0.3L399.2,222.1z M400,222.1h0.4l0,1.3H400L400,222.1z"/>
			<path d="M403.1,223.5v0.4l-2.1,0.8v-0.4l1.7-0.6L401,223v-0.4L403.1,223.5z"/>
			<path d="M405.8,223l-1.6,0.6l1.6,0.6v0.4l-2.1-0.8v-0.4l2.1-0.8V223z"/>
			<path d="M407.5,221.4h0.4l-1.5,4.4H406L407.5,221.4z"/>
			<path d="M410.8,223.2c0,0.7-0.5,1.1-1.4,1.1h-0.8v1h-0.5v-3.2h1.3C410.3,222.1,410.8,222.5,410.8,223.2z M410.4,223.2
				c0-0.5-0.3-0.7-0.9-0.7h-0.8v1.5h0.8C410.1,223.9,410.4,223.7,410.4,223.2z"/>
			<path d="M413.5,223.5v0.4l-2.1,0.8v-0.4l1.7-0.6l-1.7-0.6v-0.4L413.5,223.5z"/>
			<path d="M331.3,234.2l-1.6,0.6l1.6,0.6v0.4l-2.1-0.8v-0.4l2.1-0.8V234.2z"/>
			<path d="M333,232.5h0.4l-1.5,4.4h-0.4L333,232.5z"/>
			<path d="M336.5,235.6c0,0.6-0.4,0.9-1.2,0.9h-1.5v-3.2h1.5c0.7,0,1.2,0.3,1.2,0.8c0,0.4-0.2,0.6-0.4,0.7
				C336.2,234.8,336.5,235.1,336.5,235.6z M334.1,233.6v1h1c0.5,0,0.7-0.2,0.7-0.5c0-0.3-0.3-0.5-0.7-0.5H334.1z M336,235.5
				c0-0.4-0.3-0.5-0.8-0.5h-1.1v1.1h1.1C335.7,236.1,336,235.9,336,235.5z"/>
			<path d="M336.9,234.8c0-1,0.7-1.7,1.7-1.7c1,0,1.7,0.7,1.7,1.7s-0.7,1.7-1.7,1.7C337.7,236.5,336.9,235.8,336.9,234.8z
				 M339.9,234.8c0-0.7-0.5-1.2-1.3-1.2c-0.7,0-1.3,0.5-1.3,1.2c0,0.7,0.5,1.2,1.3,1.2C339.4,236.1,339.9,235.5,339.9,234.8z"/>
			<path d="M341.1,233.2h1.4c1,0,1.8,0.7,1.8,1.6s-0.7,1.6-1.8,1.6h-1.4V233.2z M342.4,236c0.8,0,1.3-0.5,1.3-1.2s-0.5-1.2-1.3-1.2
				h-0.9v2.4H342.4z"/>
			<path d="M346,235.3v1.1h-0.5v-1.1l-1.3-2.1h0.5l1,1.7l1-1.7h0.5L346,235.3z"/>
			<path d="M349.7,234.6v0.4l-2.1,0.8v-0.4l1.7-0.6l-1.7-0.6v-0.4L349.7,234.6z"/>
		</g>
		<g>
			<g>
				<path class="st3" d="M456,147.3c0,0.1-32.1,0.3-71.7,0.3c-39.6,0-71.7-0.1-71.7-0.3c0-0.1,32.1-0.3,71.7-0.3
					C423.9,147,456,147.1,456,147.3z"/>
			</g>
		</g>
		<g>
			<g>
				<circle class="st3" cx="316" cy="142.2" r="0.9"/>
			</g>
			<g>
				<circle class="st3" cx="319.6" cy="142.2" r="0.9"/>
			</g>
			<g>
				<circle class="st3" cx="323.1" cy="142.2" r="0.9"/>
			</g>
		</g>
		<g>
			<g>
				<path class="st10" d="M321.8,255.7c-0.1,0-0.3-24.3-0.3-54.3c0-30,0.1-54.3,0.3-54.3s0.3,24.3,0.3,54.3
					C322,231.4,321.9,255.7,321.8,255.7z"/>
			</g>
		</g>
	</g>
	<g>
		<g>
			<g>
				<g>
					<rect x="109" y="62.7" class="st4" width="59.3" height="42.2"/>
				</g>
			</g>
			<g>
				<g>
					<g>
						<ellipse class="st1" cx="138.9" cy="69" rx="29.9" ry="0.3"/>
					</g>
				</g>
			</g>
			<g>
				<g>
					<g>
						<ellipse class="st1" cx="113.1" cy="65.9" rx="0.8" ry="0.7"/>
					</g>
				</g>
				<g>
					<g>
						<ellipse class="st1" cx="116" cy="65.9" rx="0.8" ry="0.7"/>
					</g>
				</g>
				<g>
					<g>
						<ellipse class="st1" cx="118.9" cy="65.9" rx="0.8" ry="0.7"/>
					</g>
				</g>
			</g>
		</g>
		<g>
			<g>
				<path class="st1" d="M130.9,85.8c0,2.5-1.8,4.1-4.9,4.1h-3.2v3.8h-1.3V81.7h4.5C129.1,81.7,130.9,83.3,130.9,85.8z M129.7,85.8
					c0-1.9-1.3-3-3.6-3h-3.2v6h3.2C128.4,88.8,129.7,87.7,129.7,85.8z"/>
			</g>
			<g>
				<path class="st1" d="M143.6,81.7v11.9h-1.2v-5.5h-7.5v5.5h-1.3V81.7h1.3V87h7.5v-5.3H143.6z"/>
			</g>
			<g>
				<path class="st1" d="M156.8,85.8c0,2.5-1.8,4.1-4.9,4.1h-3.2v3.8h-1.3V81.7h4.5C155,81.7,156.8,83.3,156.8,85.8z M155.5,85.8
					c0-1.9-1.3-3-3.6-3h-3.2v6h3.2C154.3,88.8,155.5,87.7,155.5,85.8z"/>
			</g>
		</g>
	</g>
	<g>
		<g>
			<g>
				<rect x="431.2" y="224.2" class="st4" width="53.6" height="38.2"/>
			</g>
		</g>
		<g>
			<g>
				<path class="st1" d="M449.3,241.9v7.6h-1.8v-3.1h-3.4v3.1h-1.8v-7.6h1.8v3h3.4v-3H449.3z"/>
			</g>
			<g>
				<path class="st1" d="M452.6,243.4h-2.4v-1.4h6.6v1.4h-2.4v6.1h-1.8V243.4z"/>
			</g>
			<g>
				<path class="st1" d="M457.7,241.9h1.8v6.1h3.8v1.4h-5.6V241.9z"/>
			</g>
			<g>
				<path class="st1" d="M471.2,249.5l0-4.5l-2.2,3.7h-0.8l-2.2-3.6v4.4h-1.6v-7.6h1.5l2.8,4.7l2.8-4.7h1.4l0,7.6H471.2z"/>
			</g>
		</g>
		<g>
			<g>
				<g>
					<g>
						<ellipse class="st1" cx="458.2" cy="229.9" rx="27" ry="0.2"/>
					</g>
				</g>
			</g>
			<g>
				<g>
					<g>
						<ellipse class="st1" cx="434.8" cy="227.1" rx="0.7" ry="0.6"/>
					</g>
				</g>
				<g>
					<g>
						<ellipse class="st1" cx="437.5" cy="227.1" rx="0.7" ry="0.6"/>
					</g>
				</g>
				<g>
					<g>
						<ellipse class="st1" cx="440.1" cy="227.1" rx="0.7" ry="0.6"/>
					</g>
				</g>
			</g>
		</g>
	</g>
	<g>
		<g>
			<g>
				<rect x="80.6" y="223.7" class="st4" width="39.5" height="28.1"/>
			</g>
		</g>
		<g>
			<g>
				<g>
					<g>
						<ellipse class="st1" cx="100.5" cy="227.8" rx="19.9" ry="0.1"/>
					</g>
				</g>
			</g>
			<g>
				<g>
					<g>
						<ellipse class="st1" cx="83.3" cy="225.8" rx="0.5" ry="0.5"/>
					</g>
				</g>
				<g>
					<g>
						<ellipse class="st1" cx="85.2" cy="225.8" rx="0.5" ry="0.5"/>
					</g>
				</g>
				<g>
					<g>
						<ellipse class="st1" cx="87.2" cy="225.8" rx="0.5" ry="0.5"/>
					</g>
				</g>
			</g>
		</g>
	</g>
	<g>
		<g>
			<g>
				<path class="st4" d="M315.9,115.2c0-4.3,3.3-7.5,7.7-7.5c2.1,0,4,0.7,5.3,2l-0.7,0.7c-1.3-1.2-2.8-1.8-4.5-1.8
					c-3.8,0-6.6,2.8-6.6,6.5c0,3.7,2.9,6.5,6.6,6.5c1.7,0,3.3-0.5,4.5-1.8l0.7,0.7c-1.3,1.4-3.2,2.1-5.3,2.1
					C319.1,122.7,315.9,119.5,315.9,115.2z"/>
			</g>
			<g>
				<path class="st4" d="M330.8,120.7l0.5-0.8c1,1.1,2.9,1.9,4.9,1.9c3,0,4.3-1.3,4.3-2.9c0-4.4-9.2-1.8-9.2-7.2
					c0-2.1,1.6-3.9,5.2-3.9c1.6,0,3.3,0.5,4.5,1.3l-0.4,0.9c-1.2-0.8-2.7-1.2-4.1-1.2c-2.9,0-4.2,1.3-4.2,3c0,4.4,9.2,1.8,9.2,7.2
					c0,2.1-1.7,3.9-5.3,3.9C334,122.7,331.9,121.9,330.8,120.7z"/>
			</g>
			<g>
				<path class="st4" d="M343.7,120.7l0.5-0.8c1,1.1,2.9,1.9,4.9,1.9c3,0,4.3-1.3,4.3-2.9c0-4.4-9.2-1.8-9.2-7.2
					c0-2.1,1.6-3.9,5.2-3.9c1.6,0,3.3,0.5,4.5,1.3l-0.4,0.9c-1.2-0.8-2.7-1.2-4.1-1.2c-2.9,0-4.2,1.3-4.2,3c0,4.4,9.2,1.8,9.2,7.2
					c0,2.1-1.7,3.9-5.3,3.9C346.9,122.7,344.8,121.9,343.7,120.7z"/>
			</g>
		</g>
		<g>
			<g>
				<g>
					<g>
						<path class="st4" d="M367,134.4c0,0,0-0.3,0-0.8c0-0.5,0-1.3,0-2.3c0-2,0-4.9-0.1-8.6c0-7.4-0.1-18-0.1-31l0.2,0.2
							c-18,0-41,0-65.9,0.1h0l0.3-0.3c0,15.1,0,29.5,0,42.6l-0.2-0.2c19.3,0,35.8,0.1,47.4,0.1c5.8,0,10.4,0,13.6,0.1
							c1.6,0,2.8,0,3.6,0c0.4,0,0.7,0,0.9,0C366.9,134.4,367,134.4,367,134.4c0,0-0.1,0-0.3,0c-0.2,0-0.5,0-0.9,0c-0.8,0-2,0-3.6,0
							c-3.2,0-7.8,0-13.5,0.1c-11.7,0-28.2,0.1-47.6,0.1l-0.2,0l0-0.2c0-13.1,0-27.4,0-42.6l0-0.3h0.3h0c24.9,0,47.8,0,65.9,0.1
							l0.2,0l0,0.2c0,13-0.1,23.7-0.1,31.1c0,3.7,0,6.5-0.1,8.5c0,1,0,1.7,0,2.2C367,134.2,367,134.4,367,134.4z"/>
					</g>
				</g>
			</g>
			<g>
				<g>
					<g>
						<ellipse class="st4" cx="334" cy="98.2" rx="33" ry="0.3"/>
					</g>
				</g>
			</g>
			<g>
				<g>
					<g>
						<ellipse class="st4" cx="305.2" cy="95.1" rx="0.8" ry="0.7"/>
					</g>
				</g>
				<g>
					<g>
						<ellipse class="st4" cx="308.1" cy="95.1" rx="0.8" ry="0.7"/>
					</g>
				</g>
				<g>
					<g>
						<ellipse class="st4" cx="311" cy="95.1" rx="0.8" ry="0.7"/>
					</g>
				</g>
			</g>
		</g>
	</g>
</g>
<g id="Plant">
	<g>
		<g>
			<g>
				<g>
					<path class="st4" d="M87.1,386c3.6-1.8,7.8-2.1,11.7-1.4c2.1,0.4,4.3,1,5.8,2.6c1.4,1.6,1.7,4.4,0.1,5.8
						c-1,0.8-2.4,0.9-3.7,0.9c-3.1,0-6.5-0.6-9,1.3c-1.4,1.1-2.4,2.8-4,3.4c-1.7,0.5-3.5-0.5-4.4-2c-0.9-1.5-0.9-3.4-0.5-5
						C83.1,391.5,83.5,387.8,87.1,386z"/>
				</g>
			</g>
			<g>
				<g>
					<path class="st4" d="M79,370.2c2.2,3.1,6.4,2.1,8.4,0.2c2-1.9,2.8-4.7,3.6-7.3c1.7-6,3.5-12.3,2.2-18.4c-0.4-1.8-1.1-3.6-2.4-5
						c-1.3-1.4-3.3-2.2-5.1-1.7c-2.1,0.6-3.5,2.7-4.4,4.6c-2.8,5.9-4.3,12.3-4.3,18.8C76.9,364.5,77.2,367.7,79,370.2"/>
				</g>
			</g>
			<g>
				<g>
					<path class="st4" d="M73,374.7c2.4-2.8,2.8-6.9,1.8-10.4c-1.1-3.5-3.4-6.5-6.2-9c-3.2-2.9-7-5.1-11.1-6.5c-1.6-0.6-3.3-1-5-0.8
						c-1.7,0.2-3.4,1-4.2,2.5c-1.2,2.2,0,4.9,1.2,7.1c2.1,3.9,4.6,7.6,7.3,11.1c2.2,2.8,4.7,5.6,8,6.8c3.3,1.3,6.8,1.1,8.5-1.2"/>
				</g>
			</g>
			<g>
				<g>
					<g>
						<path class="st3" d="M78.8,417.2c0,0,0.1-0.5,0.2-1.4c0.1-1,0.2-2.3,0.4-3.9c0.2-1.6,0.4-3.6,0.9-5.7c0.4-2.1,1.2-4.4,2.1-6.7
							c0.9-2.3,2.1-4.4,3.4-6c1.3-1.7,2.9-2.9,4.3-3.6c1.4-0.7,2.7-1,3.6-1.1c0.9-0.1,1.4-0.2,1.4-0.2c0,0-0.5,0-1.4,0
							c-0.9,0.1-2.3,0.3-3.8,1c-1.5,0.7-3.2,1.9-4.6,3.6c-1.4,1.7-2.6,3.8-3.5,6.2c-0.9,2.3-1.6,4.6-2,6.8c-0.4,2.1-0.6,4.1-0.8,5.7
							c-0.1,1.6-0.2,3-0.2,3.9C78.8,416.7,78.8,417.2,78.8,417.2z"/>
					</g>
				</g>
			</g>
			<g>
				<g>
					<g>
						<path class="st3" d="M79.1,414.2c0,0,0-0.2,0-0.7c0-0.5,0-1.1,0-1.9c0-1.6,0-4,0.1-6.9c0.1-5.8,0.6-12.1,1.6-20.9
							c0.9-8.3,2.1-18,3.4-24.3c0.3-1.4,0.6-2.7,0.8-3.8c0.3-1.1,0.5-2.1,0.7-2.9c0.2-0.7,0.3-1.3,0.4-1.8c0.1-0.4,0.1-0.6,0.1-0.6
							c0,0-0.1,0.2-0.2,0.6c-0.1,0.5-0.3,1.1-0.5,1.8c-0.2,0.8-0.5,1.7-0.8,2.9c-0.3,1.1-0.6,2.4-0.9,3.8
							c-1.3,5.7-2.6,13.7-3.6,22.5c-1,8.9-1.4,16.9-1.4,22.8c0,2.9,0,5.3,0.1,6.9c0,0.8,0.1,1.4,0.1,1.9
							C79,414,79.1,414.2,79.1,414.2z"/>
					</g>
				</g>
			</g>
			<g>
				<g>
					<g>
						<path class="st3" d="M79.1,398.7c0,0,0-0.7,0-2c-0.1-1.3-0.2-3.1-0.6-5.3c-0.4-2.2-0.9-4.9-1.7-7.7c-0.4-1.3-1.2-4.5-3.2-9.2
							c-2.7-6.4-6.3-11.6-9.5-14.8c-0.7-0.9-1.6-1.5-2.2-2.1c-0.3-0.3-0.6-0.6-1-0.8c-0.3-0.2-0.6-0.4-0.9-0.6
							c-1-0.7-1.6-1.1-1.7-1.1c-0.1,0.1,2.3,1.6,5.4,4.8c3.1,3.3,6.6,8.4,9.3,14.7c1.5,3.4,2.5,6.5,3.3,9.1c0.8,2.8,1.4,5.5,1.8,7.7
							c0.4,2.2,0.6,4,0.8,5.3C79,398,79.1,398.7,79.1,398.7z"/>
					</g>
				</g>
			</g>
		</g>
		<g>
			<g>
				<polygon class="st3" points="64.1,426.1 65.6,447.4 93.1,447.4 94.6,426.1 				"/>
			</g>
		</g>
		<g>
			<g>
				<rect x="61.4" y="417.7" class="st3" width="36.5" height="8.4"/>
			</g>
		</g>
		<g>
			<g>
				<polygon class="st2" points="61.4,446.6 61.4,449 63.2,449 97.3,449 97.3,446.6 				"/>
			</g>
		</g>
		<g>
			<g>
				<polygon class="st2" points="64.8,453.1 63.2,449 96,449 94,453.1 				"/>
			</g>
		</g>
		<g>
			<g>
				<g>
					<path class="st10" d="M94.1,433.1c0,0,0,0.1-0.1,0.2c-0.1,0.1-0.2,0.3-0.4,0.5c-0.4,0.5-0.9,1.2-1.6,2l-0.1,0.1l-0.1-0.1
						c-1-1.4-2.3-3.2-3.9-5.4h0.2c-1.2,1.7-2.5,3.5-3.9,5.5l-0.1,0.2l-0.1-0.2c-1.4-1.7-3-3.5-4.6-5.5l0.3,0
						c-0.1,0.1-0.2,0.2-0.3,0.3c-1.4,1.8-2.8,3.5-4.1,5.1l-0.1,0.2l-0.1-0.2c-1.4-2-2.7-3.8-3.9-5.5l0.2,0c-1.9,2.2-3.5,4-4.8,5.4
						l-0.1,0.1l-0.1-0.1c-0.6-1.1-1.1-1.9-1.5-2.5c-0.2-0.3-0.3-0.5-0.4-0.7c-0.1-0.2-0.1-0.2-0.1-0.2c0,0,0.1,0.1,0.2,0.2
						c0.1,0.2,0.3,0.4,0.4,0.6c0.4,0.6,0.9,1.4,1.6,2.5l-0.1,0c1.2-1.4,2.8-3.3,4.7-5.5l0.1-0.1l0.1,0.1c1.2,1.7,2.5,3.5,3.9,5.4
						l-0.3,0c1.3-1.6,2.7-3.4,4.1-5.1c0.1-0.1,0.2-0.2,0.3-0.3l0.1-0.2l0.1,0.2c1.6,1.9,3.1,3.8,4.6,5.5l-0.3,0
						c1.4-2,2.7-3.8,3.9-5.4l0.1-0.2l0.1,0.2c1.5,2.2,2.9,4.1,3.8,5.5l-0.1,0c0.7-0.8,1.3-1.5,1.7-2c0.2-0.2,0.3-0.4,0.4-0.5
						C94.1,433.1,94.1,433.1,94.1,433.1z"/>
				</g>
			</g>
		</g>
		<g>
			<g>
				<g>
					<ellipse class="st2" cx="79.7" cy="426" rx="15.3" ry="0.2"/>
				</g>
			</g>
		</g>
		<g>
			<g>
				<g>
					<ellipse class="st3" cx="79.7" cy="449.2" rx="16.7" ry="0.2"/>
				</g>
			</g>
		</g>
	</g>
</g>
<g id="Devices">
	<g>
		<g>
			<polygon class="st3" points="420.5,203.5 401.5,283.1 406.8,283.1 425.6,203.5 			"/>
		</g>
		<g>
			<path class="st3" d="M413.2,255.9c-0.3,1.5,8.6,44.9,8.6,44.9h-4.3l-6.8-34.4L413.2,255.9z"/>
		</g>
	</g>
	<g>
		<g>
			<g>
				<g>
					<rect x="387.4" y="358.2" class="st4" width="89.2" height="94.6"/>
				</g>
				<g>
					<rect x="476.6" y="372.1" class="st3" width="4.4" height="4.4"/>
				</g>
				<g>
					<rect x="476.6" y="386" class="st3" width="4.4" height="4.4"/>
				</g>
				<g>
					<rect x="476.6" y="399.9" class="st3" width="4.4" height="4.4"/>
				</g>
				<g>
					<rect x="476.6" y="413.8" class="st3" width="4.4" height="4.4"/>
				</g>
				<g>
					<g>
						<path class="st3" d="M481.2,401.2c0,0,0.5-0.1,1.3-0.3c0.9-0.1,2.1-0.4,3.8-0.4c1.6,0,3.6,0.3,5.4,1.4
							c0.9,0.6,1.8,1.4,2.3,2.5c0.6,1.1,0.8,2.3,0.7,3.6c-0.1,1.2-0.5,2.4-1.1,3.4c-0.6,1-1.4,1.8-2.3,2.4c-1.7,1.3-3.6,1.8-5.2,2.1
							c-1.6,0.2-2.9,0.2-3.8,0.1c-0.9-0.1-1.4-0.2-1.4-0.2c0,0,0.5,0,1.4,0c0.9,0,2.2,0,3.7-0.3c1.5-0.3,3.3-0.9,5-2.1
							c1.6-1.2,3.1-3.2,3.2-5.5c0.1-1.2-0.1-2.3-0.6-3.3c-0.5-1-1.3-1.7-2.1-2.3c-1.7-1.1-3.6-1.4-5.2-1.5c-1.6,0-2.8,0.1-3.7,0.2
							C481.7,401.2,481.2,401.2,481.2,401.2z"/>
					</g>
				</g>
				<g>
					<g>
						<path class="st3" d="M480.1,387.3c0,0,0.1-0.1,0.4-0.3c0.3-0.1,0.7-0.3,1.3-0.5c1.2-0.4,3-0.7,5.1-0.3
							c0.5,0.1,1.1,0.3,1.6,0.6c0.5,0.3,1,0.9,1.2,1.6c0.4,1.3-0.1,2.8-1,4c-0.5,0.6-1.1,1.1-1.8,1.4c-0.7,0.3-1.7,0.3-2.4-0.1
							c-0.7-0.4-1.4-1.2-1.4-2.1c0-0.9,0.6-1.8,1.4-2.2c0.8-0.4,1.7-0.4,2.6-0.3c0.8,0.2,1.6,0.6,2.2,1.1c1.3,1,2.1,2.5,2.2,4
							c0.2,1.5-0.4,2.9-1.1,4c-0.8,1.1-1.8,1.8-2.7,2.3c-2,1-3.8,1.2-5,1.3c-0.6,0-1.1,0.1-1.4,0.1c-0.3,0-0.5,0-0.5,0
							c0,0,0.7-0.1,1.9-0.2c1.2-0.2,2.9-0.4,4.8-1.4c0.9-0.5,1.9-1.2,2.6-2.2c0.7-1,1.2-2.3,1-3.7c-0.2-1.4-0.9-2.7-2.1-3.6
							c-0.6-0.5-1.3-0.8-2-1c-0.7-0.2-1.5-0.1-2.2,0.2c-0.7,0.3-1.1,1-1.1,1.7c0,0.7,0.5,1.3,1.1,1.7c0.6,0.4,1.4,0.4,2,0.1
							c0.7-0.2,1.2-0.7,1.6-1.2c0.9-1,1.3-2.4,1-3.6c-0.3-1.2-1.4-1.8-2.5-2c-2.1-0.5-3.8-0.2-5,0.1
							C480.7,387.1,480.1,387.4,480.1,387.3z"/>
					</g>
				</g>
				<g>
					<g>
						<path class="st3" d="M480.1,373.8c0,0,0.3-0.1,1-0.2c0.6,0,1.6,0,2.7,0.4c1.1,0.4,2.3,1.1,3.3,2.2c1,1.2,1.7,2.8,1.7,4.6
							c0.1,1.8-0.5,3.5-1.4,4.7c-0.9,1.2-2.1,2-3.2,2.4c-1.1,0.4-2,0.5-2.6,0.5c-0.6,0-1-0.1-1-0.1c0-0.1,1.5,0.1,3.5-0.8
							c1-0.5,2.1-1.2,2.9-2.4c0.9-1.2,1.4-2.7,1.3-4.4c-0.1-1.7-0.7-3.2-1.6-4.3c-0.9-1.1-2.1-1.8-3.1-2.2
							C481.6,373.5,480.1,373.9,480.1,373.8z"/>
					</g>
				</g>
				<g>
					<g>
						<path class="st3" d="M413.9,308c0,0,0.4,0.6,0.8,1.8c0.4,1.2,0.8,3,1.2,5.4c0.4,2.4,0.7,5.3,1,8.6c0.3,3.4,0.6,7.2,1.1,11.5
							c0.1,1.1,0.3,2.1,0.5,3.2c0.2,1.1,0.5,2.2,1,3.2c0.5,1,1.3,1.9,2.2,2.7c0.9,0.8,1.8,1.6,2.9,2.2c2.1,1.3,4.6,2.2,7.2,2.5
							c2.6,0.3,5.4-0.1,7.9-1.4c2.5-1.2,4.5-3.6,5.1-6.4c0.3-1.4,0.2-2.9-0.3-4.3c-0.5-1.4-1.5-2.5-2.8-3.3
							c-1.2-0.8-2.7-1.3-4.2-1.4c-1.5-0.1-3.1,0.3-4.3,1.3c-0.6,0.5-1.1,1-1.4,1.7c-0.3,0.7-0.4,1.4-0.3,2.2
							c0.3,1.5,1.4,2.8,2.8,3.5c1.4,0.8,3,1.1,4.6,1.3c1.6,0.2,3.2,0.3,4.7,0.3c3.2,0.1,6.3-0.2,9.3-0.5c6.1-0.7,12-1.7,17.6-1.7
							c5.6-0.1,11.1,0.7,15.7,3c2.3,1.1,4.3,2.6,5.8,4.4c1.6,1.8,2.6,3.9,3,6c0.9,4.3-0.1,8.3-1.7,11.3c-1.7,3-4,5-5.9,6.3
							c-2,1.3-3.7,2.1-4.9,2.5c-1.2,0.4-1.8,0.6-1.8,0.6s0.2-0.1,0.5-0.2c0.3-0.1,0.8-0.3,1.3-0.5c1.2-0.5,2.9-1.2,4.8-2.6
							c1.9-1.4,4.2-3.4,5.8-6.3c1.6-2.9,2.5-6.9,1.6-11c-0.5-2-1.4-4.1-3-5.8c-1.5-1.7-3.5-3.2-5.7-4.2c-4.5-2.2-9.9-3-15.5-2.9
							c-5.6,0.1-11.5,1.1-17.6,1.7c-3.1,0.3-6.2,0.6-9.4,0.5c-1.6,0-3.2-0.1-4.8-0.3c-1.6-0.2-3.3-0.5-4.7-1.3
							c-1.5-0.8-2.7-2.2-3-3.9c-0.2-0.8,0-1.7,0.3-2.5c0.4-0.8,0.9-1.4,1.6-1.9c1.3-1,3-1.4,4.6-1.4c1.6,0.1,3.2,0.6,4.5,1.5
							c1.3,0.9,2.4,2.1,3,3.6c0.6,1.5,0.6,3.1,0.3,4.5c-0.7,3-2.8,5.4-5.4,6.7c-2.6,1.3-5.5,1.7-8.1,1.4c-2.7-0.3-5.2-1.2-7.4-2.5
							c-1.1-0.7-2.1-1.4-2.9-2.3c-0.9-0.9-1.7-1.7-2.3-2.8c-0.5-1.1-0.8-2.2-1-3.3c-0.2-1.1-0.4-2.2-0.5-3.2
							c-0.5-4.2-0.8-8.1-1.1-11.5c-0.3-3.4-0.6-6.3-0.9-8.6c-0.3-2.4-0.7-4.2-1.1-5.4c-0.2-0.6-0.3-1.1-0.5-1.3
							C414,308.1,413.9,308,413.9,308z"/>
					</g>
				</g>
			</g>
			<g>
				<g>
					<path class="st3" d="M471.6,448.9c0,0,0-0.1,0-0.4c0-0.3,0-0.7,0-1.2c0-1.1,0-2.6,0-4.7c0-4.1,0-10.1-0.1-17.7
						c0-15.2-0.1-36.9-0.1-62.9l0.2,0.2c-23.6,0-51.2,0-80.7,0h0l0.3-0.3c0,32,0,61.8,0,86.9l-0.2-0.2c24.2,0,44.3,0.1,58.4,0.1
						c7.1,0,12.6,0,16.4,0.1c1.9,0,3.3,0,4.3,0C471,448.9,471.6,448.9,471.6,448.9s-0.5,0-1.5,0c-1,0-2.4,0-4.3,0
						c-3.8,0-9.3,0-16.3,0.1c-14.1,0-34.3,0.1-58.6,0.1l-0.2,0l0-0.2c0-25.1,0-55,0-86.9l0-0.3h0.3h0c29.4,0,57,0,80.7,0h0.2l0,0.2
						c0,26-0.1,47.8-0.1,63c0,7.6,0,13.6-0.1,17.7c0,2,0,3.6,0,4.6c0,0.5,0,0.9,0,1.2C471.6,448.7,471.6,448.9,471.6,448.9z"/>
				</g>
			</g>
		</g>
		<g>
			<g>
				<circle class="st3" cx="448.4" cy="372.6" r="0.4"/>
			</g>
			<g>
				<circle class="st3" cx="450.7" cy="372.6" r="0.4"/>
			</g>
			<g>
				<circle class="st3" cx="453" cy="372.6" r="0.4"/>
			</g>
			<g>
				<circle class="st3" cx="455.3" cy="372.6" r="0.4"/>
			</g>
			<g>
				<circle class="st3" cx="457.5" cy="372.6" r="0.4"/>
			</g>
			<g>
				<circle class="st3" cx="459.8" cy="372.6" r="0.4"/>
			</g>
			<g>
				<circle class="st3" cx="462.1" cy="372.6" r="0.4"/>
			</g>
			<g>
				<circle class="st3" cx="461" cy="374.2" r="0.4"/>
			</g>
			<g>
				<circle class="st3" cx="458.7" cy="374.2" r="0.4"/>
			</g>
			<g>
				<circle class="st3" cx="456.4" cy="374.2" r="0.4"/>
			</g>
			<g>
				<circle class="st3" cx="454.1" cy="374.2" r="0.4"/>
			</g>
			<g>
				<circle class="st3" cx="451.7" cy="374.2" r="0.4"/>
			</g>
			<g>
				<circle class="st3" cx="449.4" cy="374.2" r="0.4"/>
			</g>
			<g>
				<circle class="st3" cx="448.4" cy="375.9" r="0.4"/>
			</g>
			<g>
				<circle class="st3" cx="450.7" cy="375.9" r="0.4"/>
			</g>
			<g>
				<circle class="st3" cx="453" cy="375.9" r="0.4"/>
			</g>
			<g>
				<circle class="st3" cx="455.3" cy="375.9" r="0.4"/>
			</g>
			<g>
				<circle class="st3" cx="457.5" cy="375.9" r="0.4"/>
			</g>
			<g>
				<circle class="st3" cx="459.8" cy="375.9" r="0.4"/>
			</g>
			<g>
				<circle class="st3" cx="462.1" cy="375.9" r="0.4"/>
			</g>
			<g>
				<circle class="st3" cx="461" cy="377.4" r="0.4"/>
			</g>
			<g>
				<circle class="st3" cx="458.7" cy="377.4" r="0.4"/>
			</g>
			<g>
				<circle class="st3" cx="456.4" cy="377.4" r="0.4"/>
			</g>
			<g>
				<circle class="st3" cx="454.1" cy="377.4" r="0.4"/>
			</g>
			<g>
				<circle class="st3" cx="451.7" cy="377.4" r="0.4"/>
			</g>
			<g>
				<circle class="st3" cx="449.4" cy="377.4" r="0.4"/>
			</g>
			<g>
				<circle class="st3" cx="448.4" cy="379.2" r="0.4"/>
			</g>
			<g>
				<circle class="st3" cx="450.7" cy="379.2" r="0.4"/>
			</g>
			<g>
				<circle class="st3" cx="453" cy="379.2" r="0.4"/>
			</g>
			<g>
				<circle class="st3" cx="455.3" cy="379.2" r="0.4"/>
			</g>
			<g>
				<circle class="st3" cx="457.5" cy="379.2" r="0.4"/>
			</g>
			<g>
				<circle class="st3" cx="459.8" cy="379.2" r="0.4"/>
			</g>
			<g>
				<circle class="st3" cx="462.1" cy="379.2" r="0.4"/>
			</g>
			<g>
				<circle class="st3" cx="461" cy="380.7" r="0.4"/>
			</g>
			<g>
				<circle class="st3" cx="458.7" cy="380.7" r="0.4"/>
			</g>
			<g>
				<circle class="st3" cx="456.4" cy="380.7" r="0.4"/>
			</g>
			<g>
				<circle class="st3" cx="454.1" cy="380.7" r="0.4"/>
			</g>
			<g>
				<circle class="st3" cx="451.7" cy="380.7" r="0.4"/>
			</g>
			<g>
				<circle class="st3" cx="449.4" cy="380.7" r="0.4"/>
			</g>
		</g>
	</g>
	<g>
		<g>
			<g>
				<path class="st10" d="M417.3,279.2c0,0,0.6,0,1.6,0.3c1,0.3,2.5,1.1,3.9,2.6c1.4,1.5,2.6,3.8,3.5,6.6c0.9,2.8,1.7,6,2.2,9.7
					c1.1,7.3,1.3,16.1,0.6,25.8c-0.2,2.4-0.8,5-2.2,7.1c-0.7,1.1-1.7,2-2.8,2.7c-1.1,0.7-2.5,1.1-3.9,0.9c-1.4-0.1-2.7-0.7-3.7-1.7
					c-0.5-0.5-0.9-1.1-1.1-1.8c-0.2-0.7-0.2-1.5,0-2.2c0.4-1.4,1.4-2.6,2.8-3.1c0.7-0.3,1.5-0.2,2.2,0c0.7,0.3,1.3,0.7,1.8,1.3
					c0.9,1.2,1.2,2.7,1,4.1c-0.2,1.4-0.8,2.7-1.4,3.9c-1.4,2.4-3.4,4.4-5.7,5.7c-4.7,2.7-10.5,2.6-14.8,0.2c-2.2-1.2-4-2.8-5.4-4.7
					c-1.4-1.8-2.5-3.8-3.3-5.9c-1.6-4.1-2-8.1-2.2-11.8c-0.2-3.7,0-7-0.4-9.9c-0.2-1.4-0.5-2.8-0.9-3.9c-0.4-1.2-1-2.1-1.7-2.9
					c-1.3-1.6-2.7-2.4-3.7-2.7c-1-0.3-1.6-0.3-1.6-0.4c0,0,0.6,0,1.6,0.3c1,0.3,2.5,1.1,3.8,2.7c0.7,0.8,1.3,1.8,1.7,3
					c0.5,1.2,0.8,2.5,1,4c0.4,2.9,0.2,6.2,0.4,9.9c0.2,3.6,0.7,7.7,2.2,11.7c0.8,2,1.8,4,3.2,5.7c1.4,1.8,3.2,3.4,5.3,4.5
					c4.2,2.3,9.8,2.4,14.3-0.2c2.2-1.3,4.2-3.2,5.5-5.6c0.6-1.2,1.2-2.4,1.4-3.7c0.2-1.3-0.1-2.7-0.9-3.8c-0.4-0.5-0.9-0.9-1.5-1.2
					c-0.6-0.2-1.3-0.2-1.9,0c-1.2,0.4-2.1,1.6-2.5,2.8c-0.4,1.2,0.1,2.6,1,3.5c0.9,0.9,2.1,1.4,3.4,1.6c1.3,0.1,2.5-0.2,3.6-0.9
					c1.1-0.6,2-1.6,2.7-2.6c1.4-2.1,1.9-4.5,2.2-6.9c0.7-9.6,0.5-18.4-0.5-25.6c-0.5-3.6-1.3-6.9-2.1-9.6c-0.8-2.8-2-5-3.4-6.5
					c-1.4-1.5-2.8-2.3-3.8-2.6C417.9,279.2,417.3,279.2,417.3,279.2z"/>
			</g>
		</g>
		<g>
			<rect x="376.2" y="293.7" class="st10" width="33.2" height="6.3"/>
		</g>
	</g>
	<g>
		<g>
			<g>
				<rect x="126.3" y="359.1" class="st3" width="43.3" height="93.3"/>
			</g>
			<g>
				<g>
					<path class="st2" d="M165.9,442.6c0,0,0-0.1,0-0.4c0-0.3,0-0.7,0-1.2c0-1,0-2.5,0-4.5c0-3.9,0-9.6-0.1-16.7
						c0-14.2-0.1-34.2-0.1-57.5l0.2,0.2c-11.2,0-23.5,0-36.2,0h0l0.3-0.3c0,31.2-0.1,59.5-0.1,80.2l-0.2-0.2
						c11.2,0,20.2,0.1,26.5,0.1c3.1,0,5.6,0,7.2,0c0.8,0,1.4,0,1.9,0C165.7,442.5,165.9,442.6,165.9,442.6s-0.2,0-0.6,0
						c-0.4,0-1.1,0-1.9,0c-1.7,0-4.1,0-7.2,0c-6.3,0-15.4,0.1-26.6,0.1l-0.2,0l0-0.2c0-20.8,0-49.1-0.1-80.2l0-0.3h0.3h0
						c12.7,0,25,0,36.2,0h0.2l0,0.2c0,23.4-0.1,43.4-0.1,57.7c0,7.1-0.1,12.7-0.1,16.6c0,1.9,0,3.4,0,4.4c0,0.5,0,0.9,0,1.1
						C165.9,442.4,165.9,442.6,165.9,442.6z"/>
				</g>
			</g>
			<g>
				<g>
					<path class="st2" d="M163.7,369.1c0,0,0-0.3,0-1c0-0.7,0-1.6-0.1-2.7l0.1,0.1c-5.6,0.1-17.6,0.1-31.5,0.1h0
						c0.1-0.1-0.3,0.3,0.3-0.3v0v0v0v0v0v0.1v0.1v0.2l0,0.5c0,0.3,0,0.6,0,0.9c0,0.6,0,1.2,0,1.8l-0.3-0.3c8.8,0,16.7,0.1,22.3,0.1
						c2.8,0,5.1,0.1,6.7,0.1c0.8,0,1.4,0,1.8,0C163.5,369.1,163.7,369.1,163.7,369.1c0,0-0.2,0-0.6,0c-0.5,0-1,0-1.8,0
						c-1.6,0-3.9,0-6.6,0.1c-5.7,0.1-13.6,0.1-22.5,0.1l-0.3,0l0-0.3c0-0.6,0-1.2,0-1.8c0-0.3,0-0.6,0-0.9l0-0.5v-0.2v-0.1v-0.1v0v0
						v0v0v0c0.5-0.5,0.1-0.1,0.3-0.3h0c13.9,0,25.9,0.1,31.5,0.1l0.1,0l0,0.1c0,1.2,0,2.1-0.1,2.8
						C163.7,368.8,163.7,369.1,163.7,369.1z"/>
				</g>
			</g>
			<g>
				<g>
					<ellipse class="st2" cx="133.9" cy="371.8" rx="1.5" ry="0.3"/>
				</g>
			</g>
			<g>
				<g>
					<ellipse class="st2" cx="147.9" cy="376.6" rx="15" ry="0.3"/>
				</g>
			</g>
			<g>
				<g>
					<ellipse class="st2" cx="148.3" cy="382.4" rx="14.7" ry="0.3"/>
				</g>
			</g>
			<g>
				<circle class="st4" cx="147.9" cy="396" r="2.4"/>
			</g>
			<g>
				<g>
					<ellipse class="st2" cx="138" cy="395.9" rx="3.2" ry="0.3"/>
				</g>
			</g>
			<g>
				<g>
					<ellipse class="st2" cx="157.5" cy="395.3" rx="3" ry="0.3"/>
				</g>
			</g>
		</g>
		<g>
			<g>
				<path class="st3" d="M127.8,405.9c0,0-0.6,0-1.6-0.3c-1-0.3-2.6-0.8-4.3-2c-1.7-1.1-3.6-2.9-5.2-5.4c-1.6-2.5-2.9-5.6-3.8-9.2
					c-0.9-3.6-1.5-7.6-1.2-11.9c0.3-4.3,1.6-9,4.5-12.9c1.4-2,3.3-3.8,5.4-5.2c1.1-0.7,2.3-1.3,3.5-1.7c1.2-0.4,2.5-0.7,3.9-0.9
					c2.6-0.4,5.3-0.3,8.1-0.5c2.7-0.2,5.5-0.6,7.9-1.8c2.5-1.2,4.4-3.4,4.9-6c0.6-2.6-0.1-5.4-1.8-7.3c-1.7-1.9-4.2-3.1-6.6-3
					c-1.2,0.1-2.4,0.5-3.3,1.2c-0.9,0.7-1.5,1.9-1.4,3c0.2,2.3,2.3,4.2,4.5,4.3c2.2,0.2,4.3-1,5.7-2.6c1.4-1.6,2.2-3.5,2.8-5.4
					c0.5-1.9,0.9-3.8,1.2-5.6c1-7.3,0.7-13.2,0.5-17.3c-0.1-2-0.2-3.6-0.2-4.7c0-0.5,0-0.9-0.1-1.2c0-0.3,0-0.4,0-0.4
					c0,0,0,0.1,0.1,0.4c0,0.3,0.1,0.7,0.1,1.2c0.1,1.1,0.2,2.7,0.3,4.7c0.2,4.1,0.6,10.1-0.4,17.4c-0.3,1.8-0.6,3.7-1.1,5.7
					c-0.5,1.9-1.4,3.9-2.8,5.6c-1.5,1.6-3.6,2.9-6.1,2.7c-2.4-0.1-4.7-2.1-4.9-4.7c-0.1-1.3,0.5-2.6,1.6-3.4c1-0.8,2.3-1.3,3.6-1.4
					c2.6-0.2,5.3,1.1,7.1,3.1c1.8,2,2.5,5,1.9,7.8c-0.3,1.4-0.9,2.7-1.8,3.8c-0.9,1.1-2.1,2-3.3,2.6c-2.6,1.3-5.4,1.7-8.1,1.9
					c-2.7,0.2-5.4,0.1-8,0.5c-1.3,0.2-2.6,0.5-3.8,0.9c-1.2,0.4-2.3,1-3.4,1.7c-2.1,1.4-3.9,3.1-5.3,5c-2.9,3.9-4.2,8.4-4.5,12.7
					c-0.3,4.3,0.2,8.3,1.1,11.8c0.9,3.5,2.1,6.6,3.7,9.1c1.5,2.5,3.4,4.2,5,5.4c1.7,1.2,3.2,1.7,4.2,2.1c0.5,0.2,0.9,0.2,1.2,0.3
					C127.7,405.9,127.8,405.9,127.8,405.9z"/>
			</g>
		</g>
	</g>
	<g>
		<g>
			<rect x="113.1" y="214.4" class="st3" width="102.6" height="70.5"/>
		</g>
		<g>
			<rect x="156.4" y="275.3" class="st3" width="14" height="26.6"/>
		</g>
	</g>
</g>
<g id="Desk">
	<g>
		<g>
			<polygon class="st3" points="123.3,300.8 123.3,310.4 176.2,310.4 176.2,452.8 181.1,452.8 181.1,310.4 402.2,311.5 402.2,452.8 
				406.9,452.8 406.9,311.2 441.1,311.5 441.1,300 			"/>
		</g>
		<g>
			<polygon class="st3" points="157.1,308.5 178,323.6 176.2,325.3 155.2,309.4 			"/>
		</g>
		<g>
			<polygon class="st3" points="426.6,309.9 402.4,327.2 404.2,328.9 428.6,310.9 			"/>
		</g>
		<g>
			<rect x="200.3" y="297.3" class="st3" width="54.7" height="4"/>
		</g>
	</g>
	<path id="webflow_w" class="st1" d="M346.5,271c0,0-2,6.4-2.2,7c-0.1-0.5-1.6-12.1-1.6-12.1c-3.5,0-5.3,2.5-6.3,5.1
		c0,0-2.5,6.5-2.7,7c0-0.5-0.4-6.9-0.4-6.9c-0.2-3.2-3.2-5.2-5.6-5.2l2.9,17.5c3.7,0,5.6-2.5,6.6-5.1c0,0,2.2-5.7,2.3-6
		c0,0.2,1.6,11.1,1.6,11.1c3.7,0,5.6-2.3,6.7-4.9l5.1-12.7C349.4,265.9,347.5,268.4,346.5,271z"/>
	<path id="webflow_w_1_" class="st1" d="M172,247.8c0,0-2.7,9.6-2.9,10.4c-0.1-0.8-3-17.8-3-17.8c-5.2,0.2-7.8,4-9.1,7.9
		c0,0-3.3,9.7-3.6,10.5c0-0.8-0.9-10.2-0.9-10.2c-0.5-4.8-4.9-7.5-8.5-7.4l5.2,25.7c5.4-0.2,8.2-4,9.6-7.9c0,0,2.9-8.5,3.1-8.9
		c0,0.4,2.9,16.3,2.9,16.3c5.4-0.2,8.2-3.7,9.7-7.6l6.9-19C176,240.1,173.3,243.8,172,247.8z"/>
</g>
</svg>
