<svg width="318" height="38" viewBox="0 0 318 38" fill="none" xmlns="http://www.w3.org/2000/svg">
<g filter="url(#filter0_d_46_26)">
<path d="M28.776 2.4C30.248 2.592 31.4107 3.06133 32.264 3.808C33.1387 4.55467 33.7147 5.41867 33.992 6.4C34.2693 7.38133 34.248 8.34133 33.928 9.28C33.8 9.64267 33.608 10.24 33.352 11.072C33.096 11.8827 32.7973 12.832 32.456 13.92C32.136 15.008 31.7947 16.128 31.432 17.28C31.0907 18.432 30.76 19.52 30.44 20.544C30.12 21.568 29.8427 22.432 29.608 23.136C29.3947 23.84 29.2453 24.288 29.16 24.48C28.776 25.3547 28.392 26.0373 28.008 26.528C27.6453 27.0187 27.2187 27.3813 26.728 27.616C26.2587 27.8293 25.6613 27.968 24.936 28.032C24.424 28.0747 23.944 27.968 23.496 27.712C23.0693 27.4347 22.696 27.104 22.376 26.72C22.0773 26.336 21.864 26.016 21.736 25.76C21.864 25.632 21.896 25.376 21.832 24.992C21.7893 24.608 21.6933 24.1707 21.544 23.68C21.3947 23.168 21.2347 22.688 21.064 22.24C20.8933 21.7707 20.7547 21.408 20.648 21.152C20.4347 20.6187 20.1893 20.2773 19.912 20.128C19.656 19.9573 19.4107 19.8827 19.176 19.904C18.92 19.9253 18.6533 20.0533 18.376 20.288C18.12 20.5227 17.9387 20.8533 17.832 21.28C17.768 21.5573 17.6613 21.952 17.512 22.464C17.3627 22.9547 17.224 23.424 17.096 23.872C16.968 24.2987 16.8933 24.5653 16.872 24.672C16.616 25.568 16.3813 26.2293 16.168 26.656C15.9547 27.0613 15.7307 27.3387 15.496 27.488C15.2827 27.616 15.0053 27.7333 14.664 27.84C14.1733 27.9253 13.6507 27.9147 13.096 27.808C12.5627 27.7013 12.04 27.5307 11.528 27.296C11.0373 27.04 10.6107 26.7733 10.248 26.496C9.90667 26.2187 9.68267 25.9733 9.576 25.76C9.85333 25.5253 9.94933 25.2267 9.864 24.864C9.8 24.5013 9.72533 24.2133 9.64 24C9.42667 23.4453 9.13867 22.656 8.776 21.632C8.41333 20.608 7.99733 19.456 7.528 18.176C7.08 16.8747 6.61067 15.5307 6.12 14.144C5.65067 12.736 5.18133 11.3813 4.712 10.08C4.264 8.75733 3.848 7.57333 3.464 6.528C3.10133 5.48267 2.81333 4.65067 2.6 4.032C2.38667 3.392 2.28 3.072 2.28 3.072C2.6 3.02933 3.10133 2.98667 3.784 2.944C4.46667 2.88 5.20267 2.88 5.992 2.944C6.78133 2.98667 7.51733 3.14667 8.2 3.424C8.904 3.70133 9.42667 4.14933 9.768 4.768C9.85333 4.896 9.98133 5.25867 10.152 5.856C10.3227 6.432 10.5147 7.11467 10.728 7.904C10.9413 8.672 11.144 9.45067 11.336 10.24C11.5493 11.008 11.72 11.6693 11.848 12.224C11.9973 12.7787 12.0827 13.1093 12.104 13.216C12.2533 13.7493 12.4347 14.1547 12.648 14.432C12.8827 14.688 13.1067 14.8373 13.32 14.88C13.7893 14.9867 14.2053 14.6027 14.568 13.728C14.6107 13.6427 14.6853 13.3653 14.792 12.896C14.92 12.4053 15.0693 11.7973 15.24 11.072C15.4107 10.3467 15.5813 9.58933 15.752 8.8C15.944 7.98933 16.1147 7.22133 16.264 6.496C16.4133 5.77067 16.5307 5.16267 16.616 4.672C16.7227 4.16 16.776 3.86133 16.776 3.776C17.096 3.52 17.544 3.38133 18.12 3.36C18.696 3.33867 19.2507 3.44533 19.784 3.68C20.3387 3.89333 20.712 4.26667 20.904 4.8C20.968 4.992 21.096 5.41867 21.288 6.08C21.5013 6.74133 21.7467 7.53067 22.024 8.448C22.3227 9.344 22.6213 10.272 22.92 11.232C23.24 12.1707 23.5493 13.024 23.848 13.792C24.2533 14.8587 24.7227 15.4133 25.256 15.456C25.832 15.4987 26.312 14.944 26.696 13.792C26.888 13.1947 27.08 12.5227 27.272 11.776C27.464 11.008 27.6347 10.2293 27.784 9.44C27.9547 8.65067 28.104 7.936 28.232 7.296C28.3813 6.63467 28.5093 6.12267 28.616 5.76C28.808 5.01333 28.904 4.37333 28.904 3.84C28.9253 3.30667 28.8827 2.82667 28.776 2.4ZM51.9067 19.968C52.4401 20.3307 52.7814 20.8533 52.9307 21.536C53.1014 22.1973 53.0801 22.9227 52.8667 23.712C52.6747 24.5013 52.2801 25.2587 51.6827 25.984C51.0854 26.688 50.2747 27.2747 49.2507 27.744C48.2481 28.2133 47.0321 28.4587 45.6027 28.48C44.4081 28.5013 43.2347 28.352 42.0827 28.032C40.9521 27.712 39.9174 27.2213 38.9787 26.56C38.0614 25.8987 37.3147 25.0453 36.7387 24C36.1627 22.9547 35.8427 21.7067 35.7787 20.256C35.7574 19.9573 35.7574 19.648 35.7787 19.328C35.8001 19.008 35.8214 18.6773 35.8427 18.336C35.8427 18.2507 35.8427 18.1653 35.8427 18.08C35.8641 17.9947 35.8854 17.9093 35.9067 17.824C36.1201 16.544 36.5574 15.3707 37.2187 14.304C37.9014 13.2373 38.7334 12.3307 39.7147 11.584C40.6961 10.8373 41.7414 10.2933 42.8507 9.952C43.9814 9.58933 45.0907 9.46133 46.1787 9.568C47.8641 9.73867 49.1654 10.1867 50.0827 10.912C51.0214 11.6373 51.6294 12.5333 51.9067 13.6C52.2054 14.6453 52.2161 15.776 51.9387 16.992C51.7894 17.5893 51.4481 18.1867 50.9147 18.784C50.4027 19.36 49.7627 19.8827 48.9947 20.352C48.2267 20.8 47.4054 21.152 46.5307 21.408C45.6774 21.6427 44.8454 21.7387 44.0347 21.696C43.6294 21.6747 43.4161 21.8027 43.3947 22.08C43.3734 22.336 43.4907 22.624 43.7467 22.944C44.0027 23.2427 44.3441 23.4453 44.7707 23.552C45.7734 23.7653 46.7121 23.776 47.5867 23.584C48.4827 23.3707 49.1654 23.0827 49.6347 22.72C50.0187 22.4213 50.4241 22.0267 50.8507 21.536C51.2774 21.024 51.6294 20.5013 51.9067 19.968ZM44.8987 16.736C45.3894 16.6933 45.8161 16.544 46.1787 16.288C46.5627 16.0107 46.7547 15.7227 46.7547 15.424C46.7761 14.9973 46.6694 14.656 46.4347 14.4C46.2214 14.1227 45.8481 13.9947 45.3147 14.016C44.7174 14.0373 44.1414 14.1227 43.5867 14.272C43.0321 14.4213 42.7014 14.7307 42.5947 15.2C42.5307 15.52 42.6267 15.7973 42.8827 16.032C43.1387 16.2667 43.4587 16.448 43.8427 16.576C44.2267 16.6827 44.5787 16.736 44.8987 16.736ZM74.5985 24.032C74.9612 24.4587 75.4945 24.7573 76.1985 24.928C76.0918 25.376 75.9532 25.856 75.7825 26.368C75.6332 26.88 75.3878 27.328 75.0465 27.712C74.7265 28.096 74.2572 28.3413 73.6385 28.448C73.3612 28.512 73.0092 28.4907 72.5825 28.384C72.1558 28.2773 71.6438 28.1493 71.0465 28C70.6625 27.8933 70.1718 27.872 69.5745 27.936C68.9772 27.9787 68.4118 28.0427 67.8785 28.128C67.3665 28.2133 67.0252 28.2773 66.8545 28.32C66.6198 28.384 66.3852 28.416 66.1505 28.416C65.9158 28.4373 65.6812 28.448 65.4465 28.448C64.3372 28.448 63.2385 28.256 62.1505 27.872C61.0838 27.4667 60.1238 26.848 59.2705 26.016C58.4172 25.184 57.7665 24.128 57.3185 22.848C56.8918 21.568 56.7745 20.032 56.9665 18.24C57.0945 17.0027 57.4252 15.8507 57.9585 14.784C58.5132 13.7173 59.1958 12.7893 60.0065 12C60.8172 11.1893 61.6812 10.5707 62.5985 10.144C63.5372 9.696 64.4545 9.472 65.3505 9.472C65.5425 9.472 65.7238 9.472 65.8945 9.472C66.0865 9.472 66.2678 9.46133 66.4385 9.44C66.8225 9.376 67.1958 9.16267 67.5585 8.8C67.9212 8.43733 68.1665 7.98933 68.2945 7.456C68.3585 7.15733 68.4012 6.80533 68.4225 6.4C68.4438 5.99467 68.4545 5.74933 68.4545 5.664C68.5185 5.17333 68.6998 4.75733 68.9985 4.416C69.2972 4.05333 69.6492 3.76533 70.0545 3.552C70.6092 3.25333 71.2172 3.04 71.8785 2.912C72.5398 2.784 73.1478 2.72 73.7025 2.72C74.2785 2.69867 74.7052 2.72 74.9825 2.784C74.9612 2.912 74.9185 3.37066 74.8545 4.16C74.7905 4.94933 74.7158 5.94133 74.6305 7.136C74.5452 8.33067 74.4598 9.64267 74.3745 11.072C74.2892 12.48 74.2145 13.8987 74.1505 15.328C74.1078 16.7573 74.0865 18.0907 74.0865 19.328C74.0865 20.5653 74.1292 21.6 74.2145 22.432C74.2998 23.264 74.4278 23.7973 74.5985 24.032ZM62.6945 19.296C62.6305 20.128 62.7265 20.8213 62.9825 21.376C63.2598 21.9093 63.6012 22.3147 64.0065 22.592C64.4332 22.848 64.8492 22.9867 65.2545 23.008C66.0225 23.0293 66.6092 22.8373 67.0145 22.432C67.4412 22.0053 67.7292 21.4507 67.8785 20.768C68.0278 20.064 68.1025 19.3173 68.1025 18.528C68.1025 17.3333 67.8678 16.4693 67.3985 15.936C66.9292 15.4027 66.1932 15.168 65.1905 15.232C64.5505 15.2747 63.9958 15.584 63.5265 16.16C63.0785 16.736 62.8012 17.7813 62.6945 19.296ZM97.4662 23.936C97.4876 24.8747 97.6262 25.536 97.8822 25.92C98.1596 26.2827 98.2982 26.464 98.2982 26.464C98.2982 26.464 98.1062 26.6027 97.7222 26.88C97.3596 27.136 96.8689 27.4027 96.2502 27.68C95.6316 27.9573 94.9382 28.096 94.1702 28.096C93.0396 28.096 92.3036 27.7867 91.9622 27.168C91.6209 26.5493 91.4396 25.7493 91.4182 24.768C91.4182 24.5973 91.4289 24.224 91.4502 23.648C91.4716 23.072 91.4822 22.4213 91.4822 21.696C91.5036 20.9493 91.5036 20.2667 91.4822 19.648C91.4609 19.008 91.4182 18.56 91.3542 18.304C91.1196 17.4507 90.6609 17.0773 89.9782 17.184C89.4449 17.248 88.9436 17.5573 88.4742 18.112C88.0049 18.6453 87.6209 19.2853 87.3222 20.032C87.0236 20.7787 86.8742 21.4827 86.8742 22.144C86.8742 22.4853 86.8529 22.8267 86.8102 23.168C86.7889 23.488 86.7676 23.7867 86.7462 24.064C86.7249 24.256 86.7462 24.4907 86.8102 24.768C86.8956 25.0453 87.0449 25.2693 87.2582 25.44C87.1089 25.696 86.8102 26.0267 86.3622 26.432C85.9356 26.8373 85.4662 27.2107 84.9542 27.552C84.4636 27.872 84.0369 28.0533 83.6742 28.096C83.3329 28.1173 82.9276 28.0107 82.4582 27.776C82.0102 27.5413 81.6156 27.1893 81.2742 26.72C80.9542 26.2507 80.7836 25.6853 80.7622 25.024C80.7622 24.8533 80.7622 24.4587 80.7622 23.84C80.7836 23.2213 80.7942 22.4747 80.7942 21.6C80.8156 20.7253 80.8262 19.7973 80.8262 18.816C80.8476 17.8347 80.8582 16.8853 80.8582 15.968C80.8582 15.0507 80.8582 14.2613 80.8582 13.6C80.8582 13.024 80.7836 12.4693 80.6342 11.936C80.5062 11.3813 80.3676 10.9333 80.2182 10.592C80.0902 10.2293 80.0262 10.048 80.0262 10.048C80.2182 10.0053 80.5489 9.97333 81.0182 9.952C81.5089 9.93067 82.0529 9.94133 82.6502 9.984C83.2476 10.0267 83.8342 10.1227 84.4102 10.272C85.0076 10.4213 85.5089 10.656 85.9142 10.976C86.3409 11.296 86.7676 11.4987 87.1942 11.584C87.6422 11.648 87.9942 11.6053 88.2502 11.456C88.9969 10.9653 89.7542 10.5387 90.5222 10.176C91.2902 9.81333 92.0369 9.58933 92.7622 9.504C93.1249 9.46133 93.5516 9.48267 94.0422 9.568C94.5329 9.632 95.0129 9.792 95.4822 10.048C95.9729 10.304 96.3889 10.6667 96.7302 11.136C97.0929 11.6053 97.3169 12.2027 97.4022 12.928C97.5516 14.1653 97.5942 15.68 97.5302 17.472C97.4662 19.2427 97.4449 21.3973 97.4662 23.936ZM118.278 19.968C118.811 20.3307 119.153 20.8533 119.302 21.536C119.473 22.1973 119.451 22.9227 119.238 23.712C119.046 24.5013 118.651 25.2587 118.054 25.984C117.457 26.688 116.646 27.2747 115.622 27.744C114.619 28.2133 113.403 28.4587 111.974 28.48C110.779 28.5013 109.606 28.352 108.454 28.032C107.323 27.712 106.289 27.2213 105.35 26.56C104.433 25.8987 103.686 25.0453 103.11 24C102.534 22.9547 102.214 21.7067 102.15 20.256C102.129 19.9573 102.129 19.648 102.15 19.328C102.171 19.008 102.193 18.6773 102.214 18.336C102.214 18.2507 102.214 18.1653 102.214 18.08C102.235 17.9947 102.257 17.9093 102.278 17.824C102.491 16.544 102.929 15.3707 103.59 14.304C104.273 13.2373 105.105 12.3307 106.086 11.584C107.067 10.8373 108.113 10.2933 109.222 9.952C110.353 9.58933 111.462 9.46133 112.55 9.568C114.235 9.73867 115.537 10.1867 116.454 10.912C117.393 11.6373 118.001 12.5333 118.278 13.6C118.577 14.6453 118.587 15.776 118.31 16.992C118.161 17.5893 117.819 18.1867 117.286 18.784C116.774 19.36 116.134 19.8827 115.366 20.352C114.598 20.8 113.777 21.152 112.902 21.408C112.049 21.6427 111.217 21.7387 110.406 21.696C110.001 21.6747 109.787 21.8027 109.766 22.08C109.745 22.336 109.862 22.624 110.118 22.944C110.374 23.2427 110.715 23.4453 111.142 23.552C112.145 23.7653 113.083 23.776 113.958 23.584C114.854 23.3707 115.537 23.0827 116.006 22.72C116.39 22.4213 116.795 22.0267 117.222 21.536C117.649 21.024 118.001 20.5013 118.278 19.968ZM111.27 16.736C111.761 16.6933 112.187 16.544 112.55 16.288C112.934 16.0107 113.126 15.7227 113.126 15.424C113.147 14.9973 113.041 14.656 112.806 14.4C112.593 14.1227 112.219 13.9947 111.686 14.016C111.089 14.0373 110.513 14.1227 109.958 14.272C109.403 14.4213 109.073 14.7307 108.966 15.2C108.902 15.52 108.998 15.7973 109.254 16.032C109.51 16.2667 109.83 16.448 110.214 16.576C110.598 16.6827 110.95 16.736 111.27 16.736ZM131.626 9.408C133.204 9.408 134.548 9.632 135.658 10.08C136.788 10.528 137.652 11.0827 138.25 11.744C138.847 12.4053 139.135 13.056 139.114 13.696C139.114 14.0373 138.964 14.4213 138.666 14.848C138.367 15.2747 137.972 15.6373 137.482 15.936C137.012 16.2133 136.49 16.32 135.914 16.256C136.063 15.872 135.967 15.5093 135.626 15.168C135.284 14.8267 134.794 14.5493 134.154 14.336C133.514 14.1013 132.82 13.9733 132.074 13.952C131.22 13.9093 130.644 14.0053 130.346 14.24C130.047 14.4533 129.876 14.688 129.834 14.944C129.77 15.2213 129.898 15.4667 130.218 15.68C130.538 15.872 130.954 16.0533 131.466 16.224C131.999 16.3733 132.554 16.512 133.13 16.64C133.727 16.7467 134.271 16.8427 134.762 16.928C135.274 17.0133 135.668 17.0987 135.946 17.184C137.226 17.568 138.164 18.0693 138.762 18.688C139.359 19.2853 139.743 19.9253 139.914 20.608C140.106 21.2907 140.18 21.9627 140.138 22.624C140.095 23.6907 139.818 24.5867 139.306 25.312C138.815 26.016 138.196 26.5813 137.45 27.008C136.724 27.4347 135.956 27.7547 135.146 27.968C134.356 28.16 133.61 28.288 132.906 28.352C132.223 28.416 131.7 28.448 131.338 28.448C130.228 28.4267 129.183 28.3093 128.202 28.096C127.242 27.904 126.41 27.648 125.706 27.328C125.023 27.008 124.532 26.6667 124.234 26.304C124.02 26.048 123.818 25.6853 123.626 25.216C123.434 24.7467 123.316 24.2453 123.274 23.712C123.252 23.1573 123.37 22.6347 123.626 22.144C123.882 21.632 124.351 21.216 125.034 20.896C125.162 21.3227 125.503 21.7067 126.058 22.048C126.634 22.3893 127.316 22.6667 128.106 22.88C128.916 23.0933 129.716 23.2427 130.506 23.328C131.274 23.392 131.999 23.3813 132.682 23.296C133.364 23.2107 133.738 22.9653 133.802 22.56C133.844 22.3467 133.738 22.1333 133.482 21.92C133.226 21.7067 132.756 21.5253 132.074 21.376C131.348 21.2053 130.708 21.0773 130.154 20.992C129.62 20.8853 129.087 20.768 128.554 20.64C127.551 20.384 126.676 19.9787 125.93 19.424C125.183 18.8693 124.618 18.208 124.234 17.44C123.871 16.6507 123.743 15.8187 123.85 14.944C124.02 13.6853 124.479 12.6507 125.226 11.84C125.994 11.0293 126.943 10.4213 128.074 10.016C129.204 9.61067 130.388 9.408 131.626 9.408ZM161.687 24.032C162.05 24.4587 162.583 24.7573 163.287 24.928C163.181 25.376 163.042 25.856 162.871 26.368C162.722 26.88 162.477 27.328 162.135 27.712C161.815 28.096 161.346 28.3413 160.727 28.448C160.45 28.512 160.098 28.4907 159.671 28.384C159.245 28.2773 158.733 28.1493 158.135 28C157.751 27.8933 157.261 27.872 156.663 27.936C156.066 27.9787 155.501 28.0427 154.967 28.128C154.455 28.2133 154.114 28.2773 153.943 28.32C153.709 28.384 153.474 28.416 153.239 28.416C153.005 28.4373 152.77 28.448 152.535 28.448C151.426 28.448 150.327 28.256 149.239 27.872C148.173 27.4667 147.213 26.848 146.359 26.016C145.506 25.184 144.855 24.128 144.407 22.848C143.981 21.568 143.863 20.032 144.055 18.24C144.183 17.0027 144.514 15.8507 145.047 14.784C145.602 13.7173 146.285 12.7893 147.095 12C147.906 11.1893 148.77 10.5707 149.687 10.144C150.626 9.696 151.543 9.472 152.439 9.472C152.631 9.472 152.813 9.472 152.983 9.472C153.175 9.472 153.357 9.46133 153.527 9.44C153.911 9.376 154.285 9.16267 154.647 8.8C155.01 8.43733 155.255 7.98933 155.383 7.456C155.447 7.15733 155.49 6.80533 155.511 6.4C155.533 5.99467 155.543 5.74933 155.543 5.664C155.607 5.17333 155.789 4.75733 156.087 4.416C156.386 4.05333 156.738 3.76533 157.143 3.552C157.698 3.25333 158.306 3.04 158.967 2.912C159.629 2.784 160.237 2.72 160.791 2.72C161.367 2.69867 161.794 2.72 162.071 2.784C162.05 2.912 162.007 3.37066 161.943 4.16C161.879 4.94933 161.805 5.94133 161.719 7.136C161.634 8.33067 161.549 9.64267 161.463 11.072C161.378 12.48 161.303 13.8987 161.239 15.328C161.197 16.7573 161.175 18.0907 161.175 19.328C161.175 20.5653 161.218 21.6 161.303 22.432C161.389 23.264 161.517 23.7973 161.687 24.032ZM149.783 19.296C149.719 20.128 149.815 20.8213 150.071 21.376C150.349 21.9093 150.69 22.3147 151.095 22.592C151.522 22.848 151.938 22.9867 152.343 23.008C153.111 23.0293 153.698 22.8373 154.103 22.432C154.53 22.0053 154.818 21.4507 154.967 20.768C155.117 20.064 155.191 19.3173 155.191 18.528C155.191 17.3333 154.957 16.4693 154.487 15.936C154.018 15.4027 153.282 15.168 152.279 15.232C151.639 15.2747 151.085 15.584 150.615 16.16C150.167 16.736 149.89 17.7813 149.783 19.296ZM183.81 22.208C183.832 22.6773 183.864 23.2533 183.906 23.936C183.97 24.6187 184.109 25.28 184.322 25.92C184.536 26.56 184.877 27.072 185.346 27.456C184.813 27.8187 184.269 28.0747 183.714 28.224C183.16 28.3947 182.616 28.4373 182.082 28.352C181.933 28.3093 181.773 28.256 181.602 28.192C181.432 28.1493 181.197 28.0853 180.898 28C180.408 27.8507 179.832 27.8187 179.17 27.904C178.509 27.9893 177.816 28.096 177.09 28.224C176.386 28.3733 175.693 28.448 175.01 28.448C173.901 28.448 172.792 28.256 171.682 27.872C170.573 27.4667 169.57 26.848 168.674 26.016C167.778 25.184 167.096 24.128 166.626 22.848C166.157 21.568 166.018 20.032 166.21 18.24C166.338 17.0027 166.69 15.872 167.266 14.848C167.842 13.8027 168.546 12.9067 169.378 12.16C170.232 11.392 171.128 10.8053 172.066 10.4C173.026 9.97333 173.954 9.77067 174.85 9.792C175.533 9.81333 176.056 9.83467 176.418 9.856C176.802 9.87733 177.293 9.93067 177.89 10.016C178.253 10.0587 178.712 10.0053 179.266 9.856C179.821 9.70667 180.376 9.54667 180.93 9.376C181.506 9.184 181.997 9.088 182.402 9.088C183.021 9.06667 183.458 9.088 183.714 9.152C183.97 9.19467 184.184 9.23733 184.354 9.28C184.226 9.664 184.12 10.24 184.034 11.008C183.949 11.776 183.885 12.6507 183.842 13.632C183.821 14.592 183.8 15.5947 183.778 16.64C183.757 17.6853 183.746 18.688 183.746 19.648C183.768 20.608 183.789 21.4613 183.81 22.208ZM171.778 19.264C171.821 20.3307 172.013 21.1627 172.354 21.76C172.717 22.336 173.144 22.7413 173.634 22.976C174.146 23.2107 174.637 23.328 175.106 23.328C176.045 23.3493 176.738 22.9867 177.186 22.24C177.634 21.4933 177.848 20.4587 177.826 19.136C177.826 18.7733 177.784 18.3467 177.698 17.856C177.634 17.3653 177.506 16.8853 177.314 16.416C177.144 15.9467 176.898 15.552 176.578 15.232C176.28 14.912 175.885 14.752 175.394 14.752C174.413 14.752 173.549 15.1147 172.802 15.84C172.077 16.5653 171.736 17.7067 171.778 19.264ZM200.472 9.632C201.944 9.824 203.011 10.2507 203.672 10.912C204.355 11.5733 204.739 12.352 204.824 13.248C204.931 14.144 204.835 15.0613 204.536 16C204.366 16.5333 204.11 17.216 203.768 18.048C203.448 18.8587 203.107 19.6907 202.744 20.544C202.403 21.3973 202.083 22.1653 201.784 22.848C201.486 23.5093 201.283 23.9787 201.176 24.256C200.835 25.0453 200.43 25.888 199.96 26.784C199.491 27.6587 198.968 28.48 198.392 29.248C197.838 30.016 197.251 30.6453 196.632 31.136C196.035 31.6267 195.448 31.872 194.872 31.872C194.104 31.872 193.475 31.68 192.984 31.296C192.515 30.912 192.163 30.432 191.928 29.856C191.694 29.3013 191.544 28.7573 191.48 28.224C192.035 28.3733 192.547 28.3627 193.016 28.192C193.486 28.0427 193.891 27.8187 194.232 27.52C194.552 27.2213 194.744 26.88 194.808 26.496C194.894 26.112 194.915 25.7707 194.872 25.472C194.766 24.2773 194.435 22.9867 193.88 21.6L189.176 9.952C189.496 9.90933 189.912 9.856 190.424 9.792C190.958 9.70667 191.512 9.696 192.088 9.76C192.686 9.80267 193.24 9.96267 193.752 10.24C194.286 10.496 194.723 10.9333 195.064 11.552C195.192 11.7653 195.342 12.096 195.512 12.544C195.704 12.9707 195.896 13.4293 196.088 13.92C196.302 14.3893 196.472 14.7947 196.6 15.136C196.835 15.648 197.08 16.064 197.336 16.384C197.614 16.6827 197.891 16.8427 198.168 16.864C198.403 16.8853 198.638 16.8 198.872 16.608C199.107 16.3947 199.299 16.128 199.448 15.808C199.576 15.5093 199.726 15.0613 199.896 14.464C200.067 13.8667 200.206 13.3653 200.312 12.96C200.504 12.2133 200.6 11.5733 200.6 11.04C200.622 10.5067 200.579 10.0373 200.472 9.632ZM217.09 9.408C218.668 9.408 220.012 9.632 221.122 10.08C222.252 10.528 223.116 11.0827 223.714 11.744C224.311 12.4053 224.599 13.056 224.578 13.696C224.578 14.0373 224.428 14.4213 224.13 14.848C223.831 15.2747 223.436 15.6373 222.946 15.936C222.476 16.2133 221.954 16.32 221.378 16.256C221.527 15.872 221.431 15.5093 221.09 15.168C220.748 14.8267 220.258 14.5493 219.618 14.336C218.978 14.1013 218.284 13.9733 217.538 13.952C216.684 13.9093 216.108 14.0053 215.81 14.24C215.511 14.4533 215.34 14.688 215.298 14.944C215.234 15.2213 215.362 15.4667 215.682 15.68C216.002 15.872 216.418 16.0533 216.93 16.224C217.463 16.3733 218.018 16.512 218.594 16.64C219.191 16.7467 219.735 16.8427 220.226 16.928C220.738 17.0133 221.132 17.0987 221.41 17.184C222.69 17.568 223.628 18.0693 224.226 18.688C224.823 19.2853 225.207 19.9253 225.378 20.608C225.57 21.2907 225.644 21.9627 225.602 22.624C225.559 23.6907 225.282 24.5867 224.77 25.312C224.279 26.016 223.66 26.5813 222.914 27.008C222.188 27.4347 221.42 27.7547 220.61 27.968C219.82 28.16 219.074 28.288 218.37 28.352C217.687 28.416 217.164 28.448 216.802 28.448C215.692 28.4267 214.647 28.3093 213.666 28.096C212.706 27.904 211.874 27.648 211.17 27.328C210.487 27.008 209.996 26.6667 209.698 26.304C209.484 26.048 209.282 25.6853 209.09 25.216C208.898 24.7467 208.78 24.2453 208.738 23.712C208.716 23.1573 208.834 22.6347 209.09 22.144C209.346 21.632 209.815 21.216 210.498 20.896C210.626 21.3227 210.967 21.7067 211.522 22.048C212.098 22.3893 212.78 22.6667 213.57 22.88C214.38 23.0933 215.18 23.2427 215.97 23.328C216.738 23.392 217.463 23.3813 218.146 23.296C218.828 23.2107 219.202 22.9653 219.266 22.56C219.308 22.3467 219.202 22.1333 218.946 21.92C218.69 21.7067 218.22 21.5253 217.538 21.376C216.812 21.2053 216.172 21.0773 215.618 20.992C215.084 20.8853 214.551 20.768 214.018 20.64C213.015 20.384 212.14 19.9787 211.394 19.424C210.647 18.8693 210.082 18.208 209.698 17.44C209.335 16.6507 209.207 15.8187 209.314 14.944C209.484 13.6853 209.943 12.6507 210.69 11.84C211.458 11.0293 212.407 10.4213 213.538 10.016C214.668 9.61067 215.852 9.408 217.09 9.408ZM264.604 5.632C264.646 5.99467 264.668 6.61333 264.668 7.488C264.689 8.34133 264.7 9.36533 264.7 10.56C264.7 11.7547 264.7 13.0133 264.7 14.336C264.7 15.6587 264.689 16.9707 264.668 18.272C264.668 19.5733 264.657 20.7573 264.636 21.824C264.636 22.8907 264.636 23.7653 264.636 24.448C264.636 25.1093 264.646 25.4827 264.668 25.568C264.71 25.7387 264.678 26.016 264.572 26.4C264.465 26.7627 264.294 27.1147 264.06 27.456C263.825 27.776 263.526 27.968 263.164 28.032C262.822 28.1173 262.342 28.1173 261.724 28.032C261.126 27.968 260.518 27.808 259.9 27.552C259.302 27.2747 258.822 26.88 258.46 26.368C258.246 26.0693 257.916 25.6427 257.468 25.088C257.041 24.512 256.561 23.8933 256.028 23.232C255.516 22.5493 255.004 21.8987 254.492 21.28C254.001 20.64 253.585 20.096 253.244 19.648C252.902 19.1787 252.689 18.8907 252.604 18.784C252.412 18.4853 252.092 18.1867 251.644 17.888C251.217 17.568 250.876 17.4507 250.62 17.536C250.364 17.6213 250.172 17.888 250.044 18.336C249.916 18.7627 249.83 19.2213 249.788 19.712C249.745 20.032 249.724 20.5227 249.724 21.184C249.724 21.824 249.724 22.4853 249.724 23.168C249.745 23.8507 249.745 24.4053 249.724 24.832C249.702 25.5787 249.937 26.2933 250.428 26.976C250.257 27.0827 249.916 27.2533 249.404 27.488C248.892 27.7013 248.348 27.8933 247.772 28.064C247.196 28.2347 246.705 28.3093 246.3 28.288C245.617 28.2453 245.009 27.8933 244.476 27.232C243.964 26.5707 243.697 25.7493 243.676 24.768C243.676 24.576 243.665 24.0427 243.644 23.168C243.644 22.272 243.633 21.1627 243.612 19.84C243.612 18.5173 243.612 17.088 243.612 15.552C243.612 14.016 243.601 12.5013 243.58 11.008C243.58 9.49333 243.569 8.11733 243.548 6.88C243.548 5.62133 243.548 4.61867 243.548 3.872C243.548 3.12533 243.548 2.752 243.548 2.752C244.849 2.70933 245.948 2.80533 246.844 3.04C247.74 3.27467 248.486 3.70133 249.084 4.32C249.34 4.55467 249.713 4.97067 250.204 5.568C250.694 6.16533 251.228 6.848 251.804 7.616C252.401 8.36267 252.977 9.10933 253.532 9.856C254.108 10.6027 254.609 11.264 255.036 11.84C255.462 12.3947 255.74 12.7573 255.868 12.928C256.209 13.3547 256.55 13.696 256.892 13.952C257.254 14.1867 257.553 14.2613 257.788 14.176C258.3 14.0053 258.556 13.2907 258.556 12.032L258.492 2.752C258.726 2.70933 259.132 2.69867 259.708 2.72C260.305 2.74133 260.934 2.83733 261.596 3.008C262.321 3.17867 262.982 3.46667 263.58 3.872C264.177 4.27733 264.518 4.864 264.604 5.632ZM285.186 2.528C285.442 2.74133 285.677 3.14667 285.89 3.744C286.104 4.32 286.21 4.928 286.21 5.568C286.189 6.16533 286.029 6.73067 285.73 7.264C285.453 7.79733 284.941 8.16 284.194 8.352C283.981 8.416 283.65 8.46933 283.202 8.512C282.754 8.53333 282.285 8.55467 281.794 8.576C281.325 8.576 280.92 8.58667 280.578 8.608C280.258 8.608 280.098 8.608 280.098 8.608C278.84 8.608 277.773 8.77867 276.898 9.12C276.024 9.46133 275.554 9.99467 275.49 10.72C275.426 11.424 275.501 11.904 275.714 12.16C275.949 12.416 276.248 12.6293 276.61 12.8C276.866 12.9067 277.304 12.96 277.922 12.96C278.562 12.9387 279.245 12.8747 279.97 12.768C280.696 12.6613 281.346 12.5333 281.922 12.384C282.52 12.2347 282.914 12.0853 283.106 11.936C283.384 12.1707 283.576 12.6187 283.682 13.28C283.789 13.92 283.778 14.5813 283.65 15.264C283.544 15.8187 283.33 16.3307 283.01 16.8C282.69 17.248 282.253 17.5573 281.698 17.728C281.25 17.856 280.898 17.9307 280.642 17.952C280.408 17.9733 280.216 17.9947 280.066 18.016C278.445 18.0587 277.25 18.5067 276.482 19.36C275.736 20.192 275.384 21.2693 275.426 22.592C275.448 23.1253 275.565 23.6373 275.778 24.128C276.013 24.5973 276.258 24.928 276.514 25.12C276.493 25.3333 276.44 25.568 276.354 25.824C276.269 26.0587 276.12 26.336 275.906 26.656C275.629 27.0613 275.256 27.4347 274.786 27.776C274.317 28.1173 273.709 28.2987 272.962 28.32C272.194 28.32 271.544 28.1493 271.01 27.808C270.477 27.4453 270.072 26.8373 269.794 25.984C269.538 25.1307 269.41 23.9573 269.41 22.464C269.41 22.4213 269.41 22.08 269.41 21.44C269.41 20.8 269.4 20 269.378 19.04C269.378 18.08 269.368 17.0773 269.346 16.032C269.346 14.9867 269.336 14.0267 269.314 13.152C269.314 12.256 269.314 11.5733 269.314 11.104C269.314 10.4 269.282 9.64267 269.218 8.832C269.154 8.02133 269.08 7.25333 268.994 6.528C268.909 5.78133 268.834 5.184 268.77 4.736C268.685 4.37333 268.621 4.02133 268.578 3.68C268.557 3.31733 268.546 2.99733 268.546 2.72C268.696 2.784 269.101 2.848 269.762 2.912C270.445 2.95466 271.234 2.99733 272.13 3.04C272.216 3.04 272.461 3.05067 272.866 3.072C273.293 3.09333 273.784 3.11467 274.338 3.136C274.893 3.136 275.426 3.14667 275.938 3.168C276.472 3.18933 276.877 3.2 277.154 3.2C277.496 3.2 277.933 3.2 278.466 3.2C279.021 3.2 279.586 3.2 280.162 3.2C280.738 3.17867 281.25 3.15733 281.698 3.136C282.36 3.09333 283.053 3.02933 283.778 2.944C284.504 2.83733 284.973 2.69866 285.186 2.528ZM310.557 2.24C310.813 2.45333 310.994 2.86933 311.101 3.488C311.229 4.10667 311.282 4.77867 311.261 5.504C311.24 6.208 311.133 6.848 310.941 7.424C310.749 7.97867 310.472 8.30933 310.109 8.416C309.96 8.45867 309.65 8.52267 309.181 8.608C308.733 8.672 308.317 8.75733 307.933 8.864C307.57 8.97066 307.09 9.152 306.493 9.408C305.896 9.664 305.384 10.0373 304.957 10.528C304.616 10.9333 304.338 11.36 304.125 11.808C303.912 12.2347 303.794 12.7893 303.773 13.472C303.752 13.7493 303.741 14.272 303.741 15.04C303.741 15.7867 303.741 16.6613 303.741 17.664C303.741 18.6453 303.741 19.616 303.741 20.576C303.762 21.536 303.773 22.3573 303.773 23.04C303.773 23.7227 303.773 24.128 303.773 24.256C303.752 24.896 303.816 25.44 303.965 25.888C304.114 26.336 304.274 26.6027 304.445 26.688C303.912 27.0933 303.378 27.4347 302.845 27.712C302.333 27.9893 301.597 28.192 300.637 28.32C300.274 28.3627 299.869 28.256 299.421 28C298.973 27.7653 298.578 27.392 298.237 26.88C297.917 26.3467 297.746 25.696 297.725 24.928C297.725 24.16 297.714 23.1787 297.693 21.984C297.693 20.768 297.693 19.456 297.693 18.048C297.714 16.6187 297.714 15.1893 297.693 13.76C297.672 13.1413 297.576 12.5547 297.405 12C297.256 11.4453 297 10.9653 296.637 10.56C296.274 10.1333 295.794 9.78133 295.197 9.504C294.6 9.22667 293.853 9.04533 292.957 8.96C292.722 8.93867 292.402 8.87467 291.997 8.768C291.592 8.66133 291.314 8.55467 291.165 8.448C290.93 8.27733 290.738 7.95733 290.589 7.488C290.44 6.99733 290.322 6.464 290.237 5.888C290.152 5.29067 290.088 4.704 290.045 4.128C290.024 3.552 290.024 3.08267 290.045 2.72C290.13 2.74133 290.365 2.77333 290.749 2.816C291.154 2.85867 291.634 2.90133 292.189 2.944C292.744 2.96533 293.288 2.98667 293.821 3.008C294.205 3.02933 294.717 3.05067 295.357 3.072C296.018 3.09333 296.722 3.11467 297.469 3.136C298.216 3.15733 298.92 3.17867 299.581 3.2C300.242 3.2 300.786 3.2 301.213 3.2C301.789 3.17867 302.461 3.15733 303.229 3.136C303.997 3.11467 304.733 3.09333 305.437 3.072C306.162 3.02933 306.738 2.98667 307.165 2.944C307.592 2.90133 308.04 2.848 308.509 2.784C309 2.69866 309.426 2.61333 309.789 2.528C310.173 2.42133 310.429 2.32533 310.557 2.24Z" fill="#FFFF00"/>
</g>
<defs>
<filter id="filter0_d_46_26" x="0.279785" y="0.23999" width="317.013" height="37.632" filterUnits="userSpaceOnUse" color-interpolation-filters="sRGB">
<feFlood flood-opacity="0" result="BackgroundImageFix"/>
<feColorMatrix in="SourceAlpha" type="matrix" values="0 0 0 0 0 0 0 0 0 0 0 0 0 0 0 0 0 0 127 0" result="hardAlpha"/>
<feOffset dx="2" dy="2"/>
<feGaussianBlur stdDeviation="2"/>
<feComposite in2="hardAlpha" operator="out"/>
<feColorMatrix type="matrix" values="0 0 0 0 0.0692708 0 0 0 0 0.310244 0 0 0 0 0.4375 0 0 0 1 0"/>
<feBlend mode="normal" in2="BackgroundImageFix" result="effect1_dropShadow_46_26"/>
<feBlend mode="normal" in="SourceGraphic" in2="effect1_dropShadow_46_26" result="shape"/>
</filter>
</defs>
</svg>
